<svg width="17" height="17" viewBox="0 0 17 17" fill="none" xmlns="http://www.w3.org/2000/svg">
<g id="iconoir:birthday-cake">
<g id="Group">
<path id="Vector" d="M2.90518 11.7298V14.1092C2.90518 14.4698 3.04844 14.8157 3.30343 15.0707C3.55842 15.3257 3.90426 15.4689 4.26487 15.4689H12.423C12.7836 15.4689 13.1294 15.3257 13.3844 15.0707C13.6394 14.8157 13.7827 14.4698 13.7827 14.1092V11.7298M2.22534 10.0302V9.35034C2.22534 8.98973 2.36859 8.64389 2.62358 8.3889C2.87857 8.13391 3.22442 7.99065 3.58503 7.99065H13.1028C13.4634 7.99065 13.8093 8.13391 14.0643 8.3889C14.3193 8.64389 14.4625 8.98973 14.4625 9.35034V10.0302M8.34393 5.95113V7.99065M8.34393 5.95113C9.20189 5.95113 9.70361 5.29304 9.70361 4.16654C9.70361 3.04004 8.34393 1.87207 8.34393 1.87207C8.34393 1.87207 6.98424 3.04004 6.98424 4.16654C6.98424 5.29304 7.48596 5.95113 8.34393 5.95113Z" stroke="#FF8B13" stroke-width="0.815811" stroke-linecap="round" stroke-linejoin="round"/>
<path id="Vector_2" d="M2.2251 10.0303C2.2251 10.5712 2.43998 11.09 2.82246 11.4724C3.20495 11.8549 3.72371 12.0698 4.26463 12.0698C4.80554 12.0698 5.3243 11.8549 5.70679 11.4724C6.08928 11.09 6.30415 10.5712 6.30415 10.0303C6.30415 10.5712 6.51903 11.09 6.90152 11.4724C7.284 11.8549 7.80276 12.0698 8.34368 12.0698C8.8846 12.0698 9.40336 11.8549 9.78585 11.4724C10.1683 11.09 10.3832 10.5712 10.3832 10.0303C10.3832 10.5712 10.5981 11.09 10.9806 11.4724C11.3631 11.8549 11.8818 12.0698 12.4227 12.0698C12.9637 12.0698 13.4824 11.8549 13.8649 11.4724C14.2474 11.09 14.4623 10.5712 14.4623 10.0303" stroke="#FF8B13" stroke-width="0.815811" stroke-linecap="round" stroke-linejoin="round"/>
</g>
</g>
</svg>
