<svg width="1135" height="1326" viewBox="0 0 1135 1326" fill="none" xmlns="http://www.w3.org/2000/svg">
<g style="mix-blend-mode:plus-darker" opacity="0.1">
<path opacity="0.3" d="M1247.49 744.866C1402.9 980.081 1147.28 1092.35 931.241 1076.36C806.947 1072.43 774.511 1221.01 620.505 1216.04C466.499 1211.08 580.634 1000.43 343.584 988.525C106.534 976.618 92.2286 582.855 275.162 518.735C458.095 454.614 387.738 410.494 526.91 211.896C666.081 13.2985 1039.21 104.853 1028.2 333.352C1017.18 561.851 1079.25 490.242 1247.49 744.866Z" stroke="#FF8B13" stroke-width="3"/>
<path d="M785.41 672.82C801.648 694.755 776.029 747.005 739.523 740.144C706.095 733.861 680.602 753.731 659.258 753.026C603.068 751.17 618.42 735.513 588.912 721.195C553.004 703.771 517.528 639.093 580.386 618.638C632.083 601.814 608.444 581.739 643.535 558.016C678.626 534.293 728.69 538.944 744.915 588.803C751.008 607.527 758.365 636.285 785.41 672.82Z" stroke="#FF8B13" stroke-width="3"/>
<path opacity="0.35" d="M1205.9 739.567C1348.66 955.393 1113.95 1062.21 914.229 1047.05C798.196 1042.91 766.391 1179.78 624.445 1175.2C479.332 1170.52 584.487 977.598 366.304 965.473C147.539 953.065 131.31 589.219 303.327 529.068C474.329 469.247 408.22 427.313 537.929 244.613C667.639 61.913 1011.4 145.567 1002.86 357.826C993.399 567.254 1050.5 504.77 1205.9 739.567Z" stroke="#FF8B13" stroke-width="3"/>
<path opacity="0.4" d="M1164.3 734.274C1294.41 930.711 1080.61 1032.07 897.214 1017.74C789.441 1013.38 758.267 1138.55 628.381 1134.36C492.16 1129.97 588.335 954.772 389.019 942.427C188.541 929.518 170.386 595.588 331.488 539.407C490.56 483.886 428.697 444.138 548.945 277.335C669.192 110.533 983.584 186.287 977.521 382.305C969.615 572.663 1021.74 519.303 1164.3 734.274Z" stroke="#FF8B13" stroke-width="3"/>
<path opacity="0.45" d="M1122.71 728.976C1240.16 906.024 1047.27 1001.93 880.197 988.428C780.685 983.855 750.142 1097.33 632.317 1093.52C504.988 1089.41 592.183 931.94 411.735 919.376C229.542 905.965 209.463 601.952 359.648 549.741C506.789 498.519 449.174 460.957 559.96 310.052C670.745 159.148 955.768 227.001 952.18 406.78C945.83 578.067 992.98 533.831 1122.71 728.976Z" stroke="#FF8B13" stroke-width="3"/>
<path opacity="0.5" d="M1081.12 723.681C1185.92 881.34 1013.94 971.786 863.184 959.117C771.933 954.33 742.021 1056.1 636.256 1052.69C517.82 1048.85 596.034 909.111 434.453 896.328C270.546 882.415 248.542 608.319 387.811 560.077C523.022 513.155 469.654 477.779 570.978 342.772C672.302 207.765 927.954 267.718 926.843 431.257C922.048 583.474 964.225 548.363 1081.12 723.681Z" stroke="#FF8B13" stroke-width="3"/>
<path opacity="0.55" d="M1039.24 717.515C1131.39 855.785 980.316 940.775 845.882 928.935C762.891 923.935 733.611 1014.01 639.906 1010.98C530.362 1007.43 599.595 885.412 456.882 872.409C311.261 857.995 287.333 613.816 415.686 569.543C538.966 526.921 489.845 493.731 581.707 374.622C673.569 255.512 899.852 307.565 901.218 454.864C897.978 588.011 935.18 562.023 1039.24 717.515Z" stroke="#FF8B13" stroke-width="3"/>
<path opacity="0.6" d="M997.033 710.328C1076.53 829.209 946.368 908.742 828.256 897.732C753.525 892.517 724.876 970.889 643.231 968.248C542.579 964.979 602.832 860.69 478.987 847.468C351.651 832.553 325.798 618.29 443.236 577.987C554.586 539.665 509.711 508.661 592.111 405.449C674.511 302.237 871.424 346.39 875.267 477.449C873.583 591.525 905.81 574.662 997.033 710.328Z" stroke="#FF8B13" stroke-width="3"/>
<path opacity="0.65" d="M954.804 703.097C1021.65 802.589 912.396 876.665 810.605 866.485C744.135 861.057 716.117 927.728 646.533 925.474C554.773 922.488 606.046 835.926 501.068 822.484C392.018 807.067 364.24 622.722 470.762 586.388C570.181 552.366 529.554 523.547 602.492 436.233C675.43 348.919 842.974 385.172 849.293 499.991C849.164 594.996 876.417 587.257 954.804 703.097Z" stroke="#FF8B13" stroke-width="3"/>
<path opacity="0.7" d="M912.552 695.771C966.746 775.874 878.401 844.493 792.931 835.143C734.721 829.502 707.335 884.472 649.81 882.606C566.943 879.902 609.236 811.066 523.125 797.406C432.361 781.487 402.659 627.058 498.264 594.694C585.753 564.971 549.372 538.339 612.849 466.923C676.325 395.506 814.499 423.858 823.294 522.437C824.721 598.372 847 599.758 912.552 695.771Z" stroke="#FF8B13" stroke-width="3"/>
<path opacity="0.8" d="M870.246 688.342C911.788 749.055 844.351 812.218 775.203 803.698C725.254 797.842 698.499 841.113 653.034 839.634C579.06 837.213 612.372 786.103 545.129 772.223C472.65 755.802 441.023 631.291 525.713 602.896C601.271 577.473 569.138 553.026 623.152 497.508C677.167 441.989 785.971 462.441 797.243 544.78C800.225 601.645 817.53 612.155 870.246 688.342Z" stroke="#FF8B13" stroke-width="3"/>
<path d="M827.887 680.721C856.777 722.046 810.249 779.752 757.422 772.061C715.733 765.992 689.609 797.563 656.206 796.47C591.123 794.332 615.455 760.949 567.079 746.849C512.886 729.927 479.335 635.332 553.108 610.908C616.736 589.784 588.85 567.523 633.403 527.903C677.955 488.282 757.389 500.833 771.138 566.932C775.676 604.726 788.006 624.361 827.887 680.721Z" stroke="#FF8B13" stroke-width="3"/>
</g>
</svg>
