<svg  viewBox="0 0 18 19" fill="none" xmlns="http://www.w3.org/2000/svg">
<g clip-path="url(#clip0_6778_18964)">
<path d="M4.6777 18.7506C4.53426 18.6512 4.49113 18.5153 4.49863 18.3433C4.50801 18.122 4.56379 17.8614 4.46957 17.6884C4.37957 17.522 4.12457 17.4452 3.94082 17.3298C3.63332 17.1372 3.32723 16.9417 3.01598 16.7552C2.87582 16.6712 2.81066 16.5625 2.81254 16.3975C2.81816 15.8936 2.81348 15.3897 2.81488 14.8858C2.81535 14.6242 2.91145 14.5309 3.17863 14.5309C3.92254 14.5305 4.66691 14.5309 5.41082 14.5309H5.62645C5.62645 14.4587 5.62645 14.3969 5.62645 14.335C5.62645 13.6084 5.62645 12.8819 5.62645 12.1558C5.62645 11.005 6.2091 10.2025 7.30691 9.83968C7.3327 9.83125 7.35707 9.81906 7.3852 9.80734C6.34926 8.74234 6.75191 7.43359 7.43441 6.85187C8.21113 6.19 9.36801 6.22047 10.1011 6.94C10.7808 7.6075 11.0054 8.84547 10.0444 9.8139C10.7471 10.0745 11.0916 10.7008 11.5252 11.2366C11.7094 11.4639 11.8941 11.6912 12.09 11.9083C12.1369 11.9603 12.2279 11.995 12.2996 11.9973C12.5982 12.0067 12.8972 11.9983 13.1958 12.0006C13.6946 12.0048 14.0639 12.3662 14.063 12.8458C14.0621 13.3239 13.6918 13.6844 13.1911 13.6867C12.541 13.6895 11.8904 13.6886 11.2402 13.6858C11.1549 13.6858 11.0696 13.6633 10.9768 13.6506V14.5314C11.0433 14.5314 11.1057 14.5314 11.168 14.5314C12.1932 14.5314 13.2183 14.5305 14.2439 14.5305C14.5444 14.5305 14.6274 14.6144 14.6274 14.9172C14.6274 15.4328 14.6232 15.9484 14.6297 16.4641C14.6321 16.637 14.5674 16.7495 14.4188 16.8339C13.966 17.0912 13.5183 17.358 13.0655 17.6148C12.9727 17.6673 12.931 17.725 12.9371 17.8342C12.9464 18.0034 12.9305 18.1745 12.9422 18.3437C12.9544 18.5158 12.908 18.6522 12.7632 18.7506H4.6777ZM12.3793 18.1802C12.3793 17.6214 12.3774 17.0823 12.3802 16.5437C12.3811 16.3483 12.4899 16.225 12.6535 16.2208C12.8246 16.2161 12.9371 16.3417 12.9399 16.5466C12.9422 16.7012 12.9399 16.8564 12.9399 17.0387C13.3172 16.8208 13.666 16.6206 14.0124 16.4158C14.04 16.3994 14.0625 16.3502 14.063 16.3159C14.0663 15.9137 14.0654 15.5111 14.0654 15.1042H3.37832C3.37832 15.4947 3.37738 15.8744 3.3802 16.2536C3.3802 16.2836 3.39895 16.3258 3.42238 16.3408C3.7716 16.5616 4.1227 16.7791 4.50191 17.0148C4.50191 16.8437 4.50098 16.7059 4.50191 16.5681C4.50379 16.3464 4.60879 16.2189 4.78504 16.2208C4.96082 16.2227 5.06301 16.3492 5.06348 16.5733C5.06441 17.0477 5.06348 17.522 5.06348 17.9969C5.06348 18.0583 5.06348 18.1202 5.06348 18.1811H12.3783L12.3793 18.1802ZM10.3955 14.5253C10.4021 14.4953 10.4063 14.4841 10.4063 14.4728C10.4072 14.1508 10.3913 13.8278 10.4133 13.5072C10.4335 13.2142 10.3739 12.9789 10.1391 12.7816C9.97832 12.6466 9.98488 12.4722 10.1086 12.3517C10.2286 12.2355 10.3927 12.2495 10.5422 12.3934C10.7658 12.6086 10.9847 12.8289 11.2111 13.0408C11.2571 13.0839 11.3297 13.1214 11.3902 13.1223C11.9935 13.1284 12.5963 13.1275 13.1996 13.1247C13.388 13.1237 13.4954 13.0197 13.4996 12.8528C13.5043 12.678 13.3936 12.5683 13.1982 12.565C12.9699 12.5612 12.7416 12.5678 12.5133 12.5645C11.8022 12.5547 11.9864 12.6587 11.5247 12.092C11.1586 11.6425 10.7939 11.1925 10.4246 10.7462C10.1738 10.4434 9.85176 10.3019 9.45332 10.3108C8.94988 10.322 8.44598 10.308 7.94254 10.3145C6.92441 10.3281 6.19176 11.0725 6.18895 12.092C6.18707 12.8472 6.18895 13.6028 6.18895 14.358C6.18895 14.4133 6.18895 14.4686 6.18895 14.5225H7.03223C7.03223 13.9811 7.03176 13.4495 7.03223 12.918C7.03223 12.6944 7.13395 12.5669 7.30926 12.565C7.48504 12.5631 7.59332 12.692 7.59379 12.9119C7.5952 13.3628 7.59473 13.8137 7.59473 14.2647C7.59473 14.35 7.59473 14.4358 7.59473 14.5262H10.3946L10.3955 14.5253ZM8.72207 6.93672C7.94254 6.93672 7.31629 7.56203 7.31582 8.34156C7.31582 9.11922 7.94441 9.74875 8.72207 9.74828C9.5002 9.74828 10.1283 9.11969 10.1279 8.34156C10.1279 7.56156 9.50207 6.93672 8.72207 6.93625V6.93672Z" fill="white"/>
<path d="M17.9985 4.47656C17.9699 4.62469 17.9446 4.77375 17.9128 4.92141C17.7862 5.50219 17.4876 5.99203 17.1107 6.4425C16.8857 6.71156 16.6692 6.98813 16.4531 7.26422C16.4043 7.32656 16.3734 7.40344 16.3279 7.48406C16.4812 7.53844 16.5993 7.60734 16.5937 7.78172C16.5881 7.96125 16.4634 8.02875 16.3124 8.07703C16.3124 8.39719 16.2942 8.71406 16.3167 9.02859C16.3546 9.56063 16.0106 9.97406 15.4696 10.0416C15.4884 10.38 15.4617 10.7091 15.1724 10.9491C15.0084 11.0855 14.8204 11.1572 14.6076 11.153C14.0906 11.1431 13.8299 10.7986 13.7718 10.0434C13.6917 10.0238 13.6063 10.0097 13.5257 9.98203C13.1826 9.86484 12.9421 9.53344 12.9379 9.16688C12.9337 8.80406 12.937 8.44125 12.937 8.07891C12.9201 8.08875 12.9028 8.09859 12.8859 8.10891C12.8099 8.00391 12.697 7.90828 12.6674 7.79156C12.6267 7.63078 12.764 7.54547 12.9426 7.48031C12.8128 7.29281 12.6998 7.11188 12.5695 6.94453C12.3459 6.65859 12.096 6.39281 11.8842 6.09938C10.4062 4.05234 11.6728 1.11844 14.1745 0.781406C14.2078 0.776719 14.2396 0.760781 14.272 0.75C14.5063 0.75 14.7407 0.75 14.9751 0.75C15.0084 0.760313 15.0407 0.774844 15.0745 0.78C16.5112 1.00125 17.422 1.83 17.8626 3.19734C17.9231 3.38438 17.954 3.58125 17.9985 3.77344V4.47656ZM15.7443 7.49391C15.8699 7.03078 16.1629 6.67359 16.4685 6.32438C16.5224 6.2625 16.5759 6.20063 16.6307 6.13922C17.3095 5.37656 17.5851 4.5 17.3624 3.49078C17.0596 2.11688 15.7551 1.17516 14.3695 1.32188C12.9229 1.47516 11.8148 2.68594 11.812 4.11047C11.8101 4.90125 12.1171 5.56406 12.6304 6.14719C12.989 6.55453 13.3631 6.95297 13.5098 7.49391H15.7443ZM13.4999 8.06906C13.4999 8.44594 13.4957 8.80266 13.5018 9.15891C13.5046 9.33609 13.6378 9.46313 13.821 9.46453C14.3596 9.46875 14.8982 9.46781 15.4363 9.46453C15.5962 9.46359 15.7293 9.37359 15.7378 9.22313C15.7584 8.84063 15.7448 8.45578 15.7448 8.06859H13.5004L13.4999 8.06906ZM14.3409 10.0378C14.3615 10.2356 14.2771 10.4531 14.4993 10.5502C14.5828 10.5867 14.7281 10.5713 14.8026 10.5192C14.9732 10.3997 14.8935 10.2084 14.9029 10.0378H14.3413H14.3409Z" fill="white"/>
<path d="M0 7.49944C0.013125 7.4746 0.0285937 7.45069 0.0389063 7.42491C0.16875 7.10522 0.410156 6.93647 0.757031 6.93506C1.44797 6.93272 2.13891 6.93366 2.82984 6.9346C3.05344 6.9346 3.18234 7.03585 3.18703 7.20881C3.19125 7.386 3.05437 7.49756 2.82422 7.49756C2.16234 7.4985 1.50094 7.49756 0.839062 7.49803C0.590156 7.49803 0.5625 7.52475 0.5625 7.76569C0.5625 8.71444 0.5625 9.66272 0.5625 10.6115C0.5625 10.8379 0.598125 10.8726 0.830156 10.8726C1.77891 10.8726 2.72719 10.8726 3.67594 10.8726C3.90188 10.8726 3.9375 10.8355 3.93844 10.6058C3.93891 10.3658 3.93656 10.1258 3.93937 9.88585C3.94172 9.68756 4.04531 9.56944 4.21219 9.56569C4.38703 9.56147 4.49766 9.68241 4.49953 9.88866C4.50187 10.1638 4.50469 10.439 4.49859 10.7141C4.49016 11.114 4.18172 11.4308 3.78281 11.4332C2.76422 11.4393 1.74516 11.4383 0.726562 11.4337C0.348281 11.4323 0.137344 11.1969 0 10.8744C0 9.74944 0 8.62444 0 7.49944Z" fill="white"/>
<path d="M0 1.87421C0.013125 1.84936 0.0285938 1.82546 0.0389063 1.79967C0.168281 1.47952 0.410625 1.31077 0.7575 1.30983C1.44891 1.30796 2.14031 1.30842 2.83172 1.30983C3.05531 1.30983 3.18469 1.41202 3.18703 1.58546C3.18984 1.76311 3.05344 1.87186 2.82188 1.87186C2.15391 1.8728 1.48594 1.87186 0.817969 1.87233C0.595781 1.87233 0.562969 1.90561 0.5625 2.12686C0.562031 3.08171 0.562031 4.03702 0.5625 4.99186C0.5625 5.20608 0.603281 5.24639 0.820313 5.24639C1.77516 5.24686 2.73047 5.24733 3.68531 5.24639C3.89719 5.24639 3.93703 5.20374 3.93797 4.98624C3.93891 4.74624 3.93609 4.50577 3.93891 4.26577C3.94125 4.05858 4.04953 3.93624 4.22297 3.93858C4.39594 3.94092 4.49766 4.06186 4.49906 4.27327C4.50094 4.53671 4.50234 4.80061 4.49906 5.06405C4.49344 5.49296 4.18359 5.80608 3.75188 5.80796C2.75016 5.81217 1.74797 5.81077 0.74625 5.80842C0.361406 5.80749 0.141094 5.57967 0 5.24921C0 4.12421 0 2.99921 0 1.87421Z" fill="white"/>
<path d="M7.88255 4.40258C8.70802 4.40258 9.53302 4.40164 10.3585 4.40352C10.5657 4.40352 10.6908 4.51414 10.6852 4.68664C10.6796 4.84367 10.5882 4.93273 10.4386 4.96086C10.3819 4.97164 10.3219 4.96648 10.2633 4.96648C8.67145 4.96648 7.07911 4.96648 5.48724 4.96648C5.44645 4.96648 5.4052 4.96789 5.36442 4.96555C5.18302 4.95523 5.06536 4.84648 5.06255 4.68805C5.05974 4.52164 5.1802 4.40445 5.37192 4.40398C6.16786 4.40164 6.9638 4.40258 7.7602 4.40258C7.80099 4.40258 7.84224 4.40258 7.88302 4.40258H7.88255Z" fill="white"/>
<path d="M7.16438 3.27755C7.74938 3.27755 8.33391 3.27708 8.91891 3.27755C9.15329 3.27755 9.2836 3.38302 9.27891 3.56396C9.27422 3.73786 9.14625 3.83958 8.92266 3.83958C7.75313 3.84052 6.58313 3.84052 5.4136 3.83958C5.19235 3.83958 5.06344 3.73365 5.06251 3.5588C5.06157 3.38255 5.18813 3.27849 5.40985 3.27802C5.99485 3.27708 6.57938 3.27802 7.16438 3.27802V3.27755Z" fill="white"/>
<path d="M2.24217 3.44899C2.63264 3.05805 3.00014 2.69008 3.36857 2.32258C3.41404 2.27711 3.45857 2.22789 3.51248 2.19555C3.63154 2.1243 3.75154 2.13743 3.85045 2.23446C3.94889 2.33102 3.96717 2.44914 3.89779 2.57102C3.87201 2.61602 3.83404 2.65446 3.79701 2.69149C3.37092 3.11852 2.94482 3.54508 2.51732 3.97118C2.31342 4.17414 2.18732 4.17368 1.98248 3.97024C1.73732 3.72696 1.49217 3.48321 1.24935 3.23711C1.10029 3.08618 1.08576 2.92774 1.20295 2.80399C1.32342 2.67649 1.49592 2.68774 1.64873 2.84102C1.84279 3.03555 2.03264 3.2343 2.2417 3.44899H2.24217Z" fill="white"/>
<path d="M2.24252 9.07024C2.61611 8.69806 2.97189 8.34368 3.32768 7.98884C3.37314 7.94337 3.41674 7.89509 3.46596 7.85431C3.5883 7.75259 3.74158 7.7554 3.84799 7.85618C3.96049 7.96259 3.96564 8.11962 3.85971 8.25134C3.83768 8.27853 3.81189 8.30243 3.78705 8.32728C3.36471 8.74962 2.94283 9.17243 2.51955 9.59431C2.31424 9.79915 2.18768 9.80009 1.98471 9.59899C1.73955 9.35571 1.49439 9.11196 1.25158 8.86587C1.09689 8.70931 1.08424 8.54243 1.21221 8.42009C1.33408 8.30384 1.49814 8.3179 1.6458 8.46415C1.8408 8.65821 2.03205 8.85603 2.24205 9.06978L2.24252 9.07024Z" fill="white"/>
<path d="M6.61877 2.15285C7.01627 2.15285 7.41424 2.15191 7.81174 2.15285C8.03486 2.15379 8.15815 2.25785 8.15486 2.43738C8.15158 2.60754 8.02736 2.71394 7.81877 2.71441C7.01158 2.71582 6.20486 2.71629 5.39768 2.71441C5.19049 2.71441 5.0644 2.60472 5.06252 2.43551C5.06065 2.26441 5.18486 2.15426 5.39111 2.15332C5.80033 2.15144 6.21002 2.15285 6.61924 2.15285H6.61877Z" fill="white"/>
<path d="M14.7348 5.15068C15.1937 4.7424 15.64 4.34678 16.0844 3.94881C16.1941 3.85037 16.3103 3.80068 16.45 3.87709C16.6398 3.98068 16.6431 4.20521 16.4561 4.37256C16.0291 4.75459 15.5997 5.13428 15.1712 5.5149C15.1361 5.54584 15.1009 5.57631 15.0658 5.60771C14.7583 5.881 14.7067 5.88006 14.3936 5.60021C14.1452 5.37803 13.8944 5.15865 13.6464 4.936C13.4819 4.78834 13.4594 4.62662 13.5812 4.49443C13.6961 4.36975 13.8583 4.37443 14.0148 4.51225C14.2516 4.7199 14.4864 4.93037 14.7353 5.15115L14.7348 5.15068Z" fill="white"/>
<path d="M14.8151 1.87409C14.8503 1.87409 14.8854 1.87174 14.9201 1.87409C15.0861 1.88628 15.1915 1.99784 15.1906 2.15815C15.1897 2.31565 15.0856 2.4319 14.9164 2.43987C14.4092 2.46424 14.0281 2.69112 13.7633 3.12425C13.6634 3.28784 13.5008 3.32768 13.3583 3.24143C13.2153 3.15471 13.1745 2.98971 13.272 2.82893C13.6231 2.24909 14.1359 1.92612 14.8151 1.87409Z" fill="white"/>
<path d="M13.2199 3.83305C13.2237 3.98587 13.1004 4.11665 12.9481 4.12134C12.799 4.12555 12.6645 3.99759 12.6603 3.84759C12.656 3.69477 12.7793 3.56634 12.9335 3.56259C13.0892 3.55884 13.2157 3.67837 13.2195 3.83352L13.2199 3.83305Z" fill="white"/>
</g>
<defs>
<clipPath id="clip0_6778_18964">
<rect width="18" height="18" fill="white" transform="translate(0 0.75)"/>
</clipPath>
</defs>
</svg>
