<svg width="744" height="787" viewBox="0 0 744 787" fill="none" xmlns="http://www.w3.org/2000/svg">
<path d="M739.108 453.523C700.139 753.107 462.388 881.575 157.336 841.894C-147.717 802.213 -315.134 609.495 -276.164 309.911C-237.194 10.3273 141.977 -343.293 393.109 -95.4765C641.585 203.76 771.32 205.897 739.108 453.523Z" fill="#FFEFDE"/>
<g opacity="0.14">
<mask id="mask0_2439_966" style="mask-type:alpha" maskUnits="userSpaceOnUse" x="-282" y="-180" width="1026" height="1029">
<path d="M739.108 453.523C700.139 753.107 462.388 881.575 157.336 841.894C-147.717 802.213 -315.134 609.495 -276.164 309.911C-237.194 10.3273 141.977 -343.293 393.109 -95.4765C641.585 203.76 771.32 205.897 739.108 453.523Z" fill="#FFEFDE"/>
</mask>
<g mask="url(#mask0_2439_966)">
<path d="M305.879 778.944C305.307 777.867 305.983 776.882 306.09 775.849C307.041 766.484 304.349 758.619 295.538 753.454C292.848 751.874 290.104 750.239 287.157 749.217C282.595 747.628 279.653 744.26 276.524 741.146C273.393 738.037 273.267 734.11 274.589 730.148C275.557 727.253 277.096 724.604 278.951 722.144C281.453 718.837 284.185 715.69 286.595 712.32C291.658 705.243 296.01 697.783 297.683 689.254C299.636 679.287 298.058 670.106 289.857 662.841C283.744 657.419 276.27 655.895 268.16 656.153C257.271 656.501 247.479 660.3 237.848 664.641C231.971 667.287 226.351 670.526 219.671 671.117C212.796 671.727 207.247 669.663 203.303 664.046C200.692 660.325 198.819 656.302 197.168 652.133C192.958 641.507 190.091 630.42 185.036 620.08C179.693 609.156 169.617 602.743 158.816 603.422C149.355 604.018 141.609 608.276 135.302 614.471C127.915 621.724 122.135 630.23 117.028 639.132C114.085 644.261 111.231 649.516 106.485 653.43C100.705 658.199 94.2629 659.563 87.6185 655.58C81.928 652.163 76.7659 648.111 71.1528 644.63C64.5063 640.505 57.7832 636.978 49.5161 637.075C36.7295 637.225 27.4132 643.735 19.2049 652.092C15.7945 655.562 12.9279 659.52 9.81826 663.256C8.9161 665.305 8.00791 667.352 7.12223 669.374C7.21308 669.513 7.27122 669.687 7.36809 669.829C7.44716 669.945 7.66835 670.134 7.67045 670.128C8.4939 669.443 9.49536 668.861 10.0911 668.023C16.3547 659.189 24.479 652.283 34.0725 646.901C41.4342 642.772 49.1763 640.783 57.5457 643.885C61.8919 645.492 66.0333 647.495 69.7286 650.295C73.8111 653.385 77.8397 656.585 82.2097 659.275C89.6824 663.873 97.6986 665.5 105.978 661.187C110.991 658.577 114.664 654.443 117.653 649.927C122.607 642.447 127.25 634.781 132.618 627.553C136.514 622.309 140.756 617.372 146.705 614.082C159.524 606.995 170.558 609.23 177.39 620.435C180.861 626.126 183.604 632.149 185.411 638.537C187.888 647.289 190.55 655.98 195.136 663.997C201.549 675.205 213.045 680.854 227.157 675.977C234.999 673.269 242.266 669.418 250.101 666.695C258.484 663.78 266.792 661.702 275.734 663.14C282.451 664.221 287.386 667.361 289.951 673.705C291.551 677.663 291.807 681.608 291.385 685.707C290.397 695.247 285.436 703.098 279.802 710.687C276.483 715.164 272.848 719.434 270.19 724.355C265.511 733.026 267.209 741.436 274.974 747.804C278.403 750.613 282.211 752.827 286.364 754.428C290.222 755.912 293.523 758.203 296.659 760.631C301.568 764.432 302.733 769.881 302.353 775.57C301.923 781.93 301.108 788.273 300.461 794.62C302.27 789.398 304.082 784.17 305.893 778.943L305.879 778.944Z" fill="#FF8B13"/>
<path d="M160.004 720.874C158.226 723.22 157.829 725.699 158.249 728.006C158.698 730.48 157.479 731.492 155.678 732.665C151.946 735.083 147.736 736.59 143.485 737.479C128.261 740.659 113.118 740.347 98.2256 735.45C95.7883 734.649 93.2926 733.665 90.0215 733.905C91.3393 736.189 93.2518 736.895 95.0011 737.74C98.6629 739.519 102.657 740.314 106.599 741.304C124.284 745.751 141.322 743.8 157.783 736.573C159.573 735.789 160.651 735.467 162.062 737.106C164.482 739.919 167.678 740.798 172.447 739.808C163.923 735.45 161.106 728.718 160.004 720.869V720.874Z" fill="#FF8B13"/>
<path d="M146.413 709.973C146.349 707.905 144.204 706.21 141.819 706.343C139.527 706.477 137.97 708.005 137.999 710.101C138.034 712.497 139.655 713.992 142.238 714.004C144.565 714.015 146.483 712.164 146.413 709.968V709.973Z" fill="#FF8B13"/>
<path d="M107.024 715.899C109.188 715.772 110.768 714.21 110.814 712.147C110.861 709.94 108.989 708.156 106.692 708.223C104.558 708.284 102.972 709.874 102.943 711.98C102.914 714.276 104.744 716.033 107.024 715.899Z" fill="#FF8B13"/>
<path fill-rule="evenodd" clip-rule="evenodd" d="M494.321 755.357C500.468 751.491 506.533 747.675 511.503 742.866L511.501 742.861C511.243 742.987 510.94 743.133 510.605 743.294C509.706 743.725 508.577 744.267 507.472 744.846C502.356 747.529 497.475 750.605 492.593 753.682C489.879 755.392 487.165 757.102 484.41 758.745L484.181 758.882L484.181 758.882C478.204 762.442 472.225 766.004 465.618 768.317C463.67 769 461.682 769.685 459.653 770.003C451.319 771.302 444.706 768.377 439.975 761.419C436.479 756.279 433.255 750.968 430.049 745.637C423.219 734.273 416.607 722.797 411.033 710.752L411.018 710.721C409.717 707.907 409.644 707.749 412.324 706.105C415.856 703.94 419.445 701.869 423.033 699.797L423.034 699.797L423.034 699.797L423.034 699.797L423.034 699.797C424.591 698.898 426.147 698 427.699 697.093C428.095 696.862 428.491 696.633 428.888 696.404C430.169 695.664 431.45 694.924 432.683 694.115C435.468 692.286 435.494 690.921 432.871 688.713C432.714 688.582 432.541 688.471 432.369 688.361C432.19 688.247 432.013 688.134 431.853 687.997C428.585 685.169 426.676 681.629 426.048 677.323C425.67 674.726 426.504 672.734 428.396 671.049C432.828 667.093 438.854 667.672 442.971 672.663C444.202 674.154 445.174 675.87 446.139 677.573C446.334 677.918 446.529 678.262 446.726 678.604C448.375 681.465 449.225 681.87 451.917 680.318C456.702 677.555 461.434 674.694 466.133 671.788C467.341 671.046 468.561 670.189 469.403 668.653C467.721 668.684 466.484 669.29 465.269 669.885L465.269 669.885L465.266 669.887C462.165 671.403 459.078 672.951 455.997 674.506C455.452 674.781 454.903 675.139 454.356 675.497C453.177 676.268 452.003 677.035 450.883 676.96C449.407 676.86 448.833 675.484 448.254 674.096C447.981 673.44 447.706 672.782 447.335 672.254C444.011 667.537 439.611 664.709 433.799 664.757C426.087 664.815 419.858 671.162 422.927 681.526C423.807 684.501 425.68 686.924 427.812 689.135C428.893 690.261 429.043 691.074 427.46 692.001C424.091 693.973 420.75 695.995 417.408 698.016L417.407 698.017C415.195 699.355 412.981 700.694 410.76 702.019C404.61 705.682 404.212 707.238 407.771 713.594C409.815 717.244 411.845 720.902 413.874 724.559C418.081 732.142 422.287 739.723 426.621 747.232C426.823 747.583 427.025 747.934 427.227 748.284C430.61 754.153 434 760.034 438.492 765.195C443.072 770.461 448.537 773.878 455.694 773.67C461.135 773.512 466.331 772.166 471.18 769.59C476.315 766.864 481.342 763.937 486.127 760.662C488.815 758.822 491.576 757.084 494.321 755.357L494.321 755.357ZM620.24 694.227C620.422 693.658 620.605 693.089 620.791 692.521L620.789 692.516L621.683 692.304C625.421 699.263 627.759 706.64 627.717 714.671C627.686 720.948 625.834 726.651 621.952 731.63C618.944 735.491 615.326 738.667 610.94 740.882C602.246 745.277 593.058 747.422 583.293 746.624C580.347 746.388 580.345 746.262 580.321 743.432L580.321 743.405C580.318 742.994 580.326 742.583 580.335 742.172L580.335 742.171L580.335 742.171C580.35 741.474 580.365 740.777 580.321 740.085C579.638 729.295 572.475 718.602 560.737 716.281C556.35 715.412 552.328 715.816 549.45 719.477C546.59 723.114 546.975 727.156 548.892 731.205C551.098 735.864 554.497 739.354 558.807 742.09C563.519 745.079 568.536 747.35 573.913 748.786C575.533 749.22 576.03 749.869 575.205 751.361C572.684 755.924 569.613 759.837 564.547 761.929C557.431 764.866 550.283 764.388 542.985 762.895C541.375 762.567 539.82 762.035 538.225 761.49L538.225 761.49L538.225 761.49L538.225 761.49L538.224 761.49C535.982 760.724 533.661 759.931 530.998 759.637C535.913 763.059 540.97 764.355 546.083 765.61C558.445 768.648 572.408 764.254 578.458 751.744C579.325 749.95 580.445 749.908 582.087 749.972C592.913 750.391 603.116 748.215 612.987 743.516C626.384 737.135 634.225 720.947 630.319 705.913C630.113 705.118 629.921 704.318 629.73 703.517C629.021 700.554 628.311 697.585 626.826 694.859C626.512 694.28 626.312 693.55 627.328 692.928C628.008 692.924 628.673 693.217 629.359 693.519C630.244 693.909 631.164 694.314 632.196 694.116C632.736 692.333 631.634 691.321 630.633 690.477C627.998 688.259 625.336 686.053 622.507 684.101C619.886 682.292 618.206 683.105 617.58 686.3C617.014 689.201 616.584 692.122 616.154 695.046L616.154 695.047L616.116 695.307C616 696.117 616.051 696.964 616.12 697.785C616.134 697.941 616.139 698.107 616.145 698.276C616.174 699.109 616.206 700.018 617.168 700.249C618.276 700.512 618.503 699.654 618.709 698.875C618.757 698.692 618.805 698.513 618.862 698.355C619.354 696.991 619.797 695.609 620.24 694.228L620.24 694.227ZM562.959 720.311C569.971 723.327 574.355 728.27 576.61 736.114L576.614 736.108C577.381 738.007 577.605 740.615 577.456 743.245C577.324 745.591 576.854 746.114 574.687 745.577C566.04 743.429 558.379 739.576 553.1 732.066C550.427 728.264 550.185 724.186 552.172 721.671C554.087 719.246 559.035 718.625 562.959 720.311ZM524.34 619.094C523.305 619.471 522.308 619.783 521.35 620.083C519.275 620.732 517.381 621.325 515.677 622.397C511.744 624.872 509.419 628.3 509.977 633.08C510.59 638.344 515.399 642.014 520.965 641.555C523.714 641.33 526.426 640.767 529.106 640.045C533.565 638.852 534.975 639.735 535.602 644.258C536.52 650.926 537.335 657.607 538.15 664.286L538.15 664.287L538.15 664.288L538.15 664.288L538.416 666.464L538.435 666.625C538.732 669.058 538.741 669.134 541.375 668.747C542.886 668.523 544.399 668.306 545.913 668.089L545.913 668.089L545.914 668.089L545.914 668.089L545.914 668.089C551.513 667.287 557.113 666.485 562.65 665.296C566.519 664.463 567.461 665.142 568.21 669.079L568.233 669.199C568.898 672.679 569.559 676.138 571.565 679.238C573.469 682.184 576.17 683.242 579.346 682.929C582.404 682.63 584.029 680.426 585.001 677.598C586.323 673.759 585.938 669.958 585.023 666.158C584.928 665.767 584.837 665.401 584.751 665.058L584.751 665.057C583.67 660.73 583.492 660.018 590.02 659.481C592.609 659.269 595.182 658.906 597.756 658.542C601.886 657.959 606.016 657.376 610.208 657.419C611.028 657.429 611.845 657.534 612.701 657.839C607.626 659.849 602.3 660.731 596.949 661.508C595.935 661.656 594.926 661.83 593.916 662.004L593.915 662.004C592.749 662.205 591.583 662.406 590.41 662.567C588.639 662.805 588.101 663.639 588.537 665.393C589.312 668.481 589.91 671.621 589.499 674.828C589.148 677.576 588.425 680.092 586.7 682.477C582.962 687.631 573.926 689.299 568.391 681.479C566.507 678.816 565.773 675.74 565.036 672.657C564.969 672.375 564.902 672.093 564.833 671.811C564.145 668.954 564.124 668.901 561.295 669.311C559.104 669.628 556.924 670.012 554.743 670.397C551.072 671.045 547.402 671.692 543.682 672.015C543.326 672.045 542.97 672.079 542.613 672.112L542.613 672.112L542.613 672.112L542.613 672.112C541.73 672.195 540.847 672.278 539.96 672.313C536.623 672.446 535.698 671.846 535.167 668.579C534.397 663.839 533.722 659.085 533.047 654.331L533.047 654.328C532.809 652.653 532.571 650.977 532.329 649.303C532.297 649.079 532.295 648.849 532.293 648.619L532.293 648.619C532.291 648.432 532.29 648.244 532.272 648.06L532.271 648.053C532.059 645.975 531.955 644.953 531.4 644.55C530.863 644.159 529.904 644.349 528.016 644.723L527.909 644.744C523.816 645.552 519.679 645.689 515.689 644.391C507.434 641.707 504.139 633.174 508.45 625.651C510.941 621.309 517.867 616.429 524.342 619.084L524.34 619.094ZM527.423 608.027L527.429 608.059L527.431 608.073C527.953 610.931 528.481 613.826 529.017 616.775L529.021 616.774C529.791 615.748 529.763 615.095 529.738 614.484L529.734 614.401C529.733 614.381 529.733 614.362 529.732 614.342C529.731 614.321 529.731 614.299 529.73 614.277C529.572 608.342 528.902 602.448 528.232 596.559L528.232 596.558L528.23 596.54C528.166 595.983 528.103 595.425 528.04 594.867C527.936 593.949 527.824 593.183 527.73 592.539C527.503 590.993 527.38 590.147 527.717 589.572C528.125 588.876 529.207 588.576 531.597 587.913C532.148 587.761 532.768 587.589 533.465 587.388C533.628 587.341 533.798 587.322 533.968 587.303C534.074 587.291 534.181 587.279 534.285 587.261C538.163 586.56 542.041 585.852 545.918 585.145L545.924 585.144C555.761 583.349 565.597 581.555 575.453 579.864C579.654 579.143 583.897 578.484 588.233 578.865C595.673 579.52 600.985 582.952 603.73 590.068C605.379 594.332 606.909 598.625 607.946 603.085C609.848 611.253 611.288 619.51 612.728 627.769L612.728 627.77L612.729 627.771C613.142 630.14 613.555 632.51 613.98 634.878C614.016 635.078 614.024 635.294 614.032 635.515L614.032 635.515C614.061 636.302 614.093 637.143 615.394 637.488C615.373 636.603 615.371 635.722 615.369 634.845L615.369 634.844L615.369 634.843C615.364 632.961 615.36 631.098 615.163 629.259C613.715 615.757 611.307 602.423 607.347 589.422C604.898 581.384 599.372 576.572 591.028 575.41C587.492 574.921 583.862 574.804 580.284 575.331L579.603 575.431L579.599 575.431C574.093 576.24 568.589 577.048 563.102 577.975C554.933 579.354 546.772 580.796 538.626 582.322C534.831 583.035 531.045 583.863 527.33 584.906C524.18 585.793 523.611 586.911 524.183 590.131C525.236 596.043 526.314 601.95 527.422 608.022L527.423 608.027ZM411.456 654.472L411.449 654.465C411.283 653.888 411.123 653.361 410.973 652.866C410.669 651.863 410.406 650.992 410.21 650.107C409.219 645.635 408.41 641.144 409.91 636.61C412.293 629.411 417.822 625.474 424.496 622.949C429.957 620.882 435.694 620.25 441.557 620.276C450.853 620.319 459.98 621.655 469.061 623.466C469.096 623.473 469.132 623.48 469.168 623.487C469.227 623.497 469.287 623.508 469.347 623.519C470.08 623.649 470.902 623.795 471.039 624.663C471.179 625.536 470.507 625.755 469.866 625.965C469.712 626.015 469.56 626.064 469.422 626.122C469.187 626.221 468.947 626.309 468.707 626.398C468.297 626.549 467.888 626.7 467.505 626.9C466.774 627.282 465.944 627.801 466.216 628.747C466.487 629.672 467.507 629.782 468.302 629.706C472.867 629.274 477.249 628.004 481.451 626.259C483.732 625.313 483.927 623.373 481.89 621.695C481.268 621.183 480.652 620.661 480.036 620.139C477.717 618.174 475.392 616.203 472.727 614.707C472.601 614.637 472.475 614.561 472.348 614.485C471.453 613.95 470.495 613.377 469.374 614.151C469.263 615.293 469.94 616.006 470.606 616.706C471.156 617.286 471.698 617.856 471.781 618.654C471.172 619.392 470.495 619.272 469.831 619.155L469.83 619.155C469.698 619.132 469.567 619.109 469.437 619.092C467.829 618.887 466.222 618.672 464.614 618.456L464.613 618.456C461.294 618.011 457.975 617.566 454.647 617.21C446.233 616.314 437.818 616.137 429.506 618.114C422.263 619.838 415.898 622.873 410.779 628.699C404.358 636.005 405.734 648.599 411.449 654.465L411.451 654.473L411.456 654.472ZM472.552 625.306C472.915 625.335 472.988 625.094 473.064 624.844C473.1 624.726 473.137 624.607 473.205 624.513C473.098 624.481 472.991 624.446 472.883 624.41L472.883 624.41C472.635 624.327 472.387 624.244 472.134 624.211C471.722 624.158 471.662 624.42 471.602 624.683C471.575 624.799 471.548 624.916 471.492 625.006C471.577 625.049 471.656 625.11 471.736 625.172C471.959 625.343 472.185 625.518 472.549 625.312L472.552 625.306ZM512.464 730.31C513.233 731.412 514.044 732.537 516.109 733.389L516.105 733.376C515.89 732.87 515.722 732.443 515.575 732.071C515.308 731.393 515.113 730.899 514.842 730.453C514.203 729.406 513.567 728.358 512.932 727.309C510.706 723.637 508.481 719.965 506.125 716.379C503.42 712.263 503.864 712.037 506.576 710.661C506.827 710.534 507.098 710.397 507.387 710.245C511.596 708.046 514.427 704.511 516.363 700.26C518.595 695.362 517.588 690.117 513.78 686.08C509.971 682.039 505.61 681.158 500.175 683.184C497.807 684.066 495.721 685.385 493.707 686.849L493.656 686.886C491.012 688.811 490.87 688.915 489.009 686.287C487.195 683.727 485.47 681.106 483.746 678.485C482.59 676.729 481.434 674.972 480.252 673.234C480.083 672.987 479.92 672.734 479.755 672.479C478.912 671.171 478.03 669.806 476.273 668.961C476.305 669.241 476.321 669.474 476.334 669.673C476.358 670.028 476.375 670.274 476.469 670.484C479.645 677.389 483.663 683.817 487.678 690.24C488.127 690.959 488.576 691.678 489.025 692.398C490.366 694.546 491.918 694.503 493.68 692.367C495.855 689.735 498.49 687.811 501.602 686.537C506.101 684.697 510.249 686.186 512.466 690.473C514.664 694.731 513.987 698.773 511.116 702.477C508.963 705.256 506.046 707.123 503.062 708.892C499.637 710.924 499.498 711.451 501.653 714.615C505.233 719.863 508.829 725.097 512.464 730.31Z" fill="#FF8B13"/>
<g clip-path="url(#clip0_2439_966)">
<path d="M151.962 223.015C150.534 223.015 149.101 223.005 147.668 223C149.096 223.412 150.529 223.452 151.962 223.015Z" fill="#FF8B13"/>
<path d="M112.815 469.516C108.819 465.821 101.004 465.183 96.2564 469.858C98.8447 469.622 101.655 469.185 104.47 469.155C108.804 469.115 112.482 472.509 112.755 476.781C112.956 479.929 112.255 482.886 109.919 485.276C107.634 487.616 104.99 489.448 102.17 491.08C97.6994 493.665 92.9366 495.638 88.2798 497.827C74.9551 504.088 61.6103 510.304 48.3007 516.604C46.6963 517.363 45.5914 517.363 44.6076 515.771C43.2907 513.647 41.8478 511.604 40.5158 509.49C37.4785 504.681 34.4715 499.846 31.4494 495.021C34.2092 503.134 37.973 510.72 42.2211 518.086C42.8064 519.1 43.2302 520.214 43.9012 521.163C44.9507 522.644 44.2897 523.764 43.1142 524.512C39.3958 526.882 35.7631 529.412 31.6411 531.109C29.9863 531.792 28.7804 531.39 27.7916 530.04C27.1861 529.211 26.6009 528.358 26.0761 527.474C17.3982 512.814 8.69506 498.164 0.077673 483.468C-2.52066 479.035 -4.98782 474.517 -7.31371 469.938C-8.76171 467.081 -8.40349 465.841 -6.18356 463.677C-5.44694 462.959 -4.63969 462.297 -3.79208 461.719C3.86165 456.468 5.24407 455.097 11.2076 464.767C15.0622 471.017 18.7504 477.373 23.4475 483.062L23.5636 483.117L23.4425 483.012C21.4092 475.857 17.1762 469.802 13.5083 463.471C12.0653 460.986 12.0451 461.137 14.6838 459.892C21.8583 456.503 27.7108 451.814 29.7088 443.685C31.3233 437.113 30.1275 430.908 27.0852 424.928C23.8007 418.477 18.6394 413.687 13.2611 409.073C11.142 407.256 8.79092 405.684 7.22183 403.305C4.81522 399.655 5.44588 396.316 9.07346 393.786C13.0946 390.984 17.5799 390.472 22.1812 391.717C29.6432 393.735 35.0669 398.605 39.5068 404.68C43.0889 409.58 45.5006 415.118 47.9879 420.601C48.6741 422.117 49.224 423.708 50.667 424.948C51.4036 423.287 50.8839 422.052 50.6014 420.771C48.7094 412.211 43.9668 405.202 38.4573 398.61C34.2798 393.61 29.0579 390.095 22.7261 388.504C16.5506 386.948 10.6678 387.741 5.64265 391.983C1.24819 395.693 0.683108 400.488 3.84652 405.313C5.15325 407.306 6.8283 408.953 8.57902 410.529C10.2187 412.005 11.9392 413.401 13.584 414.872C19.1489 419.842 23.8613 425.38 25.8188 432.811C27.0852 437.61 26.2376 441.968 23.9874 446.371C21.0056 452.195 15.3196 454.655 10.5871 458.325C6.14718 453.33 4.63863 453.46 -0.361271 455.584C-3.04033 456.719 -5.56803 458.391 -7.8586 460.203C-12.7475 464.069 -13.2419 466.996 -10.1694 472.418C-5.10891 481.35 -0.0181885 490.266 5.15325 499.138C10.1834 507.768 15.2842 516.363 20.4557 524.909C22.1206 527.66 23.7604 530.436 26.0005 532.836C27.9631 534.94 30.0266 535.517 32.7208 534.513C37.6097 532.69 41.979 530.004 46.1313 526.917C47.6348 525.802 48.6438 524.421 48.5278 522.463C48.437 520.882 49.3603 520.154 50.6821 519.567C54.1735 518.02 57.6396 516.419 61.0856 514.772C74.9147 508.175 88.7339 501.558 102.553 494.936C106.867 492.867 110.656 490.106 113.653 486.365C117.699 481.31 117.3 473.638 112.825 469.506L112.815 469.516Z" fill="#FF8B13"/>
<path d="M158.641 353.049C161.027 349.002 163.555 345.026 165.674 340.844C168.232 335.798 167.45 333.237 162.743 329.999C159.201 327.564 155.291 325.812 151.154 324.617C148.581 323.874 145.987 324.065 144.267 326.269C142.698 328.277 141.442 327.805 139.877 326.515C139.201 325.958 138.384 325.566 137.673 325.049C128.404 318.291 126.089 309.48 130.892 299.107C131.876 296.979 133.092 294.98 134.439 293.032C137.506 288.594 141.906 285.557 145.791 281.967C152.466 275.797 151.472 268.336 143.445 264.094C135.962 260.138 128.712 261.523 122.027 265.705C112.431 271.705 107.093 280.893 104.121 291.561C103.935 292.229 103.743 292.967 104.192 293.68C105.423 292.817 106.175 291.632 106.674 290.241C107.719 287.319 109.227 284.618 110.817 281.972C114.828 275.295 119.873 269.772 127.35 266.689C133.248 264.254 138.611 265.083 143.732 268.447C147.541 270.952 147.889 275.024 144.57 278.141C141.997 280.556 139.227 282.765 136.568 285.095C132.748 288.434 129.651 292.37 127.638 296.999C122.138 309.646 123.329 319.079 134.196 327.037C134.671 327.383 135.11 327.79 135.528 328.197C136.992 329.623 139.55 330.245 140.089 332.128C140.634 334.021 138.722 335.873 138.283 337.876C138.197 338.263 138.339 338.439 138.727 338.379C141.361 336.094 143.545 333.333 145.473 330.386C146.931 328.157 148.762 327.609 151.159 328.518C154.045 329.618 157.062 330.476 159.781 331.887C164.145 334.146 164.65 335.667 162.38 339.94C159.146 346.025 155.72 352.02 152.198 357.944C145.448 369.315 138.571 380.612 131.76 391.943C130.397 394.213 129.197 396.587 127.703 398.766C125.71 401.673 123.632 402.296 120.443 400.91C118.294 399.976 116.185 398.842 114.273 397.491C110.282 394.669 109.903 392.38 112.365 388.148C116.286 381.42 120.211 374.693 124.101 367.945C124.605 367.066 124.959 366.082 125.246 365.108C125.337 364.807 125.064 364.179 124.792 364.049C124.484 363.898 123.859 363.994 123.591 364.235C123.056 364.712 122.628 365.324 122.234 365.932C118.374 371.826 114.353 377.63 110.766 383.689C109.384 386.029 108.158 386.235 105.837 385.462C97.8652 382.816 89.9188 380.11 82.0381 377.203C74.7173 374.502 67.3966 371.791 60.3533 368.422C53.8297 365.304 47.5181 361.92 42.4828 356.468C37.4678 351.04 37.9269 340.814 46.0095 338.489C46.5443 338.333 47.1649 338.268 47.5887 337.108C43.8804 336.395 41.2619 337.706 39.163 340.281C35.7171 344.509 35.8129 349.188 37.5687 353.993C39.713 359.867 44.395 363.441 49.5059 366.494C60.8175 373.242 73.123 377.815 85.4184 382.374C91.493 384.628 97.6331 386.712 103.738 388.891C105.595 389.553 107.224 390.292 106.992 392.852C106.846 394.479 107.729 396.005 108.899 397.19C112.36 400.694 116.316 403.38 121.195 404.63C124.641 405.514 127.229 404.495 129.313 401.728C130.725 399.851 132.153 397.998 133.349 395.96C141.749 381.641 150.22 367.367 158.651 353.074L158.641 353.049Z" fill="#FF8B13"/>
<path d="M96.5482 427.549C95.1355 419.356 88.5009 415.44 80.055 417.247C70.5749 419.275 62.6033 424.306 55.666 431.28C60.9182 429.608 65.3379 426.706 69.9796 424.251C73.6525 422.308 77.492 420.766 81.6645 420.556C85.4788 420.365 89.1719 421.253 91.3212 424.718C93.4857 428.207 92.5926 431.746 90.5089 435.09C89.177 437.234 87.512 439.071 85.7209 440.824C84.7522 441.773 83.8743 442.937 84.8128 444.308C85.615 445.478 86.9419 445.106 88.072 444.835C90.9378 444.142 93.7833 443.234 96.7651 443.54C103.314 444.208 108.95 447.742 107.047 456.558C106.775 457.833 106.159 459.179 106.578 460.695C108.763 459.862 109.6 458.346 110.196 456.664C111.891 451.894 109.575 445.824 105.09 442.842C101.644 440.548 97.7742 439.91 93.5765 439.815C93.6471 437.831 94.6814 436.867 95.1708 435.673C96.2354 433.057 97.0376 430.371 96.5482 427.549Z" fill="#FF8B13"/>
<path d="M57.8155 338.484C54.6823 335.828 51.9932 332.941 50.3837 329.226C47.5634 322.699 50.7268 316.654 57.6691 315.148C59.5712 314.736 61.4481 314.661 63.3704 314.967C64.6771 315.178 65.999 315.303 67.3208 315.414C67.9061 315.464 68.5166 315.344 68.8849 314.811C69.4197 314.043 68.9757 313.376 68.4813 312.853C66.6649 310.92 64.9546 308.897 63.6933 306.563C60.1313 299.991 63.6832 292.866 71.1149 291.606C73.7788 291.154 76.4074 291.41 78.9906 292.108C82.9966 293.188 86.6948 294.97 90.2921 296.993C91.8511 297.867 93.3395 299.032 95.4484 299.052C94.9742 297.48 93.8743 296.938 92.9005 296.336C87.164 292.791 81.483 289.613 74.3792 288.815C63.5621 287.6 57.2302 297.52 59.4501 304.238C60.1817 306.452 61.1656 308.566 62.2352 311.312C54.2484 312.196 47.6138 314.339 46.7713 323.231C46.1759 329.502 51.0043 335.973 57.8104 338.484H57.8155Z" fill="#FF8B13"/>
<path d="M-23 287.083C-8.44933 298.214 5.55645 310.107 23.8407 317.061C9.7592 303.51 -6.90546 295.698 -23 287.083Z" fill="#FF8B13"/>
<path d="M135.968 503.31C134.353 502.2 132.557 501.311 130.231 501.392C133.879 507.271 153.849 521.399 167.955 527.996C165.246 525.31 162.098 523.116 159.267 520.621C151.967 514.189 143.945 508.787 135.968 503.31Z" fill="#FF8B13"/>
<path d="M137.123 465.872C152.819 468.723 167.814 470.892 183 470.235C172.153 465.816 143.828 462.824 137.123 465.872Z" fill="#FF8B13"/>
<path d="M35.6924 288.072C35.3695 287.836 34.9659 287.63 34.8196 287.314C31.4342 279.999 25.2285 275.119 19.3608 270.058C16.4143 267.518 13.1803 265.289 10.4558 262.457C8.99769 260.946 7.39329 259.575 5.37012 258.797C10.5617 265.76 16.4244 272.051 22.5645 278.101C26.515 281.992 30.7329 285.506 35.6874 288.072H35.6924Z" fill="#FF8B13"/>
<path d="M35.8034 288.158C35.7681 288.82 36.0304 289.172 36.7469 289.056L36.8679 289.162L36.762 289.041C36.8578 288.323 36.5501 288.022 35.8286 288.148C35.7832 288.122 35.7378 288.097 35.6924 288.072C35.7277 288.097 35.7681 288.127 35.7983 288.158H35.8034Z" fill="#FF8B13"/>
<path d="M-12.2842 331.254C-4.88776 335.968 2.48344 340.728 12.6548 340.954C7.61957 336.109 -1.07855 332.77 -12.2842 331.254Z" fill="#FF8B13"/>
<path d="M141.497 486.451C148.455 491.436 156.164 493.279 164.685 494.584C158.469 489.719 148.651 486.31 141.497 486.451Z" fill="#FF8B13"/>
<path d="M155.261 436.707C149.071 436.546 142.87 436.476 137.174 439.98C143.859 441.567 149.52 438.991 155.261 436.707Z" fill="#FF8B13"/>
<path d="M49.1475 258.37C50.2272 263.541 52.2049 268.256 56.2361 272.568C55.4289 266.599 52.7347 262.256 49.1475 258.37Z" fill="#FF8B13"/>
<path d="M112.315 513.984C112.931 519.466 116.367 522.388 119.813 525.581C118.279 518.864 116.831 516.575 112.315 513.984Z" fill="#FF8B13"/>
<path d="M151.426 342.761C152.839 342.691 153.46 341.762 153.5 340.347C153.197 339.071 152.37 338.283 150.998 338.549C149.696 338.8 148.934 339.744 149.151 341.11C149.343 342.31 150.311 342.812 151.421 342.756L151.426 342.761Z" fill="#FF8B13"/>
<path d="M1.0665 470.099C1.07154 471.253 1.89897 471.901 3.06444 471.861C4.20973 471.821 4.89084 471.158 5.07752 470.008C4.99175 468.874 4.40145 468.08 3.25112 468.01C1.87375 467.93 1.05641 468.778 1.0665 470.099Z" fill="#FF8B13"/>
</g>
<path fill-rule="evenodd" clip-rule="evenodd" d="M409.5 33.1511C413.655 35.4217 417.51 38.112 420.504 41.8027L420.508 41.799C424.247 46.4039 426.218 51.6158 424.903 57.637C424.405 59.9151 423.521 62.0883 422.265 64.0779C422.411 64.3515 422.336 64.4676 422.025 64.4227C418.616 69.6083 413.4 72.0775 407.754 73.8648C406.839 74.1534 405.892 74.3428 404.948 74.5314L404.948 74.5314C404.507 74.6195 404.067 74.7075 403.632 74.8053C401.919 75.3942 400.193 75.2505 398.471 75.107C397.651 75.0387 396.831 74.9705 396.015 74.9814C395.741 75.2587 395.471 75.5397 395.202 75.8207C395.226 75.9962 395.249 76.1709 395.273 76.3451L395.306 76.5874C395.322 76.7078 395.338 76.8282 395.355 76.9485C395.458 77.0848 395.56 77.222 395.661 77.3592L395.662 77.3607L395.663 77.3621C395.765 77.4993 395.867 77.6365 395.97 77.7728L396.086 77.7428L395.955 77.7915C396.202 78.2075 396.449 78.6234 396.697 79.0355L396.79 78.9531L396.723 79.0542C398.877 83.4119 400.413 87.8744 399.878 92.884C399.327 98.0622 396.479 101.329 391.713 102.896C386.205 104.705 381.132 103.45 376.621 99.9431C375.231 98.8637 373.913 97.6909 372.524 96.454C371.869 95.8705 371.197 95.2727 370.495 94.6638C369.997 95.9089 369.714 97.1651 369.438 98.3942L369.438 98.3944C369.113 99.8393 368.797 101.247 368.149 102.555C363.904 111.135 357.527 116.804 347.687 117.902C344.311 118.28 341.153 117.546 338.185 115.995C331.579 112.54 327.282 107.029 324.438 100.284C324.184 99.6787 324.076 99.0101 323.968 98.3431C323.918 98.0359 323.868 97.7291 323.805 97.429C323.861 97.5039 323.917 97.5676 323.977 97.6163C323.917 97.5639 323.861 97.5002 323.805 97.429C322.902 96.5939 322.724 95.4885 322.548 94.3952C322.508 94.1445 322.467 93.8944 322.418 93.6484C322.107 92.0971 321.414 92.5656 320.679 93.0623C320.64 93.0888 320.601 93.1154 320.561 93.1417C320.538 93.1571 320.515 93.1724 320.492 93.1875C314.797 99.9769 307.401 102.914 298.685 102.319C289.708 101.704 284.084 93.8544 284.324 85.7237C284.481 80.3544 287.089 75.8956 289.966 71.5867C291.971 68.5817 294.084 65.6591 297.561 64.1266C297.668 64.0796 297.773 64.0279 297.878 63.9762C298.357 63.7398 298.833 63.505 299.476 63.7295C298.363 67.008 296.235 69.6383 294.002 72.1487C290.611 75.9556 288.752 80.4444 287.879 85.3603C286.879 90.9843 289.809 96.2337 295.197 98.7142C296.001 99.0841 296.856 99.348 297.71 99.6113C298.11 99.7347 298.509 99.8579 298.903 99.9919C300.037 99.9937 301.17 99.9965 302.302 99.9993L302.348 99.9994H302.357H302.365C303.501 100.002 304.636 100.005 305.771 100.007C310.05 98.7854 314.198 97.3166 317.525 94.1505C317.999 93.6994 318.575 93.3535 319.149 93.0085L319.149 93.0083L319.149 93.0083C319.415 92.8489 319.68 92.6898 319.934 92.5206C320.187 91.8397 320.711 91.4745 321.277 91.0803C321.701 90.7847 322.149 90.4727 322.523 89.9989C322.778 90.958 323.116 91.8527 323.445 92.7239C324.047 94.3204 324.62 95.8382 324.603 97.5302C327.001 102.69 329.822 107.621 334.378 111.154C343.378 118.131 353.577 116.759 361.195 108.085C365.092 103.649 367.13 98.4669 367.355 92.558C367.365 92.2981 367.345 92.0191 367.324 91.7364C367.256 90.7842 367.184 89.7893 368.261 89.3357C369.625 88.7639 370.495 89.8234 371.226 90.7134C371.319 90.8264 371.41 90.9367 371.499 91.0405C373.713 93.6221 375.98 96.1026 378.82 98.0322C382.421 100.479 386.291 101.622 390.612 100.546C394.059 99.6846 396.382 97.6051 397.356 94.1017C398.177 91.1529 397.974 88.2341 397.124 85.3603C396.715 83.9757 396.216 82.6201 395.717 81.2645L395.717 81.2634C395.497 80.6677 395.278 80.072 395.067 79.4739L395.044 79.5001C394.748 78.9381 394.456 78.3798 394.171 77.8253C392.852 76.2628 392.047 74.4456 391.312 72.2349C393.448 72.7445 395.389 73.2091 397.322 73.6737C403.677 73.8236 409.384 71.8752 414.588 68.3232C422.715 62.7778 424.401 52.3464 418.155 44.2269C414.906 40.0079 410.44 37.5125 405.738 35.3393C405.243 35.1108 404.734 34.9084 404.217 34.7248L404.042 34.663C402.726 34.1987 401.294 33.6932 401.286 32.0645C401.279 30.4647 402.743 29.7653 404.004 29.1631L404.048 29.142C406.899 27.7781 409.661 26.2644 412.31 24.537C416.386 21.8767 419.433 18.5008 420.399 13.5249C421.452 8.0882 418.62 2.53907 413.441 0.485771C409.931 -0.90807 406.326 -1.39517 402.527 -0.510902C399.001 0.309666 395.509 1.15272 392.11 2.68894C394.696 -3.22365 395.988 -9.33108 395.303 -15.7607C394.872 -19.7999 393.403 -23.3594 390.462 -26.2782C387.296 -29.4181 383.301 -30.0326 379.206 -29.7216C372.222 -29.1933 367.205 -25.4052 363.829 -19.399C363.135 -18.1662 362.576 -16.8596 362.016 -15.5526L362.016 -15.5526L362.016 -15.5525C361.759 -14.9527 361.502 -14.3528 361.232 -13.7599L361.281 -13.7487C361.168 -13.3305 361.058 -12.9118 360.948 -12.4932C360.67 -11.4337 360.391 -10.3747 360.074 -9.32733L360.052 -9.25185C359.807 -8.4447 359.529 -7.52757 358.49 -7.48761C357.429 -7.44264 357.039 -8.23698 356.852 -9.17745C356.717 -9.86001 356.5 -10.5141 356.281 -11.172L356.281 -11.1721L356.281 -11.1722L356.281 -11.1723C356.058 -11.8433 355.834 -12.5184 355.694 -13.2316C354.076 -21.516 345.154 -28.2191 335.997 -23.1009C332.595 -21.2012 330.68 -18.0501 329.627 -14.3482C328.327 -9.7882 327.956 -5.1458 328.406 -0.0837555C326.91 -1.07667 326.087 -2.46588 325.289 -3.81356C324.898 -4.47471 324.512 -5.12587 324.056 -5.71533C323.19 -6.8322 322.198 -7.80845 321.207 -8.78327L321.207 -8.78331C320.572 -9.40767 319.938 -10.0314 319.338 -10.6912V-10.665C319.058 -10.8763 318.777 -11.0886 318.497 -11.3009L318.495 -11.3022C318.214 -11.5147 317.933 -11.7273 317.652 -11.9389L317.424 -11.9089L317.544 -12.0775C316.491 -12.4487 315.509 -12.9633 314.525 -13.4793L314.525 -13.4794C313.622 -13.9532 312.716 -14.4281 311.751 -14.794C302.316 -18.3723 293.957 -11.0471 294.95 -1.96095C295.362 1.8309 296.913 5.19935 299.776 7.85215L299.858 7.92872L299.858 7.92878C299.992 8.05233 300.124 8.17506 300.252 8.30552C300.301 8.35602 300.352 8.40695 300.403 8.45834L300.403 8.45896C301.3 9.36451 302.335 10.4096 301.87 11.629C301.465 12.6973 300.067 12.7638 298.922 12.8184L298.921 12.8184C298.829 12.8228 298.739 12.827 298.652 12.8318C293.859 13.0903 289.322 14.3942 285.223 16.7585C278.666 20.5391 274.398 26.077 273.233 33.7769C271.798 43.2715 278.314 53.9314 286.576 57.682C288.242 58.4394 289.921 59.1746 291.785 59.9905L291.786 59.9912L291.786 59.9913C292.679 60.382 293.613 60.7912 294.609 61.2303C290.101 61.2678 286.568 59.9339 283.331 58.0342C274.256 52.7136 269.441 44.6578 270.052 34.1553C270.663 23.6528 276.751 16.6948 286.321 12.7119C289.618 11.3368 293.02 10.2239 296.812 9.81927C296.175 8.11818 295.384 6.96414 294.564 5.81759C291.686 1.79343 291.327 -2.74779 292.32 -7.36396C293.384 -12.3248 296.542 -15.6071 301.398 -17.2258C307.004 -19.0917 312.369 -18.3573 316.937 -14.8165C317.121 -14.6737 317.306 -14.5307 317.492 -14.3873C320.005 -12.4503 322.625 -10.4306 324.258 -7.51758C324.58 -6.94311 325.027 -6.43824 325.489 -5.91641L325.489 -5.91638L325.489 -5.91633L325.489 -5.91628C325.705 -5.67234 325.924 -5.42472 326.135 -5.16454C327.079 -5.72939 326.996 -6.53334 326.917 -7.31018V-7.31022V-7.31026C326.9 -7.47125 326.884 -7.63107 326.877 -7.78736C326.716 -11.3394 327.375 -14.6816 328.649 -18.0426C332.621 -28.5189 345.552 -31.3178 353.742 -23.5505C353.978 -23.3257 354.214 -23.0971 354.45 -22.8686C354.454 -22.8648 354.563 -22.9585 354.563 -22.9585L354.488 -22.8536C355.341 -22.0097 355.88 -20.9536 356.429 -19.8792C356.979 -18.8021 357.539 -17.7065 358.433 -16.7874C359.542 -17.7671 360.105 -18.9497 360.654 -20.0994L360.655 -20.1014L360.656 -20.1049C360.698 -20.1933 360.74 -20.2815 360.783 -20.3694C364.102 -27.2524 369.513 -31.3216 377.018 -32.7229C384.958 -34.2067 395.224 -29.7441 397.165 -19.0393C398.184 -13.4302 397.401 -8.22199 395.213 -3.1C395.144 -2.93785 395.058 -2.78139 394.973 -2.62505C394.75 -2.21423 394.527 -1.80424 394.595 -1.294C394.724 -1.1124 394.854 -0.931744 394.984 -0.751083L394.986 -0.747616C395.116 -0.567856 395.245 -0.388096 395.374 -0.207405C399.953 -2.12581 404.61 -3.48218 409.683 -2.75529C413.827 -2.15953 417.454 -0.630802 420.287 2.52033C420.864 3.16479 421.433 3.89919 421.737 4.69352C423.592 9.52701 424.086 14.1544 421.467 19.1415C418.68 24.4509 414.401 27.617 409.286 30.1162C408.844 30.3331 408.474 30.6979 408.101 31.066C407.926 31.2382 407.75 31.4111 407.566 31.5699C407.747 32.3989 408.371 32.6592 408.97 32.9088L408.97 32.9089C409.154 32.9853 409.335 33.0607 409.5 33.1511ZM301.897 100.558C302.181 100.576 302.47 100.58 302.755 100.576C302.47 100.584 302.181 100.576 301.897 100.558ZM395.052 79.4964L395.055 79.4889C395.055 79.4889 395.055 79.4926 395.052 79.4964ZM399.083 74.8353C399.106 74.8353 399.128 74.8353 399.151 74.839C399.128 74.839 399.106 74.839 399.083 74.8353ZM369.049 30.4533C369.037 32.0233 367.741 33.271 366.141 33.2598V33.256C364.706 33.2485 363.53 31.9596 363.608 30.4871C363.672 29.2993 365.189 27.8118 366.403 27.7481C367.756 27.6769 369.06 29.0108 369.049 30.4533ZM342.296 33.1022C342.307 31.5922 340.864 30.1497 339.366 30.1759C337.972 30.1984 336.754 31.5697 336.818 33.0423C336.874 34.3462 338.302 35.5377 339.782 35.5152C341.265 35.4927 342.288 34.5148 342.296 33.1059V33.1022ZM346.282 46.8825C346.673 47.2593 347.067 47.6382 347.147 48.2288H347.155L347.248 48.1726L347.162 48.2288C347.441 48.4212 347.713 48.6281 347.986 48.8351C348.578 49.2852 349.17 49.7357 349.83 50.0385C354.986 52.399 358.635 50.8778 360.932 46.6626C361.113 46.3303 361.273 45.9837 361.433 45.6371C361.954 44.5102 362.475 43.3832 363.701 42.7471C365.129 46.1193 362.678 51.0427 358.617 53.006C353.701 55.3816 347.795 53.3995 345.229 48.5135C344.63 48.5725 344.502 48.1678 344.382 47.7895C344.342 47.6634 344.302 47.5402 344.247 47.4382C343.839 46.6738 343.479 45.546 344.382 45.1863C345.188 44.8641 345.922 45.7071 346.087 46.6925C346.151 46.7565 346.216 46.8195 346.282 46.8825Z" fill="#FF8B13"/>
<g clip-path="url(#clip1_2439_966)">
<path d="M550.679 126.131C558.09 128.096 563.199 124.998 563.54 118.923C564.086 118.524 564.567 118.932 565.031 119.11C568.104 120.279 572.215 119.246 574.245 116.762C575.018 115.818 575.505 114.749 575.626 113.521C575.728 112.486 576.172 112.087 577.268 112.427C578.25 112.734 579.268 112.483 580.252 112.256C584.071 111.373 585.844 108.806 585.02 104.955C584.387 101.999 583.562 99.067 582.599 96.2006C581.486 92.8942 580.243 89.6193 578.847 86.4222C576.557 81.1859 572.537 80.347 568.121 84.0433C567.85 84.2686 567.558 84.4698 567.277 84.6831C563.791 79.9497 557.996 81.0441 554.096 85.9704C549.99 80.5966 544.556 79.9541 539.972 87.4828C538.693 86.4758 538.248 84.9251 537.435 83.6744C533.496 77.6087 527.963 73.8328 521.152 71.7249C504.459 66.5616 488.936 69.4016 474.38 78.4384C467.679 82.5983 462.171 88.0177 458.541 95.1434C455.744 100.63 454.592 106.57 454.371 112.673C453.998 122.966 455.455 133.008 459.433 142.572C462.071 148.91 466.422 153.976 471.867 158.1C479.404 163.807 488.115 165.786 497.311 166.479C502.29 166.854 507.205 166.656 512.048 165.734C518.512 164.499 524.813 162.658 530.647 159.446C534.912 157.098 538.915 154.454 542.316 150.923C548.925 144.061 552.026 135.989 550.679 126.131ZM546.859 119.652C547.139 120.136 547.317 120.345 547.389 120.583C550.892 132.321 547.549 143.412 538.018 151.803C533.678 155.625 528.53 157.976 523.25 159.997C511.297 164.571 498.983 165.317 486.596 161.995C475.499 159.018 466.94 152.493 462.263 141.746C457.265 130.255 455.936 118.235 458.173 105.895C459.118 100.684 461.049 95.8833 464.239 91.6144C467.572 87.1544 471.755 83.7278 476.428 80.7438C487.065 73.9537 498.64 71.1046 511.187 72.3114C515.564 72.7327 519.801 73.9035 523.901 75.6321C531.087 78.6633 535.169 84.4576 538.325 91.2187C541.691 98.4289 543.675 106.06 545.585 113.731C545.957 115.225 545.785 116.258 544.643 117.393C538.722 123.272 532.587 128.873 525.131 132.765C519.659 135.623 513.923 137.674 507.599 137.496C500.278 137.291 495.694 130.959 497.967 124.229C498.378 123.015 498.875 122.412 500.339 122.753C501.931 123.122 503.61 123.284 505.244 123.251C509.512 123.158 513.593 122.317 517.087 119.648C517.449 119.373 517.816 119.096 518.139 118.775C519.678 117.239 520.458 115.46 519.584 113.297C518.761 111.26 517.017 110.529 515.005 110.341C508.531 109.734 503.5 112.573 499.288 117.131C497.395 119.184 496.393 119.381 494.446 117.323C491.825 114.557 490.997 111.312 492.209 107.656C493.636 103.354 496.935 100.772 500.71 98.7571C505.275 96.3223 510.167 94.9106 515.366 94.5921C516.389 94.5311 517.552 94.694 518.41 93.7551C517.773 92.6783 516.819 92.852 515.931 92.908C513.006 93.0953 510.082 93.3769 507.238 94.0476C501.433 95.4169 496.157 97.7947 492.338 102.637C487.611 108.633 488.423 115.729 494.548 120.255C495.935 121.28 495.992 122.067 495.42 123.414C492.525 130.261 496.512 139.478 506.978 140.131C511.238 140.399 515.344 139.532 519.348 138.151C527.617 135.299 534.572 130.303 541.121 124.674C542.981 123.076 544.656 121.263 546.857 119.649L546.859 119.652ZM551.757 87.772C552.019 88.4304 552.523 89.5219 552.896 90.6535C555.508 98.5968 557.986 106.577 560.007 114.696C560.387 116.222 560.636 117.752 560.628 119.307C560.615 121.634 559.332 123.192 557.006 123.854C554.11 124.678 552.301 124.177 550.957 122.09C550.005 120.611 549.441 118.947 549.008 117.255C547.167 110.046 545.349 102.834 543.533 95.6184C542.969 93.3742 542.684 91.0954 543.045 88.803C543.424 86.3843 544.706 85.0663 546.849 84.6769C548.737 84.3334 550.292 85.2245 551.756 87.7692L551.757 87.772ZM563.325 113.391L563.26 113.429C562.925 112.773 562.538 112.14 562.264 111.46C559.793 105.305 558.131 98.9066 556.564 92.4833C556.307 91.4336 556.38 90.3168 556.231 89.2594C556.034 87.8743 556.659 86.9574 557.466 86.0989C560.44 82.9424 564.209 83.1967 565.646 86.7951C568.605 94.2146 571.432 101.692 573.099 109.536C573.289 110.428 573.405 111.359 573.388 112.266C573.344 114.684 572.163 116.176 569.853 116.908C567.628 117.613 565.693 116.982 564.299 115.05C563.924 114.534 563.647 113.942 563.327 113.387L563.325 113.391ZM500.496 120.295C500.688 119.778 500.722 119.493 500.874 119.307C503.813 115.696 507.695 113.692 512.189 112.808C513.431 112.565 514.729 112.606 515.948 113.147C517.324 113.76 517.694 114.676 517.005 115.982C516.53 116.884 515.773 117.554 514.934 118.115C513.322 119.192 511.491 119.804 509.646 120.242C506.665 120.948 503.64 120.918 500.499 120.294L500.496 120.295Z" fill="#FF8B13"/>
</g>
<path d="M116.847 129.606C121.43 132.515 126.466 134.204 131.741 135.253C132.382 134.902 133.27 135.159 133.76 134.426C133.548 134.342 133.333 134.255 133.119 134.172L133.016 134.283C133.016 134.283 133.014 134.123 133.017 134.122C130.866 133.759 129.158 132.333 127.142 131.614C123.492 130.315 120.218 128.288 117.056 126.06C115.644 125.064 114.512 123.83 113.611 122.377C111.635 119.189 111.578 115.606 113.434 113.374C115.29 111.142 118.437 110.593 121.993 111.855C124.504 112.743 126.576 114.318 128.698 116.27C128.775 115.227 128.813 114.389 128.903 113.556C129.229 110.537 129.703 107.557 131.507 105.006C133.558 102.107 137.512 101.554 139.58 102.958C140.938 103.881 142.095 104.927 142.879 106.363C144.898 110.058 145.328 114.069 145.001 118.169C144.821 120.391 144.322 122.59 143.968 124.797L144.094 124.892C144.094 124.892 143.943 124.968 143.943 124.965C143.779 125.931 143.616 126.897 143.453 127.866C143.825 128.245 144.172 128.671 144.798 128.466C145.099 127.282 145.776 126.182 145.582 124.886C145.436 124.54 145.573 124.367 145.917 124.322C147.279 122.068 147.39 119.519 147.51 116.998C147.726 112.307 147.161 107.781 144.467 103.732C140.742 98.136 133.784 97.9391 129.889 103.303C128.16 105.682 127.469 108.34 127.365 111.222C127.346 111.732 127.624 112.352 126.715 112.694C125.269 111.524 123.732 110.293 121.878 109.591C115.705 107.248 108.451 110.884 109.448 119.369C109.593 120.603 110.041 121.739 110.609 122.837C112.075 125.671 114.175 127.912 116.847 129.606Z" fill="#FF8B13"/>
<path d="M134.153 149.565C128.208 156.224 126.885 163.686 129.778 172.066C130.034 172.175 130.288 172.287 130.544 172.395C129.705 165.979 130.258 159.854 133.707 154.17C135.877 150.59 141.684 146.769 146.343 148.392C148.612 149.182 150.52 150.506 152.125 152.252C157.1 157.667 159.322 164.313 160.341 171.417C161.347 178.44 161.263 185.492 160.636 192.539L160.762 192.607C160.762 192.607 160.647 192.703 160.646 192.7C160.598 193.314 160.549 193.932 160.504 194.552C160.828 195.119 160.947 195.876 161.798 195.948C162.347 193.108 163.261 190.365 163.549 187.45C164.314 179.692 163.805 172.03 161.72 164.526C160.141 158.842 157.573 153.608 153.338 149.365C147.268 143.278 138.8 144.362 134.153 149.565Z" fill="#FF8B13"/>
<path d="M122.88 202.483C115.997 199.402 110.301 194.97 107.828 187.418C105.912 181.569 107.528 174.761 114.257 171.814C117.276 170.493 120.46 170.604 123.637 171.347C124.125 170.855 123.925 170.243 123.914 169.667C123.02 169.398 122.135 169.07 121.223 168.865C113.691 167.174 106.646 171.901 105.009 178.441C102.897 186.896 106.3 193.679 112.329 199.125C117.352 203.662 123.612 206.137 130.147 207.778C135.909 209.222 141.709 209.483 147.551 208.453C148.161 208.017 148.02 207.408 147.918 206.806C145.624 207.181 143.296 206.837 141.027 206.709C134.781 206.353 128.644 205.065 122.881 202.486L122.88 202.483Z" fill="#FF8B13"/>
<path d="M168.931 113.391C166.589 118.831 166.916 124.306 169.069 129.593C173.071 139.421 180.365 146.503 188.775 152.552C189.255 152.485 189.734 152.418 190.217 152.354C188.794 150.597 187.261 148.946 185.633 147.37C181.844 143.703 178.309 139.815 175.368 135.4C172.212 130.662 170.117 125.614 170.364 119.773C170.552 115.293 172.132 111.615 176.317 109.649C180.497 107.687 184.332 109.084 187.394 112.02C190.164 114.674 192.473 117.851 193.273 121.823C193.663 121.6 194.053 121.38 194.442 121.161C193.7 116.417 191.578 112.441 187.987 109.256C181.4 103.411 172.12 105.982 168.931 113.394L168.931 113.391Z" fill="#FF8B13"/>
<path d="M221.071 118.533C219.016 108.626 208.884 106.883 202.829 110.854C199.076 113.314 196.489 116.593 195.33 120.976C195.621 120.93 195.916 120.882 196.208 120.842C197.129 118.062 199.249 116.181 201.21 114.224C204.436 111.003 209.203 110.094 213.118 111.897C217.28 113.815 218.87 117.447 219.039 121.752C219.322 129.061 216.069 135.073 211.761 140.575C208.824 144.325 205.686 147.912 202.637 151.569C203.246 151.93 203.861 151.733 204.472 151.583C204.643 151.373 204.785 151.124 204.992 150.957C212.045 145.254 217.443 138.35 220.467 129.648C221.745 125.972 221.861 122.336 221.07 118.529L221.071 118.533Z" fill="#FF8B13"/>
</g>
</g>
<defs>
<clipPath id="clip0_2439_966">
<rect width="206" height="312" fill="white" transform="translate(-23 223)"/>
</clipPath>
<clipPath id="clip1_2439_966">
<rect width="98.3452" height="131.847" fill="white" transform="matrix(0.50039 0.8658 0.8658 -0.50039 435.126 101.082)"/>
</clipPath>
</defs>
</svg>
