<svg viewBox="0 0 19 19" fill="none" xmlns="http://www.w3.org/2000/svg">
<g clip-path="url(#clip0_6779_18965)">
<path d="M13.8544 13.7762C13.8544 14.3374 13.8544 14.898 13.8544 15.4592C13.8544 15.8588 13.7943 15.9202 13.3965 15.9275C13.3616 15.928 13.3267 15.9309 13.2831 15.9333V16.5085C13.3751 16.5085 13.4692 16.5037 13.5627 16.5095C13.7357 16.5201 13.8486 16.6246 13.8515 16.7973C13.8578 17.1843 13.8578 17.5713 13.8515 17.9584C13.8486 18.1306 13.7362 18.2346 13.5641 18.2486C13.5341 18.251 13.5036 18.2496 13.4735 18.2496C9.83881 18.2496 6.20412 18.251 2.56893 18.2486C1.58417 18.2481 0.785992 17.6241 0.560156 16.6827C0.519932 16.5143 0.502485 16.3363 0.502485 16.1626C0.500062 11.5538 0.499093 6.9454 0.501031 2.33655C0.501516 1.13584 1.38644 0.252486 2.58783 0.251518C5.93854 0.249099 9.28876 0.250067 12.6395 0.251034C13.362 0.251034 13.853 0.746895 13.8539 1.47545C13.8554 3.10236 13.8559 4.72927 13.852 6.35617C13.852 6.4805 13.8898 6.56564 13.9732 6.65804C15.0272 7.83215 15.2846 9.16444 14.7394 10.6448C14.689 10.7812 14.7045 10.8552 14.8043 10.9544C15.8986 12.0414 16.9895 13.1313 18.0775 14.2242C18.6207 14.7698 18.6411 15.5666 18.1347 16.0968C17.6108 16.6454 16.784 16.6478 16.2238 16.093C15.4886 15.3654 14.7602 14.6315 14.0299 13.8991C13.9833 13.8526 13.9489 13.7941 13.9087 13.7414C13.8903 13.753 13.8724 13.7646 13.8539 13.7757L13.8544 13.7762ZM7.47044 9.53162C7.42295 8.25834 7.83488 7.19212 8.79832 6.37504C9.75788 5.56086 10.8745 5.32236 12.104 5.57199V2.00324H11.5321C11.5321 2.40573 11.5321 2.79758 11.5321 3.18944C11.5321 3.64901 11.5311 4.10811 11.5321 4.56769C11.5321 4.70798 11.4856 4.83715 11.3465 4.86375C11.2486 4.88262 11.1289 4.84392 11.0329 4.7999C10.9607 4.767 10.9108 4.68524 10.8512 4.62574C10.5018 4.27646 10.1524 3.9267 9.79568 3.57016C9.74043 3.62144 9.69585 3.66014 9.65417 3.70174C9.30766 4.04764 8.96067 4.39305 8.61562 4.74039C8.50852 4.84827 8.39802 4.93874 8.23373 4.87246C8.06266 4.80328 8.04618 4.65767 8.04667 4.49754C8.04957 3.7298 8.04812 2.96206 8.04812 2.19433V2.00662H3.99277V9.53162H7.47044ZM2.83596 0.839295V14.1705H13.2738C13.2738 13.9808 13.2525 13.8023 13.2782 13.6311C13.332 13.2716 13.2026 13.0089 12.9254 12.7879C12.8309 12.7124 12.7689 12.694 12.6579 12.74C10.652 13.5658 8.36603 12.5208 7.67399 10.4653C7.63619 10.3526 7.60178 10.2389 7.56446 10.1213H7.35559C6.17019 10.1213 4.98528 10.1213 3.79988 10.1213C3.49408 10.1213 3.40394 10.0299 3.40394 9.71884C3.40394 7.08231 3.40394 4.44578 3.40394 1.80925C3.40394 1.50157 3.49457 1.41208 3.80473 1.41208C5.14715 1.41208 6.48956 1.41208 7.83198 1.41208H8.0394V0.839779H2.83596V0.839295ZM2.23309 14.2067V0.877029C1.57206 0.976685 1.08161 1.59397 1.08161 2.32639C1.08064 6.41906 1.08113 10.5117 1.08161 14.6044C1.08161 14.6547 1.0884 14.705 1.09421 14.7829C1.42909 14.4641 1.80322 14.2822 2.23357 14.2067H2.23309ZM13.27 17.0885H13.0398C9.59262 17.0885 6.14596 17.0885 2.69881 17.0885C2.62612 17.0885 2.55342 17.0905 2.48122 17.0866C2.0276 17.06 1.66704 16.6812 1.6622 16.2279C1.65735 15.7238 2.0499 15.3475 2.58735 15.3475C6.07084 15.3465 9.55385 15.3475 13.0373 15.3475C13.113 15.3475 13.189 15.3475 13.2646 15.3475V14.7669H13.0611C9.58972 14.7669 6.11882 14.7669 2.64744 14.7669C2.58105 14.7669 2.51417 14.7665 2.44778 14.7698C1.71017 14.8071 1.10391 15.4258 1.0821 16.1626C1.05738 16.9928 1.69854 17.6671 2.53598 17.6681C6.06745 17.672 9.59941 17.67 13.1309 17.6695C13.1764 17.6695 13.222 17.6608 13.269 17.656V17.0895L13.27 17.0885ZM11.2437 12.4424C13.0034 12.4439 14.4326 11.0115 14.4345 9.24329C14.4365 7.50318 13.0034 6.06204 11.266 6.05721C9.49473 6.05237 8.05054 7.47609 8.0486 9.22927C8.04667 11.0095 9.46953 12.4405 11.2433 12.4424H11.2437ZM12.6841 15.927H12.4931C9.21704 15.927 5.94096 15.927 2.66537 15.927C2.62903 15.927 2.59268 15.9261 2.55682 15.9275C2.36975 15.9362 2.24763 16.047 2.24423 16.211C2.24036 16.3818 2.36684 16.4993 2.56312 16.5071C2.59946 16.5085 2.63581 16.5071 2.67167 16.5071C5.94145 16.5071 9.21171 16.5071 12.4815 16.5071H12.6845V15.9265L12.6841 15.927ZM14.294 13.3287C14.294 13.3287 14.2974 13.3432 14.3051 13.3514C15.0989 14.1463 15.8913 14.943 16.6895 15.7335C16.863 15.9052 17.0854 15.9638 17.3263 15.9101C17.6079 15.8477 17.7998 15.6779 17.8841 15.3987C17.9713 15.1104 17.8909 14.8608 17.683 14.6528C16.9071 13.8744 16.1283 13.0979 15.3505 12.3215C15.3388 12.3099 15.3209 12.3041 15.3185 12.3026C14.9773 12.6447 14.6415 12.9809 14.294 13.3292V13.3287ZM10.9384 3.90106V0.846068H8.64033V3.89525C8.93547 3.59919 9.20735 3.32682 9.47874 3.05446C9.73898 2.79371 9.84269 2.7942 10.1073 3.06027C10.3758 3.33021 10.6423 3.6016 10.9379 3.90154L10.9384 3.90106ZM13.2738 6.05962C13.2738 5.90288 13.2738 5.77033 13.2738 5.6373C13.2738 4.24743 13.2743 2.85805 13.2738 1.46819C13.2738 1.13391 13.0868 0.863483 12.7902 0.844616C12.3773 0.818493 11.9615 0.837844 11.5447 0.837844V1.41159C11.7919 1.41159 12.0269 1.41159 12.2619 1.41159C12.6167 1.41159 12.6933 1.48996 12.6933 1.85037C12.6933 3.10091 12.6923 4.35193 12.6967 5.60246C12.6967 5.66826 12.7257 5.76356 12.7737 5.79452C12.9239 5.89176 13.0897 5.96432 13.2738 6.05914V6.05962ZM14.8479 11.8658C14.6933 11.7052 14.5319 11.5378 14.3958 11.3961C14.0585 11.7323 13.7178 12.0719 13.3921 12.3965C13.5317 12.5436 13.6926 12.7129 13.8452 12.874C14.184 12.5334 14.5193 12.1962 14.8479 11.8663V11.8658Z" fill="white"/>
<path d="M11.2425 11.8609C9.79783 11.8609 8.62891 10.6897 8.62891 9.24132C8.62891 7.80163 9.80752 6.6343 11.258 6.63672C12.6789 6.63914 13.8537 7.81663 13.8537 9.23891C13.8537 10.6883 12.6862 11.8609 11.2425 11.8609ZM12.1119 9.53497C12.1119 8.8427 12.1148 8.16688 12.1061 7.49106C12.1056 7.44558 12.0261 7.38172 11.9704 7.35947C10.8238 6.89747 9.51674 7.59265 9.25601 8.804C9.20416 9.04395 9.1775 9.28873 9.24341 9.53497H12.1119ZM9.44356 10.1203C9.55648 10.6597 10.3774 11.2301 11.1015 11.278C12.0068 11.3375 12.8456 10.7913 13.1524 9.94182C13.4146 9.21665 13.2018 8.23751 12.7041 7.88097C12.7007 7.89161 12.694 7.90274 12.694 7.91338C12.693 8.49342 12.693 9.07297 12.6925 9.65301C12.6925 10.0565 12.6271 10.1203 12.2166 10.1203C11.2924 10.1203 10.3687 10.1203 9.44308 10.1203H9.44356Z" fill="white"/>
</g>
<defs>
<clipPath id="clip0_6779_18965">
<rect width="18" height="18" fill="white" transform="translate(0.5 0.25)"/>
</clipPath>
</defs>
</svg>
