<svg width="54" height="54" viewBox="0 0 54 54" fill="none" xmlns="http://www.w3.org/2000/svg">
<g id="fearture Icon ">
<circle id="Ellipse 265" cx="27" cy="27" r="27" fill="#FF8B13"/>
<g id="Group">
<path id="Vector" d="M26.9976 15.813C26.9995 15.1732 26.8734 14.5395 26.6268 13.9491C26.3802 13.3588 26.018 12.8237 25.5616 12.3753C25.1052 11.927 24.5637 11.5744 23.969 11.3384C23.3743 11.1024 22.7384 10.9877 22.0987 11.001C21.4591 11.0144 20.8285 11.1555 20.2442 11.4161C19.6599 11.6767 19.1335 12.0515 18.6962 12.5184C18.2588 12.9854 17.9192 13.5351 17.6974 14.1353C17.4756 14.7354 17.3761 15.3738 17.4046 16.013C16.4644 16.2548 15.5914 16.7073 14.852 17.3364C14.1125 17.9655 13.5259 18.7546 13.1366 19.6439C12.7472 20.5333 12.5653 21.4996 12.6047 22.4696C12.6441 23.4397 12.9038 24.388 13.364 25.2429C12.5548 25.9002 11.9186 26.7453 11.5105 27.7046C11.1025 28.6639 10.935 29.7084 11.0227 30.7472C11.1103 31.786 11.4505 32.7876 12.0135 33.665C12.5766 34.5424 13.3455 35.2688 14.2533 35.7813C14.1412 36.6487 14.2081 37.5298 14.4499 38.3703C14.6917 39.2108 15.1032 39.9929 15.6591 40.6681C16.2149 41.3433 16.9033 41.8974 17.6817 42.2962C18.4601 42.695 19.312 42.9299 20.1848 42.9866C21.0575 43.0432 21.9326 42.9203 22.756 42.6255C23.5794 42.3307 24.3337 41.8702 24.9721 41.2724C25.6106 40.6747 26.1197 39.9524 26.4681 39.1502C26.8165 38.348 26.9967 37.4829 26.9976 36.6083V15.813Z" stroke="white" stroke-width="2" stroke-linecap="round" stroke-linejoin="round"/>
<path id="Vector_2" d="M26.9976 15.813C26.9957 15.1732 27.1218 14.5395 27.3684 13.9491C27.615 13.3588 27.9772 12.8237 28.4336 12.3753C28.8901 11.927 29.4316 11.5744 30.0262 11.3384C30.6209 11.1024 31.2568 10.9877 31.8965 11.001C32.5361 11.0144 33.1667 11.1555 33.751 11.4161C34.3354 11.6767 34.8617 12.0515 35.299 12.5184C35.7364 12.9854 36.076 13.5351 36.2978 14.1353C36.5196 14.7354 36.6191 15.3738 36.5906 16.013C37.5309 16.2548 38.4038 16.7073 39.1432 17.3364C39.8827 17.9655 40.4693 18.7546 40.8587 19.6439C41.248 20.5333 41.4299 21.4996 41.3905 22.4696C41.3511 23.4397 41.0915 24.388 40.6313 25.2429C41.4404 25.9002 42.0767 26.7453 42.4847 27.7046C42.8927 28.6639 43.0602 29.7084 42.9725 30.7472C42.8849 31.786 42.5447 32.7876 41.9817 33.665C41.4186 34.5424 40.6497 35.2688 39.7419 35.7813C39.854 36.6487 39.7871 37.5298 39.5453 38.3703C39.3035 39.2108 38.892 39.9929 38.3361 40.6681C37.7803 41.3433 37.0919 41.8974 36.3135 42.2962C35.5351 42.695 34.6832 42.9299 33.8105 42.9866C32.9377 43.0432 32.0626 42.9203 31.2392 42.6255C30.4158 42.3307 29.6616 41.8702 29.0231 41.2724C28.3846 40.6747 27.8755 39.9524 27.5271 39.1502C27.1787 38.348 26.9985 37.4829 26.9976 36.6083V15.813Z" stroke="white" stroke-width="2" stroke-linecap="round" stroke-linejoin="round"/>
<path id="Vector_3" d="M31.7964 28.6098C30.4534 28.1374 29.2806 27.2773 28.4264 26.1384C27.5723 24.9995 27.075 23.6328 26.9975 22.2113C26.9199 23.6328 26.4227 24.9995 25.5685 26.1384C24.7143 27.2773 23.5415 28.1374 22.1986 28.6098M35.9538 18.2122C36.341 17.5413 36.5599 16.7866 36.5921 16.0127M17.4044 16.0127C17.4361 16.7865 17.6545 17.5411 18.0411 18.2122M13.3638 25.2442C13.6564 25.0058 13.9696 24.7939 14.2996 24.6107M39.6954 24.6107C40.0254 24.7939 40.3385 25.0058 40.6311 25.2442M17.3996 36.608C16.2972 36.6085 15.2134 36.3242 14.2532 35.7826M39.7417 35.7826C38.7815 36.3242 37.6977 36.6085 36.5953 36.608" stroke="white" stroke-width="2" stroke-linecap="round" stroke-linejoin="round"/>
</g>
</g>
</svg>
