<svg width="154" height="163" viewBox="0 0 154 163" fill="none" xmlns="http://www.w3.org/2000/svg">
<path opacity="0.25" fill-rule="evenodd" clip-rule="evenodd" d="M83.9226 0H0.386719V168H83.9226V0ZM18.9518 13.9234H9.67V23.2052H18.9518V13.9234ZM9.67 49.1931H18.9518V58.4749H9.67V49.1931ZM18.9518 102.099H9.67V111.381H18.9518V102.099ZM9.67 31.5583H18.9518V40.84H9.67V31.5583ZM18.9518 84.4644H9.67V93.7462H18.9518V84.4644ZM9.67 66.828H18.9518V76.1098H9.67V66.828ZM18.9518 119.734H9.67V129.016H18.9518V119.734ZM23.5918 13.9234H32.8736V23.2052H23.5918V13.9234ZM32.8736 49.1931H23.5918V58.4749H32.8736V49.1931ZM23.5918 102.099H32.8736V111.381H23.5918V102.099ZM32.8736 31.5583H23.5918V40.84H32.8736V31.5583ZM23.5918 84.4644H32.8736V93.7462H23.5918V84.4644ZM32.8736 66.828H23.5918V76.1098H32.8736V66.828ZM23.5918 119.734H32.8736V129.016H23.5918V119.734ZM46.7954 13.9234H37.5137V23.2052H46.7954V13.9234ZM37.5137 49.1931H46.7954V58.4749H37.5137V49.1931ZM46.7954 102.099H37.5137V111.381H46.7954V102.099ZM37.5137 31.5583H46.7954V40.84H37.5137V31.5583ZM46.7954 84.4644H37.5137V93.7462H46.7954V84.4644ZM37.5137 66.828H46.7954V76.1098H37.5137V66.828ZM46.7954 119.734H37.5137V129.016H46.7954V119.734ZM32.872 138.298H51.4355V167.999H32.872V138.298ZM60.7173 13.9234H51.4355V23.2052H60.7173V13.9234ZM51.4355 49.1931H60.7173V58.4749H51.4355V49.1931ZM60.7173 102.099H51.4355V111.381H60.7173V102.099ZM51.4355 31.5583H60.7173V40.84H51.4355V31.5583ZM60.7173 84.4644H51.4355V93.7462H60.7173V84.4644ZM51.4355 66.828H60.7173V76.1098H51.4355V66.828ZM60.7173 119.734H51.4355V129.016H60.7173V119.734ZM65.3605 13.9234H74.6423V23.2052H65.3605V13.9234ZM74.6423 49.1931H65.3605V58.4749H74.6423V49.1931ZM65.3605 102.099H74.6423V111.381H65.3605V102.099ZM74.6423 31.5583H65.3605V40.84H74.6423V31.5583ZM65.3605 84.4644H74.6423V93.7462H65.3605V84.4644ZM74.6423 66.828H65.3605V76.1098H74.6423V66.828ZM65.3605 119.734H74.6423V129.016H65.3605V119.734ZM154 28.7732H84.8507V167.84H154V28.7732ZM100.217 40.298H92.5339V47.9812H100.217V40.298ZM92.5339 69.4941H100.217V77.1774H92.5339V69.4941ZM100.217 113.288H92.5339V120.972H100.217V113.288ZM92.5339 54.8961H100.217V62.5793H92.5339V54.8961ZM100.217 98.6903H92.5339V106.374H100.217V98.6903ZM92.5339 84.0938H100.217V91.7771H92.5339V84.0938ZM100.217 127.886H92.5339V135.57H100.217V127.886ZM104.059 40.298H111.742V47.9812H104.059V40.298ZM111.742 69.4941H104.059V77.1774H111.742V69.4941ZM104.059 113.288H111.742V120.972H104.059V113.288ZM111.742 54.8961H104.059V62.5793H111.742V54.8961ZM104.059 98.6903H111.742V106.374H104.059V98.6903ZM111.742 84.0938H104.059V91.7771H111.742V84.0938ZM104.059 127.886H111.742V135.57H104.059V127.886ZM123.267 40.298H115.583V47.9812H123.267V40.298ZM115.583 69.4941H123.267V77.1774H115.583V69.4941ZM123.267 113.288H115.583V120.972H123.267V113.288ZM115.583 54.8961H123.267V62.5793H115.583V54.8961ZM123.267 98.6903H115.583V106.374H123.267V98.6903ZM115.583 84.0938H123.267V91.7771H115.583V84.0938ZM123.267 127.886H115.583V135.57H123.267V127.886ZM111.742 143.253H127.108V167.839H111.742V143.253ZM134.795 40.298H127.111V47.9812H134.795V40.298ZM127.111 69.4941H134.795V77.1774H127.111V69.4941ZM134.795 113.288H127.111V120.972H134.795V113.288ZM127.111 54.8961H134.795V62.5793H127.111V54.8961ZM134.795 98.6903H127.111V106.374H134.795V98.6903ZM127.111 84.0938H134.795V91.7771H127.111V84.0938ZM134.795 127.886H127.111V135.57H134.795V127.886ZM138.633 40.298H146.316V47.9812H138.633V40.298ZM146.316 69.4941H138.633V77.1774H146.316V69.4941ZM138.633 113.288H146.316V120.972H138.633V113.288ZM146.316 54.8961H138.633V62.5793H146.316V54.8961ZM138.633 98.6903H146.316V106.374H138.633V98.6903ZM146.316 84.0938H138.633V91.7771H146.316V84.0938ZM138.633 127.886H146.316V135.57H138.633V127.886Z" fill="url(#paint0_linear_5622_6961)"/>
<defs>
<linearGradient id="paint0_linear_5622_6961" x1="41.5736" y1="27.6588" x2="39.5001" y2="168" gradientUnits="userSpaceOnUse">
<stop stop-color="#EF5F3D"/>
<stop offset="1" stop-color="#EF5F3D" stop-opacity="0"/>
</linearGradient>
</defs>
</svg>
