<svg width="113" height="121" viewBox="0 0 113 121" fill="none" xmlns="http://www.w3.org/2000/svg">
<g opacity="0.5" clip-path="url(#clip0_5513_33782)">
<path d="M91.6982 72.5747C97.5611 74.129 101.603 71.678 101.873 66.872C102.305 66.5564 102.686 66.8791 103.053 67.0202C105.484 67.9445 108.737 67.1273 110.343 65.1621C110.954 64.4154 111.339 63.5696 111.435 62.5982C111.515 61.779 111.867 61.4636 112.734 61.7324C113.511 61.9753 114.317 61.777 115.095 61.597C118.117 60.899 119.519 58.8678 118.867 55.8214C118.366 53.4827 117.714 51.1629 116.952 48.8951C116.071 46.2792 115.088 43.6882 113.983 41.1589C112.172 37.0161 108.992 36.3525 105.497 39.2768C105.283 39.455 105.052 39.6143 104.83 39.783C102.072 36.0381 97.4874 36.904 94.4013 40.8015C91.1529 36.5499 86.8543 36.0416 83.2271 41.998C82.2153 41.2013 81.8633 39.9745 81.22 38.9849C78.1037 34.186 73.7264 31.1987 68.3379 29.5311C55.131 25.4461 42.85 27.693 31.3344 34.8425C26.0325 38.1336 21.675 42.4212 18.8032 48.0587C16.5902 52.3993 15.6788 57.0992 15.5042 61.9274C15.209 70.0708 16.3613 78.0152 19.509 85.5818C21.596 90.5964 25.0377 94.6041 29.3458 97.867C35.3087 102.382 42.2007 103.948 49.476 104.496C53.4151 104.793 57.3037 104.636 61.1353 103.907C66.2493 102.93 71.2346 101.473 75.8502 98.9318C79.2239 97.0739 82.391 94.9821 85.0816 92.1892C90.3105 86.7603 92.7637 80.3739 91.6982 72.5747ZM88.6757 67.4487C88.8972 67.8319 89.0384 67.9973 89.0957 68.1853C91.8664 77.4719 89.2222 86.2463 81.6816 92.8848C78.2479 95.909 74.1754 97.7687 69.9977 99.3675C60.5407 102.986 50.7984 103.577 40.9988 100.949C32.2191 98.593 25.4479 93.4308 21.7479 84.9283C17.7936 75.8376 16.7417 66.3273 18.5119 56.5646C19.2598 52.4418 20.7869 48.6441 23.311 45.2667C25.9477 41.7382 29.2569 39.0272 32.9541 36.6664C41.3694 31.2944 50.5271 29.0403 60.4538 29.9951C63.9171 30.3284 67.2689 31.2547 70.513 32.6223C76.1979 35.0204 79.4272 39.6046 81.9246 44.9536C84.5873 50.658 86.157 56.6954 87.6677 62.764C87.9626 63.9463 87.8263 64.7632 86.9229 65.6615C82.2388 70.3131 77.3844 74.7442 71.4857 77.8231C67.1565 80.0839 62.6188 81.707 57.6155 81.5658C51.8232 81.4038 48.1967 76.3943 49.9954 71.0697C50.3201 70.1095 50.7129 69.6326 51.8714 69.9022C53.1311 70.1937 54.4593 70.3222 55.7523 70.2958C59.1291 70.2225 62.3578 69.5569 65.1221 67.4452C65.4081 67.2282 65.6983 67.0088 65.9542 66.7546C67.1716 65.5398 67.7889 64.1319 67.0971 62.4208C66.4459 60.8097 65.0662 60.2314 63.4749 60.0827C58.3527 59.6023 54.3721 61.8484 51.0402 65.4542C49.5422 67.0781 48.7499 67.2345 47.2091 65.6062C45.1361 63.4182 44.4804 60.8504 45.4397 57.9582C46.5687 54.5542 49.1787 52.5116 52.1652 50.9177C55.7764 48.9914 59.647 47.8745 63.7603 47.6225C64.5694 47.5742 65.4894 47.7031 66.1684 46.9603C65.6646 46.1084 64.9099 46.2458 64.2071 46.2901C61.8934 46.4383 59.5798 46.6611 57.33 47.1917C52.7373 48.275 48.563 50.1563 45.5415 53.9877C41.8016 58.7311 42.444 64.3451 47.2901 67.926C48.387 68.7367 48.4327 69.3593 47.9802 70.425C45.6893 75.8417 48.8442 83.1342 57.1237 83.6508C60.494 83.8627 63.7426 83.1771 66.9102 82.0845C73.4529 79.8282 78.9552 75.8756 84.1365 71.422C85.6082 70.1578 86.9328 68.7231 88.6744 67.4466L88.6757 67.4487ZM92.5514 42.2267C92.7582 42.7477 93.1573 43.6112 93.4519 44.5065C95.5186 50.7908 97.4795 57.1047 99.0779 63.5276C99.3787 64.7352 99.5755 65.9455 99.5694 67.1754C99.5593 69.0164 98.5439 70.2495 96.704 70.7729C94.4129 71.425 92.9814 71.0288 91.9183 69.3772C91.165 68.2072 90.7186 66.8912 90.3763 65.5526C88.9195 59.8491 87.4815 54.1435 86.0444 48.4344C85.5981 46.659 85.3731 44.8561 85.6588 43.0424C85.9583 41.1289 86.9724 40.0861 88.6682 39.7781C90.1621 39.5063 91.3922 40.2113 92.5501 42.2246L92.5514 42.2267ZM101.703 62.4955L101.652 62.5252C101.387 62.0066 101.08 61.5059 100.863 60.9678C98.9086 56.0979 97.5941 51.036 96.3538 45.9541C96.1509 45.1236 96.2087 44.2401 96.0908 43.4035C95.9345 42.3077 96.4293 41.5823 97.0679 40.9031C99.4209 38.4058 102.402 38.607 103.539 41.4539C105.88 47.3239 108.117 53.24 109.436 59.4455C109.586 60.1511 109.678 60.888 109.664 61.6054C109.63 63.5179 108.695 64.6984 106.868 65.2779C105.108 65.8355 103.577 65.3362 102.474 63.8082C102.177 63.3993 101.958 62.9313 101.704 62.4921L101.703 62.4955ZM51.9958 67.9577C52.1477 67.5483 52.1746 67.3231 52.2952 67.1758C54.6201 64.3186 57.6913 62.7331 61.2464 62.0341C62.2295 61.8421 63.2566 61.8746 64.2208 62.3024C65.3096 62.7876 65.6023 63.5116 65.0569 64.5448C64.6812 65.2588 64.082 65.7889 63.4187 66.2326C62.143 67.0847 60.6945 67.5686 59.2352 67.9152C56.8762 68.4744 54.4829 68.4503 51.998 67.9565L51.9958 67.9577Z" fill="#DEDEDE"/>
</g>
<defs>
<clipPath id="clip0_5513_33782">
<rect width="77.8061" height="104.311" fill="white" transform="matrix(0.50039 0.8658 0.8658 -0.50039 0.277344 52.7578)"/>
</clipPath>
</defs>
</svg>
