<svg width="57" height="26" viewBox="0 0 57 26" fill="none" xmlns="http://www.w3.org/2000/svg">
<path d="M32.8443 17.271C33.0565 17.1686 33.2747 17.0766 33.4811 16.9638C34.5097 16.3982 34.9729 15.3191 34.6448 14.1761C34.4162 13.376 34.1743 12.576 33.8729 11.8011C33.7022 11.3603 33.821 11.1435 34.1847 10.9045C34.8185 10.4874 35.4241 10.0258 36.0327 9.5701C37.005 8.84424 37.3464 7.83634 36.9931 6.78541C36.6368 5.73002 35.7759 5.1422 34.5572 5.13478C33.7408 5.12884 32.9244 5.12291 32.1095 5.13924C31.8215 5.14517 31.6865 5.05611 31.6018 4.76814C31.3658 3.96955 31.1001 3.17986 30.8329 2.39017C30.4529 1.26947 29.6217 0.640095 28.5307 0.625251C27.4293 0.610407 26.5609 1.25463 26.1735 2.39314C25.9048 3.18134 25.6406 3.97252 25.4031 4.77111C25.3185 5.0576 25.1819 5.14517 24.8939 5.13924C24.0404 5.12291 23.1869 5.12439 22.3349 5.13627C21.2023 5.1526 20.3562 5.7597 20.0104 6.78541C19.6689 7.79923 19.9836 8.81158 20.8832 9.50033C21.5304 9.99611 22.1909 10.477 22.8633 10.9372C23.1795 11.1539 23.3116 11.3499 23.1483 11.7477C22.9168 12.3117 22.7594 12.9055 22.5694 13.4859C21.9133 15.4987 22.274 16.3567 24.1607 17.271H25.1626C26.2893 16.5511 27.4159 15.8312 28.498 15.1395C29.6143 15.8505 30.7275 16.5615 31.8423 17.271H32.8443ZM32.917 6.80174C33.4365 6.80174 33.9561 6.81064 34.4741 6.79877C34.8957 6.78838 35.2623 6.8626 35.4033 7.32127C35.5414 7.76955 35.3009 8.0501 34.9536 8.2965C34.1075 8.89768 33.2836 9.52853 32.4286 10.1178C31.9388 10.4563 31.8171 10.86 32.0026 11.4107C32.3396 12.4097 32.6454 13.4206 32.9823 14.4195C33.1115 14.804 33.1382 15.1499 32.7893 15.4245C32.4123 15.7213 32.0694 15.5833 31.728 15.331C30.9383 14.7476 30.1397 14.1761 29.3456 13.5972C28.5811 13.0406 28.4282 13.0361 27.6801 13.5764C26.8845 14.1524 26.0874 14.7253 25.2977 15.3102C24.9622 15.5596 24.6253 15.7273 24.2364 15.4453C23.8549 15.1662 23.8875 14.7996 24.0226 14.3973C24.3596 13.3968 24.6713 12.3889 25.0038 11.3885C25.1775 10.863 25.0691 10.4652 24.5956 10.1386C23.7569 9.55971 22.945 8.94221 22.1167 8.34846C21.7515 8.08721 21.425 7.81556 21.5986 7.30197C21.7634 6.81361 22.1701 6.79432 22.5976 6.79728C23.6174 6.80619 24.6372 6.78541 25.6569 6.80619C26.2462 6.81806 26.5802 6.56869 26.7509 6.00166C27.0537 4.99228 27.4025 3.99627 27.7232 2.98986C27.8449 2.60541 28.0349 2.31002 28.4817 2.30111C28.9582 2.29221 29.1541 2.60244 29.2818 3.00768C29.5801 3.96213 29.8918 4.91065 30.2006 5.86213C30.4648 6.67408 30.6355 6.79877 31.4712 6.80025C31.9536 6.80025 32.4361 6.80025 32.917 6.80025V6.80174Z" fill="url(#paint0_linear_7647_23481)"/>
<path d="M39.7349 15.8221C39.9887 16.6414 40.5409 17.2085 41.243 17.6701C41.7848 18.0264 42.285 18.4464 42.8268 18.8027C43.0999 18.9838 43.1296 19.1604 43.0302 19.4499C42.7571 20.2366 42.5003 21.0307 42.2568 21.8279C41.9169 22.9426 42.2405 23.9505 43.1222 24.5962C43.9921 25.233 45.0534 25.2167 46.0212 24.5354C46.7931 23.9906 47.5546 23.428 48.3635 22.8432C49.1681 23.4236 49.9637 24.0203 50.7816 24.5828C51.7257 25.2315 52.7677 25.2167 53.6331 24.5799C54.4896 23.949 54.8146 22.9411 54.4881 21.8561C54.2476 21.0589 53.9953 20.2633 53.7147 19.4781C53.6019 19.1619 53.6464 18.9793 53.9314 18.7864C54.5905 18.3381 55.2273 17.8571 55.87 17.3836C56.869 16.6459 57.2223 15.6336 56.8631 14.5618C56.5172 13.5302 55.6266 12.9335 54.4109 12.9246C53.6509 12.9186 52.8879 12.8979 52.1294 12.9335C51.6989 12.9528 51.5193 12.8073 51.408 12.3902C51.2017 11.6228 50.936 10.8702 50.6717 10.1191C50.2917 9.03848 49.4501 8.42395 48.3814 8.41801C47.3096 8.41207 46.4576 9.0177 46.0776 10.0983C45.7525 11.0216 45.4601 11.9568 45.141 12.9246C44.3706 12.9246 43.6076 12.9721 42.855 12.9142C41.3395 12.7984 40.2692 13.3521 39.7408 14.8201V15.8221H39.7349ZM52.7543 14.593C53.2917 14.593 53.8305 14.6064 54.3678 14.5886C54.8028 14.5752 55.1486 14.6954 55.2822 15.1407C55.4114 15.5682 55.1664 15.834 54.8399 16.0655C54.0398 16.6355 53.2486 17.2189 52.4545 17.7978C51.6856 18.3589 51.6396 18.4969 51.9275 19.3786C52.2378 20.3301 52.5435 21.2816 52.8597 22.2301C52.9889 22.6161 52.9903 22.9664 52.6356 23.2306C52.2778 23.4963 51.9453 23.382 51.6173 23.1415C50.7816 22.5255 49.9399 21.9169 49.0983 21.3083C48.466 20.8496 48.2567 20.8497 47.611 21.3157C46.799 21.9021 45.9871 22.4884 45.184 23.0851C44.8337 23.3449 44.4849 23.5334 44.0767 23.2217C43.6967 22.9322 43.7575 22.5552 43.8867 22.1618C44.2132 21.1777 44.5146 20.1846 44.8589 19.2064C45.0578 18.6439 44.9183 18.2505 44.4389 17.9136C43.5586 17.2961 42.6977 16.6504 41.8249 16.0239C41.5117 15.7983 41.3142 15.5237 41.4404 15.1274C41.5725 14.7147 41.8902 14.5826 42.3073 14.5871C43.3642 14.5989 44.4225 14.5722 45.4794 14.5975C46.0969 14.6123 46.4442 14.354 46.6224 13.7722C46.9237 12.7806 47.2592 11.7994 47.5724 10.8093C47.6985 10.4086 47.8885 10.085 48.365 10.0879C48.8415 10.0909 49.0226 10.4234 49.1488 10.8212C49.456 11.792 49.7722 12.7598 50.0884 13.7291C50.3185 14.4372 50.5218 14.5871 51.2492 14.59C51.7494 14.593 52.2511 14.59 52.7514 14.59L52.7543 14.593Z" fill="url(#paint1_linear_7647_23481)"/>
<path d="M17.2602 14.8255C17.2187 14.7483 17.1682 14.6755 17.137 14.5954C16.7155 13.5044 15.9288 12.9448 14.762 12.9314C13.9278 12.9225 13.0936 12.9121 12.2594 12.9373C11.9373 12.9477 11.8037 12.8305 11.7161 12.538C11.4682 11.7231 11.2084 10.9127 10.9279 10.1096C10.5509 9.03492 9.69883 8.42187 8.63008 8.42187C7.56281 8.42187 6.71375 9.03344 6.33524 10.1126C6.0532 10.9156 5.79344 11.7261 5.54703 12.541C5.45797 12.8349 5.32141 12.9477 5.00078 12.9388C4.14875 12.9151 3.29524 12.921 2.4432 12.9344C1.34328 12.9507 0.486797 13.5593 0.145391 14.5434C-0.206406 15.5588 0.0919552 16.5889 0.975157 17.2717C1.66391 17.8046 2.37195 18.3138 3.08891 18.8066C3.35313 18.9891 3.39617 19.1628 3.29375 19.4552C3.01914 20.242 2.76383 21.0346 2.52039 21.8302C2.18047 22.945 2.50258 23.9559 3.38133 24.5971C4.2393 25.2235 5.28578 25.2309 6.23133 24.5778C7.03883 24.0212 7.82406 23.4304 8.62859 22.847C9.45539 23.4438 10.251 24.0523 11.0793 24.6105C12.6453 25.6659 14.6834 24.7277 14.8645 22.8648C14.8986 22.5101 14.8125 22.1271 14.713 21.7768C14.4889 20.9945 14.2306 20.2212 13.9649 19.4523C13.864 19.1613 13.9026 18.9862 14.1727 18.8066C14.713 18.4488 15.2103 18.0258 15.7521 17.671C16.4542 17.2109 17.0079 16.6468 17.2617 15.8274C17.2617 15.4934 17.2617 15.1595 17.2617 14.8255H17.2602ZM13.009 14.5984C13.5463 14.5984 14.0852 14.6102 14.6225 14.5939C15.0545 14.5805 15.4033 14.6889 15.5443 15.1342C15.6809 15.5632 15.4419 15.8289 15.1168 16.0634C14.2425 16.6898 13.3786 17.3296 12.5043 17.956C12.0709 18.2663 11.9373 18.6418 12.1184 19.1628C12.4583 20.1425 12.7566 21.1356 13.0847 22.1197C13.2213 22.5279 13.3177 22.9198 12.9125 23.2285C12.4776 23.561 12.1184 23.3205 11.7606 23.0563C10.9546 22.4626 10.1278 21.897 9.33516 21.2855C8.8468 20.907 8.42078 20.9025 7.93094 21.2766C7.10563 21.9059 6.25063 22.4967 5.41789 23.1157C5.07945 23.3666 4.73953 23.5209 4.35656 23.2359C3.97508 22.9524 4.01813 22.5784 4.15024 22.182C4.46047 21.2513 4.76031 20.3162 5.06461 19.384C5.34961 18.5097 5.30359 18.3642 4.5807 17.8387C3.75688 17.2391 2.93453 16.6364 2.10625 16.0412C1.79305 15.817 1.5882 15.5439 1.70992 15.1476C1.83609 14.7364 2.14781 14.5909 2.56938 14.5954C3.60844 14.6073 4.6475 14.5998 5.68508 14.5984C6.49109 14.5984 6.65883 14.4722 6.91563 13.684C7.22586 12.734 7.53758 11.784 7.84039 10.831C7.96656 10.4332 8.14766 10.1007 8.62414 10.0962C9.09914 10.0933 9.28914 10.4139 9.41531 10.8177C9.73149 11.8241 10.067 12.826 10.3831 13.8324C10.5494 14.3623 10.8804 14.6266 11.4504 14.6043C11.9684 14.5835 12.4895 14.5998 13.009 14.5998V14.5984Z" fill="url(#paint2_linear_7647_23481)"/>
<defs>
<linearGradient id="paint0_linear_7647_23481" x1="34.8537" y1="3.82616" x2="20.6445" y2="3.89816" gradientUnits="userSpaceOnUse">
<stop stop-color="#F8BF3B"/>
<stop offset="0.305" stop-color="#FF8B13"/>
<stop offset="1" stop-color="#EF5F3D"/>
</linearGradient>
<linearGradient id="paint1_linear_7647_23481" x1="54.7232" y1="11.619" x2="40.504" y2="11.6911" gradientUnits="userSpaceOnUse">
<stop stop-color="#F8BF3B"/>
<stop offset="0.305" stop-color="#FF8B13"/>
<stop offset="1" stop-color="#EF5F3D"/>
</linearGradient>
<linearGradient id="paint2_linear_7647_23481" x1="14.9855" y1="11.6229" x2="0.770263" y2="11.695" gradientUnits="userSpaceOnUse">
<stop stop-color="#F8BF3B"/>
<stop offset="0.305" stop-color="#FF8B13"/>
<stop offset="1" stop-color="#EF5F3D"/>
</linearGradient>
</defs>
</svg>
