<svg width="54" height="51" viewBox="0 0 54 51" fill="none" xmlns="http://www.w3.org/2000/svg">
<path d="M28.9247 1.06641C29.2788 1.06641 29.6064 1.25365 29.7862 1.55869L37.1278 14.0164C37.2738 14.2641 37.5194 14.437 37.8018 14.4909L51.7226 17.1482C52.4944 17.2956 52.8026 18.2345 52.2683 18.8105L42.532 29.3079C42.3317 29.5239 42.2368 29.8172 42.2726 30.1096L43.9687 43.9447C44.0418 44.5408 43.5767 45.0664 42.9761 45.0664H38.4427C38.2388 45.0664 38.0397 45.004 37.8722 44.8877L29.4961 39.0689L20.3366 33.6401C20.2456 33.5862 20.1638 33.5182 20.0941 33.4386L16.7761 29.6485L6.72388 18.8105C6.18958 18.2345 6.4978 17.2956 7.26956 17.1482L21.0329 14.521C21.4022 14.4505 21.7008 14.1788 21.8057 13.8178L25.3024 1.7873C25.4265 1.36019 25.8179 1.06641 26.2627 1.06641H28.9247Z" fill="#F1B323"/>
<path d="M24.7493 1.67619C25.1283 0.981251 26.1261 0.981251 26.5051 1.67619L33.2289 14.0051C33.3728 14.2688 33.6275 14.4539 33.9228 14.5092L47.726 17.0941C48.5041 17.2398 48.8124 18.1888 48.2686 18.764L38.6209 28.9685C38.4145 29.1868 38.3172 29.4863 38.3559 29.7842L40.163 43.7107C40.2648 44.4956 39.4575 45.0822 38.7425 44.7427L26.056 38.7206C25.7847 38.5918 25.4698 38.5918 25.1984 38.7206L12.512 44.7427C11.7969 45.0822 10.9896 44.4956 11.0915 43.7107L12.8985 29.7842C12.9372 29.4863 12.8399 29.1868 12.6335 28.9685L2.9858 18.764C2.44199 18.1888 2.75035 17.2398 3.52839 17.0941L17.3316 14.5092C17.6269 14.4539 17.8817 14.2688 18.0255 14.0051L24.7493 1.67619Z" fill="#F8BF3B"/>
</svg>
