<svg width="92" height="90" viewBox="0 0 92 90" fill="none" xmlns="http://www.w3.org/2000/svg">
<path opacity="0.5" fill-rule="evenodd" clip-rule="evenodd" d="M82.634 39.1853C85.0954 40.5303 87.3793 42.1239 89.1527 44.3101L89.1549 44.3079C91.37 47.0357 92.5374 50.123 91.7584 53.6898C91.4632 55.0392 90.9394 56.3265 90.1959 57.5051C90.2824 57.6671 90.238 57.7359 90.0538 57.7093C88.0341 60.7811 84.9445 62.2437 81.5997 63.3024C81.0581 63.4734 80.4969 63.5856 79.9379 63.6973C79.6768 63.7495 79.4162 63.8016 79.1583 63.8595C78.1432 64.2084 77.1211 64.1233 76.1008 64.0383C75.6151 63.9978 75.1299 63.9574 74.646 63.9638C74.484 64.1281 74.3242 64.2945 74.1644 64.461C74.1788 64.5648 74.1927 64.6681 74.2066 64.7712C74.2226 64.8907 74.2387 65.0099 74.2554 65.1291C74.3164 65.2101 74.3769 65.2917 74.4374 65.3732C74.4979 65.4548 74.5583 65.5364 74.6194 65.6174L74.6882 65.5996L74.6105 65.6285C74.757 65.8748 74.9035 66.1212 75.05 66.3654L75.1054 66.3165L75.0655 66.3764C76.3417 68.9577 77.2517 71.6012 76.9343 74.5686C76.608 77.636 74.9212 79.5714 72.098 80.4992C68.8353 81.5712 65.8301 80.8277 63.1578 78.7502C62.3344 78.1108 61.554 77.416 60.7311 76.6833C60.3428 76.3377 59.9451 75.9836 59.5289 75.6229C59.2341 76.3605 59.0668 77.1047 58.9032 77.8328C58.7107 78.6887 58.5233 79.5224 58.1395 80.2972C55.6248 85.3799 51.8472 88.738 46.0188 89.3883C44.019 89.6125 42.148 89.1774 40.3902 88.2586C36.4772 86.2122 33.9314 82.9473 32.2468 78.9522C32.0964 78.5936 32.0323 78.1975 31.9683 77.8024C31.9389 77.6204 31.9095 77.4387 31.8717 77.2609C31.905 77.3053 31.9383 77.343 31.9738 77.3719C31.9383 77.3408 31.905 77.3031 31.8717 77.2609C31.3373 76.7662 31.2317 76.1114 31.1273 75.4638C31.1033 75.3153 31.0795 75.1672 31.0505 75.0214C30.8663 74.1025 30.4556 74.3801 30.0204 74.6742C29.9836 74.6991 29.9466 74.7241 29.9097 74.7484C26.536 78.7702 22.1547 80.5103 16.9921 80.1574C11.6742 79.7934 8.34272 75.1435 8.48477 70.3272C8.57798 67.1466 10.1228 64.5054 11.8273 61.953C13.0148 60.1729 14.2666 58.4417 16.3263 57.5339C16.3896 57.5061 16.4517 57.4754 16.5138 57.4448C16.7977 57.3048 17.0798 57.1657 17.4604 57.2987C16.8013 59.2407 15.5406 60.7988 14.2177 62.2859C12.2091 64.5409 11.1082 67.1999 10.5911 70.1119C9.99847 73.4434 11.7341 76.5529 14.9258 78.0222C15.4018 78.2413 15.9086 78.3977 16.4142 78.5536C16.6511 78.6267 16.8878 78.6997 17.1209 78.779C17.8017 78.7802 18.482 78.7818 19.1617 78.7835C19.8381 78.7852 20.5139 78.7868 21.1892 78.7879C23.7239 78.0644 26.1809 77.1943 28.1518 75.3188C28.4326 75.0517 28.7737 74.8468 29.1139 74.6424C29.2711 74.548 29.4281 74.4537 29.5789 74.3534C29.7286 73.9501 30.0391 73.7337 30.3743 73.5002C30.6257 73.3251 30.891 73.1403 31.1126 72.8596C31.2639 73.4278 31.4638 73.9577 31.6585 74.4738C32.0153 75.4195 32.3545 76.3186 32.3444 77.3208C33.7649 80.3771 35.4362 83.298 38.1351 85.391C43.4664 89.5237 49.5079 88.7113 54.0201 83.5732C56.3284 80.9453 57.5358 77.8757 57.669 74.3755C57.6751 74.2216 57.6632 74.0563 57.6511 73.8889C57.6103 73.3248 57.5678 72.7355 58.2061 72.4668C59.0136 72.128 59.5292 72.7556 59.9623 73.2828L59.9625 73.2831C60.0175 73.3499 60.0711 73.4152 60.1238 73.4766C61.4355 75.0059 62.7783 76.4752 64.4607 77.6182C66.5936 79.0676 68.8864 79.7445 71.4455 79.1075C73.4874 78.5971 74.8635 77.3652 75.4406 75.29C75.9267 73.5432 75.8068 71.8142 75.303 70.1119C75.061 69.2918 74.7654 68.4889 74.4699 67.686L74.4698 67.6858C74.3399 67.3327 74.2099 66.9796 74.0845 66.625L74.0712 66.6406C73.8958 66.3076 73.7227 65.9769 73.554 65.6485C72.7727 64.7229 72.2955 63.6465 71.8605 62.3369C73.1256 62.6388 74.2753 62.914 75.4206 63.1892C79.1849 63.278 82.5652 62.1239 85.6481 60.0198C90.4622 56.7349 91.461 50.5558 87.7611 45.7461C85.8368 43.247 83.1911 41.7688 80.4056 40.4815C80.1126 40.3461 79.8108 40.2262 79.5045 40.1175L79.401 40.0809C78.6217 39.8058 77.7731 39.5064 77.7689 38.5416C77.7645 37.5939 78.6317 37.1796 79.3784 36.8229L79.4046 36.8104C81.0937 36.0025 82.7294 35.1058 84.2986 34.0826C86.7135 32.5068 88.5179 30.507 89.0905 27.5595C89.7142 24.339 88.0363 21.0519 84.9689 19.8356C82.8892 19.01 80.7541 18.7214 78.5035 19.2452C76.415 19.7313 74.3464 20.2307 72.3333 21.1407C73.8647 17.6383 74.6305 14.0205 74.2243 10.2119C73.9691 7.81922 73.099 5.71069 71.3567 3.9817C69.4812 2.12175 67.1152 1.75775 64.6893 1.94197C60.5521 2.25492 57.5802 4.49884 55.5805 8.05671C55.1697 8.78693 54.8382 9.56094 54.5066 10.3352L54.5065 10.3355C54.3543 10.6907 54.2022 11.046 54.0423 11.3971L54.0712 11.4037C54.0046 11.6514 53.9394 11.8994 53.8742 12.1474L53.8742 12.1474L53.8741 12.1474C53.7091 12.775 53.5442 13.4023 53.3565 14.0227L53.3429 14.0675C53.1979 14.5456 53.0332 15.0888 52.4177 15.1125C51.7895 15.1392 51.5587 14.6686 51.4477 14.1115C51.3675 13.7072 51.2389 13.3197 51.1095 12.93C50.9776 12.5324 50.8448 12.1325 50.7619 11.71C49.8031 6.80269 44.5184 2.83199 39.094 5.86384C37.0787 6.98913 35.9445 8.85573 35.3208 11.0486C34.5506 13.7497 34.3309 16.4997 34.5972 19.4983C33.7113 18.9101 33.2239 18.0872 32.7511 17.2889L32.7511 17.2888L32.751 17.2888C32.5191 16.8972 32.2907 16.5115 32.0204 16.1623C31.5076 15.5007 30.9198 14.9224 30.3328 14.345C29.9569 13.9752 29.5813 13.6057 29.226 13.2148V13.2304C29.0596 13.105 28.8931 12.979 28.7267 12.8531C28.5602 12.7271 28.3937 12.6011 28.2273 12.4757L28.0919 12.4935L28.1629 12.3936C27.5393 12.1738 26.9578 11.8689 26.3749 11.5632C25.8397 11.2826 25.3032 11.0012 24.7315 10.7845C19.1428 8.66486 14.1911 13.004 14.7793 18.3863C15.0234 20.6324 15.9423 22.6278 17.638 24.1992L17.6869 24.2445C17.7659 24.3177 17.8444 24.3904 17.9199 24.4677L18.0097 24.5586C18.5408 25.095 19.1538 25.7141 18.8787 26.4364C18.6383 27.0692 17.8103 27.1087 17.1322 27.141C17.0778 27.1435 17.0243 27.1461 16.9722 27.1489C14.1334 27.302 11.4456 28.0744 9.01745 29.4749C5.13331 31.7144 2.60529 34.9949 1.91503 39.5559C1.06496 45.1802 4.92468 51.4947 9.81869 53.7164C10.8065 54.1652 11.8014 54.6009 12.9057 55.0845L12.9064 55.0848C13.4346 55.3161 13.9878 55.5583 14.5773 55.8183C11.9072 55.8405 9.81425 55.0503 7.8966 53.925C2.52095 50.7733 -0.331111 46.0014 0.0306681 39.7801C0.392447 33.5588 3.99914 29.4372 9.66776 27.0779C11.6209 26.2633 13.6362 25.6041 15.8824 25.3644C15.5051 24.3568 15.0367 23.6732 14.5507 22.994C12.8461 20.6102 12.633 17.9202 13.2212 15.1858C13.8515 12.2471 15.7226 10.3029 18.5991 9.34402C21.9194 8.23871 25.0978 8.67373 27.8033 10.7712C27.9126 10.8558 28.0224 10.9404 28.1326 11.0254C29.6211 12.1728 31.1731 13.3692 32.1403 15.0948C32.3308 15.4351 32.5956 15.7341 32.8693 16.0433C32.9972 16.1878 33.1271 16.3345 33.2522 16.4886C33.8111 16.154 33.7624 15.6778 33.7153 15.2176C33.7056 15.1222 33.6959 15.0276 33.6917 14.935C33.5963 12.8309 33.9869 10.8511 34.7415 8.86017C37.0942 2.65443 44.7537 0.996462 49.6055 5.5975C49.7451 5.7304 49.8846 5.86551 50.0242 6.00062L50.0242 6.00069L50.025 6.00145C50.0272 6.00367 50.0916 5.94818 50.0916 5.94818L50.0472 6.01033C50.5527 6.51023 50.8721 7.13578 51.1972 7.77227C51.523 8.41028 51.8544 9.05928 52.3844 9.60371C53.0408 9.02338 53.3748 8.32283 53.6995 7.64185C53.725 7.58838 53.7505 7.53502 53.776 7.48186C55.7425 3.40463 58.9474 0.994243 63.3931 0.164148C68.0962 -0.714777 74.1777 1.92865 75.3274 8.26978C75.9311 11.5924 75.4672 14.6775 74.171 17.7116C74.13 17.8076 74.0796 17.9003 74.0292 17.9929C73.8968 18.2363 73.7646 18.4791 73.8048 18.7814C73.8813 18.8889 73.9584 18.9959 74.0354 19.1029L74.0358 19.1033C74.1128 19.2104 74.1899 19.3174 74.2665 19.425C76.9787 18.2886 79.7375 17.4852 82.7428 17.9158C85.1975 18.2687 87.346 19.1742 89.024 21.0408C89.3658 21.4226 89.7031 21.8576 89.8829 22.3281C90.9816 25.1913 91.2745 27.9324 89.7231 30.8866C88.0718 34.0316 85.5371 35.9071 82.5075 37.3875C82.2459 37.516 82.0266 37.7321 81.8053 37.9501C81.7017 38.0521 81.5977 38.1546 81.4887 38.2486C81.5958 38.7397 81.9656 38.8939 82.3203 39.0417L82.3204 39.0418L82.3205 39.0418C82.4291 39.087 82.5362 39.1317 82.634 39.1853ZM18.8942 79.1142C19.0629 79.1253 19.2338 79.1275 19.4025 79.1253C19.2338 79.1297 19.0629 79.1253 18.8942 79.1142ZM74.0756 66.6384L74.0778 66.6339C74.0778 66.6339 74.0778 66.6361 74.0756 66.6384ZM76.4799 63.8774L76.4638 63.8773C76.4771 63.8795 76.4904 63.8795 76.5037 63.8795C76.4958 63.8782 76.4879 63.8776 76.4799 63.8774ZM58.6742 37.5865C58.6675 38.5165 57.8995 39.2556 56.9518 39.2489V39.2467C56.1017 39.2423 55.4048 38.4788 55.4514 37.6065C55.4892 36.9029 56.3881 36.0218 57.1072 35.984C57.9084 35.9419 58.6808 36.732 58.6742 37.5865ZM42.8245 39.1575C42.8311 38.263 41.9766 37.4085 41.0888 37.424C40.2631 37.4374 39.5418 38.2497 39.5795 39.122C39.6128 39.8943 40.4585 40.6002 41.3352 40.5868C42.2141 40.5735 42.82 39.9942 42.8245 39.1597V39.1575ZM45.1891 47.3188C45.4211 47.542 45.6543 47.7664 45.7018 48.1163H45.7062L45.7617 48.083L45.7107 48.1163C45.8757 48.2303 46.037 48.3528 46.1983 48.4755C46.5491 48.7421 46.9003 49.0089 47.291 49.1883C50.345 50.5866 52.5068 49.6855 53.8674 47.1885C53.9744 46.9917 54.0693 46.7864 54.1642 46.5811C54.4726 45.9136 54.7811 45.246 55.5076 44.8691C56.3532 46.8667 54.9017 49.7831 52.4957 50.9461C49.5837 52.3533 46.0858 51.1792 44.5654 48.285C44.2108 48.3199 44.1347 48.0802 44.0635 47.856C44.0398 47.7814 44.0166 47.7084 43.9839 47.648C43.742 47.1952 43.5289 46.5271 44.0638 46.314C44.541 46.1232 44.976 46.6226 45.0737 47.2063C45.1116 47.2441 45.1503 47.2815 45.1891 47.3188Z" fill="#DEDEDE"/>
</svg>
