<svg width="97" height="86" viewBox="0 0 97 86" fill="none" xmlns="http://www.w3.org/2000/svg">
<g opacity="0.5">
<path d="M73.1446 29.909C70.489 31.5945 67.5702 32.5737 64.5133 33.1816C64.1417 32.9779 63.627 33.1271 63.3434 32.7023C63.4659 32.6535 63.5905 32.6033 63.7148 32.5548L63.7741 32.6193C63.7741 32.6193 63.7757 32.5266 63.7739 32.5263C65.0204 32.3158 66.01 31.4892 67.1785 31.0726C69.2939 30.3198 71.191 29.1449 73.024 27.8536C73.842 27.2766 74.4979 26.5617 75.02 25.7192C76.1653 23.8719 76.1984 21.7955 75.1229 20.502C74.0474 19.2085 72.2236 18.8902 70.1625 19.6214C68.7075 20.1364 67.5067 21.0487 66.2765 22.1803C66.2322 21.5755 66.2102 21.09 66.1577 20.6072C65.9693 18.8578 65.6945 17.1307 64.6486 15.6521C63.46 13.9724 61.1685 13.6515 59.9703 14.4656C59.1834 15.0001 58.513 15.6064 58.0583 16.4389C56.8885 18.5802 56.639 20.9047 56.8287 23.2805C56.933 24.5686 57.2219 25.8425 57.4272 27.1221L57.3545 27.1769C57.3545 27.1769 57.4414 27.2212 57.4417 27.2193C57.5365 27.7791 57.6312 28.3389 57.7257 28.9005C57.51 29.1203 57.3088 29.367 56.9461 29.2483C56.7719 28.562 56.3794 27.9242 56.4919 27.1737C56.5767 26.9728 56.4968 26.8727 56.2979 26.8466C55.5084 25.54 55.4438 24.0628 55.3747 22.602C55.2491 19.8835 55.5765 17.2602 57.1382 14.914C59.2965 11.6708 63.3293 11.5567 65.5867 14.6655C66.5885 16.044 66.989 17.5844 67.0491 19.2544C67.06 19.5503 66.8991 19.9098 67.4259 20.1079C68.2639 19.4297 69.1546 18.7163 70.2294 18.3094C73.8066 16.9517 78.0106 19.0586 77.4329 23.9759C77.3486 24.6911 77.0891 25.3498 76.7598 25.986C75.9105 27.6283 74.6931 28.927 73.1446 29.909Z" fill="#DEDEDE"/>
<path d="M63.1158 41.4759C66.5613 45.3352 67.3279 49.6594 65.6516 54.5164C65.5032 54.5791 65.356 54.6442 65.2077 54.7068C65.6939 50.9883 65.3735 47.4388 63.3745 44.1446C62.1169 42.0699 58.7516 39.8556 56.0516 40.7963C54.7366 41.2542 53.631 42.021 52.7006 43.0329C49.8176 46.1714 48.5296 50.0229 47.9394 54.14C47.356 58.2098 47.4048 62.2972 47.7682 66.3809L47.695 66.4205C47.695 66.4205 47.762 66.4761 47.7626 66.4744C47.79 66.8301 47.8186 67.1882 47.8448 67.5474C47.6571 67.8764 47.5881 68.3152 47.0946 68.3568C46.7763 66.7109 46.247 65.1213 46.0802 63.4317C45.6366 58.9358 45.9318 54.4953 47.1402 50.1462C48.0551 46.8522 49.5431 43.8192 51.9979 41.36C55.5155 37.8323 60.4229 38.4604 63.1158 41.4759Z" fill="#DEDEDE"/>
<path d="M69.6466 72.1447C73.6354 70.359 76.9367 67.7906 78.3697 63.4139C79.4801 60.0242 78.5435 56.079 74.6438 54.3711C72.8943 53.605 71.0488 53.6699 69.2077 54.1002C68.9248 53.8148 69.0408 53.4603 69.0469 53.1265C69.5653 52.9704 70.0779 52.7806 70.6066 52.662C74.9716 51.6819 79.0549 54.4214 80.0031 58.2115C81.2273 63.1117 79.2551 67.0426 75.761 70.1987C72.8498 72.8281 69.222 74.2626 65.4349 75.2132C62.0959 76.0504 58.7343 76.2015 55.3487 75.6045C54.9951 75.3517 55.0769 74.999 55.1357 74.6501C56.4653 74.8674 57.8146 74.6682 59.1294 74.594C62.7491 74.3873 66.3059 73.6414 69.6459 72.1464L69.6466 72.1447Z" fill="#DEDEDE"/>
<path d="M42.9602 20.5127C44.3175 23.6654 44.1278 26.8382 42.88 29.9026C40.5607 35.5983 36.3336 39.7024 31.4596 43.2078C31.1819 43.169 30.9041 43.1303 30.6243 43.0931C31.4489 42.0751 32.3371 41.1184 33.2805 40.2047C35.4763 38.0795 37.5251 35.8264 39.2299 33.2678C41.0585 30.5221 42.2729 27.5966 42.1299 24.2112C42.0205 21.6148 41.1053 19.4835 38.6795 18.3441C36.2571 17.2072 34.0348 18.0169 32.2604 19.718C30.6549 21.2564 29.3169 23.0976 28.8529 25.3992C28.6272 25.2701 28.4012 25.1429 28.1753 25.0156C28.6055 22.2665 29.8352 19.9621 31.9167 18.1165C35.734 14.7287 41.1122 16.2188 42.9599 20.5145L42.9602 20.5127Z" fill="#DEDEDE"/>
<path d="M12.7432 23.4921C13.934 17.7506 19.806 16.7408 23.3152 19.0422C25.4902 20.4679 26.9895 22.3681 27.6607 24.9081C27.4921 24.8812 27.3216 24.8539 27.1523 24.8306C26.6183 23.2195 25.39 22.1293 24.2533 20.9949C22.3838 19.1285 19.6213 18.6013 17.352 19.6464C14.9404 20.758 14.0189 22.8631 13.9208 25.3579C13.7567 29.5938 15.6421 33.0776 18.1387 36.2664C19.8406 38.44 21.6593 40.5184 23.4263 42.6379C23.0732 42.8471 22.7172 42.7332 22.3626 42.6461C22.2637 42.5241 22.1814 42.38 22.0615 42.283C17.9739 38.9783 14.8457 34.9769 13.0931 29.9336C12.3526 27.8037 12.2854 25.696 12.7435 23.4903L12.7432 23.4921Z" fill="#DEDEDE"/>
</g>
</svg>
