<svg width="24" height="24" viewBox="0 0 24 24" fill="none" xmlns="http://www.w3.org/2000/svg">
<path d="M18.0686 4.3783C17.6312 3.94072 17.1119 3.5936 16.5403 3.35677C15.9688 3.11994 15.3561 2.99805 14.7374 2.99805C14.1188 2.99805 13.5061 3.11994 12.9346 3.35677C12.363 3.5936 11.8437 3.94072 11.4063 4.3783L10.4986 5.28602L9.59089 4.3783C8.70742 3.49483 7.50917 2.9985 6.25976 2.9985C5.01034 2.9985 3.8121 3.49483 2.92863 4.3783C2.04516 5.26178 1.54883 6.46002 1.54883 7.70943C1.54883 8.95885 2.04516 10.1571 2.92863 11.0406L3.83634 11.9483L10.4986 18.6105L17.1609 11.9483L18.0686 11.0406C18.5062 10.6032 18.8533 10.0839 19.0901 9.51232C19.3269 8.94075 19.4488 8.32812 19.4488 7.70943C19.4488 7.09075 19.3269 6.47812 19.0901 5.90655C18.8533 5.33499 18.5062 4.81568 18.0686 4.3783Z" stroke="#FF8B13" stroke-width="2" stroke-linecap="round" stroke-linejoin="round"/>
</svg>
