<svg width="32" height="32" viewBox="0 0 32 32" fill="none" xmlns="http://www.w3.org/2000/svg">
<rect x="0.5" y="0.5" width="31" height="31" rx="15.5" stroke="#9FC5EF"/>
<path d="M17.2787 14.0585L14.1299 14.4531L14.0172 14.9756L14.6359 15.0897C15.0402 15.186 15.1199 15.3318 15.0319 15.7346L14.0172 20.5031C13.7504 21.7365 14.1616 22.3167 15.1282 22.3167C15.8776 22.3167 16.7479 21.9703 17.1426 21.4945L17.2636 20.9225C16.9886 21.1645 16.5871 21.2607 16.3203 21.2607C15.9422 21.2607 15.8047 20.9954 15.9023 20.5279L17.2787 14.0585ZM17.3749 11.1875C17.3749 11.5522 17.2301 11.9019 16.9722 12.1598C16.7143 12.4176 16.3646 12.5625 15.9999 12.5625C15.6353 12.5625 15.2855 12.4176 15.0277 12.1598C14.7698 11.9019 14.6249 11.5522 14.6249 11.1875C14.6249 10.8228 14.7698 10.4731 15.0277 10.2152C15.2855 9.95737 15.6353 9.8125 15.9999 9.8125C16.3646 9.8125 16.7143 9.95737 16.9722 10.2152C17.2301 10.4731 17.3749 10.8228 17.3749 11.1875Z" fill="#9FC5EF"/>
</svg>
