<svg width="1440" height="906" viewBox="0 0 1440 906" fill="none" xmlns="http://www.w3.org/2000/svg">
<g opacity="0.12">
<path d="M231.992 890.212C231.408 889.113 232.098 888.108 232.206 887.055C233.177 877.504 230.431 869.482 221.445 864.215C218.702 862.604 215.904 860.936 212.898 859.894C208.245 858.273 205.245 854.839 202.054 851.663C198.861 848.492 198.732 844.487 200.081 840.447C201.068 837.494 202.637 834.793 204.529 832.284C207.08 828.911 209.867 825.701 212.324 822.264C217.488 815.047 221.927 807.438 223.632 798.74C225.624 788.576 224.015 779.213 215.651 771.803C209.417 766.274 201.795 764.719 193.524 764.983C182.419 765.338 172.433 769.212 162.609 773.639C156.616 776.337 150.884 779.64 144.072 780.243C137.061 780.866 131.401 778.761 127.379 773.033C124.716 769.238 122.806 765.134 121.122 760.883C116.829 750.046 113.905 738.738 108.749 728.193C103.301 717.053 93.0241 710.512 82.0093 711.205C72.3605 711.812 64.4605 716.155 58.0283 722.473C50.4944 729.87 44.6001 738.544 39.3912 747.623C36.3899 752.854 33.4795 758.214 28.6387 762.206C22.744 767.069 16.1743 768.461 9.398 764.398C3.59447 760.914 -1.67004 756.781 -7.39458 753.231C-14.173 749.024 -21.0296 745.426 -29.4608 745.526C-42.5013 745.679 -52.0026 752.318 -60.3738 760.841C-63.8519 764.379 -66.7754 768.416 -69.9468 772.226C-70.8668 774.316 -71.7931 776.404 -72.6963 778.466C-72.6037 778.608 -72.5444 778.785 -72.4456 778.93C-72.3649 779.048 -72.1394 779.241 -72.1372 779.235C-71.2974 778.536 -70.2761 777.943 -69.6685 777.088C-63.2806 768.078 -54.9949 761.036 -45.211 755.546C-37.7032 751.336 -29.8074 749.308 -21.2718 752.471C-16.8393 754.11 -12.6158 756.152 -8.84705 759.008C-4.68351 762.159 -0.57492 765.423 3.88185 768.166C11.5028 772.856 19.6782 774.516 28.1217 770.117C33.2346 767.455 36.9807 763.238 40.0291 758.633C45.081 751.004 49.8167 743.186 55.2907 735.815C59.2637 730.466 63.5902 725.432 69.6579 722.076C82.7314 714.849 93.9839 717.128 100.951 728.555C104.492 734.36 107.289 740.502 109.132 747.017C111.658 755.943 114.372 764.806 119.05 772.982C125.59 784.412 137.314 790.173 151.706 785.2C159.704 782.438 167.116 778.511 175.106 775.733C183.656 772.76 192.128 770.641 201.248 772.108C208.099 773.211 213.131 776.413 215.748 782.883C217.379 786.92 217.64 790.942 217.21 795.123C216.202 804.853 211.143 812.859 205.397 820.599C202.012 825.165 198.305 829.519 195.594 834.539C190.822 843.381 192.553 851.959 200.473 858.453C203.97 861.318 207.854 863.576 212.089 865.209C216.024 866.722 219.39 869.058 222.589 871.535C227.595 875.411 228.783 880.968 228.395 886.77C227.957 893.257 227.126 899.726 226.466 906.198C228.311 900.873 230.159 895.541 232.006 890.21L231.992 890.212Z" fill="#FF8B13"/>
<path d="M83.2206 830.989C81.4069 833.381 81.0025 835.91 81.4307 838.262C81.8886 840.785 80.6457 841.817 78.8082 843.013C75.0023 845.479 70.7088 847.016 66.3737 847.923C50.8469 851.166 35.4034 850.848 20.2156 845.854C17.7299 845.037 15.1847 844.034 11.8486 844.278C13.1926 846.608 15.1431 847.328 16.9271 848.189C20.6616 850.004 24.7351 850.814 28.755 851.824C46.7913 856.359 64.1675 854.369 80.955 846.999C82.7806 846.2 83.8807 845.871 85.3198 847.543C87.7877 850.412 91.0465 851.308 95.9108 850.298C87.2168 845.854 84.3446 838.988 83.2206 830.983V830.989Z" fill="#FF8B13"/>
<path d="M69.3605 819.871C69.2951 817.762 67.1067 816.033 64.6745 816.169C62.3375 816.305 60.7497 817.864 60.7795 820.002C60.8151 822.445 62.4683 823.97 65.1027 823.981C67.4754 823.993 69.4319 822.105 69.3605 819.866V819.871Z" fill="#FF8B13"/>
<path d="M29.1896 825.915C31.3958 825.785 33.0074 824.192 33.055 822.088C33.1025 819.838 31.1937 818.018 28.8507 818.086C26.6742 818.148 25.0567 819.77 25.027 821.918C24.9972 824.26 26.8645 826.051 29.1896 825.915Z" fill="#FF8B13"/>
<path fill-rule="evenodd" clip-rule="evenodd" d="M1298.86 775.521C1305.9 771.089 1312.85 766.716 1318.55 761.202L1318.55 761.197C1318.25 761.342 1317.91 761.509 1317.52 761.693L1317.52 761.694C1316.49 762.188 1315.2 762.809 1313.93 763.473C1308.07 766.548 1302.47 770.074 1296.88 773.6L1296.88 773.601C1293.76 775.561 1290.65 777.521 1287.5 779.404L1287.23 779.561C1280.38 783.642 1273.53 787.724 1265.96 790.376C1263.72 791.159 1261.44 791.944 1259.12 792.308C1249.57 793.798 1241.99 790.445 1236.56 782.469C1232.56 776.577 1228.86 770.49 1225.19 764.379C1217.36 751.353 1209.78 738.199 1203.39 724.393L1203.37 724.357C1201.88 721.131 1201.8 720.95 1204.87 719.067C1208.92 716.584 1213.03 714.21 1217.15 711.835C1218.93 710.805 1220.71 709.775 1222.49 708.737C1222.94 708.472 1223.4 708.21 1223.85 707.948L1223.85 707.947C1225.32 707.099 1226.79 706.251 1228.2 705.323C1231.4 703.227 1231.43 701.662 1228.42 699.131C1228.24 698.98 1228.04 698.854 1227.84 698.727C1227.64 698.597 1227.44 698.467 1227.25 698.311C1223.51 695.068 1221.32 691.011 1220.6 686.075C1220.17 683.098 1221.12 680.815 1223.29 678.883C1228.37 674.349 1235.28 675.013 1240 680.734C1241.41 682.443 1242.52 684.41 1243.63 686.362C1243.85 686.757 1244.08 687.151 1244.3 687.543C1246.19 690.823 1247.17 691.287 1250.25 689.509C1255.74 686.341 1261.16 683.061 1266.55 679.73C1267.93 678.881 1269.33 677.898 1270.3 676.137C1268.37 676.173 1266.95 676.868 1265.56 677.55L1265.55 677.552C1262 679.29 1258.46 681.063 1254.93 682.846C1254.3 683.161 1253.67 683.572 1253.05 683.983C1251.7 684.866 1250.35 685.745 1249.07 685.66C1247.37 685.545 1246.72 683.967 1246.05 682.376C1245.74 681.624 1245.43 680.87 1245 680.265C1241.19 674.858 1236.15 671.617 1229.48 671.672C1220.64 671.738 1213.5 679.013 1217.02 690.893C1218.03 694.303 1220.18 697.08 1222.62 699.615C1223.86 700.905 1224.03 701.837 1222.22 702.9C1218.36 705.161 1214.53 707.478 1210.7 709.795L1210.7 709.795L1210.69 709.796L1210.69 709.796L1210.69 709.796C1208.16 711.33 1205.62 712.864 1203.08 714.383C1196.03 718.581 1195.57 720.365 1199.65 727.65C1201.99 731.834 1204.32 736.026 1206.65 740.219L1206.65 740.219L1206.65 740.219C1211.47 748.91 1216.29 757.601 1221.26 766.208C1221.49 766.61 1221.72 767.012 1221.95 767.414C1225.83 774.141 1229.71 780.882 1234.86 786.798C1240.11 792.834 1246.38 796.751 1254.58 796.512C1260.82 796.331 1266.77 794.787 1272.33 791.836C1278.22 788.711 1283.98 785.356 1289.46 781.602C1292.55 779.492 1295.71 777.501 1298.86 775.521L1298.86 775.521ZM1443.19 705.452C1443.4 704.799 1443.61 704.146 1443.82 703.495L1443.82 703.49L1444.84 703.246C1449.13 711.223 1451.81 719.679 1451.76 728.885C1451.73 736.079 1449.6 742.617 1445.15 748.323C1441.7 752.749 1437.56 756.389 1432.53 758.929C1422.56 763.966 1412.03 766.426 1400.84 765.511C1397.46 765.24 1397.46 765.096 1397.43 761.852L1397.43 761.821C1397.43 761.35 1397.44 760.879 1397.45 760.409L1397.45 760.408L1397.45 760.407L1397.45 760.406L1397.45 760.404C1397.47 759.605 1397.48 758.808 1397.43 758.015C1396.65 745.647 1388.44 733.391 1374.99 730.73C1369.96 729.734 1365.35 730.197 1362.05 734.394C1358.77 738.562 1359.21 743.195 1361.41 747.836C1363.94 753.177 1367.83 757.177 1372.77 760.313C1378.17 763.739 1383.92 766.343 1390.09 767.988C1391.95 768.486 1392.52 769.23 1391.57 770.94C1388.68 776.17 1385.16 780.656 1379.35 783.054C1371.2 786.42 1363 785.872 1354.64 784.161C1352.79 783.784 1351.01 783.175 1349.18 782.551C1346.61 781.673 1343.95 780.764 1340.9 780.426C1346.53 784.349 1352.33 785.835 1358.19 787.273C1372.36 790.755 1388.36 785.718 1395.3 771.379C1396.29 769.323 1397.58 769.275 1399.46 769.348C1411.87 769.829 1423.56 767.334 1434.88 761.948C1450.23 754.634 1459.22 736.078 1454.74 718.846C1454.51 717.935 1454.29 717.019 1454.07 716.102L1454.07 716.1C1453.26 712.704 1452.44 709.3 1450.74 706.175C1450.38 705.512 1450.15 704.676 1451.31 703.963C1452.09 703.958 1452.86 704.293 1453.64 704.639C1454.66 705.086 1455.71 705.55 1456.89 705.324C1457.51 703.28 1456.25 702.12 1455.1 701.153C1452.08 698.61 1449.03 696.081 1445.79 693.845C1442.78 691.77 1440.86 692.702 1440.14 696.365C1439.49 699.69 1439 703.039 1438.51 706.39L1438.51 706.39L1438.51 706.391L1438.46 706.689C1438.33 707.618 1438.39 708.588 1438.47 709.529C1438.48 709.709 1438.49 709.899 1438.5 710.092C1438.53 711.047 1438.57 712.089 1439.67 712.353C1440.94 712.655 1441.2 711.672 1441.44 710.779L1441.44 710.779C1441.49 710.569 1441.54 710.364 1441.61 710.182C1442.17 708.619 1442.68 707.035 1443.19 705.452ZM1377.53 735.349C1385.57 738.807 1390.59 744.473 1393.18 753.463L1393.18 753.456C1394.06 755.634 1394.32 758.622 1394.15 761.638C1394 764.326 1393.46 764.926 1390.98 764.31C1381.06 761.848 1372.28 757.431 1366.23 748.823C1363.17 744.465 1362.89 739.791 1365.17 736.908C1367.36 734.129 1373.03 733.417 1377.53 735.349ZM1333.27 619.331C1332.08 619.763 1330.94 620.12 1329.84 620.464C1327.46 621.208 1325.29 621.888 1323.34 623.117C1318.83 625.953 1316.16 629.883 1316.8 635.361C1317.51 641.396 1323.02 645.602 1329.4 645.076C1332.55 644.818 1335.66 644.173 1338.73 643.346C1343.84 641.977 1345.46 642.99 1346.18 648.175C1347.23 655.817 1348.16 663.475 1349.1 671.132C1349.2 671.964 1349.3 672.796 1349.4 673.628L1349.42 673.813C1349.76 676.601 1349.77 676.688 1352.79 676.245C1354.53 675.988 1356.26 675.739 1358 675.491C1364.41 674.571 1370.83 673.652 1377.18 672.288C1381.61 671.335 1382.69 672.112 1383.55 676.625L1383.58 676.762C1384.34 680.752 1385.1 684.716 1387.4 688.27C1389.58 691.646 1392.68 692.859 1396.32 692.5C1399.82 692.158 1401.68 689.631 1402.8 686.39C1404.31 681.989 1403.87 677.633 1402.82 673.277C1402.72 672.829 1402.61 672.41 1402.51 672.016L1402.51 672.016L1402.51 672.015C1401.27 667.055 1401.07 666.239 1408.55 665.623C1411.52 665.381 1414.47 664.964 1417.42 664.548L1417.42 664.547L1417.42 664.547C1422.15 663.879 1426.89 663.211 1431.69 663.26C1432.63 663.272 1433.57 663.392 1434.55 663.741C1428.73 666.046 1422.63 667.057 1416.49 667.947C1415.33 668.116 1414.17 668.316 1413.02 668.515L1413.02 668.515L1413.02 668.515L1413.02 668.515L1413.02 668.515L1413.02 668.515L1413.02 668.515C1411.68 668.746 1410.34 668.976 1409 669.16C1406.97 669.434 1406.35 670.39 1406.85 672.4C1407.74 675.94 1408.42 679.538 1407.95 683.215C1407.55 686.365 1406.72 689.248 1404.75 691.982C1400.46 697.89 1390.1 699.802 1383.76 690.839C1381.6 687.786 1380.76 684.26 1379.91 680.727L1379.91 680.726L1379.91 680.715C1379.87 680.523 1379.82 680.33 1379.77 680.137C1379.74 680.011 1379.71 679.884 1379.68 679.757C1378.89 676.482 1378.87 676.421 1375.63 676.891C1373.11 677.254 1370.62 677.695 1368.12 678.136C1363.91 678.878 1359.7 679.62 1355.44 679.99C1355.03 680.025 1354.62 680.063 1354.21 680.102C1353.2 680.197 1352.19 680.292 1351.17 680.332C1347.35 680.484 1346.29 679.797 1345.68 676.052C1344.79 670.618 1344.02 665.167 1343.25 659.716L1343.25 659.709L1343.24 659.701L1343.24 659.693C1342.97 657.781 1342.7 655.868 1342.42 653.957C1342.39 653.7 1342.39 653.437 1342.38 653.173L1342.38 653.173C1342.38 652.958 1342.38 652.744 1342.36 652.532L1342.36 652.524L1342.36 652.524L1342.36 652.524C1342.11 650.143 1342 648.971 1341.36 648.508C1340.74 648.061 1339.64 648.278 1337.48 648.707L1337.36 648.731C1332.67 649.657 1327.92 649.814 1323.35 648.326C1313.89 645.25 1310.11 635.469 1315.05 626.847C1317.91 621.87 1325.85 616.276 1333.27 619.319L1333.27 619.331ZM1336.8 606.649C1337.4 609.941 1338.01 613.275 1338.63 616.672L1338.63 616.671C1339.51 615.496 1339.48 614.747 1339.45 614.047L1339.45 614.046L1339.45 614.043C1339.45 613.965 1339.45 613.887 1339.44 613.809C1339.26 607.006 1338.49 600.249 1337.73 593.499L1337.72 593.472C1337.65 592.835 1337.58 592.198 1337.51 591.561C1337.39 590.508 1337.26 589.631 1337.15 588.893L1337.15 588.892C1336.89 587.12 1336.75 586.151 1337.14 585.491C1337.6 584.694 1338.85 584.35 1341.58 583.59L1341.59 583.589C1342.22 583.414 1342.93 583.218 1343.73 582.988C1343.91 582.935 1344.11 582.913 1344.3 582.891C1344.42 582.877 1344.55 582.863 1344.67 582.842C1349.11 582.039 1353.55 581.229 1357.99 580.419L1357.99 580.418L1358 580.417C1369.28 578.36 1380.55 576.303 1391.85 574.364C1396.67 573.537 1401.53 572.781 1406.5 573.219C1415.03 573.969 1421.12 577.903 1424.27 586.06C1426.16 590.948 1427.91 595.868 1429.1 600.98C1431.28 610.343 1432.93 619.807 1434.58 629.273L1434.58 629.274L1434.58 629.274L1434.58 629.274C1435.05 631.991 1435.53 634.708 1436.01 637.423C1436.06 637.652 1436.06 637.9 1436.07 638.153C1436.11 639.055 1436.14 640.02 1437.64 640.414C1437.61 639.4 1437.61 638.39 1437.61 637.385L1437.61 637.383L1437.61 637.383C1437.6 635.225 1437.6 633.09 1437.37 630.982C1435.71 615.506 1432.95 600.221 1428.41 585.319C1425.6 576.106 1419.27 570.59 1409.71 569.258C1405.65 568.698 1401.49 568.563 1397.39 569.168L1396.61 569.282L1396.61 569.282L1396.61 569.282C1390.3 570.21 1383.99 571.136 1377.7 572.198C1368.33 573.78 1358.98 575.432 1349.64 577.181C1345.29 577.998 1340.95 578.947 1336.69 580.144C1333.08 581.159 1332.43 582.441 1333.09 586.132C1334.29 592.911 1335.53 599.684 1336.8 606.647L1336.8 606.649ZM1203.87 659.883L1203.87 659.874C1203.68 659.213 1203.49 658.609 1203.32 658.041C1202.97 656.892 1202.67 655.893 1202.45 654.879C1201.31 649.753 1200.38 644.606 1202.1 639.408C1204.83 631.156 1211.17 626.643 1218.82 623.75C1225.08 621.38 1231.66 620.656 1238.38 620.686C1249.03 620.735 1259.49 622.266 1269.9 624.342C1270.01 624.363 1270.12 624.383 1270.23 624.403C1271.07 624.552 1272.01 624.72 1272.17 625.715C1272.33 626.715 1271.56 626.966 1270.83 627.206C1270.65 627.264 1270.48 627.321 1270.32 627.387C1270.05 627.5 1269.77 627.601 1269.5 627.702L1269.5 627.703C1269.03 627.876 1268.56 628.049 1268.12 628.278C1267.28 628.717 1266.33 629.312 1266.64 630.395C1266.95 631.456 1268.12 631.582 1269.03 631.495C1274.27 631 1279.29 629.544 1284.11 627.544C1286.72 626.459 1286.94 624.235 1284.61 622.313C1283.9 621.726 1283.19 621.128 1282.49 620.53L1282.48 620.528C1279.83 618.276 1277.16 616.017 1274.11 614.303C1273.96 614.222 1273.82 614.135 1273.67 614.048L1273.67 614.048C1272.65 613.434 1271.55 612.777 1270.26 613.665C1270.14 614.974 1270.91 615.791 1271.67 616.594C1272.3 617.258 1272.93 617.912 1273.02 618.827C1272.32 619.672 1271.55 619.535 1270.79 619.401C1270.63 619.374 1270.48 619.348 1270.33 619.329C1268.49 619.094 1266.65 618.847 1264.81 618.6L1264.81 618.6C1261 618.09 1257.2 617.58 1253.38 617.172C1243.74 616.145 1234.09 615.941 1224.56 618.207C1216.26 620.183 1208.97 623.663 1203.1 630.341C1195.74 638.715 1197.32 653.151 1203.87 659.874L1203.87 659.884L1203.87 659.883ZM1273.91 626.451C1274.32 626.485 1274.41 626.208 1274.49 625.922C1274.53 625.787 1274.58 625.65 1274.65 625.542C1274.53 625.506 1274.41 625.465 1274.28 625.424L1274.28 625.424C1274 625.329 1273.72 625.234 1273.43 625.196C1272.95 625.136 1272.89 625.436 1272.82 625.737C1272.79 625.87 1272.75 626.004 1272.69 626.107C1272.79 626.156 1272.88 626.227 1272.97 626.297C1273.23 626.494 1273.48 626.694 1273.9 626.458L1273.91 626.451ZM1319.65 746.811C1320.53 748.074 1321.46 749.363 1323.83 750.34L1323.83 750.325C1323.58 749.745 1323.39 749.256 1323.22 748.83C1322.91 748.052 1322.69 747.486 1322.38 746.974C1321.65 745.774 1320.92 744.573 1320.19 743.371C1317.64 739.161 1315.09 734.953 1312.39 730.843C1309.29 726.124 1309.8 725.866 1312.9 724.289C1313.19 724.143 1313.5 723.985 1313.83 723.812C1318.66 721.291 1321.9 717.239 1324.12 712.366C1326.68 706.752 1325.53 700.74 1321.16 696.113C1316.8 691.481 1311.8 690.471 1305.57 692.793C1302.85 693.805 1300.46 695.315 1298.15 696.995L1298.09 697.037C1295.06 699.243 1294.9 699.362 1292.77 696.349C1290.69 693.415 1288.71 690.411 1286.74 687.407C1285.41 685.394 1284.09 683.38 1282.73 681.388C1282.54 681.105 1282.35 680.815 1282.16 680.522C1281.19 679.023 1280.18 677.458 1278.17 676.49C1278.21 676.811 1278.22 677.078 1278.24 677.306C1278.27 677.714 1278.29 677.996 1278.39 678.236C1282.03 686.15 1286.64 693.518 1291.24 700.88C1291.76 701.705 1292.27 702.529 1292.79 703.354C1294.32 705.816 1296.1 705.767 1298.12 703.319C1300.62 700.302 1303.64 698.097 1307.2 696.636C1312.36 694.527 1317.11 696.234 1319.65 701.148C1322.17 706.029 1321.4 710.662 1318.11 714.907C1315.64 718.093 1312.3 720.233 1308.88 722.26C1304.95 724.59 1304.79 725.194 1307.26 728.821C1311.36 734.836 1315.49 740.835 1319.65 746.811Z" fill="#FF8B13"/>
<path d="M1177.2 193.015C1175.74 193.015 1174.28 193.005 1172.82 193C1174.28 193.421 1175.74 193.462 1177.2 193.015Z" fill="#FF8B13"/>
<path d="M1137.29 445.047C1133.22 441.269 1125.25 440.617 1120.41 445.396C1123.05 445.155 1125.92 444.708 1128.79 444.678C1133.2 444.637 1136.95 448.107 1137.23 452.475C1137.44 455.694 1136.72 458.717 1134.34 461.16C1132.01 463.552 1129.32 465.426 1126.44 467.094C1121.88 469.738 1117.03 471.755 1112.28 473.994C1098.7 480.395 1085.09 486.75 1071.53 493.192C1069.89 493.967 1068.76 493.967 1067.76 492.34C1066.42 490.168 1064.95 488.079 1063.59 485.918C1060.49 481 1057.43 476.057 1054.35 471.124C1057.16 479.419 1061 487.176 1065.33 494.706C1065.93 495.743 1066.36 496.883 1067.04 497.853C1068.11 499.367 1067.44 500.512 1066.24 501.277C1062.45 503.7 1058.75 506.287 1054.54 508.022C1052.86 508.72 1051.63 508.309 1050.62 506.928C1050 506.081 1049.4 505.209 1048.87 504.305C1040.02 489.316 1031.15 474.337 1022.37 459.312C1019.72 454.78 1017.2 450.16 1014.83 445.478C1013.36 442.558 1013.72 441.29 1015.98 439.077C1016.73 438.343 1017.56 437.666 1018.42 437.075C1026.22 431.706 1027.63 430.304 1033.71 440.191C1037.64 446.582 1041.4 453.081 1046.19 458.897L1046.31 458.953L1046.19 458.845C1044.11 451.53 1039.8 445.34 1036.06 438.867C1034.59 436.326 1034.57 436.48 1037.26 435.207C1044.57 431.742 1050.54 426.947 1052.57 418.637C1054.22 411.917 1053 405.573 1049.9 399.459C1046.55 392.863 1041.29 387.966 1035.81 383.248C1033.65 381.39 1031.25 379.783 1029.65 377.35C1027.2 373.618 1027.84 370.205 1031.54 367.617C1035.64 364.753 1040.21 364.229 1044.9 365.502C1052.51 367.566 1058.04 372.545 1062.56 378.757C1066.21 383.767 1068.67 389.429 1071.21 395.034C1071.91 396.584 1072.47 398.211 1073.94 399.479C1074.69 397.78 1074.16 396.518 1073.87 395.209C1071.94 386.456 1067.11 379.29 1061.49 372.55C1057.23 367.438 1051.91 363.844 1045.45 362.217C1039.16 360.626 1033.16 361.437 1028.04 365.775C1023.56 369.568 1022.98 374.47 1026.21 379.403C1027.54 381.441 1029.25 383.125 1031.03 384.737C1032.7 386.246 1034.46 387.673 1036.14 389.177C1041.81 394.259 1046.61 399.921 1048.61 407.518C1049.9 412.425 1049.03 416.881 1046.74 421.383C1043.7 427.337 1037.9 429.853 1033.08 433.605C1028.55 428.498 1027.02 428.631 1021.92 430.802C1019.19 431.963 1016.61 433.672 1014.28 435.525C1009.29 439.478 1008.79 442.47 1011.92 448.014C1017.08 457.146 1022.27 466.263 1027.54 475.333C1032.67 484.157 1037.87 492.945 1043.14 501.682C1044.84 504.495 1046.51 507.334 1048.79 509.788C1050.79 511.938 1052.9 512.529 1055.64 511.502C1060.63 509.639 1065.08 506.892 1069.31 503.736C1070.85 502.596 1071.88 501.184 1071.76 499.182C1071.67 497.565 1072.61 496.821 1073.95 496.22C1077.51 494.639 1081.05 493.002 1084.56 491.318C1098.66 484.573 1112.74 477.808 1126.83 471.037C1131.23 468.922 1135.09 466.099 1138.15 462.274C1142.27 457.105 1141.87 449.262 1137.3 445.037L1137.29 445.047Z" fill="#FF8B13"/>
<path d="M1184.01 325.966C1186.44 321.829 1189.02 317.763 1191.18 313.487C1193.79 308.328 1192.99 305.711 1188.19 302.4C1184.58 299.91 1180.59 298.118 1176.38 296.897C1173.75 296.137 1171.11 296.332 1169.36 298.586C1167.76 300.639 1166.48 300.156 1164.88 298.837C1164.19 298.267 1163.36 297.867 1162.63 297.338C1153.19 290.429 1150.82 281.42 1155.72 270.815C1156.72 268.638 1157.96 266.595 1159.34 264.604C1162.46 260.066 1166.95 256.96 1170.91 253.29C1177.71 246.981 1176.7 239.353 1168.52 235.016C1160.89 230.971 1153.5 232.387 1146.68 236.663C1136.9 242.798 1131.46 252.191 1128.43 263.1C1128.24 263.782 1128.05 264.537 1128.5 265.266C1129.76 264.383 1130.52 263.171 1131.03 261.749C1132.1 258.762 1133.64 256 1135.26 253.295C1139.34 246.468 1144.49 240.821 1152.11 237.669C1158.12 235.18 1163.59 236.027 1168.81 239.466C1172.69 242.028 1173.05 246.191 1169.66 249.378C1167.04 251.847 1164.22 254.106 1161.51 256.488C1157.61 259.902 1154.46 263.926 1152.4 268.659C1146.8 281.589 1148.01 291.235 1159.09 299.371C1159.57 299.725 1160.02 300.141 1160.45 300.557C1161.94 302.015 1164.55 302.651 1165.1 304.576C1165.65 306.511 1163.7 308.405 1163.26 310.454C1163.17 310.849 1163.31 311.029 1163.71 310.967C1166.39 308.631 1168.62 305.808 1170.59 302.795C1172.07 300.516 1173.94 299.956 1176.38 300.885C1179.32 302.009 1182.4 302.887 1185.17 304.33C1189.62 306.64 1190.13 308.195 1187.82 312.563C1184.52 318.785 1181.03 324.914 1177.44 330.971C1170.56 342.598 1163.55 354.148 1156.61 365.734C1155.22 368.054 1153.99 370.482 1152.47 372.71C1150.44 375.682 1148.32 376.318 1145.07 374.901C1142.88 373.947 1140.73 372.787 1138.78 371.406C1134.71 368.521 1134.32 366.18 1136.83 361.853C1140.83 354.974 1144.83 348.096 1148.8 341.197C1149.31 340.298 1149.67 339.292 1149.97 338.296C1150.06 337.988 1149.78 337.347 1149.5 337.213C1149.19 337.059 1148.55 337.157 1148.28 337.403C1147.73 337.891 1147.3 338.517 1146.9 339.138C1142.96 345.165 1138.86 351.099 1135.2 357.294C1133.8 359.687 1132.55 359.897 1130.18 359.106C1122.05 356.401 1113.95 353.634 1105.92 350.662C1098.46 347.901 1090.99 345.129 1083.81 341.684C1077.16 338.497 1070.73 335.037 1065.6 329.462C1060.48 323.913 1060.95 313.457 1069.19 311.08C1069.74 310.921 1070.37 310.854 1070.8 309.668C1067.02 308.939 1064.35 310.279 1062.21 312.912C1058.7 317.235 1058.8 322.019 1060.59 326.931C1062.77 332.937 1067.54 336.592 1072.75 339.713C1084.29 346.612 1096.83 351.289 1109.36 355.95C1115.56 358.254 1121.82 360.385 1128.04 362.613C1129.93 363.29 1131.59 364.045 1131.36 366.663C1131.21 368.326 1132.11 369.886 1133.3 371.098C1136.83 374.681 1140.86 377.427 1145.84 378.705C1149.35 379.609 1151.99 378.567 1154.11 375.738C1155.55 373.818 1157.01 371.924 1158.23 369.84C1166.79 355.2 1175.42 340.606 1184.02 325.992L1184.01 325.966Z" fill="#FF8B13"/>
<path d="M1120.71 402.138C1119.27 393.761 1112.51 389.757 1103.9 391.605C1094.23 393.679 1086.11 398.822 1079.03 405.952C1084.39 404.243 1088.89 401.276 1093.63 398.766C1097.37 396.779 1101.28 395.203 1105.54 394.988C1109.43 394.793 1113.19 395.701 1115.38 399.243C1117.59 402.811 1116.68 406.43 1114.55 409.849C1113.2 412.04 1111.5 413.919 1109.67 415.711C1108.69 416.681 1107.79 417.872 1108.75 419.273C1109.56 420.469 1110.92 420.089 1112.07 419.812C1114.99 419.104 1117.89 418.175 1120.93 418.488C1127.61 419.171 1133.35 422.784 1131.41 431.798C1131.14 433.102 1130.51 434.478 1130.93 436.028C1133.16 435.176 1134.02 433.626 1134.62 431.906C1136.35 427.03 1133.99 420.823 1129.42 417.774C1125.9 415.428 1121.96 414.776 1117.68 414.679C1117.75 412.651 1118.81 411.666 1119.31 410.444C1120.39 407.77 1121.21 405.023 1120.71 402.138Z" fill="#FF8B13"/>
<path d="M1081.23 311.075C1078.03 308.359 1075.29 305.407 1073.65 301.609C1070.77 294.936 1074 288.755 1081.08 287.215C1083.02 286.794 1084.93 286.717 1086.89 287.03C1088.22 287.246 1089.57 287.374 1090.92 287.487C1091.51 287.539 1092.13 287.415 1092.51 286.871C1093.05 286.086 1092.6 285.403 1092.1 284.869C1090.25 282.893 1088.5 280.824 1087.22 278.437C1083.59 271.718 1087.21 264.434 1094.78 263.146C1097.5 262.684 1100.18 262.945 1102.81 263.659C1106.9 264.762 1110.67 266.585 1114.33 268.653C1115.92 269.547 1117.44 270.738 1119.59 270.758C1119.11 269.151 1117.98 268.597 1116.99 267.981C1111.14 264.357 1105.35 261.108 1098.11 260.291C1087.08 259.049 1080.63 269.192 1082.89 276.061C1083.64 278.324 1084.64 280.486 1085.73 283.293C1077.59 284.197 1070.83 286.389 1069.97 295.48C1069.36 301.891 1074.28 308.508 1081.22 311.075H1081.23Z" fill="#FF8B13"/>
<path d="M998.841 258.521C1013.67 269.901 1027.95 282.062 1046.59 289.171C1032.24 275.317 1015.25 267.329 998.841 258.521Z" fill="#FF8B13"/>
<path d="M1160.9 479.599C1159.25 478.464 1157.42 477.556 1155.05 477.638C1158.77 483.649 1179.12 498.094 1193.5 504.839C1190.74 502.092 1187.53 499.849 1184.65 497.298C1177.2 490.722 1169.03 485.199 1160.9 479.599Z" fill="#FF8B13"/>
<path d="M1162.07 441.32C1178.07 444.236 1193.36 446.454 1208.84 445.781C1197.78 441.264 1168.91 438.204 1162.07 441.32Z" fill="#FF8B13"/>
<path d="M1058.67 259.532C1058.34 259.291 1057.93 259.08 1057.78 258.757C1054.33 251.278 1048.01 246.288 1042.02 241.114C1039.02 238.517 1035.72 236.237 1032.95 233.342C1031.46 231.797 1029.82 230.396 1027.76 229.6C1033.05 236.72 1039.03 243.152 1045.29 249.337C1049.32 253.316 1053.62 256.909 1058.67 259.532H1058.67Z" fill="#FF8B13"/>
<path d="M1058.79 259.619C1058.75 260.297 1059.02 260.656 1059.75 260.538L1059.87 260.646L1059.76 260.523C1059.86 259.789 1059.55 259.481 1058.81 259.609C1058.77 259.584 1058.72 259.558 1058.67 259.532C1058.71 259.558 1058.75 259.589 1058.78 259.619H1058.79Z" fill="#FF8B13"/>
<path d="M1009.76 303.683C1017.3 308.503 1024.82 313.369 1035.19 313.6C1030.05 308.646 1021.19 305.233 1009.76 303.683Z" fill="#FF8B13"/>
<path d="M1166.53 462.361C1173.62 467.459 1181.48 469.343 1190.17 470.677C1183.83 465.703 1173.83 462.218 1166.53 462.361Z" fill="#FF8B13"/>
<path d="M1180.56 411.502C1174.25 411.337 1167.93 411.265 1162.12 414.848C1168.94 416.471 1174.71 413.837 1180.56 411.502Z" fill="#FF8B13"/>
<path d="M1072.39 229.164C1073.49 234.451 1075.51 239.271 1079.62 243.68C1078.79 237.577 1076.05 233.137 1072.39 229.164Z" fill="#FF8B13"/>
<path d="M1136.78 490.512C1137.41 496.118 1140.91 499.105 1144.43 502.37C1142.86 495.502 1141.39 493.161 1136.78 490.512Z" fill="#FF8B13"/>
<path d="M1176.65 315.448C1178.09 315.377 1178.73 314.427 1178.77 312.979C1178.46 311.675 1177.62 310.87 1176.22 311.142C1174.89 311.398 1174.11 312.363 1174.33 313.76C1174.53 314.986 1175.52 315.5 1176.65 315.443L1176.65 315.448Z" fill="#FF8B13"/>
<path d="M1023.37 445.643C1023.38 446.823 1024.22 447.485 1025.41 447.444C1026.58 447.403 1027.27 446.726 1027.46 445.55C1027.38 444.39 1026.77 443.579 1025.6 443.507C1024.2 443.425 1023.36 444.292 1023.37 445.643Z" fill="#FF8B13"/>
<path fill-rule="evenodd" clip-rule="evenodd" d="M587.696 72.9584C592.279 75.4627 596.531 78.4298 599.833 82.5003L599.837 82.4961C603.961 87.5749 606.135 93.3232 604.684 99.964C604.135 102.477 603.159 104.873 601.775 107.068C601.936 107.369 601.853 107.498 601.51 107.448C597.75 113.167 591.998 115.891 585.77 117.862C584.762 118.18 583.717 118.389 582.676 118.597C582.19 118.694 581.704 118.791 581.224 118.899C579.334 119.549 577.431 119.39 575.532 119.232C574.627 119.156 573.724 119.081 572.823 119.093C572.521 119.399 572.224 119.709 571.926 120.019L571.952 120.207C571.97 120.338 571.988 120.468 572.005 120.599C572.035 120.82 572.065 121.042 572.096 121.263C572.209 121.413 572.32 121.564 572.432 121.714L572.433 121.716L572.435 121.717L572.58 121.913C572.644 122 572.709 122.086 572.773 122.172L572.901 122.139L572.757 122.193C573.03 122.651 573.302 123.11 573.575 123.565L573.678 123.474L573.604 123.585C575.98 128.391 577.674 133.313 577.084 138.838C576.476 144.549 573.335 148.153 568.079 149.88C562.004 151.876 556.409 150.492 551.433 146.624C549.9 145.433 548.447 144.14 546.915 142.775C546.192 142.132 545.452 141.473 544.677 140.801C544.128 142.174 543.816 143.56 543.512 144.916C543.153 146.509 542.804 148.061 542.09 149.504C537.408 158.967 530.374 165.22 519.522 166.431C515.799 166.848 512.315 166.038 509.043 164.327C501.757 160.517 497.017 154.438 493.881 147C493.6 146.332 493.481 145.595 493.362 144.859L493.362 144.859C493.307 144.52 493.253 144.182 493.182 143.851C493.244 143.933 493.306 144.004 493.372 144.057C493.306 144 493.244 143.929 493.182 143.851C492.187 142.93 491.991 141.711 491.796 140.505L491.796 140.505C491.752 140.228 491.707 139.952 491.653 139.681C491.31 137.97 490.546 138.487 489.735 139.035C489.702 139.057 489.668 139.08 489.634 139.103C489.599 139.126 489.564 139.15 489.529 139.173C483.248 146.661 475.09 149.901 465.478 149.244C455.577 148.566 449.374 139.908 449.638 130.941C449.812 125.019 452.688 120.102 455.862 115.349C458.073 112.035 460.404 108.812 464.238 107.121C464.356 107.07 464.472 107.013 464.588 106.956C465.116 106.695 465.641 106.436 466.35 106.683C465.123 110.299 462.776 113.2 460.313 115.969C456.573 120.168 454.523 125.118 453.56 130.54C452.457 136.743 455.688 142.533 461.631 145.268C462.517 145.676 463.461 145.967 464.402 146.258L464.402 146.258L464.403 146.258L464.404 146.258C464.845 146.394 465.285 146.53 465.718 146.677C466.983 146.679 468.247 146.683 469.511 146.686H469.52H469.529C470.785 146.689 472.039 146.692 473.293 146.694C478.012 145.347 482.587 143.727 486.256 140.235C486.779 139.737 487.414 139.356 488.048 138.975C488.34 138.8 488.633 138.624 488.913 138.437C489.192 137.686 489.77 137.284 490.394 136.849C490.862 136.523 491.356 136.179 491.769 135.656C492.05 136.714 492.423 137.701 492.785 138.662C493.45 140.422 494.081 142.096 494.062 143.962C496.707 149.653 499.819 155.091 504.844 158.988C514.77 166.683 526.019 165.17 534.42 155.604C538.718 150.711 540.966 144.995 541.214 138.479C541.225 138.192 541.203 137.884 541.18 137.572C541.105 136.522 541.025 135.425 542.214 134.925C543.717 134.294 544.677 135.463 545.484 136.444C545.586 136.569 545.686 136.69 545.784 136.805C548.227 139.652 550.727 142.388 553.859 144.516C557.83 147.215 562.099 148.475 566.864 147.289C570.666 146.339 573.228 144.045 574.302 140.181C575.207 136.929 574.984 133.71 574.046 130.54C573.596 129.013 573.045 127.518 572.495 126.023L572.495 126.023C572.253 125.365 572.011 124.708 571.777 124.048L571.753 124.077C571.426 123.457 571.104 122.841 570.79 122.23C569.335 120.507 568.447 118.502 567.637 116.064C569.992 116.626 572.133 117.139 574.265 117.651C581.274 117.816 587.568 115.667 593.308 111.75C602.271 105.634 604.13 94.129 597.242 85.174C593.659 80.5208 588.733 77.7686 583.547 75.3718C583.001 75.1197 582.439 74.8965 581.869 74.694L581.676 74.6259C580.225 74.1138 578.645 73.5563 578.637 71.76C578.629 69.9955 580.244 69.2241 581.634 68.56L581.683 68.5367C584.828 67.0325 587.873 65.363 590.795 63.4579C595.291 60.5238 598.651 56.8005 599.717 51.3126C600.878 45.3164 597.754 39.1962 592.043 36.9316C588.171 35.3944 584.195 34.8571 580.005 35.8324C576.117 36.7374 572.265 37.6672 568.517 39.3615C571.368 32.8405 572.794 26.1046 572.038 19.0133C571.563 14.5585 569.943 10.6326 566.699 7.41346C563.207 3.95045 558.802 3.27273 554.285 3.61573C546.582 4.1984 541.048 8.37632 537.325 15.0007C536.56 16.3602 535.943 17.8013 535.326 19.2428L535.326 19.2428C535.042 19.9044 534.759 20.5661 534.461 21.22L534.515 21.2324C534.391 21.6936 534.27 22.1554 534.148 22.6171L534.148 22.6181L534.148 22.6184C533.841 23.7864 533.534 24.9539 533.184 26.1087L533.159 26.192C532.889 27.0822 532.582 28.0937 531.436 28.1377C530.267 28.1873 529.837 27.3113 529.63 26.274C529.481 25.5212 529.242 24.7997 529.001 24.0741L529.001 24.074C528.755 23.3338 528.508 22.5893 528.354 21.8027C526.568 12.6658 516.729 5.27284 506.629 10.9178C502.877 13.0129 500.765 16.4883 499.604 20.5712C498.17 25.6004 497.761 30.7205 498.257 36.3035C496.607 35.2084 495.7 33.6762 494.82 32.1899C494.388 31.4607 493.962 30.7425 493.459 30.0924C492.504 28.8606 491.41 27.7839 490.317 26.7087L490.317 26.7086L490.317 26.7086C489.617 26.02 488.918 25.3321 488.256 24.6045V24.6334C487.946 24.3999 487.636 24.1654 487.326 23.9309C487.017 23.6964 486.707 23.4619 486.397 23.2284L486.145 23.2614L486.277 23.0755C485.116 22.6662 484.033 22.0985 482.948 21.5294C481.951 21.0068 480.952 20.483 479.888 20.0794C469.483 16.1329 460.263 24.2119 461.358 34.2331C461.813 38.4152 463.524 42.1303 466.681 45.056L466.772 45.1404L466.772 45.1406L466.772 45.1407C466.919 45.2769 467.065 45.4122 467.206 45.5561C467.26 45.6111 467.315 45.6666 467.37 45.7226L467.371 45.7239L467.373 45.7253C468.362 46.724 469.503 47.8766 468.991 49.2216C468.543 50.3997 467.002 50.4732 465.739 50.5333L465.738 50.5333L465.737 50.5334C465.636 50.5382 465.537 50.5429 465.441 50.5481C460.156 50.8332 455.151 52.2713 450.63 54.8789C443.398 59.0486 438.692 65.1563 437.406 73.6485C435.824 84.1202 443.01 95.877 452.122 100.014C453.961 100.849 455.813 101.66 457.869 102.561L457.876 102.564L457.881 102.566C458.862 102.995 459.888 103.445 460.982 103.927C456.011 103.968 452.114 102.497 448.543 100.402C438.535 94.534 433.224 85.6492 433.898 74.0659C434.572 62.4826 441.287 54.8087 451.841 50.4158C455.478 48.8992 459.23 47.6719 463.412 47.2256C462.709 45.3494 461.837 44.0766 460.932 42.8121C457.759 38.3739 457.362 33.3653 458.457 28.2741C459.631 22.8027 463.114 19.1827 468.47 17.3975C474.652 15.3395 480.57 16.1495 485.607 20.0547C485.81 20.2118 486.014 20.3691 486.219 20.5269L486.22 20.528C488.992 22.6643 491.882 24.8919 493.682 28.1047C494.037 28.7383 494.53 29.2951 495.04 29.8707C495.278 30.1397 495.52 30.4129 495.753 30.6999C496.793 30.0769 496.702 29.1902 496.615 28.3334L496.615 28.3333C496.597 28.1558 496.579 27.9795 496.571 27.8072C496.393 23.8896 497.12 20.2034 498.525 16.4966C502.906 4.94224 517.167 1.8553 526.201 10.4219C526.461 10.6698 526.721 10.9218 526.981 11.1738L526.982 11.174C526.986 11.1781 527.106 11.0748 527.106 11.0748L527.023 11.1905C527.964 12.1213 528.559 13.286 529.164 14.471C529.771 15.659 530.388 16.8673 531.374 17.881C532.597 16.8005 533.219 15.4962 533.823 14.2283L533.823 14.2282C533.871 14.1287 533.918 14.0293 533.965 13.9303C537.627 6.33902 543.594 1.85116 551.871 0.305624C560.628 -1.33083 571.951 3.59093 574.092 15.3974C575.216 21.5837 574.352 27.3278 571.939 32.9769C571.862 33.1557 571.768 33.3283 571.675 33.5007C571.428 33.9538 571.182 34.406 571.257 34.9687C571.399 35.1691 571.543 35.3685 571.687 35.5679C571.83 35.7673 571.974 35.9667 572.116 36.1671C577.166 34.0513 582.303 32.5553 587.898 33.357C592.469 34.0141 596.469 35.7002 599.593 39.1756C600.229 39.8863 600.858 40.6963 601.192 41.5724C603.238 46.9033 603.783 52.0068 600.895 57.5071C597.82 63.3628 593.101 66.8548 587.46 69.6111C586.973 69.8504 586.565 70.2527 586.153 70.6586L586.153 70.6587C585.96 70.8486 585.766 71.0393 585.563 71.2145C585.763 72.1288 586.451 72.4158 587.112 72.6911C587.314 72.7754 587.514 72.8586 587.696 72.9584ZM469.02 147.301C469.334 147.322 469.652 147.326 469.966 147.322C469.652 147.33 469.334 147.322 469.02 147.301ZM571.761 124.073L571.765 124.065C571.765 124.065 571.765 124.069 571.761 124.073ZM576.207 118.932C576.232 118.932 576.257 118.932 576.282 118.936C576.257 118.936 576.232 118.936 576.207 118.932ZM543.083 69.9828C543.07 71.7143 541.64 73.0904 539.876 73.078V73.0739C538.293 73.0656 536.995 71.6441 537.082 70.02C537.153 68.71 538.826 67.0694 540.165 66.9992C541.657 66.9207 543.095 68.3918 543.083 69.9828ZM513.576 72.9047C513.588 71.2393 511.997 69.6483 510.344 69.6773C508.807 69.702 507.464 71.2145 507.534 72.8386C507.596 74.2767 509.171 75.5908 510.803 75.566C512.44 75.5412 513.568 74.4626 513.576 72.9088V72.9047ZM517.973 88.1028C518.405 88.5184 518.839 88.9363 518.927 89.5876H518.936L519.039 89.5256L518.944 89.5876C519.251 89.7998 519.551 90.028 519.852 90.2563C520.505 90.7527 521.159 91.2496 521.886 91.5836C527.572 94.187 531.597 92.5093 534.131 87.8603C534.33 87.4938 534.506 87.1115 534.683 86.7292C535.257 85.4864 535.832 84.2434 537.184 83.5418C538.759 87.261 536.056 92.6911 531.577 94.8565C526.155 97.4765 519.642 95.2904 516.811 89.9017C516.151 89.9668 516.009 89.5204 515.877 89.1031C515.833 88.964 515.79 88.8282 515.729 88.7157C515.278 87.8726 514.882 86.6288 515.877 86.2321C516.766 85.8767 517.576 86.8065 517.758 87.8933C517.828 87.9638 517.9 88.0333 517.973 88.1028Z" fill="#FF8B13"/>
<g clip-path="url(#clip0_3448_10741)">
<path d="M1357.14 235.613C1359.75 245.184 1366.53 248.895 1373.55 245.338C1374.35 245.691 1374.21 246.494 1374.31 247.129C1375 251.327 1378.82 255.26 1382.92 255.922C1384.47 256.175 1385.99 256.027 1387.44 255.366C1388.66 254.809 1389.4 255.048 1389.73 256.495C1390.02 257.794 1390.96 258.771 1391.86 259.725C1395.32 263.429 1399.34 263.749 1403.12 260.329C1406.02 257.704 1408.77 254.879 1411.35 251.942C1414.33 248.552 1417.19 245.037 1419.87 241.4C1424.24 235.441 1422.58 230.397 1415.57 227.849C1415.15 227.692 1414.73 227.496 1414.31 227.32C1417.35 220.347 1412.37 214.57 1404.32 213.397C1407.68 205.315 1404.87 198.816 1393.47 198.565C1393.77 196.48 1395.22 194.976 1396.09 193.255C1400.33 184.912 1400.97 176.269 1398.91 167.277C1393.87 145.239 1380.62 129.702 1361.06 119.266C1352.06 114.46 1342.42 111.808 1332.09 112.365C1324.14 112.791 1316.74 115.353 1309.76 119.063C1298 125.32 1287.7 133.462 1279.57 144.118C1274.18 151.181 1271.33 159.336 1270.25 168.107C1268.75 180.246 1272.18 191.282 1277.37 202.027C1280.17 207.844 1283.58 213.219 1287.76 218.043C1293.33 224.479 1299.48 230.34 1306.86 234.789C1312.25 238.04 1317.81 240.808 1323.96 242.326C1335.93 245.276 1346.98 243.513 1357.14 235.613ZM1361.92 227.135C1361.56 227.762 1361.44 228.098 1361.22 228.333C1350.35 239.865 1335.77 243.315 1320.19 238.085C1313.1 235.705 1307.13 231.466 1301.44 226.864C1288.57 216.448 1279.75 203.145 1275.44 187.123C1271.58 172.768 1273.33 158.955 1282.33 146.75C1291.95 133.704 1304.55 124.421 1319.82 118.924C1326.26 116.603 1332.89 115.652 1339.74 116.455C1346.89 117.295 1353.44 119.755 1359.81 123.052C1374.31 130.558 1385.01 141.67 1391.79 156.5C1394.16 161.674 1395.59 167.176 1396.32 172.888C1397.58 182.899 1393.74 191.226 1388.22 199.144C1382.33 207.587 1375.07 214.757 1367.72 221.869C1366.29 223.255 1365.03 223.732 1363.01 223.19C1352.59 220.373 1342.34 217.136 1333.15 211.312C1326.4 207.039 1320.39 201.947 1316.49 194.751C1311.97 186.422 1316.08 177.184 1325.09 175.365C1326.72 175.038 1327.72 175.203 1328.28 177.063C1328.9 179.085 1329.81 181.07 1330.91 182.878C1333.78 187.596 1337.37 191.62 1342.62 193.801C1343.16 194.028 1343.71 194.258 1344.28 194.412C1347 195.139 1349.5 194.859 1351.35 192.477C1353.1 190.235 1352.78 187.809 1351.69 185.435C1348.17 177.793 1341.73 174.001 1333.9 172.241C1330.37 171.453 1329.5 170.459 1330.54 166.944C1331.94 162.218 1335.04 159.185 1339.91 158.172C1345.66 156.98 1350.69 158.999 1355.39 161.919C1361.08 165.451 1365.83 170.012 1369.56 175.627C1370.29 176.732 1370.86 178.14 1372.47 178.492C1373.26 177.08 1372.45 176.125 1371.81 175.167C1369.7 172.014 1367.49 168.923 1364.9 166.174C1359.6 160.563 1353.51 156.197 1345.62 155.062C1335.84 153.657 1328.42 159.168 1327.33 168.96C1327.08 171.177 1326.23 171.752 1324.35 171.985C1314.81 173.183 1307.08 183.624 1313.13 195.764C1315.6 200.707 1319.23 204.743 1323.37 208.33C1331.93 215.739 1342.03 220.286 1352.58 223.968C1355.57 225.014 1358.69 225.713 1361.92 227.131L1361.92 227.135ZM1400.79 211.947C1400.22 212.667 1399.33 213.939 1398.3 215.09C1391.1 223.165 1383.77 231.115 1376 238.641C1374.53 240.057 1372.98 241.327 1371.24 242.327C1368.62 243.821 1366.05 243.395 1363.8 241.22C1361 238.513 1360.38 236.162 1361.85 233.304C1362.89 231.279 1364.38 229.569 1366 227.987C1372.88 221.251 1379.77 214.54 1386.67 207.827C1388.82 205.74 1391.19 203.944 1393.99 202.862C1396.94 201.717 1399.25 202.298 1401.07 204.445C1402.68 206.336 1402.69 208.655 1400.79 211.943L1400.79 211.947ZM1379.61 241.511L1379.52 241.463C1380.04 240.662 1380.5 239.818 1381.08 239.07C1386.37 232.312 1392.46 226.303 1398.63 220.383C1399.64 219.415 1400.94 218.773 1402.03 217.92C1403.45 216.801 1404.88 216.907 1406.36 217.254C1411.83 218.537 1413.99 222.92 1410.89 226.862C1404.5 234.987 1397.96 243.001 1390.26 249.953C1389.39 250.745 1388.42 251.478 1387.39 252.047C1384.66 253.565 1382.22 253.211 1379.9 251.099C1377.67 249.066 1377.12 246.49 1378.38 243.676C1378.72 242.922 1379.2 242.229 1379.61 241.509L1379.61 241.511ZM1331.14 175.646C1331.84 175.525 1332.18 175.378 1332.49 175.428C1338.44 176.376 1343.2 179.423 1347.1 183.881C1348.18 185.115 1348.98 186.595 1349.16 188.31C1349.37 190.249 1348.58 191.256 1346.67 191.331C1345.35 191.385 1344.11 190.971 1342.94 190.396C1340.69 189.29 1338.82 187.636 1337.13 185.855C1334.41 182.975 1332.48 179.569 1331.14 175.648L1331.14 175.646Z" fill="#FF8B13"/>
</g>
<path d="M-25.7252 354.651C-19.7259 357.928 -13.2568 359.636 -6.54104 360.519C-5.76399 360.024 -4.62672 360.274 -4.07208 359.312C-4.34466 359.224 -4.62207 359.133 -4.89859 359.046L-5.0179 359.194C-5.0179 359.194 -5.03472 358.993 -5.03079 358.992C-7.7639 358.713 -10.0278 357.062 -12.6211 356.325C-17.3158 354.993 -21.5973 352.716 -25.7563 350.177C-27.6126 349.042 -29.1367 347.585 -30.3889 345.832C-33.1359 341.989 -33.5035 337.491 -31.3554 334.533C-29.2073 331.575 -25.2975 330.625 -20.7235 331.916C-17.4948 332.826 -14.7609 334.634 -11.9319 336.912C-11.922 335.594 -11.9434 334.538 -11.8983 333.484C-11.7389 329.663 -11.3891 325.879 -9.33158 322.523C-6.99323 318.711 -2.06948 317.689 0.644964 319.284C2.42747 320.331 3.96779 321.55 5.07238 323.291C7.91424 327.768 8.78653 332.773 8.71342 337.952C8.67083 340.76 8.2258 343.564 7.96293 346.368L8.12838 346.477C8.12838 346.477 7.94615 346.585 7.94525 346.581C7.81952 347.809 7.69379 349.036 7.56896 350.268C8.06796 350.713 8.53938 351.22 9.30906 350.911C9.58898 349.398 10.3494 347.959 9.99846 346.347C9.786 345.924 9.945 345.695 10.3726 345.61C11.8986 342.664 11.8282 339.452 11.77 336.274C11.655 330.36 10.5713 324.718 6.8504 319.853C1.70783 313.127 -7.05382 313.454 -11.5066 320.517C-13.4826 323.649 -14.1316 327.047 -14.024 330.677C-14.0057 331.32 -13.6055 332.077 -14.7197 332.582C-16.6336 331.23 -18.6667 329.81 -21.0555 329.081C-29.0066 326.646 -37.8233 331.814 -35.87 342.396C-35.5853 343.935 -34.9287 345.326 -34.124 346.659C-32.0483 350.099 -29.2231 352.742 -25.7252 354.651Z" fill="#FF8B13"/>
<path d="M-2.32734 378.307C-9.24962 387.167 -10.2961 396.653 -5.96877 406.948C-5.63816 407.062 -5.30965 407.183 -4.97904 407.297C-6.56325 399.303 -6.37398 391.559 -2.5082 384.131C-0.0766148 379.452 6.90608 374.171 12.8953 375.826C15.8124 376.632 18.319 378.138 20.481 380.199C27.1801 386.595 30.522 394.764 32.3885 403.608C34.2333 412.351 34.7098 421.222 34.5035 430.129L34.6679 430.205C34.6679 430.205 34.5306 430.335 34.5289 430.331C34.5201 431.107 34.5092 431.887 34.5036 432.67C34.9575 433.357 35.1697 434.299 36.2458 434.319C36.7015 430.704 37.623 427.181 37.744 423.493C38.0656 413.68 36.7928 404.093 33.5526 394.833C31.0994 387.82 27.4403 381.455 21.7665 376.471C13.6357 369.322 3.0829 371.384 -2.32734 378.307Z" fill="#FF8B13"/>
<path d="M-12.1273 445.744C-21.032 442.44 -28.5571 437.34 -32.2882 428.053C-35.179 420.86 -33.7099 412.171 -25.4964 407.912C-21.8114 406.001 -17.8001 405.879 -13.7462 406.55C-13.1732 405.891 -13.4752 405.139 -13.5362 404.415C-14.6825 404.151 -15.8213 403.812 -16.9847 403.63C-26.5903 402.127 -35.0551 408.649 -36.5715 417.004C-38.5283 427.805 -33.6913 436.048 -25.6643 442.395C-18.9766 447.682 -10.9048 450.277 -2.55667 451.798C4.80365 453.138 12.1151 452.987 19.3722 451.21C20.103 450.612 19.8753 449.858 19.698 449.11C16.8457 449.771 13.8912 449.531 11.0292 449.557C3.15016 449.625 -4.66957 448.514 -12.1257 445.748L-12.1273 445.744Z" fill="#FF8B13"/>
<path d="M38.3944 329.972C35.9 337.002 36.7633 343.856 39.9059 350.323C45.7469 362.345 55.4984 370.643 66.5677 377.55C67.1645 377.427 67.7613 377.303 68.3629 377.183C66.4294 375.092 64.367 373.144 62.191 371.297C57.1265 367.001 52.3624 362.407 48.301 357.101C43.9442 351.407 40.894 345.236 40.7219 337.874C40.5892 332.228 42.2703 327.476 47.3685 324.659C52.4598 321.848 57.3944 323.288 61.4848 326.724C65.1857 329.832 68.3496 333.634 69.6837 338.559C70.1547 338.247 70.6267 337.939 71.0986 337.631C69.7739 331.73 66.7788 326.908 62.002 323.202C53.2411 316.399 41.7902 320.397 38.3953 329.976L38.3944 329.972Z" fill="#FF8B13"/>
<path d="M104.348 332.129C100.948 319.848 88.0696 318.495 80.7874 323.985C76.2737 327.387 73.293 331.721 72.1993 337.325C72.5612 337.243 72.9271 337.159 73.2909 337.085C74.2193 333.515 76.7278 330.976 79.0312 328.354C82.8196 324.04 88.7352 322.503 93.8054 324.446C99.1935 326.513 101.492 330.947 102.06 336.343C103.019 345.506 99.4269 353.33 94.4669 360.6C91.0857 365.557 87.4378 370.323 83.9078 375.171C84.7034 375.574 85.4591 375.277 86.2157 375.037C86.4129 374.759 86.5707 374.434 86.8169 374.207C95.2106 366.458 101.424 357.335 104.507 346.148C105.809 341.424 105.655 336.844 104.347 332.125L104.348 332.129Z" fill="#FF8B13"/>
</g>
<defs>
<clipPath id="clip0_3448_10741">
<rect width="127.239" height="170.584" fill="white" transform="matrix(-0.49842 0.866936 0.866936 0.49842 1310.26 90)"/>
</clipPath>
</defs>
</svg>
