<svg width="17" height="24" viewBox="0 0 17 24" fill="none" xmlns="http://www.w3.org/2000/svg">
<path d="M8.5 5.4C9.25776 5.4 9.98449 5.71607 10.5203 6.27868C11.0561 6.84129 11.3571 7.60435 11.3571 8.4C11.3571 8.79397 11.2832 9.18407 11.1397 9.54805C10.9961 9.91203 10.7856 10.2427 10.5203 10.5213C10.255 10.7999 9.94003 11.0209 9.59338 11.1716C9.24674 11.3224 8.87521 11.4 8.5 11.4C7.74224 11.4 7.01551 11.0839 6.4797 10.5213C5.94388 9.95871 5.64286 9.19565 5.64286 8.4C5.64286 7.60435 5.94388 6.84129 6.4797 6.27868C7.01551 5.71607 7.74224 5.4 8.5 5.4ZM8.5 0C10.6217 0 12.6566 0.884997 14.1569 2.4603C15.6571 4.03561 16.5 6.17218 16.5 8.4C16.5 14.7 8.5 24 8.5 24C8.5 24 0.5 14.7 0.5 8.4C0.5 6.17218 1.34285 4.03561 2.84315 2.4603C4.34344 0.884997 6.37827 0 8.5 0ZM8.5 2.4C6.98448 2.4 5.53103 3.03214 4.45939 4.15736C3.38775 5.28258 2.78571 6.8087 2.78571 8.4C2.78571 9.6 2.78571 12 8.5 20.052C14.2143 12 14.2143 9.6 14.2143 8.4C14.2143 6.8087 13.6122 5.28258 12.5406 4.15736C11.469 3.03214 10.0155 2.4 8.5 2.4Z" fill="url(#paint0_linear_3556_6535)"/>
<defs>
<linearGradient id="paint0_linear_3556_6535" x1="2.61" y1="4.61538" x2="15.7874" y2="4.65833" gradientUnits="userSpaceOnUse">
<stop stop-color="#F8BF3B"/>
<stop offset="0.5" stop-color="#FF8B13"/>
<stop offset="1" stop-color="#EF5F3D"/>
</linearGradient>
</defs>
</svg>
