<svg  viewBox="0 0 42 42" fill="none" xmlns="http://www.w3.org/2000/svg">
<path d="M30.9049 28.6369C29.7949 28.6369 28.8951 27.7371 28.8951 26.6271V14.9241C28.8951 10.9798 25.6861 7.77075 21.7417 7.77075C17.7974 7.77075 14.5884 10.9797 14.5884 14.9241V21.7308C14.5884 22.8408 13.6886 23.7406 12.5786 23.7406C11.4686 23.7406 10.5688 22.8408 10.5688 21.7308V14.9241C10.5688 8.76333 15.581 3.75122 21.7417 3.75122C27.9025 3.75122 32.9147 8.76333 32.9147 14.9241V26.6271C32.9147 27.7371 32.0149 28.6369 30.9049 28.6369Z" fill="#B1B4B5"/>
<path d="M33.9706 40.807H9.51401C7.23067 40.807 5.37964 38.956 5.37964 36.6726V22.5331C5.37964 20.2497 7.23067 18.3987 9.51401 18.3987H33.9706C36.254 18.3987 38.105 20.2497 38.105 22.5331V36.6725C38.105 38.956 36.254 40.807 33.9706 40.807Z" fill="#FFB636"/>
<path d="M8.96724 37.4754H8.76011C8.10771 37.4754 7.57886 36.9465 7.57886 36.2941V22.9122C7.57886 22.2598 8.10771 21.731 8.76011 21.731H8.96724C9.61963 21.731 10.1485 22.2598 10.1485 22.9122V36.2941C10.1485 36.9465 9.61963 37.4754 8.96724 37.4754Z" fill="#FFD469"/>
</svg>
