<svg width="24" height="20" viewBox="0 0 24 20" fill="none" xmlns="http://www.w3.org/2000/svg">
<path d="M2.64286 3.14286L9.62343 8.41372L9.62571 8.416C10.4006 8.984 10.788 9.26857 11.2131 9.37829C11.5887 9.47545 11.9828 9.47545 12.3583 9.37829C12.7834 9.26857 13.172 8.984 13.9491 8.41372C13.9491 8.41372 18.4257 4.97829 20.9286 3.14286M1.5 14.3429V5.65714C1.5 4.37714 1.5 3.73714 1.74914 3.248C1.96857 2.81714 2.31714 2.46857 2.748 2.24914C3.23714 2 3.87714 2 5.15714 2H18.4143C19.6943 2 20.3343 2 20.8223 2.24914C21.2531 2.46857 21.6029 2.81714 21.8223 3.248C22.0714 3.736 22.0714 4.376 22.0714 5.65371V14.3474C22.0714 15.6251 22.0714 16.2629 21.8223 16.752C21.6027 17.1821 21.2527 17.5318 20.8223 17.7509C20.3343 18 19.6954 18 18.4177 18H5.15371C3.876 18 3.236 18 2.748 17.7509C2.31793 17.5317 1.96828 17.1821 1.74914 16.752C1.5 16.2629 1.5 15.6229 1.5 14.3429Z" stroke="url(#paint0_linear_3556_6524)" stroke-width="2.28571" stroke-linecap="round" stroke-linejoin="round"/>
<defs>
<linearGradient id="paint0_linear_3556_6524" x1="4.21286" y1="5.07692" x2="21.1547" y2="5.18341" gradientUnits="userSpaceOnUse">
<stop stop-color="#F8BF3B"/>
<stop offset="0.5" stop-color="#FF8B13"/>
<stop offset="1" stop-color="#EF5F3D"/>
</linearGradient>
</defs>
</svg>
