<svg width="58" height="18" viewBox="0 0 58 18" fill="none" xmlns="http://www.w3.org/2000/svg">
<path d="M20.5915 3.37891V4.93261H16.4146C15.6687 4.93261 15.3454 5.36873 15.3454 5.99566C15.3454 6.54081 15.5941 7.05871 16.5637 7.05871H18.4782C20.691 7.05871 21.2131 8.4216 21.2131 9.70271C21.2131 11.2019 20.4672 12.3194 18.6274 12.3194H14.0774V10.7658H18.6771C19.4478 10.7658 19.7959 10.3024 19.7959 9.64818C19.7959 9.07577 19.5224 8.5306 18.5279 8.5306H16.6383C14.4753 8.5306 13.9531 7.19499 13.9531 5.94113C13.9531 4.46922 14.6742 3.37891 16.4892 3.37891H20.6164H20.5915Z" fill="white"/>
<path d="M23.5976 12.317H22.0312L24.8905 4.38505C25.1888 3.54006 25.7358 3.24023 26.606 3.24023C27.4762 3.24023 27.9984 3.56732 28.2967 4.38505L31.0565 12.317H29.4653L26.979 5.12098C26.9044 4.90292 26.7801 4.82114 26.5812 4.82114C26.3823 4.82114 26.258 4.90292 26.1585 5.12098L23.5727 12.317H23.5976Z" fill="white"/>
<path d="M33.2949 12.317H31.7285L34.5878 4.38505C34.8861 3.54006 35.4331 3.24023 36.3033 3.24023C37.1735 3.24023 37.6956 3.56732 37.994 4.38505L40.7538 12.317H39.1625L36.6763 5.12098C36.6017 4.90292 36.4773 4.82114 36.2784 4.82114C36.0795 4.82114 35.9552 4.90292 35.8558 5.12098L33.27 12.317H33.2949Z" fill="white"/>
<path d="M46.3475 3.37099C48.1873 3.37099 48.9581 4.62488 48.9581 6.04227C48.9581 7.15984 48.4857 8.33189 47.2425 8.74076L49.1321 12.3115H47.5409L45.6762 8.84981H43.5628C43.4385 8.84981 43.3639 8.90433 43.3639 9.06788V12.2843H41.9467V8.74076C41.9467 7.73222 42.3446 7.32339 43.2148 7.32339H46.3972C47.2177 7.32339 47.5409 6.7237 47.5409 6.06952C47.5409 5.41533 47.1928 4.89742 46.3972 4.89742H41.9219V3.34375H46.3475V3.37099Z" fill="white"/>
<path d="M51.9958 3.37891V7.16772H52.7914C54.1838 7.16772 54.4324 7.03146 54.8799 6.05019L56.1231 3.37891H57.6646L56.3966 6.1592C56.0236 6.94967 55.6507 7.46759 54.9794 7.79468C55.7501 8.01274 56.1231 8.47609 56.5955 9.51188L57.9132 12.3194H56.322L55.0789 9.67542C54.6313 8.7214 54.333 8.58513 52.8163 8.58513H52.0207V12.3194H50.6035V3.37891H52.0207H51.9958Z" fill="white"/>
<path d="M4.38175 0.00869035V8.57555L0.609375 1.19901C1.13244 0.469177 1.94873 0 2.86012 0H4.38175V0.00869035Z" fill="#EF5F3E"/>
<path d="M4.38262 8.57488H0V3.14457C0 2.41474 0.229833 1.73703 0.610241 1.20703L4.38262 8.58356V8.57488Z" fill="#F6B0A9"/>
<path d="M8.77324 8.57314V14.0035C8.77324 14.7333 8.54341 15.411 8.163 15.941L4.39062 8.56445H8.77324V8.57314Z" fill="#A1C5E8"/>
<path d="M8.77336 0.00585938L4.38281 8.57272V0.00585938H8.77336Z" fill="#F68B21"/>
<path d="M0 17.1411L4.38262 8.57422V17.1411H0Z" fill="white"/>
<path d="M8.1552 15.9518C7.63214 16.6817 6.81585 17.1508 5.90446 17.1508H4.38281V8.58398L8.1552 15.9605V15.9518Z" fill="#3AA277"/>
</svg>
