<svg width="22" height="21" viewBox="0 0 22 21" fill="none" xmlns="http://www.w3.org/2000/svg">
<path d="M20.2889 13.6095L15.5345 11.4781L15.5163 11.47C15.2073 11.3368 14.8698 11.2832 14.5347 11.314C14.1996 11.3449 13.8775 11.4593 13.598 11.6467C13.5588 11.673 13.5211 11.7013 13.4849 11.7315L11.2324 13.6498C9.91991 12.938 8.56397 11.5932 7.85117 10.2968L9.77554 8.009C9.80647 7.97208 9.83513 7.9333 9.86136 7.89289C10.0439 7.61439 10.1547 7.29507 10.1839 6.96337C10.2132 6.63167 10.1599 6.29789 10.029 5.99175C10.0258 5.98588 10.0231 5.97981 10.0209 5.97358L7.89054 1.21112C7.71568 0.812843 7.41723 0.481444 7.03938 0.265969C6.66153 0.0504933 6.22434 -0.0376085 5.79252 0.0147012C4.3269 0.207232 2.98148 0.926679 2.00753 2.03867C1.03359 3.15067 0.497717 4.57917 0.500007 6.05737C0.500007 14.297 7.20298 21 15.4426 21C16.9208 21.0023 18.3493 20.4664 19.4613 19.4925C20.5733 18.5185 21.2928 17.1731 21.4853 15.7075C21.5376 15.2757 21.4495 14.8385 21.234 14.4606C21.0186 14.0828 20.6872 13.7843 20.2889 13.6095ZM15.4426 18.5769C12.1235 18.5729 8.94143 17.2526 6.59444 14.9056C4.24744 12.5586 2.92714 9.37652 2.92313 6.05737C2.92082 5.22089 3.20481 4.40879 3.7279 3.75603C4.25099 3.10327 4.98169 2.64915 5.79858 2.46913L7.69871 6.7096L5.76425 9.01359C5.73298 9.05085 5.70399 9.08996 5.67742 9.13071C5.48675 9.42204 5.37465 9.75773 5.35201 10.1052C5.32936 10.4526 5.39694 10.8 5.54819 11.1136C6.49927 13.0602 8.45897 15.0068 10.4257 15.9599C10.7415 16.1096 11.0906 16.1748 11.4391 16.1491C11.7875 16.1234 12.1233 16.0078 12.4137 15.8135C12.4528 15.7872 12.4902 15.7585 12.5258 15.7277L14.7904 13.8023L19.0309 15.7014C18.8509 16.5183 18.3967 17.249 17.744 17.7721C17.0912 18.2952 16.2791 18.5792 15.4426 18.5769Z" fill="url(#paint0_linear_3556_6530)"/>
<defs>
<linearGradient id="paint0_linear_3556_6530" x1="3.26937" y1="4.03846" x2="20.5645" y2="4.12301" gradientUnits="userSpaceOnUse">
<stop stop-color="#F8BF3B"/>
<stop offset="0.5" stop-color="#FF8B13"/>
<stop offset="1" stop-color="#EF5F3D"/>
</linearGradient>
</defs>
</svg>
