<svg width="195" height="142" viewBox="0 0 195 142" fill="none" xmlns="http://www.w3.org/2000/svg">
<path opacity="0.5" fill-rule="evenodd" clip-rule="evenodd" d="M76.4453 155.338C81.724 152.018 86.9321 148.741 91.2 144.611L91.1989 144.607C90.9774 144.716 90.7169 144.841 90.4287 144.979C89.6572 145.349 88.6878 145.814 87.7388 146.312C83.345 148.616 79.1533 151.257 74.9608 153.899L74.9608 153.899L74.9608 153.899L74.9607 153.899L74.9607 153.899C72.6301 155.368 70.2994 156.837 67.9336 158.248L67.7367 158.365C62.6045 161.422 57.4698 164.481 51.7959 166.467C50.1226 167.054 48.4158 167.642 46.6733 167.915C39.5159 169.031 33.8376 166.52 29.7741 160.544C26.7725 156.13 24.0032 151.569 21.25 146.991C15.3846 137.232 9.70699 127.377 4.91981 117.033L4.90752 117.006C3.79011 114.589 3.72739 114.454 6.02841 113.043C9.06242 111.183 12.1443 109.404 15.2265 107.625C16.5631 106.853 17.8998 106.082 19.2326 105.303C19.5708 105.106 19.9102 104.91 20.2495 104.714L20.2513 104.713L20.2532 104.712L20.2534 104.711L20.2535 104.711C21.3538 104.076 22.4539 103.441 23.5123 102.746C25.904 101.175 25.9259 100.003 23.6738 98.1069C23.5394 97.9937 23.3908 97.899 23.2425 97.8044C23.0894 97.7068 22.9366 97.6094 22.7999 97.4921C19.993 95.0629 18.3541 92.0232 17.8145 88.3251C17.4899 86.0947 18.2065 84.3845 19.8309 82.9371C23.6367 79.54 28.8118 80.0375 32.347 84.3233C33.4041 85.6041 34.2389 87.0774 35.0676 88.54L35.0677 88.5401L35.0679 88.5405C35.2355 88.8364 35.4029 89.1318 35.5718 89.425C36.9883 91.8823 37.7179 92.2302 40.0302 90.8976C44.139 88.5245 48.2024 86.0673 52.2379 83.5717C53.2759 82.9352 54.3232 82.1988 55.0465 80.8796C53.6019 80.9066 52.5397 81.427 51.4961 81.9382L51.4938 81.9393C48.8306 83.2418 46.1791 84.5705 43.5337 85.9058C43.0657 86.1423 42.5945 86.4502 42.1242 86.7574C41.1117 87.419 40.1035 88.0777 39.1418 88.0139C37.8744 87.9278 37.3815 86.7458 36.8843 85.5536C36.6495 84.9906 36.4138 84.4253 36.095 83.9721C33.2402 79.9217 29.4617 77.493 24.471 77.534C17.8478 77.5839 12.4989 83.0346 15.1346 91.9351C15.8903 94.4894 17.4985 96.5703 19.329 98.4691C20.2577 99.4358 20.3866 100.134 19.0271 100.93C16.1335 102.624 13.2643 104.36 10.3945 106.096C8.49414 107.246 6.59351 108.396 4.68543 109.533C-0.595496 112.679 -0.93788 114.015 2.11909 119.474C3.87423 122.608 5.61698 125.749 7.35962 128.89C10.9725 135.401 14.5849 141.912 18.3064 148.361C18.48 148.662 18.6535 148.963 18.8271 149.264L18.8273 149.264C21.7322 154.304 24.6433 159.355 28.5013 163.787C32.434 168.309 37.127 171.244 43.2736 171.065C47.9457 170.929 52.4085 169.773 56.5722 167.561C60.9816 165.22 65.2993 162.707 69.4084 159.894C71.7164 158.313 74.0879 156.822 76.4453 155.339L76.4453 155.338ZM184.579 102.841L184.579 102.84L184.58 102.839L184.58 102.838L184.58 102.837C184.737 102.349 184.893 101.861 185.052 101.375L185.051 101.371L185.818 101.188C189.028 107.165 191.036 113.5 191 120.397C190.974 125.787 189.383 130.685 186.049 134.96C183.467 138.276 180.36 141.003 176.593 142.906C169.127 146.68 161.236 148.523 152.851 147.837C150.32 147.634 150.319 147.526 150.299 145.096L150.298 145.073C150.296 144.719 150.303 144.366 150.311 144.013C150.323 143.414 150.336 142.816 150.298 142.221C149.712 132.955 143.56 123.773 133.481 121.779C129.713 121.033 126.259 121.38 123.788 124.524C121.331 127.647 121.662 131.118 123.308 134.595C125.202 138.597 128.122 141.593 131.823 143.943C135.869 146.51 140.178 148.461 144.795 149.693C146.187 150.066 146.613 150.624 145.905 151.905C143.74 155.823 141.103 159.184 136.752 160.98C130.641 163.502 124.502 163.092 118.236 161.81C116.853 161.528 115.517 161.072 114.147 160.604C112.222 159.946 110.228 159.265 107.941 159.012C112.162 161.951 116.505 163.064 120.896 164.142C131.512 166.75 143.503 162.977 148.699 152.234C149.443 150.693 150.405 150.657 151.815 150.712C161.112 151.072 169.874 149.203 178.351 145.168C189.855 139.688 196.589 125.786 193.235 112.876C193.058 112.193 192.894 111.506 192.729 110.818C192.12 108.274 191.51 105.724 190.235 103.383C189.965 102.886 189.794 102.259 190.667 101.725C191.25 101.721 191.821 101.973 192.41 102.232C193.17 102.567 193.96 102.914 194.847 102.745C195.311 101.213 194.364 100.345 193.505 99.6202C191.241 97.7149 188.956 95.8203 186.526 94.1445C184.275 92.5906 182.832 93.2886 182.295 96.0331C181.809 98.5245 181.44 101.034 181.07 103.545L181.038 103.767C180.938 104.464 180.982 105.19 181.041 105.896C181.053 106.03 181.058 106.172 181.063 106.316L181.063 106.317L181.063 106.317L181.063 106.317C181.088 107.032 181.115 107.813 181.941 108.011C182.892 108.237 183.087 107.501 183.264 106.832C183.306 106.675 183.347 106.521 183.396 106.385C183.819 105.214 184.199 104.027 184.579 102.842L184.579 102.841L184.579 102.841L184.579 102.841ZM135.388 125.24C141.41 127.83 145.175 132.075 147.112 138.811L147.115 138.806C147.774 140.437 147.966 142.676 147.838 144.935C147.724 146.95 147.321 147.399 145.46 146.937C138.035 145.093 131.455 141.784 126.922 135.335C124.627 132.07 124.418 128.568 126.125 126.408C127.77 124.325 132.019 123.792 135.388 125.24ZM102.222 38.3218C101.333 38.6455 100.477 38.9134 99.6546 39.1708C97.872 39.7286 96.246 40.2375 94.7821 41.1586C91.4047 43.2833 89.408 46.2278 89.887 50.332C90.4141 54.8533 94.5441 58.0047 99.3233 57.6105C101.684 57.4173 104.013 56.9337 106.315 56.3139C110.144 55.2889 111.355 56.0475 111.893 59.9319C112.682 65.6578 113.382 71.3956 114.081 77.1322L114.31 79.0017L114.327 79.1401C114.581 81.2291 114.589 81.2942 116.851 80.9622C118.149 80.7695 119.449 80.5833 120.749 80.3971C125.557 79.7084 130.366 79.0196 135.121 77.998C138.443 77.2834 139.253 77.866 139.896 81.247L139.915 81.3498C140.487 84.3388 141.054 87.3088 142.777 89.9714C144.412 92.5008 146.731 93.4098 149.459 93.1407C152.085 92.8841 153.48 90.9915 154.316 88.5627C155.451 85.2661 155.12 82.0022 154.334 78.7384C154.253 78.4039 154.175 78.0902 154.101 77.796L154.101 77.7933C153.172 74.0772 153.02 73.4659 158.625 73.0046C160.849 72.8226 163.059 72.5106 165.269 72.1985C168.816 71.6977 172.362 71.1969 175.963 71.2339C176.667 71.2428 177.368 71.3325 178.103 71.5945C173.745 73.321 169.171 74.0785 164.576 74.7451C163.705 74.8721 162.838 75.0216 161.972 75.1711C160.97 75.3439 159.968 75.5167 158.961 75.6545C157.439 75.8596 156.978 76.5754 157.352 78.0818C158.017 80.7339 158.531 83.4297 158.178 86.1845C157.876 88.5443 157.255 90.7044 155.774 92.7528C152.564 97.1785 144.805 98.6114 140.051 91.8959C138.434 89.6089 137.803 86.9671 137.17 84.3198C137.113 84.0776 137.055 83.8354 136.996 83.5935C136.405 81.1398 136.387 81.0941 133.958 81.4464C132.076 81.7183 130.203 82.0487 128.331 82.379C125.178 82.9351 122.026 83.4911 118.832 83.7682C118.526 83.7942 118.22 83.823 117.914 83.8518L117.914 83.8519C117.156 83.9232 116.398 83.9946 115.636 84.0241C112.77 84.1384 111.976 83.6233 111.52 80.818C110.858 76.7466 110.278 72.6632 109.699 68.5794L109.697 68.569C109.494 67.1338 109.29 65.6986 109.083 64.2638C109.055 64.0714 109.053 63.8742 109.052 63.6768L109.052 63.6765C109.05 63.5158 109.049 63.3549 109.033 63.1963L109.033 63.1909C108.851 61.4064 108.761 60.5284 108.285 60.182C107.824 59.8465 107 60.0096 105.378 60.3306L105.286 60.3488C101.772 61.0426 98.2189 61.1603 94.793 60.0457C87.7039 57.741 84.8741 50.4131 88.5764 43.953C90.7151 40.2241 96.6629 36.0335 102.224 38.3129L102.222 38.3218ZM104.866 28.8182C105.316 31.2847 105.772 33.783 106.234 36.3287L106.238 36.3276C106.899 35.447 106.876 34.8861 106.854 34.3616L106.854 34.361L106.854 34.3605C106.851 34.3012 106.849 34.2424 106.847 34.1836C106.712 29.0866 106.136 24.0247 105.56 18.9675C105.505 18.4833 105.45 17.9991 105.395 17.515C105.306 16.7268 105.21 16.0695 105.129 15.5165L105.129 15.5159C104.935 14.1883 104.829 13.4618 105.119 12.9676C105.469 12.3704 106.398 12.1127 108.45 11.5434C108.923 11.4122 109.456 11.2645 110.055 11.0923C110.194 11.0522 110.34 11.0358 110.486 11.0194C110.578 11.0091 110.669 10.9989 110.759 10.9829C114.089 10.3809 117.419 9.7735 120.748 9.16616L120.755 9.16498C129.202 7.62399 137.649 6.08316 146.112 4.63094C149.72 4.01175 153.364 3.44548 157.087 3.77314C163.477 4.33548 168.038 7.28254 170.396 13.3942C171.812 17.0556 173.126 20.7423 174.016 24.572C175.649 31.5867 176.886 38.6772 178.123 45.769L178.123 45.7693L178.123 45.7717C178.478 47.8068 178.833 49.842 179.198 51.8755C179.229 52.0471 179.236 52.2328 179.243 52.4223L179.243 52.4225C179.268 53.098 179.295 53.8205 180.412 54.1161C180.394 53.3562 180.392 52.5996 180.39 51.8467L180.39 51.8452L180.39 51.8451L180.39 51.845C180.387 50.2287 180.383 48.6292 180.214 47.0497C178.971 35.4546 176.903 24.0036 173.502 12.8389C171.399 5.9359 166.653 1.80393 159.487 0.805669C156.451 0.385889 153.334 0.285307 150.261 0.737926L149.676 0.823856L149.675 0.824067C144.945 1.5187 140.219 2.21289 135.506 3.00836C128.491 4.19343 121.482 5.43146 114.487 6.74198C111.228 7.35389 107.976 8.06505 104.786 8.96128C102.081 9.72225 101.593 10.6824 102.084 13.448C102.987 18.5238 103.913 23.5952 104.864 28.809L104.865 28.8141L104.866 28.8182ZM5.2807 68.7023L5.2747 68.6961C5.13217 68.2007 4.99502 67.7479 4.86621 67.3227C4.60534 66.4614 4.37873 65.7133 4.21115 64.9538C3.36009 61.1129 2.66516 57.2567 3.95354 53.3625C5.99929 47.1802 10.7477 43.7993 16.4788 41.6315C21.1692 39.8559 26.0959 39.3136 31.1302 39.3361C39.1134 39.3726 46.9512 40.5197 54.7501 42.0752C54.8296 42.091 54.9121 42.1057 54.996 42.1206C55.6253 42.2325 56.3311 42.3581 56.4485 43.1035C56.5686 43.8527 55.9915 44.0412 55.4412 44.2209C55.3092 44.264 55.1787 44.3067 55.0597 44.3564C54.8582 44.4408 54.6525 44.5167 54.447 44.5925L54.4461 44.5928C54.0943 44.7225 53.7429 44.8521 53.4138 45.0241C52.7858 45.3526 52.0732 45.7983 52.3066 46.61C52.5394 47.405 53.4158 47.4994 54.0984 47.434C58.0182 47.0631 61.7817 45.9723 65.39 44.4741C67.3491 43.6614 67.5163 41.9951 65.7669 40.5547C65.2331 40.1146 64.7042 39.6664 64.1749 39.2179C62.1837 37.5305 60.1865 35.8379 57.8979 34.5535C57.7904 34.4928 57.682 34.428 57.5726 34.3626C56.8039 33.9029 55.9811 33.4108 55.0185 34.076C54.9234 35.0562 55.5049 35.6684 56.0764 36.2702C56.5489 36.7677 57.0147 37.258 57.0855 37.9432C56.5627 38.5764 55.9812 38.4739 55.4109 38.3733C55.2975 38.3533 55.1846 38.3333 55.0727 38.3193C53.6919 38.143 52.3118 37.958 50.9316 37.7729L50.931 37.7729C48.0805 37.3907 45.2297 37.0086 42.3721 36.7031C35.1457 35.9336 27.9193 35.781 20.7813 37.4789C14.5611 38.9593 9.0957 41.5662 4.69979 46.5695C-0.814987 52.8434 0.367307 63.6588 5.2747 68.6961L5.2768 68.7034L5.2807 68.7023ZM57.7479 43.6551C58.0593 43.6803 58.1226 43.4729 58.188 43.2587C58.2189 43.1575 58.2502 43.0547 58.3084 42.9743C58.2164 42.9471 58.1245 42.9165 58.0325 42.8858L58.032 42.8856C57.8195 42.8147 57.6063 42.7436 57.3888 42.7148C57.0355 42.6697 56.9839 42.8944 56.9319 43.1206C56.909 43.2201 56.886 43.32 56.8372 43.3973C56.9105 43.4344 56.9787 43.4871 57.0474 43.5401C57.2384 43.6874 57.4325 43.8371 57.7452 43.6602L57.7479 43.6551ZM92.0209 133.83C92.6818 134.776 93.3779 135.742 95.1517 136.474L95.1483 136.462C94.9637 136.028 94.819 135.661 94.6932 135.342C94.4633 134.759 94.2962 134.336 94.063 133.952C93.5146 133.053 92.9687 132.153 92.423 131.252C90.5115 128.099 88.6006 124.946 86.5778 121.866C84.2543 118.331 84.6362 118.138 86.9645 116.956C87.1803 116.847 87.4128 116.729 87.6613 116.599C91.2756 114.71 93.7067 111.674 95.3691 108.023C97.2861 103.817 96.4216 99.3128 93.1517 95.8465C89.8806 92.3762 86.1351 91.6197 81.4681 93.359C79.4342 94.1172 77.643 95.2491 75.9133 96.5071L75.8699 96.5387C73.599 98.1917 73.4767 98.2806 71.8789 96.0238C70.3208 93.8256 68.84 91.5749 67.359 89.3239C66.3666 87.8156 65.3742 86.3072 64.3583 84.8143C64.2139 84.6025 64.0737 84.3852 63.9322 84.166C63.2075 83.0431 62.4508 81.8705 60.9413 81.1452C60.9696 81.3856 60.9829 81.5857 60.9944 81.7565C61.0147 82.0617 61.0289 82.273 61.1104 82.4528C63.8377 88.3824 67.2879 93.9026 70.7355 99.4185C71.1215 100.036 71.5075 100.654 71.8924 101.272C73.044 103.116 74.3769 103.079 75.8903 101.246C77.7582 98.9848 80.0209 97.3327 82.6934 96.2388C86.557 94.6587 90.1188 95.9371 92.0226 99.6188C93.9108 103.276 93.3289 106.747 90.8636 109.927C89.0148 112.314 86.51 113.917 83.947 115.436C81.0056 117.182 80.8865 117.634 82.7368 120.351C85.8116 124.858 88.8998 129.353 92.0209 133.83Z" fill="#DEDEDE"/>
</svg>
