<svg  viewBox="0 0 787 788" fill="none" xmlns="http://www.w3.org/2000/svg">
<g opacity="0.5">
<path d="M786.049 724.938H0V725.063H786.049V724.938Z" fill="#E0E0E0"/>
<path d="M649.743 754.073C650.068 750.154 649.533 745.081 644.974 743.582C637.219 741.025 632.638 735.03 632.89 728.249C633.142 721.468 624.998 714.865 618.888 721.217C612.778 727.578 613.585 716.322 605.431 713.587C597.277 710.851 590.359 717.496 592.602 723.543C594.845 729.601 586.796 733.395 577.164 728.239C567.533 723.082 556.926 732.462 558.97 739.788C561.014 747.114 559.337 748.005 553.247 745.5C548.332 743.509 540.272 747.67 539.371 754.063H649.764L649.743 754.073Z" fill="#EBEBEB"/>
<path d="M126.286 754.076C126.653 750.963 126.496 746.446 122.66 745.178C116.644 743.186 113.07 738.533 113.269 733.272C113.468 728.01 107.148 722.875 102.401 727.79C97.6634 732.706 98.2922 723.996 91.9619 721.869C85.6316 719.741 80.255 724.897 82.0053 729.593C83.7451 734.288 77.4881 737.244 70.0154 733.24C62.5427 729.236 54.3154 736.541 55.8875 742.243C57.4596 747.944 56.1705 748.563 51.4437 746.666C47.4296 745.062 40.7744 748.678 40.6172 754.065H126.286V754.076Z" fill="#EBEBEB"/>
<path d="M104.828 754.074H245.552C247.543 747.471 242.418 739.547 236.832 738.426C229.978 737.053 223.134 725 222.777 717.328C222.421 709.657 210.117 686.044 190.937 700.622C171.758 715.201 177.595 702.771 163.708 698.673C149.822 694.575 141.07 706.355 147.17 715.201C147.17 715.201 133.22 711.711 127.477 724.728C121.733 737.745 127.477 745.825 127.477 745.825C127.477 745.825 109.859 745.322 104.828 754.074Z" fill="#EBEBEB"/>
<path d="M222.242 105.397C222.242 100.669 226.074 96.827 230.802 96.8171C231.638 96.8171 232.464 96.9465 233.27 97.1853C233.131 96.3194 233.071 95.4435 233.071 94.5577C233.071 84.5448 241.193 76.4231 251.206 76.4231C252.321 76.4231 253.435 76.5226 254.54 76.7217C259.089 69.2369 268.833 66.8581 276.318 71.4067C280.986 74.2433 283.862 79.2796 283.942 84.7339H284.211C292.283 84.7339 298.822 91.2732 298.822 99.3452C298.822 107.417 292.283 113.956 284.211 113.956H230.543C225.915 113.817 222.232 110.025 222.242 105.397Z" fill="#F5F5F5"/>
<path d="M71.5156 16.5542C71.5156 14.3944 73.2475 12.6426 75.4073 12.6426C75.7955 12.6426 76.1837 12.7024 76.5519 12.8119C76.4922 12.4137 76.4623 12.0156 76.4623 11.6175C76.4623 7.04897 80.1649 3.33645 84.7434 3.33645C85.251 3.33645 85.7685 3.38621 86.2662 3.47579C88.3464 0.0618586 92.7955 -1.02304 96.2094 1.05717C98.3394 2.35108 99.6532 4.65026 99.6831 7.13855H99.8025C103.485 7.13855 106.461 10.1245 106.461 13.8072C106.461 17.4799 103.475 20.4658 99.8025 20.4658H75.3675C73.2375 20.426 71.5256 18.6942 71.5256 16.5642L71.5156 16.5542Z" fill="#F0F0F0"/>
<path d="M75.7617 195.61C75.7617 192.803 78.0211 190.524 80.8279 190.514C81.3355 190.514 81.8331 190.584 82.3208 190.733C82.2512 190.215 82.2114 189.698 82.2014 189.17C82.2014 183.218 87.0187 178.401 92.9707 178.401C93.6376 178.401 94.2945 178.461 94.9514 178.59C97.6487 174.151 103.441 172.738 107.89 175.435C110.657 177.117 112.369 180.103 112.409 183.348H112.559C117.346 183.348 121.228 187.239 121.218 192.027C121.218 196.814 117.336 200.686 112.559 200.686H80.7582C77.9813 200.636 75.7617 198.377 75.7617 195.61Z" fill="#F0F0F0"/>
<path d="M506.031 233.973C506.031 231.077 508.37 228.718 511.267 228.708C511.784 228.708 512.302 228.778 512.809 228.937C512.73 228.399 512.69 227.862 512.69 227.324C512.69 221.173 517.676 216.197 523.818 216.197C524.504 216.197 525.191 216.266 525.868 216.386C528.665 211.797 534.647 210.334 539.235 213.131C542.092 214.873 543.863 217.958 543.913 221.303H544.072C549.019 221.303 553.03 225.324 553.03 230.27C553.03 235.217 549.019 239.218 544.072 239.228H511.207C508.34 239.179 506.041 236.84 506.041 233.973H506.031Z" fill="#F0F0F0"/>
<path d="M332.02 71.9624C332.02 69.5737 333.96 67.6328 336.349 67.6328C336.767 67.6328 337.185 67.6925 337.593 67.802C337.534 67.364 337.504 66.9162 337.504 66.4782C337.504 61.4121 341.614 57.3014 346.681 57.3014C347.248 57.3014 347.815 57.3512 348.373 57.4607C350.662 53.6785 355.579 52.4642 359.361 54.7435C361.73 56.1767 363.193 58.7347 363.223 61.5116H363.362C367.443 61.5116 370.747 64.826 370.747 68.8968C370.747 72.9677 367.443 76.2721 363.362 76.2821H336.23C333.881 76.2224 332.02 74.3014 332.02 71.9525V71.9624Z" fill="#F5F5F5"/>
<path d="M287.121 141.287C287.121 139.048 288.933 137.236 291.172 137.236C291.56 137.236 291.958 137.286 292.337 137.395C292.287 136.987 292.257 136.569 292.257 136.151C292.257 131.404 296.099 127.562 300.847 127.562C301.374 127.562 301.902 127.611 302.429 127.711C304.569 124.168 309.177 123.033 312.721 125.173C314.94 126.517 316.314 128.915 316.344 131.503H316.483C320.305 131.503 323.4 134.599 323.39 138.421C323.39 142.233 320.295 145.328 316.483 145.328H291.082C288.883 145.268 287.141 143.477 287.141 141.277L287.121 141.287Z" fill="#E6E6E6"/>
<path d="M270.791 538.666C269.821 537.838 268.61 536.741 269.028 535.58C269.368 534.638 270.564 534.32 271.244 533.577C272.631 532.062 271.336 529.591 269.708 528.345C268.079 527.1 265.977 526.144 265.305 524.197C265.191 523.674 265.007 523.164 264.76 522.683C263.783 521.224 261.51 522.194 260.102 523.228C259.62 523.582 259.04 523.914 258.445 524.155C258.24 523.341 257.858 522.612 257.341 522.173C256.386 521.345 255.161 520.247 255.579 519.087C255.918 518.131 257.115 517.827 257.801 517.083C259.174 515.568 257.886 513.098 256.251 511.852C254.616 510.606 252.521 509.651 251.855 507.704C251.735 507.173 251.551 506.664 251.296 506.189C250.319 504.731 248.047 505.68 246.631 506.727C245.222 507.775 242.936 508.695 241.973 507.216C241.414 506.366 241.74 505.156 241.202 504.292C240.303 502.848 238.023 503.535 236.728 504.632C235.433 505.729 234.003 507.194 232.346 506.812H232.332C232.757 506.635 233.224 506.487 233.621 506.281C235.744 505.163 235.447 501.086 233.84 499.719C232.87 498.891 231.66 497.808 232.077 496.64C232.417 495.685 233.613 495.38 234.293 494.623C235.68 493.108 234.385 490.623 232.757 489.392C231.129 488.153 229.026 487.19 228.354 485.243C228.241 484.72 228.057 484.21 227.809 483.729C226.832 482.27 224.546 483.226 223.151 484.274C221.75 485.321 219.456 486.234 218.493 484.748C217.948 483.899 218.26 482.695 217.722 481.824C216.837 480.38 214.551 481.053 213.255 482.164C211.96 483.269 210.53 484.727 208.873 484.344C207.429 484.005 206.637 482.377 205.101 482.186C203.564 482.001 202.34 483.573 201.965 485.074C201.59 486.574 201.618 488.231 200.797 489.561C200.726 489.547 200.648 489.533 200.57 489.526C199.53 488.783 198.595 487.969 198.185 486.794C198.071 486.27 197.887 485.76 197.64 485.279C196.663 483.821 194.376 484.769 192.975 485.817C191.573 486.865 189.28 487.785 188.31 486.305C187.765 485.456 188.076 484.245 187.538 483.382C186.654 481.938 184.367 482.624 183.072 483.722C181.776 484.819 180.346 486.284 178.69 485.888C177.246 485.548 176.453 483.92 174.917 483.729C173.381 483.545 172.156 485.116 171.781 486.617C171.406 488.117 171.434 489.774 170.613 491.105C168.376 490.673 165.311 490.758 164.788 492.945C164.568 493.879 164.965 494.764 165.517 495.592C165.241 495.748 164.979 495.918 164.752 496.109C163.45 497.206 162.013 498.672 160.356 498.289C158.926 497.95 158.141 496.322 156.59 496.13C155.04 495.946 153.816 497.518 153.455 499.019C153.094 500.519 153.108 502.176 152.287 503.492C150.036 503.075 146.985 503.153 146.461 505.347C146.114 506.791 147.232 508.129 148.153 509.311C149.073 510.486 149.845 512.199 148.889 513.367C147.346 513.289 145.81 513.671 144.486 514.471C143.148 515.328 142.617 517.027 143.226 518.492C143.906 519.448 144.897 520.134 146.022 520.453C149.328 521.791 148.273 524.728 147.289 527.093C147.176 527.085 147.07 527.085 146.949 527.057C145.505 526.717 144.712 525.089 143.176 524.898C141.64 524.714 140.416 526.286 140.041 527.786C139.665 529.287 139.694 530.943 138.873 532.26C136.622 531.842 133.571 531.92 133.047 534.115C132.7 535.559 133.825 536.897 134.739 538.079C135.645 539.254 136.416 540.967 135.475 542.135C133.925 542.071 132.389 542.482 131.072 543.303C129.734 544.159 129.203 545.851 129.805 547.323C130.491 548.279 131.482 548.966 132.615 549.284C138.42 551.627 130.796 558.911 133.677 559.385C137.358 560.001 141.697 559.279 141.959 563.817C141.994 564.553 142.1 565.289 142.284 566.004C142.985 568.524 144.776 569.593 148.471 567.83C150.814 566.726 151.388 565.346 154.056 565.685C155.968 565.905 157.355 567.25 159.464 567.073C159.755 567.073 160.045 566.995 160.307 566.86C160.569 566.691 160.788 566.457 160.951 566.188C162.827 563.519 164.292 564.602 167.357 564.475C167.598 564.489 167.838 564.418 168.03 564.277C168.214 564.086 168.313 563.831 168.313 563.569C168.391 562.783 168.313 561.997 168.1 561.24C167.945 560.872 167.902 560.468 167.987 560.072C168.136 559.548 168.801 559.35 169.304 559.102C169.495 558.996 169.679 558.876 169.856 558.741C170.797 558.012 171.335 556.957 171.456 555.86C174.344 556.129 177.034 556.483 177.239 560.001C177.267 560.745 177.381 561.474 177.579 562.189C178.265 564.709 180.063 565.777 183.744 564.015C186.087 562.911 186.661 561.53 189.329 561.87C191.241 562.089 192.628 563.434 194.737 563.257C195.028 563.257 195.318 563.18 195.58 563.045C195.842 562.875 196.061 562.642 196.224 562.373C198.1 559.704 199.565 560.787 202.63 560.66C202.694 560.667 202.765 560.674 202.828 560.66C203.288 560.617 203.628 560.207 203.586 559.746C203.657 558.982 203.586 558.21 203.373 557.474C203.218 557.106 203.175 556.703 203.26 556.306C203.409 555.782 204.074 555.57 204.577 555.336C204.775 555.23 204.966 555.103 205.15 554.961C205.674 554.551 206.063 554.034 206.332 553.468C207.309 553.765 208.626 553.574 210.367 552.739C212.724 551.641 213.291 550.254 215.959 550.608C217.87 550.827 219.258 552.158 221.367 551.995C221.658 551.981 221.948 551.91 222.21 551.776C222.472 551.599 222.691 551.372 222.854 551.103C222.903 551.033 222.953 550.969 223.003 550.905C223.045 551.344 222.967 551.762 222.677 552.116C221.452 552.052 220.235 552.356 219.18 552.986C218.118 553.659 217.701 554.997 218.189 556.158C218.727 556.908 219.506 557.446 220.39 557.694C224.956 559.534 218.961 565.268 221.233 565.643C224.135 566.131 227.54 565.558 227.759 569.14C227.781 569.72 227.873 570.301 228.014 570.867C228.559 572.849 229.975 573.642 232.92 572.29C234.774 571.419 235.213 570.329 237.323 570.598C238.837 570.796 239.921 571.83 241.577 571.695C241.811 571.695 242.037 571.632 242.242 571.532C242.441 571.391 242.617 571.207 242.745 570.994C244.21 568.899 245.378 569.749 247.792 569.642C247.983 569.642 248.167 569.593 248.33 569.494C248.472 569.338 248.542 569.14 248.542 568.935C248.606 568.333 248.549 567.724 248.394 567.137C248.259 566.846 248.224 566.521 248.288 566.202C248.436 565.785 248.932 565.629 249.335 565.431C249.484 565.346 249.625 565.254 249.76 565.147C250.758 564.376 251.176 563.144 250.984 561.983C251.515 561.828 252.117 561.764 252.924 561.863C254.835 562.082 256.223 563.427 258.332 563.25C258.622 563.25 258.913 563.173 259.174 563.038C259.436 562.861 259.649 562.627 259.819 562.366C261.68 559.697 263.16 560.78 266.225 560.653C266.466 560.667 266.706 560.596 266.897 560.454C267.074 560.263 267.173 560.008 267.166 559.746C267.244 558.982 267.18 558.21 266.968 557.474C266.812 557.106 266.763 556.703 266.841 556.306C267.003 555.782 267.655 555.57 268.171 555.336C268.356 555.23 268.532 555.117 268.702 554.99C270.55 553.56 270.897 550.905 269.467 549.058C268.872 548.385 267.952 547.798 268.171 546.821C268.391 545.844 269.7 545.688 270.585 545.221C272.709 544.103 272.412 540.025 270.819 538.659L270.791 538.666ZM169.424 551.457C169.29 551.195 169.226 550.912 169.304 550.58C169.389 550.197 169.651 549.942 169.976 549.744C169.842 550.318 169.644 550.898 169.424 551.464V551.457Z" fill="#E6E6E6"/>
<path d="M161.278 552.767C161.278 552.767 168.937 563.605 171.578 567.045C174.225 570.485 187.441 591.891 189.232 606.048C189.416 607.549 189.614 608.859 189.805 609.984C184.121 647.508 185.006 716.143 185.211 727.894H203.212C203.375 714.642 204.904 593.519 205.47 589.824C206.065 585.91 213.625 571.002 225.22 564.886C236.815 558.77 246.895 538.504 246.895 538.504H243.186C243.186 538.504 236.312 550.913 226.537 557.793C225.135 558.763 223.663 559.634 222.141 560.405C222.169 552.93 220.845 545.519 218.247 538.511L216.244 540.351C218.948 551.422 218.573 558.508 217.773 562.571C214.078 564.299 210.673 566.585 207.672 569.339C197.521 556.144 191.823 525.975 191.823 525.975L189.225 527.397C189.961 533.627 191.08 539.806 192.58 545.901C194.477 553.709 200.076 568.404 202.674 575.037C199.56 579.511 196.99 584.338 195.015 589.414C194.739 588.989 194.414 588.592 194.038 588.246C187.434 582.264 175.011 554.056 175.011 554.056C172.002 547.494 176.597 530.271 176.597 530.271H173.1L171.549 545.328L162.836 535.821L161.25 537.138L170.488 549.037L175.245 564.107L162.836 550.354L161.271 552.767H161.278Z" fill="#EBEBEB"/>
<path d="M683.761 484.855C681.812 483.681 679.548 483.115 677.273 483.22C675.89 481.543 677.001 478.965 678.374 477.246C679.736 475.527 681.371 473.557 680.858 471.409C680.093 468.191 675.576 468.076 672.337 468.704C671.425 466.608 670.828 464.376 670.566 462.102C669.989 459.869 668.218 457.626 665.933 457.826C663.649 458.025 662.485 460.509 660.389 461.001C660.232 461.043 660.064 461.033 659.896 461.043C658.44 457.543 656.836 453.172 661.752 451.202C663.408 450.741 664.864 449.724 665.87 448.32C666.761 446.15 665.986 443.656 664.015 442.388C662.066 441.214 659.802 440.637 657.528 440.753C656.123 439.055 657.255 436.497 658.597 434.779C659.938 433.06 661.615 431.068 661.102 428.941C660.316 425.723 655.819 425.608 652.56 426.237C651.659 424.13 651.061 421.908 650.789 419.634C650.202 417.402 648.556 415.159 646.177 415.358C643.809 415.557 642.729 418.041 640.633 418.534C638.537 419.026 636.158 416.941 634.166 415.337C633.842 415.075 633.464 414.834 633.076 414.603C633.873 413.388 634.428 412.088 634.093 410.725C633.328 407.508 628.811 407.393 625.572 408.021C624.65 405.883 624.053 403.62 623.801 401.314C623.225 399.081 621.453 396.839 619.169 397.038C616.884 397.237 615.72 399.721 613.624 400.213C611.182 400.8 609.149 398.62 607.158 397.017C605.166 395.403 601.896 394.397 600.607 396.524C599.8 397.803 600.272 399.564 599.465 400.842C598.029 403.075 594.675 401.649 592.579 400.109C590.473 398.568 587.161 397.174 585.693 399.323C585.316 400.025 585.044 400.779 584.886 401.555C584.237 403.379 582.738 404.615 581.113 405.758C580.212 403.662 579.615 401.45 579.353 399.186C578.776 396.954 577.12 394.711 574.741 394.931C572.372 395.151 571.293 397.593 569.197 398.086C567.09 398.578 564.722 396.524 562.73 394.889C560.739 393.254 557.469 392.269 556.148 394.397C555.362 395.675 555.834 397.457 555.006 398.715C553.602 400.947 550.216 399.543 548.141 398.002C546.056 396.461 542.702 395.046 541.224 397.195C540.857 397.908 540.585 398.652 540.417 399.427C539.432 402.289 536.35 403.703 533.95 405.538C531.561 407.372 529.632 411.019 531.718 413.251C532.724 414.352 534.495 414.792 534.988 416.207C535.617 417.947 533.825 419.54 532.389 420.682C530.041 422.673 529.59 428.689 532.724 430.345C533.269 430.628 533.919 430.838 534.506 431.068C532.106 431.551 530.094 429.454 528.134 427.861C526.142 426.247 522.872 425.22 521.552 427.348C520.766 428.626 521.237 430.408 520.409 431.666C519.005 433.898 515.62 432.494 513.524 430.953C511.417 429.413 508.105 427.998 506.638 430.146C506.281 430.859 506.009 431.603 505.831 432.379C504.846 435.24 501.764 436.655 499.343 438.489C496.922 440.323 495.046 443.97 497.111 446.203C498.096 447.303 499.867 447.743 500.381 449.158C500.894 450.562 499.197 452.491 497.782 453.633C496.996 454.304 496.43 455.415 496.126 456.662C495.256 456.306 494.407 455.803 493.705 455.289C491.619 453.749 488.265 452.334 486.819 454.482C486.442 455.184 486.159 455.939 485.991 456.715C485.006 459.576 481.924 460.991 479.524 462.825C477.135 464.659 475.206 468.306 477.292 470.539C478.298 471.639 480.069 472.079 480.562 473.494C481.191 475.234 479.399 476.806 477.963 477.969C475.73 479.982 475.164 485.998 478.298 487.654C479.619 488.324 481.547 488.544 481.851 490.001C482.165 491.458 480.824 492.234 479.954 493.292C477.858 496.007 478.351 499.916 481.075 502.012C481.327 502.201 481.589 502.379 481.862 502.526C482.627 502.882 483.538 503.175 483.811 503.982C483.937 504.569 483.874 505.177 483.633 505.722C483.339 506.802 483.234 507.934 483.339 509.055C483.339 509.443 483.486 509.82 483.738 510.103C484.031 510.302 484.377 510.397 484.723 510.397C489.198 510.596 491.43 508.992 494.187 512.922C494.417 513.321 494.742 513.656 495.13 513.908C495.507 514.117 495.927 514.222 496.356 514.222C499.469 514.494 501.481 512.545 504.322 512.189C505.495 512.042 506.376 512.136 507.141 512.356C506.9 514.033 507.518 515.794 508.954 516.905C509.153 517.062 509.373 517.209 509.604 517.335C510.191 517.628 510.924 517.848 511.144 518.477C511.239 518.949 511.186 519.431 510.987 519.861C510.757 520.71 510.683 521.6 510.767 522.481C510.694 522.994 511.061 523.466 511.574 523.539C511.668 523.55 511.773 523.55 511.868 523.539C515.421 523.697 517.129 522.439 519.298 525.531C519.487 525.835 519.739 526.107 520.032 526.317C520.336 526.474 520.671 526.558 521.017 526.558C523.459 526.757 525.063 525.237 527.285 524.944C530.397 524.566 531.047 526.149 533.772 527.428C538.132 529.618 540.218 528.371 541.025 525.436C541.234 524.608 541.36 523.759 541.402 522.91C541.717 517.649 546.747 518.435 551.023 517.764C554.356 517.209 545.521 508.814 552.25 506.037C553.56 505.691 554.702 504.894 555.499 503.804C556.19 502.096 555.572 500.136 554.021 499.13C552.48 498.208 550.709 497.767 548.917 497.851C548.477 497.306 548.361 496.667 548.456 495.996C548.508 496.07 548.56 496.122 548.613 496.195C548.854 496.594 549.168 496.939 549.556 497.201C549.944 497.39 550.374 497.505 550.814 497.516C553.927 497.757 555.939 495.839 558.779 495.483C562.72 494.969 563.548 497.002 567.017 498.637C569.585 499.926 571.534 500.241 572.98 499.811C573.379 500.629 573.945 501.383 574.72 501.981C574.982 502.18 575.255 502.368 575.548 502.526C576.313 502.882 577.225 503.175 577.498 503.982C577.613 504.569 577.55 505.177 577.319 505.722C577.026 506.802 576.921 507.934 577.026 509.055C577.026 509.443 577.162 509.82 577.424 510.103C577.718 510.302 578.053 510.397 578.409 510.397C582.885 510.596 585.117 508.992 587.852 512.922C588.083 513.321 588.408 513.656 588.796 513.908C589.183 514.107 589.613 514.222 590.053 514.222C593.145 514.494 595.178 512.545 598.019 512.189C601.959 511.696 602.787 513.708 606.256 515.343C611.675 518.006 614.306 516.371 615.343 512.66C615.626 511.612 615.794 510.522 615.836 509.443C616.15 504.202 620.07 503.71 624.398 503.322C624.587 504.915 625.373 506.435 626.736 507.493C626.998 507.693 627.27 507.881 627.564 508.038C628.297 508.395 629.22 508.688 629.513 509.474C629.628 510.072 629.565 510.68 629.335 511.245C629.031 512.325 628.926 513.457 629.02 514.578C629.02 514.966 629.167 515.343 629.419 515.626C629.712 515.826 630.069 515.93 630.425 515.92C634.9 516.119 637.132 514.515 639.868 518.446C640.099 518.844 640.423 519.179 640.811 519.431C641.188 519.641 641.608 519.745 642.037 519.745C645.15 520.018 647.183 518.068 650.003 517.712C653.943 517.219 654.771 519.232 658.24 520.867C663.659 523.571 666.29 522.009 667.327 518.299C667.589 517.24 667.746 516.161 667.799 515.081C668.197 508.374 674.507 509.443 680.019 508.552C684.274 507.839 673.039 497.118 681.581 493.669C683.247 493.219 684.704 492.192 685.7 490.787C686.591 488.618 685.815 486.123 683.845 484.855H683.761ZM626.463 494.361C626.956 494.644 627.344 494.99 627.469 495.524C627.585 496.007 627.469 496.436 627.26 496.835C626.945 496.028 626.652 495.189 626.463 494.361Z" fill="#E6E6E6"/>
<path d="M639.312 498.816C639.312 498.816 628.014 514.789 624.125 519.851C620.237 524.902 600.764 556.428 598.133 577.306C597.84 579.538 597.557 581.446 597.285 583.122C605.648 638.376 604.359 739.483 603.992 756.797H577.434C577.193 737.262 574.929 558.849 574.101 553.41C573.231 547.635 562.132 525.688 545.017 516.675C527.903 507.662 513.156 477.771 513.156 477.771H518.617C518.617 477.771 528.751 496.049 543.225 506.184C545.3 507.599 547.459 508.888 549.692 510.03C549.629 499.026 551.547 488.094 555.351 477.771L558.307 480.475C554.324 496.783 554.859 507.326 556.075 513.206C561.514 515.753 566.545 519.117 570.978 523.184C585.923 503.742 594.308 459.314 594.308 459.314L598.154 461.421C597.022 470.613 595.335 479.731 593.103 488.713C590.304 500.21 582.056 521.874 578.22 531.694C582.769 538.297 586.521 545.403 589.403 552.875C589.812 552.236 590.294 551.66 590.86 551.156C600.596 542.342 618.896 500.776 618.896 500.776C623.371 491.113 616.548 465.739 616.548 465.739H621.673L623.905 487.937L636.744 473.935L639.092 475.884L625.687 493.45L618.665 515.648L636.964 495.399L639.312 498.847V498.816Z" fill="#EBEBEB"/>
<path d="M32.6539 751.413H753.262C761.29 751.413 767.799 756.276 767.799 762.26V778.589H18.1172V762.239C18.1172 756.255 24.6362 751.402 32.6539 751.402V751.413Z" fill="#F0F0F0"/>
<path d="M91.2042 421.682L86.7709 464.348H64.531L60.0977 421.682H91.2042Z" fill="#E0E0E0"/>
<path d="M79.7927 455.178H71.5234V745.062H79.7927V455.178Z" fill="#E0E0E0"/>
<path d="M84.4344 461.75H66.8688L62.9805 424.281H88.3227L84.4344 461.75Z" fill="#F0F0F0"/>
<path d="M73.3303 462.325H72.1355L70.8359 422.98H72.0307L73.3303 462.325Z" fill="#E0E0E0"/>
<path d="M75.6513 407.973C75.6513 407.973 62.4666 420.958 52.3633 420.958L55.497 423.023H95.7532L98.8869 420.958C88.836 420.979 75.6513 407.973 75.6513 407.973Z" fill="#E0E0E0"/>
<path d="M727.652 408.645L723.03 453.858H699.899L695.277 408.645H727.652Z" fill="#E0E0E0"/>
<path d="M715.773 444.141H707.168V751.413H715.773V444.141Z" fill="#E0E0E0"/>
<path d="M720.597 451.11H702.329L698.273 411.398H724.643L720.597 451.11Z" fill="#F0F0F0"/>
<path d="M709.056 451.729H707.809L706.457 410.016H707.704L709.056 451.729Z" fill="#E0E0E0"/>
<path d="M711.459 394.105C711.459 394.105 697.75 407.867 687.238 407.867L690.498 410.057H732.378L735.638 407.867C725.178 407.898 711.47 394.105 711.47 394.105H711.459Z" fill="#E0E0E0"/>
<path d="M501.261 753.542H507.968L494.26 676.205H487.562L501.261 753.542Z" fill="#E0E0E0"/>
<path d="M292.982 753.542H299.679L285.981 676.205H279.273L292.982 753.542Z" fill="#E0E0E0"/>
<path d="M497.769 714.881H234.684V721.662H497.769V714.881Z" fill="#E0E0E0"/>
<path d="M439.45 753.542H432.742L446.451 676.205H453.148L439.45 753.542Z" fill="#E0E0E0"/>
<path d="M231.166 753.542H224.469L238.167 676.205H244.864L231.166 753.542Z" fill="#E0E0E0"/>
<path d="M291.953 673.201H298.619L309.781 611.145H303.115L291.953 673.201Z" fill="#E0E0E0"/>
<path d="M485.34 673.201H492.016L503.178 611.145H496.512L485.34 673.201Z" fill="#E0E0E0"/>
<path d="M388.656 673.201H395.311L406.484 611.145H399.808L388.656 673.201Z" fill="#E0E0E0"/>
<path d="M280.434 615.377H516.542L518.627 603.754H282.53L280.434 615.377Z" fill="#E0E0E0"/>
<path d="M276.648 636.391H512.757L514.853 624.768H278.745L276.648 636.391Z" fill="#E0E0E0"/>
<path d="M272.863 657.394H508.972L511.068 645.781H274.959L272.863 657.394Z" fill="#E0E0E0"/>
<path d="M507.231 671.377H223.059V679.405H507.231V671.377Z" fill="#E0E0E0"/>
<path d="M688.794 781.577C688.794 785.13 556.371 788.002 393.03 788.002C229.689 788.002 97.2656 785.119 97.2656 781.577C97.2656 778.035 229.689 775.152 393.03 775.152C556.371 775.152 688.794 778.035 688.794 781.577Z" fill="#F5F5F5"/>
</g>
</svg>
