<svg  viewBox="0 0 606 606" fill="none" xmlns="http://www.w3.org/2000/svg">
<g opacity="0.25">
<path d="M488.5 303C488.5 405.449 405.449 488.5 303 488.5C200.551 488.5 117.5 405.449 117.5 303C117.5 200.551 200.551 117.5 303 117.5C405.449 117.5 488.5 200.551 488.5 303Z" stroke="#FF8B13"/>
<path d="M303.004 471.917C209.865 471.917 134.092 396.144 134.092 302.997C134.092 209.849 209.865 134.084 303.004 134.084C396.144 134.084 471.917 209.857 471.917 302.997C471.917 396.136 396.144 471.917 303.004 471.917ZM303.004 134.892C210.309 134.892 134.9 210.301 134.9 302.997C134.9 395.692 210.309 471.11 303.004 471.11C395.7 471.11 471.109 395.7 471.109 302.997C471.109 210.293 395.7 134.892 303.004 134.892Z" fill="white"/>
<path d="M303.004 544.92C238.386 544.92 177.636 519.759 131.943 474.065C86.2497 428.372 61.0889 367.623 61.0889 303.004C61.0889 238.386 86.2497 177.636 131.943 131.943C177.636 86.2497 238.386 61.0889 303.004 61.0889C367.623 61.0889 428.372 86.2497 474.065 131.943C519.759 177.636 544.92 238.386 544.92 303.004C544.92 367.623 519.759 428.372 474.065 474.065C428.372 519.759 367.623 544.92 303.004 544.92ZM303.004 61.8885C170.06 61.8885 61.8966 170.052 61.8966 302.996C61.8966 435.941 170.06 544.104 303.004 544.104C435.949 544.104 544.112 435.941 544.112 302.996C544.112 170.052 435.949 61.8885 303.004 61.8885Z" fill="#FAB735"/>
<path opacity="0.5" d="M302.996 450.488C384.449 450.488 450.48 384.457 450.48 303.004C450.48 221.551 384.449 155.521 302.996 155.521C221.543 155.521 155.513 221.551 155.513 303.004C155.513 384.457 221.543 450.488 302.996 450.488Z" fill="#FC821D"/>
<path d="M303.004 411.24C243.321 411.24 194.769 362.688 194.769 303.004C194.769 243.321 243.321 194.769 303.004 194.769C362.688 194.769 411.24 243.321 411.24 303.004C411.24 362.688 362.688 411.24 303.004 411.24ZM303.004 195.568C243.766 195.568 195.576 243.757 195.576 302.996C195.576 362.235 243.766 410.425 303.004 410.425C362.243 410.425 410.433 362.235 410.433 302.996C410.433 243.757 362.243 195.568 303.004 195.568Z" fill="white"/>
<path d="M353.035 221.278H352.187C352.187 223.758 350.176 225.769 347.696 225.769V226.617C350.176 226.617 352.187 228.629 352.187 231.108H353.035C353.035 228.629 355.047 226.617 357.526 226.617V225.769C355.047 225.769 353.035 223.758 353.035 221.278Z" fill="white"/>
<path d="M203.597 289.515H202.862C202.862 291.663 201.117 293.4 198.977 293.4V294.135C201.125 294.135 202.862 295.88 202.862 298.02H203.597C203.597 295.871 205.341 294.135 207.482 294.135V293.4C205.333 293.4 203.597 291.655 203.597 289.515Z" fill="white"/>
<path d="M218.645 378.503H217.547C217.547 381.726 214.938 384.335 211.715 384.335V385.433C214.938 385.433 217.547 388.042 217.547 391.265H218.645C218.645 388.042 221.254 385.433 224.477 385.433V384.335C221.254 384.335 218.645 381.726 218.645 378.503Z" fill="white"/>
<path d="M398.074 302.996H397.129C397.129 305.75 394.892 307.988 392.138 307.988V308.933C394.892 308.933 397.129 311.17 397.129 313.925H398.074C398.074 311.17 400.312 308.933 403.066 308.933V307.988C400.312 307.988 398.074 305.75 398.074 302.996Z" fill="white"/>
<path d="M178.234 314.982H176.594C176.594 319.772 172.709 323.657 167.919 323.657V325.297C172.709 325.297 176.594 329.182 176.594 333.972H178.234C178.234 329.182 182.119 325.297 186.909 325.297V323.657C182.119 323.657 178.234 319.772 178.234 314.982Z" fill="white"/>
<path d="M420.424 248.151H418.388C418.388 254.096 413.566 258.918 407.621 258.918V260.954C413.566 260.954 418.388 265.776 418.388 271.721H420.424C420.424 265.776 425.246 260.954 431.191 260.954V258.918C425.246 258.918 420.424 254.096 420.424 248.151Z" fill="white"/>
</g>
<path d="M334.172 199.555C335.973 191.848 331.185 184.139 323.477 182.339C315.769 180.538 308.061 185.327 306.261 193.034C304.46 200.742 309.248 208.45 316.956 210.251C324.664 212.051 332.372 207.263 334.172 199.555Z" fill="white"/>
<path d="M328.037 191.291C327.489 190.743 326.597 190.743 326.049 191.291L317.418 199.922L313.231 195.736C312.684 195.188 311.791 195.188 311.243 195.736C310.695 196.284 310.695 197.176 311.243 197.724L316.42 202.902C316.968 203.449 317.861 203.449 318.409 202.902L328.037 193.273C328.585 192.725 328.585 191.833 328.037 191.285V191.291Z" fill="#005296"/>
<g clip-path="url(#clip0_4653_20722)">
<path d="M290.473 213.461H206.647C201.707 213.461 197.702 217.489 197.702 222.457V402.16C197.702 407.128 201.707 411.156 206.647 411.156H290.467C295.407 411.156 299.412 407.128 299.412 402.16V222.457C299.412 217.489 295.407 213.461 290.467 213.461H290.473Z" fill="#2C3D68"/>
<path d="M248.561 225.122C249.841 225.122 250.878 224.078 250.878 222.791C250.878 221.503 249.841 220.46 248.561 220.46C247.281 220.46 246.243 221.503 246.243 222.791C246.243 224.078 247.281 225.122 248.561 225.122Z" fill="#005296"/>
<path d="M248.561 223.998C249.223 223.998 249.76 223.457 249.76 222.791C249.76 222.125 249.223 221.585 248.561 221.585C247.898 221.585 247.361 222.125 247.361 222.791C247.361 223.457 247.898 223.998 248.561 223.998Z" fill="#003D61"/>
<path d="M295.908 225.483V398.732C295.908 400.224 295.312 401.553 294.343 402.535C293.374 403.509 292.046 404.102 290.568 404.102H206.735C205.251 404.102 203.93 403.509 202.954 402.535C201.985 401.553 201.395 400.218 201.389 398.732V225.483C201.395 223.99 201.985 222.654 202.954 221.68C203.93 220.705 205.258 220.105 206.735 220.105H241.736C243.092 220.105 244.189 221.21 244.189 222.573V222.797C244.189 224.038 244.691 225.156 245.497 225.967C246.304 226.778 247.354 227.248 248.54 227.275C251.047 227.336 253.101 225.128 253.101 222.607V222.573C253.101 221.21 254.198 220.105 255.554 220.105H290.562C292.046 220.105 293.367 220.705 294.336 221.68C295.305 222.654 295.901 223.997 295.901 225.483H295.908Z" fill="url(#paint0_linear_4653_20722)"/>
<path d="M284.164 237.369H213.132C209.88 237.369 207.243 240.021 207.243 243.292V288.401C207.243 291.672 209.88 294.324 213.132 294.324H284.164C287.416 294.324 290.053 291.672 290.053 288.401V243.292C290.053 240.021 287.416 237.369 284.164 237.369Z" fill="white"/>
<path d="M265.495 269.797C267.667 260.443 261.887 251.09 252.586 248.906C243.285 246.722 233.985 252.535 231.813 261.889C229.642 271.243 235.422 280.596 244.723 282.78C254.024 284.964 263.324 279.151 265.495 269.797Z" fill="#005296"/>
<path d="M267.731 253.084C266.742 252.089 265.143 252.089 264.153 253.084L248.642 268.684L241.12 261.119C240.13 260.124 238.531 260.124 237.542 261.119C236.552 262.114 236.552 263.723 237.542 264.718L246.846 274.075C247.835 275.07 249.435 275.07 250.424 274.075L267.718 256.683C268.707 255.688 268.707 254.079 267.718 253.084H267.731Z" fill="url(#paint1_linear_4653_20722)"/>
<path d="M256.665 316.166L250.451 322.416V302.1H246.846V322.416L240.632 316.166L238.077 318.736L248.649 329.367L259.22 318.736L256.665 316.166Z" fill="white"/>
<path d="M243.722 348.668C241.336 347.912 238.266 347.455 234.919 347.455C231.571 347.455 228.495 347.912 226.116 348.668H221.189V352.676C221.189 355.558 227.336 357.896 234.919 357.896C242.502 357.896 248.648 355.558 248.648 352.676V348.668H243.722Z" fill="#F4B524"/>
<path d="M234.919 353.888C242.501 353.888 248.648 351.551 248.648 348.668C248.648 345.785 242.501 343.447 234.919 343.447C227.336 343.447 221.189 345.785 221.189 348.668C221.189 351.551 227.336 353.888 234.919 353.888Z" fill="#FFD676"/>
<path d="M245.456 348.667C245.456 348.926 245.395 349.179 245.266 349.424C244.338 351.278 240.062 352.668 234.918 352.668C229.775 352.668 225.499 351.271 224.571 349.424C224.449 349.179 224.381 348.926 224.381 348.667C224.381 346.453 229.097 344.66 234.918 344.66C240.739 344.66 245.456 346.453 245.456 348.667Z" fill="#EFA802"/>
<path d="M245.267 349.425C244.339 351.278 240.063 352.669 234.919 352.669C229.776 352.669 225.5 351.272 224.571 349.425C225.5 347.571 229.776 346.167 234.919 346.167C240.063 346.167 244.339 347.564 245.267 349.425Z" fill="#F8BE39"/>
<path d="M271.187 348.661C268.808 347.905 265.738 347.448 262.391 347.448C259.043 347.448 255.973 347.905 253.595 348.661H248.675V352.662C248.675 355.545 254.814 357.882 262.391 357.882C269.967 357.882 276.106 355.545 276.106 352.662V348.661H271.187Z" fill="#F4B524"/>
<path d="M262.391 353.881C269.966 353.881 276.106 351.544 276.106 348.661C276.106 345.778 269.966 343.44 262.391 343.44C254.816 343.44 248.675 345.778 248.675 348.661C248.675 351.544 254.816 353.881 262.391 353.881Z" fill="#FFD676"/>
<path d="M272.914 348.661C272.914 348.92 272.853 349.172 272.724 349.417C271.796 351.264 267.527 352.661 262.39 352.661C257.254 352.661 252.978 351.264 252.056 349.417C251.934 349.172 251.866 348.92 251.866 348.661C251.866 346.446 256.576 344.653 262.39 344.653C268.205 344.653 272.914 346.446 272.914 348.661Z" fill="#EFA802"/>
<path d="M272.725 349.418C271.797 351.265 267.528 352.662 262.391 352.662C257.254 352.662 252.978 351.265 252.057 349.418C252.985 347.564 257.254 346.167 262.391 346.167C267.528 346.167 271.804 347.564 272.725 349.418Z" fill="#F8BE39"/>
<path d="M257.438 342.555C255.059 341.798 251.989 341.342 248.642 341.342C245.294 341.342 242.224 341.798 239.846 342.555H234.926V346.555C234.926 349.438 241.065 351.776 248.642 351.776C256.218 351.776 262.357 349.438 262.357 346.555V342.555H257.438Z" fill="#FFC848"/>
<path d="M248.635 347.775C256.21 347.775 262.35 345.438 262.35 342.554C262.35 339.671 256.21 337.334 248.635 337.334C241.06 337.334 234.919 339.671 234.919 342.554C234.919 345.438 241.06 347.775 248.635 347.775Z" fill="#FFD676"/>
<path d="M259.158 342.554C259.158 342.813 259.097 343.065 258.969 343.311C258.04 345.158 253.771 346.555 248.634 346.555C243.498 346.555 239.222 345.158 238.3 343.311C238.178 343.065 238.11 342.813 238.11 342.554C238.11 340.339 242.82 338.547 248.634 338.547C254.449 338.547 259.158 340.339 259.158 342.554Z" fill="#EFA802"/>
<path d="M258.976 343.311C258.048 345.158 253.779 346.555 248.642 346.555C243.505 346.555 239.229 345.158 238.308 343.311C239.236 341.458 243.505 340.061 248.642 340.061C253.779 340.061 258.055 341.458 258.976 343.311Z" fill="#F8BE39"/>
<path d="M272.726 367.995H224.382V372.718H272.726V367.995Z" fill="white"/>
<path d="M280.214 376.712H216.9V381.435H280.214V376.712Z" fill="white"/>
</g>
<g clip-path="url(#clip1_4653_20722)">
<mask id="mask0_4653_20722" style="mask-type:alpha" maskUnits="userSpaceOnUse" x="155" y="154" width="296" height="296">
<path d="M302.923 449.691C384.376 449.691 450.407 383.66 450.407 302.207C450.407 220.754 384.376 154.724 302.923 154.724C221.47 154.724 155.439 220.754 155.439 302.207C155.439 383.66 221.47 449.691 302.923 449.691Z" fill="white"/>
</mask>
<g mask="url(#mask0_4653_20722)">
<g filter="url(#filter0_d_4653_20722)">
<path d="M315.093 249.717C315.093 249.717 316.252 245.862 319.191 245.862C322.13 245.862 323.946 247.898 326.871 247.792C329.796 247.686 333.271 243.859 336.745 244.407C340.22 244.955 344.06 247.018 343.51 249.722C342.96 252.425 322.144 257.131 315.088 249.722L315.093 249.717Z" fill="#6D0900"/>
<path d="M378.018 316.935C375.264 288.138 348.963 278.661 342.836 272.831C337.97 268.198 339.629 262.653 340.521 260.563C343.011 256.132 348.819 255.151 349.004 251.324C349.189 247.498 342.239 246.038 339.495 249.321C336.75 252.6 333.46 248.409 331.995 244.946C330.53 241.483 327.056 245.126 325.961 248.409C324.865 251.688 322.671 253.148 320.841 251.324C319.011 249.501 317.916 248.773 313.161 250.233C308.406 251.693 309.501 256.611 311.881 256.888C314.256 257.164 317.551 257.523 319.159 261.907C319.94 264.514 320.397 268.99 316.359 272.831C310.231 278.661 283.925 288.138 281.176 316.935C278.686 342.973 297.011 354.955 324.995 356.415V356.53C326.552 356.567 328.086 356.576 329.597 356.563C331.108 356.581 332.642 356.567 334.199 356.53V356.415C362.183 354.955 380.509 342.973 378.018 316.935Z" fill="url(#paint2_linear_4653_20722)"/>
<path fill-rule="evenodd" clip-rule="evenodd" d="M347.96 299.136V294.31H317.148V299.136H324.495C327.943 299.136 330.881 301.397 331.903 304.501H317.148V309.327H332.291V310.124C332.291 314.397 328.784 317.893 324.495 317.893H319.685L319.676 317.884L319.667 317.893H317.148V322.328C317.209 322.341 317.269 322.355 317.329 322.369L330.216 335.213L334.624 339.606H341.458L341.467 339.597L324.532 322.719H325.387C331.879 322.719 337.189 317.423 337.189 310.953V309.327H347.96V304.501H337.078C336.81 302.516 336.038 300.683 334.897 299.136H347.955H347.96Z" fill="white"/>
<path opacity="0.3" d="M378.018 316.935C377.704 313.647 377.08 310.616 376.216 307.812C376.216 307.812 371.673 297.303 357.137 300.057C342.6 302.811 329.555 325.298 315.092 327.449C300.639 329.599 287.432 322.673 283.468 334.932C289.239 348.637 304.525 355.347 324.99 356.411V356.526C326.547 356.563 328.081 356.572 329.592 356.558C331.103 356.576 332.637 356.563 334.194 356.526V356.411C362.178 354.951 380.504 342.968 378.013 316.93L378.018 316.935Z" fill="#6D0900"/>
<path opacity="0.3" d="M339.749 263.054C339.956 262.018 340.271 261.152 340.52 260.567C343.011 256.137 348.819 255.156 349.004 251.329C349.036 250.693 348.865 250.122 348.551 249.625C348.551 249.625 347.645 252.784 343.57 253.696C339.494 254.608 335.678 256.431 334.204 259.531C332.73 262.63 329.255 260.806 328.705 259.531C328.155 258.255 324.047 256.252 323.178 257.891C322.305 259.531 317.8 257.343 315.208 256.431C312.615 255.52 310.896 256.464 310.896 256.464C311.183 256.694 311.52 256.846 311.881 256.892C314.256 257.168 317.55 257.528 319.158 261.912C319.269 262.276 319.366 262.681 319.454 263.114L327.896 265.278L339.744 263.054H339.749Z" fill="#6D0900"/>
<path d="M339.653 268.134C339.606 268.134 339.56 268.134 339.518 268.124C328.004 266.711 319.146 263.874 319.058 263.846C318.48 263.662 318.166 263.045 318.351 262.469C318.536 261.894 319.155 261.58 319.732 261.765C319.82 261.792 328.493 264.565 339.787 265.955C340.387 266.029 340.817 266.573 340.743 267.176C340.674 267.728 340.202 268.134 339.657 268.134H339.653Z" fill="#6D0900"/>
<path d="M319.39 268.871C318.85 268.871 318.383 268.475 318.304 267.926C318.221 267.328 318.642 266.775 319.238 266.692C331.792 264.956 339.236 262.594 339.31 262.566C339.888 262.382 340.507 262.7 340.692 263.271C340.877 263.846 340.563 264.463 339.985 264.648C339.675 264.744 332.301 267.088 319.538 268.857C319.487 268.866 319.437 268.866 319.386 268.866L319.39 268.871Z" fill="#6D0900"/>
<path d="M297.067 318.942C296.476 318.942 295.991 318.477 295.972 317.883C295.589 306.227 307.33 291.514 314.344 282.722C321.169 274.175 326.566 263.242 326.622 263.132C326.89 262.588 327.546 262.367 328.091 262.63C328.636 262.897 328.863 263.551 328.595 264.094C328.539 264.205 323.04 275.345 316.063 284.086C309.682 292.08 297.806 306.96 298.167 317.814C298.185 318.417 297.714 318.924 297.104 318.942C297.09 318.942 297.081 318.942 297.067 318.942Z" fill="#6D0900"/>
<path opacity="0.3" d="M319.644 264.445C319.644 264.445 321.635 265.389 325.318 266.089C329.001 266.789 335.331 266.089 335.331 266.089C335.331 266.089 339.033 265.826 339.513 265.421C339.527 264.79 339.587 264.09 339.587 264.09C339.587 264.09 332.55 265.937 331.302 265.545C330.054 265.154 319.288 263.169 319.288 263.169L319.649 264.44L319.644 264.445Z" fill="#6D0900"/>
<path opacity="0.3" d="M318.799 269.488C318.799 269.488 319.279 269.99 324.496 268.871C329.713 267.752 331.303 267.729 331.303 267.729C331.303 267.729 338.442 268.829 340.147 268.871C340.147 268.871 339.796 268 339.86 267.544C339.925 267.088 330.536 266.384 330.536 266.384L319.242 268.318L318.799 269.483V269.488Z" fill="#6D0900"/>
<path opacity="0.3" d="M327.319 267.995C327.319 267.995 324.445 275.957 316.132 285.453C307.82 294.949 300.362 307.052 299.539 312.38C298.717 317.713 299.401 318.666 297.617 319.624C295.833 320.582 295.852 316.451 296.138 314.77C296.425 313.089 302.557 298.845 310.37 289.276C318.189 279.706 324.062 270.44 326.677 266.397C328.165 264.863 327.319 267.99 327.319 267.99V267.995Z" fill="#6D0900"/>
<path d="M328.59 264.09L329.117 264.159C329.117 264.159 327.467 267.065 327.125 267.65L326.682 267.733C326.682 267.733 328.072 265.015 328.595 264.094L328.59 264.09Z" fill="#4F0703"/>
<path d="M327.698 266.089L331.298 266.83L330.475 267.001L327.319 266.545L327.698 266.089Z" fill="#4F0703"/>
<path d="M323.91 268.203L324.492 267.157L323.175 268.322L323.91 268.203Z" fill="#4F0703"/>
<path d="M331.298 264.588L336.801 265.546L337.102 265.468L331.949 264.445L331.298 264.588Z" fill="#4F0703"/>
</g>
<g filter="url(#filter1_d_4653_20722)">
<path d="M462.737 289.834C449.379 298.101 431.708 308.532 394.738 321.37C386.038 324.389 378.615 326.674 378.615 326.674C378.615 326.674 391.725 365.805 392.628 368.414C393.389 368.591 426.518 362.913 462.737 345.367V289.834Z" fill="#111111"/>
<path d="M397.397 359.353C400.766 358.124 402.004 363.459 399.163 364.136C396.078 364.869 394.064 360.572 397.397 359.353Z" fill="white"/>
<path d="M405.89 357.154C409.258 355.925 410.496 361.259 407.655 361.937C404.571 362.665 402.556 358.372 405.89 357.154Z" fill="white"/>
<path d="M381.502 342.915C381.502 342.915 374.471 338.779 363.538 340.523C352.609 342.268 346.095 344.31 336.77 342.915C328.973 341.747 320.388 340.124 315.66 343.38C310.932 346.631 312.332 348.229 312.332 348.229C312.332 348.229 305.676 345.529 303.575 344.164C301.475 342.793 297.269 337.555 290.09 335.553C282.911 333.545 276.605 333.626 278.178 337.813C275.55 336.938 274.327 336.165 271.527 336.337C268.726 336.508 269.076 342.672 279.756 348.229C290.435 353.786 295.691 357.452 299.892 360.071C304.093 362.69 315.127 370.542 321.779 371.417C328.435 372.287 354.35 371.114 367.307 367.165C380.264 363.216 386.89 360.081 386.89 360.081L381.842 343.668" fill="#E5A18F"/>
<path d="M278.188 337.813C278.188 337.813 280.466 339.654 284.672 342.096C288.872 344.538 295.879 348.902 297.806 350.646C299.734 352.39 306.386 353.963 311.464 357.28C316.542 360.597 321.443 362.164 321.443 362.164C321.443 362.164 317.415 362.164 313.564 360.243C309.714 358.321 306.386 355.97 302.357 354.443C298.329 352.911 292.728 348.376 290.1 346.803C287.472 345.231 278.923 339.689 276.544 337.227L278.188 337.808V337.813Z" fill="#AF5E58"/>
<path d="M315.665 343.38C315.665 343.38 320.743 342.045 325.644 343.38C322.819 341.479 319.566 341.828 319.566 341.828C319.566 341.828 318.176 342.172 317.73 342.334C316.791 342.672 315.665 343.38 315.665 343.38Z" fill="#AF5E58"/>
<path d="M312.322 346.763C312.322 346.763 313.651 349.857 321.966 352.562H319.166C320.566 353.26 324.483 355.616 328.475 356.051C332.468 356.486 336.851 356.577 338.774 357.275C340.702 357.973 346.039 359.019 348.14 358.584C347.526 359.459 341.839 358.584 338.333 358.149C334.832 357.715 328.003 357.801 322.311 355.444C316.619 353.088 312.332 348.229 312.332 348.229C312.332 348.229 311.855 347.567 312.317 346.768L312.322 346.763Z" fill="#AF5E58"/>
<path d="M356.551 361.553C356.551 361.553 356.156 365.35 350.377 366.002C353.005 367.443 358.915 366.265 356.551 361.553Z" fill="#CC8A83"/>
<path opacity="0.5" d="M367.322 367.16C380.279 363.211 386.905 360.076 386.905 360.076L384.226 351.369C381.563 351.475 373.095 352.001 369.027 354.443C364.166 357.366 357.571 363.701 352.005 365.704C346.44 367.706 323.523 363.752 315.157 360.131C315.157 360.131 308.06 356.89 304.772 355.485C301.485 354.074 294.209 349.427 291.48 347.703C288.75 345.979 278.604 338.131 278.604 338.131C278.604 338.131 278.365 337.98 277.964 337.737C275.489 336.898 274.256 336.17 271.537 336.337C268.736 336.508 269.086 342.672 279.766 348.229C290.445 353.786 295.701 357.452 299.902 360.071C304.103 362.69 315.137 370.542 321.788 371.417C328.445 372.287 354.359 371.114 367.317 367.165L367.322 367.16Z" fill="#AF5E58"/>
<path d="M379.66 329.789L371.051 332.14L381.781 367.58L391.745 365.79L379.66 329.789Z" fill="white"/>
<path d="M384.658 359.06C388.027 357.831 389.265 363.166 386.424 363.843C383.339 364.576 381.325 360.279 384.658 359.06Z" fill="#111111"/>
<path d="M462.737 314.696C462.737 314.696 425.052 352.411 388.438 355.936C391.745 365.79 392.628 368.415 392.628 368.415C392.628 368.415 429.978 362.691 462.737 345.368V314.691V314.696Z" fill="black"/>
<path opacity="0.2" d="M379.66 329.789L378.615 330.072C378.615 330.072 384.226 358.094 380.675 363.924C381.603 366.983 381.781 367.58 381.781 367.58L391.745 365.815L379.655 329.789H379.66Z" fill="#111111"/>
</g>
</g>
</g>
<defs>
<filter id="filter0_d_4653_20722" x="280.95" y="243.544" width="97.2939" height="117.026" filterUnits="userSpaceOnUse" color-interpolation-filters="sRGB">
<feFlood flood-opacity="0" result="BackgroundImageFix"/>
<feColorMatrix in="SourceAlpha" type="matrix" values="0 0 0 0 0 0 0 0 0 0 0 0 0 0 0 0 0 0 127 0" result="hardAlpha"/>
<feOffset dy="4"/>
<feColorMatrix type="matrix" values="0 0 0 0 0.0313726 0 0 0 0 0.0705882 0 0 0 0 0.156863 0 0 0 0.25 0"/>
<feBlend mode="normal" in2="BackgroundImageFix" result="effect1_dropShadow_4653_20722"/>
<feBlend mode="normal" in="SourceGraphic" in2="effect1_dropShadow_4653_20722" result="shape"/>
</filter>
<filter id="filter1_d_4653_20722" x="270.041" y="289.834" width="192.696" height="86.6845" filterUnits="userSpaceOnUse" color-interpolation-filters="sRGB">
<feFlood flood-opacity="0" result="BackgroundImageFix"/>
<feColorMatrix in="SourceAlpha" type="matrix" values="0 0 0 0 0 0 0 0 0 0 0 0 0 0 0 0 0 0 127 0" result="hardAlpha"/>
<feOffset dy="4.83"/>
<feColorMatrix type="matrix" values="0 0 0 0 0.0313726 0 0 0 0 0.0705882 0 0 0 0 0.156863 0 0 0 0.25 0"/>
<feBlend mode="normal" in2="BackgroundImageFix" result="effect1_dropShadow_4653_20722"/>
<feBlend mode="normal" in="SourceGraphic" in2="effect1_dropShadow_4653_20722" result="shape"/>
</filter>
<linearGradient id="paint0_linear_4653_20722" x1="302.4" y1="220.276" x2="318.867" y2="326.386" gradientUnits="userSpaceOnUse">
<stop stop-color="#F8BF3B"/>
<stop offset="0.27" stop-color="#FF8B13"/>
<stop offset="1" stop-color="#EF5F3D"/>
</linearGradient>
<linearGradient id="paint1_linear_4653_20722" x1="240.975" y1="256.662" x2="267.049" y2="256.841" gradientUnits="userSpaceOnUse">
<stop stop-color="#F8BF3B"/>
<stop offset="0.305" stop-color="#FF8B13"/>
<stop offset="1" stop-color="#EF5F3D"/>
</linearGradient>
<linearGradient id="paint2_linear_4653_20722" x1="293.781" y1="265.28" x2="373.91" y2="265.617" gradientUnits="userSpaceOnUse">
<stop stop-color="#F8BF3B"/>
<stop offset="0.305" stop-color="#FF8B13"/>
<stop offset="1" stop-color="#EF5F3D"/>
</linearGradient>
<clipPath id="clip0_4653_20722">
<rect width="101.716" height="197.702" fill="white" transform="translate(197.702 213.461)"/>
</clipPath>
<clipPath id="clip1_4653_20722">
<rect width="180.511" height="130.369" fill="white" transform="translate(270.05 243.546)"/>
</clipPath>
</defs>
</svg>
