<svg width="24" height="24" viewBox="0 0 24 24" fill="none" xmlns="http://www.w3.org/2000/svg">
<path d="M5.10444 7.20002C6.26418 5.53437 7.98779 4.34495 9.95657 3.85169C11.9254 3.35842 14.0062 3.59467 15.8142 4.51676C17.6223 5.43884 19.0354 6.98439 19.7922 8.86765C20.549 10.7509 20.5984 12.8445 19.9311 14.7613C19.2639 16.6781 17.9252 18.2886 16.1626 19.2948C14.4 20.3011 12.3326 20.6351 10.3428 20.2351C8.35293 19.8352 6.57519 18.7283 5.33825 17.1191C4.10131 15.51 3.48882 13.5074 3.61404 11.4816C3.62023 11.396 3.60903 11.3101 3.58113 11.2289C3.55323 11.1478 3.5092 11.0731 3.45168 11.0095C3.39417 10.9458 3.32437 10.8944 3.24647 10.8584C3.16858 10.8224 3.08421 10.8026 2.99844 10.8C2.85411 10.7977 2.71431 10.8503 2.60735 10.9473C2.5004 11.0442 2.4343 11.1782 2.42244 11.322C2.40804 11.546 2.40004 11.772 2.39844 12C2.39881 14.2882 3.21648 16.501 4.70407 18.2396C6.19167 19.9782 8.25136 21.1284 10.5119 21.4827C12.7725 21.837 15.0853 21.3722 17.0335 20.1721C18.9817 18.9719 20.4372 17.1154 21.1376 14.9371C21.838 12.7587 21.7374 10.4019 20.8537 8.29119C19.9701 6.18051 18.3616 4.45487 16.3182 3.42525C14.2747 2.39563 11.9307 2.12975 9.7086 2.67554C7.48647 3.22133 5.53236 4.54288 4.19844 6.40202V4.20002C4.19844 4.04089 4.13522 3.88828 4.0227 3.77576C3.91018 3.66324 3.75757 3.60002 3.59844 3.60002C3.43931 3.60002 3.2867 3.66324 3.17417 3.77576C3.06165 3.88828 2.99844 4.04089 2.99844 4.20002V7.80002C2.99844 7.95915 3.06165 8.11176 3.17417 8.22429C3.2867 8.33681 3.43931 8.40002 3.59844 8.40002H7.19844C7.35757 8.40002 7.51018 8.33681 7.6227 8.22429C7.73522 8.11176 7.79844 7.95915 7.79844 7.80002C7.79844 7.64089 7.73522 7.48828 7.6227 7.37576C7.51018 7.26324 7.35757 7.20002 7.19844 7.20002H5.10444ZM9.59844 9.30122C9.5988 9.09192 9.65389 8.88636 9.75825 8.70494C9.86262 8.52351 10.0126 8.37254 10.1934 8.267C10.3741 8.16147 10.5793 8.10504 10.7886 8.10333C10.9979 8.10161 11.204 8.15466 11.3864 8.25722L16.184 10.9572C16.3693 11.0617 16.5234 11.2136 16.6307 11.3972C16.738 11.5809 16.7945 11.7897 16.7945 12.0024C16.7945 12.2151 16.738 12.424 16.6307 12.6076C16.5234 12.7913 16.3693 12.9431 16.184 13.0476L11.3876 15.7476C11.2052 15.8504 10.9991 15.9037 10.7898 15.9022C10.5804 15.9007 10.3751 15.8444 10.1942 15.739C10.0133 15.6336 9.86313 15.4826 9.75862 15.3012C9.65411 15.1198 9.59889 14.9142 9.59844 14.7048V9.30122ZM15.5948 12.0024L10.7984 9.30242V14.7024L15.5948 12.0024Z" fill="#9FC5EF" stroke="#9FC5EF" stroke-width="0.3"/>
</svg>
