<svg width="262" height="162" viewBox="0 0 262 162" fill="none" xmlns="http://www.w3.org/2000/svg">
<path opacity="0.35" fill-rule="evenodd" clip-rule="evenodd" d="M148.379 12.9689C137.731 20.0675 128.585 26.4381 127.993 27.0296C127.447 27.6667 126.719 28.1672 126.401 28.1672C126.128 28.1217 124.126 29.3048 121.987 30.7154C120.979 31.3802 120.042 32.0146 119.318 32.5044L119.318 32.5049L119.318 32.505L119.317 32.5052L119.317 32.5055L119.316 32.5058L119.316 32.5062C118.505 33.0548 117.964 33.4216 117.892 33.4457C117.755 33.5367 118.574 34.9473 119.712 36.631C121.031 38.5421 121.987 39.5432 122.442 39.4522C122.806 39.3612 133.272 32.4901 145.649 24.1628L168.174 9.10101L172.46 11.9509L172.463 11.9532L172.478 11.9628L172.497 11.9758L172.508 11.983L172.519 11.9904L172.522 11.9922L172.539 12.0033C203.292 32.4509 212.89 38.8331 213.587 39.2247L214.815 39.9983C218.364 34.7198 218.956 33.4457 218.637 33.2637C218.364 33.0816 207.079 25.528 193.519 16.4272C179.959 7.37186 168.583 -0.0452958 168.31 0.000208263C167.991 0.000208263 159.027 5.82472 148.379 12.9689ZM148.288 26.0285C136.821 33.7187 128.221 39.7707 127.948 40.3168C127.584 41.0448 127.447 60.4296 127.447 103.476C127.447 137.65 127.538 165.908 127.675 166.272C127.857 166.863 129.268 166.954 136.457 166.954C142.873 167 145.103 166.863 145.512 166.408C145.922 165.953 146.104 160.311 146.195 144.658L146.195 144.64V144.64V144.64V144.639V144.639V144.638V144.638V144.638V144.637V144.637C146.332 123.544 146.332 123.498 147.378 121.997C147.924 121.223 149.198 120.131 150.199 119.63C151.929 118.766 152.93 118.72 168.538 118.72H185.01C188.15 120.586 189.196 121.678 189.788 122.816C190.652 124.545 190.698 125.546 190.698 145.204C190.698 161.266 190.789 165.953 191.244 166.408C191.699 166.818 194.02 166.954 200.026 167C206.169 167 208.354 166.863 208.763 166.408C209.173 165.953 209.309 151.256 209.309 103.34C209.355 62.0222 209.218 40.9083 208.9 40.9083C208.627 40.9083 208.536 40.6353 208.672 40.3168C208.854 39.9982 204.167 36.5854 195.84 31.034C188.65 26.2105 182.189 22.0697 181.461 21.8421C180.778 21.5691 180.187 21.1596 180.141 20.9321C180.05 20.7045 177.32 18.7479 174.089 16.6092C170.858 14.425 168.174 12.6958 168.174 12.6958C168.174 12.7413 159.209 18.7479 148.288 26.0285ZM3.90395 54.5595C3.76743 54.2865 4.08596 52.9669 4.58651 51.6473L5.49659 49.1446L124.49 49.3266V58.3364C124.49 65.8445 124.399 67.3917 123.807 67.7557C123.398 68.0287 99.6899 68.2107 61.9216 68.2107C12.4132 68.2562 0.627655 68.1197 0.172614 67.6647C-0.236922 67.2097 0.0361024 65.799 1.49223 61.1576C2.49332 57.8813 3.49441 55.1966 3.72193 55.1056C3.94945 55.0601 4.04046 54.7871 3.90395 54.5595ZM212.54 49.6451C212.039 50.1001 211.903 51.9203 211.994 58.6549C212.039 64.889 212.221 67.2552 212.631 67.6647C213.086 68.0742 227.147 68.2107 275.017 68.2107C315.743 68.2107 336.857 68.0742 336.993 67.8012C337.13 67.5282 336.584 65.344 335.81 62.8868C334.991 60.4296 334.172 58.3819 333.99 58.3364C333.763 58.2909 333.672 58.0634 333.763 57.8813C333.899 57.6993 333.399 55.6971 332.716 53.4674L331.442 49.3721C226.737 49.1446 213.04 49.2356 212.54 49.6451ZM10.9571 150.164V110.803V71.4415H124.717L124.49 149.936L10.9571 150.164ZM212.358 72.1241C212.221 72.4881 212.085 86.0938 212.085 102.384C212.085 125.728 212.221 131.962 212.631 131.962C213.086 131.962 213.086 132.007 212.631 132.28C212.221 132.553 212.13 134.738 212.176 141.29L212.312 149.936L325.845 150.164V71.4415C219.32 71.4415 212.585 71.487 212.358 72.1241ZM11.1846 166.772L11.0481 160.038L10.9116 153.349H67.5641C117.573 153.349 124.308 153.394 124.49 154.031C124.626 154.395 124.717 157.217 124.717 160.265C124.763 164.27 124.581 165.999 124.171 166.408C123.716 166.818 114.024 166.954 80.6693 166.954C52.2292 166.954 37.8955 166.818 38.032 166.545C38.1685 166.272 38.032 166.09 37.8045 166.09C37.5314 166.09 37.3494 166.272 37.3494 166.545C37.3494 166.818 32.7535 166.954 11.1846 166.772ZM212.358 154.031C212.176 154.395 212.085 157.126 212.085 160.129C212.085 164.406 212.221 165.771 212.767 166.272C213.359 166.863 220.23 166.954 268.965 166.954C299.498 166.954 324.798 166.863 325.162 166.727C325.708 166.545 325.845 165.362 325.845 159.901V153.303C219.639 153.349 212.585 153.44 212.358 154.031ZM163.26 31.7639C163.715 30.9449 164.853 29.9438 165.899 29.4887C166.9 29.0337 168.038 28.6697 168.402 28.6697C168.766 28.6697 169.994 29.0337 171.132 29.4887C172.27 29.9438 173.18 30.5353 173.225 30.7174C173.225 30.9449 173.498 31.6729 173.771 32.401C174.09 33.0836 174.317 34.1757 174.317 34.9037C174.317 35.5863 173.953 36.8604 173.453 37.725C172.998 38.5896 171.906 39.6816 171.087 40.1367C170.222 40.5462 169.084 40.9103 168.538 40.9103C167.947 40.9103 166.764 40.5917 165.899 40.2277C165.035 39.8637 163.897 38.8626 163.396 38.089C162.896 37.2699 162.486 35.8138 162.486 34.9037C162.486 33.9481 162.85 32.5375 163.26 31.7639ZM142.92 72.308V61.3871V50.4661H162.486V72.308H142.92ZM174.317 61.3871C174.317 68.2127 174.499 72.3535 174.772 72.4445C175 72.4901 179.414 72.4901 184.556 72.4445L193.884 72.308V50.4661H174.317V61.3871ZM142.92 103.251V92.3298V81.4088H162.486L162.577 84.5031C162.668 86.1868 162.668 91.1012 162.486 103.251H142.92ZM174.317 92.3298V103.251H193.884V81.4088H174.317V92.3298ZM299.681 84.1391C304.049 84.1391 307.644 84.0026 307.644 83.8206C307.644 83.593 308.964 83.684 313.56 84.3666V108.711L291.945 108.484L291.718 84.1391H299.681ZM24.4726 84.0026C23.3805 84.1846 23.153 84.4121 23.1074 85.6407C23.0619 86.4598 23.0619 91.9658 23.1074 97.9268L23.244 108.711H45.0859V84.1391C30.9796 84.1391 26.6113 84.0481 26.2927 84.0026C26.0197 83.9116 25.1551 83.9116 24.4726 84.0026ZM58.2821 108.711V96.4252V84.1391H80.124V108.711H58.2821ZM93.7752 96.4252V108.711L115.39 108.484L115.572 84.1391H93.7752V96.4252ZM221.414 108.484L221.277 96.3342L221.187 84.1391H243.028L243.119 90.8737C243.139 92.4244 243.15 94.0154 243.159 95.4229V95.4232V95.4235V95.4237V95.424V95.4242V95.4244V95.4246V95.4248V95.4249C243.173 97.3621 243.184 98.9517 243.21 99.6105C243.21 100.748 243.165 103.251 243.028 108.711L221.414 108.484ZM256.634 86.2323C256.634 87.4609 256.407 88.3255 256.088 88.462C255.633 88.5985 255.633 88.644 256.088 88.6895C256.498 88.6895 256.634 91.0557 256.634 98.7459V108.757H278.476V84.1846H256.634V86.2323ZM256.634 118.768L265.644 118.631C270.558 118.54 275.018 118.54 275.518 118.586C276.019 118.677 276.883 118.722 278.476 118.768V143.34H256.634V118.768ZM23.153 125.912C23.0619 129.871 23.0164 135.377 23.1074 138.198L23.1985 143.34H45.0404V118.768H23.2895L23.153 125.912ZM58.2821 143.294V131.008V118.722H80.124V143.294H58.2821ZM93.7752 131.008V143.294C104.15 143.476 109.019 143.431 111.294 143.294L115.39 143.067L115.572 118.722H93.7752V131.008ZM221.414 143.067L221.277 130.917L221.141 118.722H243.028V143.294L221.414 143.067ZM291.718 131.054V143.34C296.132 143.476 301.046 143.476 305.505 143.431L313.56 143.34V118.768H291.718V131.054Z" fill="url(#paint0_linear_5624_6885)"/>
<defs>
<linearGradient id="paint0_linear_5624_6885" x1="168.507" y1="0" x2="168.507" y2="167" gradientUnits="userSpaceOnUse">
<stop stop-color="#F8BF3B"/>
<stop offset="1" stop-color="#F8BF3B" stop-opacity="0"/>
</linearGradient>
</defs>
</svg>
