<svg width="160" height="111" viewBox="0 0 160 111" fill="none" xmlns="http://www.w3.org/2000/svg">
<g opacity="0.5">
<path d="M139.677 103.101C139.402 102.584 139.727 102.112 139.778 101.616C140.234 97.124 138.943 93.3515 134.716 90.8741C133.426 90.1165 132.11 89.3318 130.697 88.8418C128.508 88.0796 127.097 86.4642 125.596 84.9703C124.095 83.4792 124.034 81.5954 124.668 79.6952C125.133 78.3063 125.871 77.036 126.761 75.856C127.96 74.2696 129.271 72.7601 130.427 71.1436C132.855 67.749 134.943 64.1706 135.745 60.0797C136.682 55.2991 135.925 50.8953 131.991 47.4104C129.059 44.8096 125.474 44.0785 121.584 44.2026C116.362 44.3695 111.665 46.1918 107.045 48.2739C104.226 49.5429 101.53 51.0964 98.3261 51.3801C95.0283 51.6727 92.3665 50.6827 90.4747 47.9886C89.2225 46.2037 88.324 44.2738 87.5319 42.2742C85.5128 37.1775 84.1376 31.8592 81.7126 26.8995C79.1501 21.6598 74.3167 18.5834 69.1362 18.9093C64.5981 19.1952 60.8825 21.2376 57.8573 24.2093C54.3139 27.688 51.5417 31.7679 49.0918 36.0378C47.6802 38.4982 46.3114 41.019 44.0346 42.8965C41.2622 45.1836 38.1723 45.8382 34.9852 43.9275C32.2557 42.2887 29.7796 40.3451 27.0872 38.6755C23.8991 36.6965 20.6743 35.0047 16.7089 35.0514C10.5756 35.1234 6.10692 38.2462 2.16971 42.2547C0.533879 43.9188 -0.84115 45.8173 -2.33271 47.6094C-2.76544 48.5922 -3.20107 49.5741 -3.62589 50.5441C-3.58232 50.6109 -3.55443 50.6942 -3.50796 50.7621C-3.47004 50.8179 -3.36394 50.9085 -3.36293 50.9058C-2.96795 50.5769 -2.48759 50.298 -2.20185 49.8959C0.802578 45.6585 4.69954 42.3463 9.30118 39.7643C12.8323 37.7841 16.5459 36.8302 20.5604 38.3178C22.6451 39.0888 24.6316 40.0494 26.4041 41.3926C28.3623 42.8746 30.2947 44.4097 32.3908 45.6997C35.9752 47.9056 39.8203 48.6861 43.7915 46.6172C46.1962 45.3653 47.9581 43.382 49.3918 41.2159C51.7678 37.6281 53.9952 33.9508 56.5697 30.4843C58.4384 27.9686 60.4732 25.6006 63.327 24.0223C69.4758 20.6232 74.7682 21.695 78.0452 27.0696C79.7102 29.7997 81.0261 32.6886 81.8929 35.7528C83.081 39.9508 84.3574 44.1195 86.5576 47.9649C89.6336 53.3408 95.1477 56.0504 101.916 53.7114C105.678 52.4123 109.164 50.5652 112.922 49.2588C116.943 47.8606 120.928 46.8639 125.217 47.5538C128.439 48.0723 130.806 49.5786 132.037 52.6213C132.804 54.5201 132.927 56.4121 132.725 58.3784C132.25 62.9544 129.871 66.7201 127.169 70.3602C125.577 72.5078 123.833 74.5558 122.558 76.9164C120.314 81.0755 121.128 85.1096 124.853 88.1642C126.498 89.5115 128.324 90.5734 130.316 91.3414C132.167 92.0533 133.75 93.1519 135.254 94.3168C137.609 96.14 138.168 98.7533 137.985 101.482C137.779 104.533 137.389 107.576 137.078 110.62C137.946 108.115 138.815 105.608 139.684 103.1L139.677 103.101Z" fill="#DEDEDE"/>
<path d="M69.7048 75.2468C68.8518 76.3721 68.6616 77.5613 68.863 78.6679C69.0783 79.8544 68.4938 80.3397 67.6296 80.9024C65.8396 82.0623 63.8202 82.7849 61.7813 83.2115C54.4786 84.7367 47.2152 84.5874 40.0719 82.2382C38.9028 81.8543 37.7058 81.3823 36.1367 81.497C36.7688 82.5929 37.6862 82.9315 38.5253 83.3368C40.2817 84.1901 42.1976 84.5714 44.0882 85.046C52.5712 87.1792 60.7436 86.2433 68.6392 82.7769C69.4979 82.4009 70.0153 82.2462 70.6921 83.0328C71.8528 84.3821 73.3855 84.8034 75.6734 84.3287C71.5843 82.2382 70.2334 79.0092 69.7048 75.2441V75.2468Z" fill="#DEDEDE"/>
<path d="M63.1923 70.0182C63.1616 69.0262 62.1323 68.213 60.9884 68.277C59.8892 68.341 59.1425 69.0742 59.1564 70.0795C59.1732 71.2287 59.9508 71.946 61.1898 71.9513C62.3057 71.9567 63.2259 71.0687 63.1923 70.0155V70.0182Z" fill="#DEDEDE"/>
<path d="M44.2939 72.8629C45.3316 72.8016 46.0895 72.0523 46.1119 71.0631C46.1343 70.0045 45.2365 69.1486 44.1345 69.1806C43.1108 69.2099 42.3501 69.9725 42.3361 70.9831C42.3221 72.0843 43.2003 72.9269 44.2939 72.8629Z" fill="#DEDEDE"/>
</g>
</svg>
