<svg width="255" height="148" viewBox="0 0 255 148" fill="none" xmlns="http://www.w3.org/2000/svg">
<path opacity="0.5" fill-rule="evenodd" clip-rule="evenodd" d="M228.777 8.48648C235.591 12.2102 241.914 16.6222 246.824 22.6749L246.83 22.6687C252.963 30.2207 256.195 38.7681 254.038 48.6429C253.221 52.3789 251.77 55.9429 249.712 59.2058C249.952 59.6544 249.829 59.8449 249.319 59.7711C243.727 68.2756 235.173 72.325 225.913 75.2561C224.414 75.7294 222.86 76.0399 221.312 76.3493L221.311 76.3495C220.589 76.4939 219.867 76.6381 219.154 76.7984C216.344 77.7643 213.514 77.5285 210.689 77.2933H210.689C209.344 77.1813 208.001 77.0694 206.661 77.0872C206.213 77.5419 205.77 78.0028 205.328 78.4637C205.368 78.7516 205.406 79.0382 205.445 79.324C205.489 79.6544 205.534 79.9838 205.58 80.3132C205.748 80.5362 205.914 80.7607 206.081 80.9852L206.084 80.9891C206.251 81.2149 206.419 81.4408 206.588 81.6651L206.778 81.6159L206.563 81.6958C206.969 82.3779 207.374 83.06 207.78 83.7359L207.933 83.6007L207.823 83.7666C211.356 90.9131 213.875 98.2315 212.997 106.447C212.093 114.939 207.423 120.298 199.607 122.866C190.574 125.834 182.254 123.776 174.856 118.024C172.576 116.254 170.416 114.33 168.137 112.302C167.062 111.345 165.961 110.365 164.809 109.366C163.993 111.408 163.53 113.468 163.077 115.484L163.076 115.484L163.076 115.484L163.076 115.484C162.544 117.854 162.025 120.162 160.962 122.307C154 136.379 143.542 145.676 127.405 147.476C121.869 148.097 116.689 146.892 111.822 144.348C100.989 138.683 93.9408 129.644 89.2769 118.583C88.8604 117.59 88.683 116.494 88.506 115.4C88.4245 114.896 88.3431 114.393 88.2384 113.901C88.3306 114.024 88.4228 114.128 88.5211 114.208C88.4228 114.122 88.3306 114.018 88.2384 113.901C86.7589 112.531 86.4666 110.718 86.1775 108.926C86.1112 108.514 86.0451 108.104 85.9648 107.701C85.4549 105.157 84.3179 105.925 83.1129 106.739C83.0111 106.808 82.9088 106.877 82.8064 106.945C73.4663 118.079 61.3364 122.897 47.0436 121.92C32.3206 120.912 23.0972 108.039 23.4905 94.7044C23.7486 85.8989 28.0254 78.5865 32.7446 71.52C36.0321 66.5919 39.4978 61.7989 45.2001 59.2857C45.3754 59.2085 45.5475 59.1237 45.7193 59.0389C46.5054 58.6513 47.2862 58.2662 48.3401 58.6343C46.5151 64.011 43.0249 68.3247 39.3626 72.4417C33.8015 78.6849 30.7537 86.0464 29.3219 94.1084C27.6813 103.332 32.4865 111.941 41.3228 116.008C42.6405 116.615 44.0437 117.048 45.4431 117.48L45.4434 117.48C46.0995 117.682 46.7547 117.884 47.4 118.104C49.2826 118.107 51.1636 118.112 53.0431 118.116L53.0569 118.116C54.9272 118.121 56.7961 118.125 58.6634 118.128C65.6808 116.125 72.4831 113.716 77.9397 108.524C78.7173 107.784 79.6615 107.217 80.6035 106.651L80.6036 106.651C81.0387 106.39 81.4734 106.129 81.8908 105.851C82.3051 104.735 83.1648 104.136 84.0928 103.489C84.7888 103.004 85.5232 102.493 86.1369 101.716C86.5556 103.289 87.1092 104.756 87.6482 106.185C88.636 108.803 89.5751 111.292 89.5473 114.067C93.4799 122.528 98.107 130.615 105.579 136.409C120.339 147.851 137.065 145.602 149.558 131.377C155.948 124.101 159.291 115.603 159.66 105.913C159.676 105.486 159.643 105.029 159.61 104.565C159.497 103.004 159.379 101.372 161.147 100.628C163.382 99.6902 164.81 101.428 166.009 102.887C166.161 103.073 166.31 103.254 166.456 103.424C170.087 107.658 173.805 111.726 178.463 114.89C184.368 118.903 190.716 120.777 197.8 119.013C203.454 117.6 207.264 114.19 208.861 108.444C210.207 103.608 209.875 98.8214 208.48 94.1084C207.81 91.8379 206.992 89.6149 206.174 87.3919L206.174 87.3916C205.814 86.414 205.454 85.4364 205.107 84.4548L205.07 84.4979C204.584 83.5761 204.105 82.6606 203.638 81.7511C201.475 79.1887 200.154 76.2085 198.95 72.5831C202.452 73.4187 205.635 74.1807 208.806 74.9427C219.227 75.1885 228.586 71.9932 237.121 66.1679C250.449 57.0735 253.214 39.9664 242.971 26.6506C237.643 19.7315 230.319 15.639 222.607 12.0751C221.796 11.7002 220.96 11.3684 220.112 11.0673C220.018 11.0337 219.923 11.0001 219.827 10.9664L219.826 10.9662L219.826 10.966C217.668 10.2045 215.319 9.37544 215.307 6.70448C215.295 4.08072 217.696 2.93372 219.763 1.94624L219.836 1.91153C224.512 -0.325188 229.041 -2.80769 233.385 -5.64046C240.071 -10.0033 245.066 -15.5398 246.652 -23.7001C248.378 -32.6162 243.733 -41.7167 235.241 -45.084C229.483 -47.3699 223.572 -48.1687 217.341 -46.7186C211.559 -45.3728 205.832 -43.9903 200.258 -41.4709C204.498 -51.1674 206.618 -61.1835 205.494 -71.728C204.787 -78.3521 202.378 -84.1897 197.555 -88.9765C192.362 -94.1258 185.812 -95.1336 179.096 -94.6235C167.642 -93.7571 159.414 -87.5447 153.877 -77.6946C152.74 -75.673 151.822 -73.5302 150.904 -71.3869L150.904 -71.3866L150.904 -71.3863C150.483 -70.4026 150.062 -69.4188 149.619 -68.4466L149.699 -68.4282C149.515 -67.7436 149.334 -67.0581 149.154 -66.3726L149.154 -66.3709L149.153 -66.3691C148.697 -64.6316 148.24 -62.895 147.72 -61.1773L147.683 -61.0535C147.281 -59.7298 146.825 -58.2257 145.121 -58.1602C143.382 -58.0865 142.743 -59.3892 142.436 -60.9315C142.214 -62.0509 141.858 -63.1235 141.499 -64.2024L141.499 -64.2027L141.499 -64.2029L141.499 -64.2031C141.134 -65.3036 140.767 -66.4106 140.537 -67.5802C137.882 -81.1664 123.252 -92.1595 108.234 -83.7657C102.654 -80.6502 99.5142 -75.4824 97.7875 -69.4114C95.6552 -61.9331 95.0469 -54.3197 95.7843 -46.018C93.3314 -47.6464 91.9821 -49.9247 90.6731 -52.1348C90.0309 -53.2191 89.3984 -54.287 88.6501 -55.2537C87.2305 -57.0854 85.6031 -58.6864 83.9781 -60.2851C82.9373 -61.3091 81.8974 -62.332 80.9138 -63.414V-63.371C80.4529 -63.7182 79.9921 -64.0669 79.5312 -64.4156L79.5295 -64.417L79.5277 -64.4183C79.068 -64.7661 78.6083 -65.1139 78.1486 -65.4603L77.7738 -65.4111L77.9704 -65.6876C76.2439 -66.2962 74.6342 -67.1403 73.0204 -67.9866L73.0203 -67.9866C71.5384 -68.7637 70.0531 -69.5425 68.4706 -70.1426C52.9979 -76.0109 39.2888 -63.9978 40.9172 -49.0966C41.5931 -42.878 44.1371 -37.3539 48.8317 -33.0033L48.9671 -32.8777C49.1859 -32.6751 49.4032 -32.4738 49.6121 -32.2598L49.6841 -32.1867L49.8608 -32.0082C51.3313 -30.5231 53.0283 -28.8092 52.2667 -26.8093C51.6012 -25.0574 49.3087 -24.9483 47.4315 -24.8589L47.4304 -24.8588L47.4289 -24.8587C47.2791 -24.8516 47.1318 -24.8446 46.9883 -24.8369C39.1291 -24.4129 31.6877 -22.2745 24.9653 -18.3971C14.2118 -12.197 7.21289 -3.11494 5.30186 9.51266C2.94839 25.0836 13.6342 42.5656 27.1835 48.7166C29.918 49.9592 32.6721 51.1652 35.7291 52.5038L35.7348 52.5063C37.1963 53.1463 38.7271 53.8166 40.358 54.5357C32.9658 54.5972 27.1713 52.4096 21.8621 49.2942C6.97939 40.5686 -0.916699 27.3572 0.0849062 10.1333C1.08651 -7.09064 11.0718 -18.5016 26.7657 -25.0335C32.1731 -27.2886 37.7526 -29.1137 43.9712 -29.7773C42.9266 -32.567 41.63 -34.4596 40.2843 -36.34C35.5651 -42.9395 34.9752 -50.387 36.6035 -57.9574C38.3487 -66.0932 43.5288 -71.476 51.4924 -74.1306C60.6851 -77.1907 69.4845 -75.9863 76.975 -70.1795C77.2774 -69.9452 77.5815 -69.7108 77.8866 -69.4756C82.0075 -66.299 86.3044 -62.9866 88.9819 -58.2094C89.5095 -57.2672 90.2426 -56.4392 91.0002 -55.5834L91.0005 -55.5832C91.3546 -55.1832 91.7141 -54.7771 92.0605 -54.3504C93.6078 -55.2768 93.4729 -56.5952 93.3426 -57.8692C93.3156 -58.1333 93.2888 -58.3954 93.2772 -58.6518C93.013 -64.4771 94.0944 -69.9583 96.1837 -75.4702C102.697 -92.6511 123.903 -97.2412 137.336 -84.503C137.723 -84.1343 138.11 -83.7595 138.497 -83.3847C138.503 -83.3785 138.681 -83.5322 138.681 -83.5322L138.558 -83.3601C139.958 -81.9761 140.842 -80.2443 141.742 -78.4822L141.742 -78.4821C142.644 -76.7157 143.562 -74.9189 145.029 -73.4116C146.846 -75.0183 147.771 -76.9578 148.67 -78.8432C148.741 -78.9912 148.811 -79.1389 148.882 -79.2861C154.326 -90.5741 163.199 -97.2474 175.507 -99.5455C188.528 -101.979 205.365 -94.6604 208.548 -77.1047C210.219 -67.9059 208.935 -59.3646 205.346 -50.9646C205.233 -50.6987 205.093 -50.4421 204.954 -50.1857C204.587 -49.512 204.221 -48.8396 204.332 -48.0028C204.544 -47.7048 204.758 -47.4083 204.971 -47.1118C205.185 -46.8153 205.399 -46.5189 205.611 -46.2208C213.12 -49.367 220.758 -51.5914 229.078 -50.3993C235.874 -49.4223 241.822 -46.9152 246.467 -41.7474C247.414 -40.6905 248.348 -39.4861 248.845 -38.1834C251.887 -30.2566 252.698 -22.6677 248.403 -14.489C243.831 -5.78178 236.814 -0.589417 228.426 3.50918C227.702 3.86499 227.095 4.4632 226.482 5.0668C226.195 5.34924 225.907 5.63286 225.606 5.89337C225.902 7.2529 226.926 7.67966 227.908 8.08902C228.209 8.21438 228.506 8.3381 228.777 8.48648ZM52.3097 119.032C52.7767 119.062 53.2499 119.069 53.7169 119.062C53.2499 119.075 52.7767 119.062 52.3097 119.032ZM205.082 84.4917L205.088 84.4794C205.088 84.4794 205.088 84.4856 205.082 84.4917ZM211.694 76.8476C211.731 76.8476 211.768 76.8476 211.805 76.8537C211.768 76.8537 211.731 76.8537 211.694 76.8476ZM162.439 4.0618C162.42 6.63647 160.294 8.68269 157.67 8.66425V8.65811C155.317 8.64583 153.387 6.53201 153.516 4.1171C153.621 2.16919 156.109 -0.270302 158.1 -0.374763C160.319 -0.491516 162.457 1.69604 162.439 4.0618ZM118.563 8.40649C118.582 5.93014 116.216 3.56438 113.758 3.6074C111.472 3.64426 109.475 5.89326 109.579 8.30817C109.672 10.4466 112.013 12.4006 114.44 12.3638C116.873 12.3269 118.551 10.7231 118.563 8.41264V8.40649ZM125.101 31.0057C125.743 31.6236 126.389 32.245 126.52 33.2135H126.533L126.686 33.1214L126.545 33.2135C127.002 33.5291 127.448 33.8684 127.895 34.2079C128.866 34.946 129.838 35.6848 130.92 36.1815C139.375 40.0527 145.36 37.5579 149.127 30.645C149.423 30.1001 149.686 29.5316 149.949 28.9632C150.803 27.1152 151.657 25.2669 153.668 24.2237C156.009 29.754 151.991 37.8283 145.33 41.0482C137.268 44.944 127.583 41.6934 123.374 33.6805C122.393 33.7773 122.182 33.1136 121.985 32.4931C121.919 32.2863 121.855 32.0844 121.764 31.917C121.095 30.6634 120.505 28.8138 121.986 28.2239C123.307 27.6955 124.511 29.0781 124.781 30.6942C124.886 30.799 124.994 30.9023 125.101 31.0057Z" fill="#DEDEDE"/>
</svg>

