<svg width="786" height="486" viewBox="0 0 786 486" fill="none" xmlns="http://www.w3.org/2000/svg">
<path d="M305.729 290.076C307.853 292.725 321.192 313.183 324.438 307.693C325.315 306.21 324.968 304.335 324.575 302.657C320.445 285.069 309.547 265.278 297.976 251.541C292.162 244.638 289.163 241.463 282.349 235.551C276.194 230.21 267.861 224.455 259.695 222.548C255.078 221.47 250.779 222.918 250.143 228.017C249.502 233.146 251.503 238.264 254.174 242.691C266.296 262.788 291.047 271.766 305.729 290.076Z" stroke="#E5CB80" stroke-width="1.5" stroke-miterlimit="10" stroke-linejoin="round"/>
<path d="M250.319 227.286C253.718 235.366 259.644 242.146 266.176 247.991C272.709 253.835 279.915 258.876 286.654 264.48C294.187 270.745 301.154 277.74 306.964 285.628C312.447 293.07 316.923 301.327 323.43 307.891" stroke="#E5CB80" stroke-width="1.5" stroke-miterlimit="10" stroke-linejoin="round"/>
<path d="M255.598 222.147C266.475 235.013 280.831 244.275 292.907 255.979C307.286 269.915 317.795 289.708 324.901 306.423" stroke="#E5CB80" stroke-width="1.5" stroke-miterlimit="10" stroke-linejoin="round"/>
<path d="M611.248 365.969C609.46 371.288 592.908 408.083 603.455 407.748C606.305 407.657 608.606 405.51 610.589 403.471C631.385 382.094 649.192 349.302 657.967 320.941C662.376 306.692 664.116 299.681 666.251 284.912C668.181 271.569 668.74 254.815 664.09 241.711C661.459 234.3 655.599 229.577 647.93 233.212C640.215 236.868 634.877 244.203 631.103 251.864C613.966 286.639 623.607 329.201 611.248 365.969Z" fill="#E5CB80"/>
<path d="M650.062 230.93C641.735 242.991 637.512 257.441 635.154 271.906C632.797 286.37 632.18 301.061 630.346 315.601C628.297 331.854 624.709 347.965 618.823 363.252C613.27 377.675 605.664 391.413 602.268 406.49" stroke="#F4F3DD" stroke-width="1.5" stroke-miterlimit="10"/>
<path d="M662.055 233.743C653.713 260.648 653.581 289.212 647.955 316.761C641.256 349.563 622.82 382.183 605.661 407.237" stroke="#F4F3DD" stroke-width="1.5" stroke-miterlimit="10"/>
<path d="M314.024 253.546C309.982 240.389 304.891 227.565 301.125 214.326C296.255 197.208 293.814 179.053 296.167 161.314C297.337 152.498 299.726 143.835 303.526 135.785C306.597 129.28 312.3 116.701 320.404 115.518C325.414 114.786 329.707 119.167 332.106 123.625C336.717 132.198 337.825 142.275 337.248 151.993C336.67 161.711 334.51 171.254 332.95 180.862C328.403 208.864 328.974 237.689 334.625 265.489C335.997 272.239 337.676 279.076 336.989 285.928C336.628 289.522 335.003 297.925 330.406 298.359C325.904 298.785 323.74 292.364 322.933 289.118C319.979 277.233 317.627 265.273 314.024 253.546Z" fill="#E5CB80"/>
<path d="M315.99 117.364C314.756 120.832 313.521 124.299 312.287 127.767C310.105 133.893 307.92 140.03 306.323 146.334C304.262 154.468 303.191 162.86 303.259 171.25C303.503 201.512 318.309 229.781 322.242 259.786C323.919 272.589 323.743 286.136 329.891 297.491C329.479 297.156 329.066 296.82 328.654 296.485" stroke="#F4F3DD" stroke-width="1.5" stroke-miterlimit="10"/>
<path d="M327.348 117.657C329.08 126.542 329.375 135.703 328.222 144.68C327.479 150.468 326.14 156.163 325.128 161.91C322.242 178.317 322.035 195.061 321.835 211.718C321.754 218.597 321.672 225.491 322.322 232.34C324.317 253.335 333.11 273.204 335.45 294.163" stroke="#F4F3DD" stroke-width="1.5" stroke-miterlimit="10"/>
<path d="M640.141 407.017C648.181 402.151 655.734 396.455 662.795 390.287C662.977 390.128 663.158 389.969 663.338 389.809C678.159 376.748 690.622 360.181 695.962 340.88C698.295 332.448 701.13 318.636 692.439 312.7C689.19 310.48 684.729 310.39 681.043 311.717C677.358 313.045 674.337 315.609 671.714 318.382C659.691 331.099 654.873 348.382 646.992 363.771C638.943 379.484 627.235 393.705 611.923 403.4C607.676 406.089 603.123 408.46 599.566 411.927C598.423 413.041 597.333 414.435 597.492 415.999C597.772 418.746 601.432 419.855 604.343 419.912C612.059 420.06 619.172 417.455 626.12 414.367C630.948 412.224 635.622 409.752 640.141 407.017Z" stroke="#E5CB80" stroke-width="1.5" stroke-miterlimit="10" stroke-linejoin="round"/>
<path d="M597.994 414.437C597.954 413.547 599.013 413.047 599.897 412.76C604.084 411.396 608.173 409.78 612.135 407.925C622.329 403.15 631.676 396.767 639.493 388.974C653.748 374.765 662.481 356.44 670.192 338.19C673.916 329.378 677.462 320.494 680.828 311.548" stroke="#E5CB80" stroke-width="1.5" stroke-miterlimit="10" stroke-linejoin="round"/>
<path d="M600.134 419.024C612.566 417.034 623.942 410.897 634.069 404.128C644.55 397.125 653.784 388.524 661.663 378.959C677.096 360.225 689.97 339.765 695.605 316.016" stroke="#E5CB80" stroke-width="1.5" stroke-miterlimit="10" stroke-linejoin="round"/>
<path d="M705.406 436.356C702.624 427.226 693.582 423.553 685.471 420.198C676.907 416.657 667.575 415.288 658.351 415.578C646.594 415.947 635.05 418.544 623.591 421.13C613.423 423.425 603.257 425.72 593.089 428.014C590.73 428.547 588.083 429.293 586.985 431.428C585.391 434.528 587.747 436.495 590.903 438.046C597.597 441.336 608.08 440.991 615.491 440.238C629.489 438.816 641.675 441.031 655.17 445.082C666.827 448.581 678.329 453.862 690.484 453.562C694.187 453.471 697.956 452.822 701.158 450.989C706.387 447.997 707.029 441.686 705.406 436.356Z" fill="#E5CB80"/>
<path d="M586.644 432.978C593.74 437.932 603.142 437.219 611.789 436.746C638.148 435.306 664.661 437.937 690.146 444.523C695.698 445.958 702.057 447.45 706.833 444.115" stroke="#F4F3DD" stroke-width="1.5" stroke-miterlimit="10"/>
<path d="M588.429 429.704C600.104 431.047 611.929 431.099 623.619 429.857C628.407 429.348 633.173 428.622 637.968 428.171C642.664 427.729 647.381 427.55 652.095 427.371C669.791 426.702 688.077 426.125 704.552 432.604" stroke="#F4F3DD" stroke-width="1.5" stroke-miterlimit="10"/>
<path d="M159.157 238.145C151.086 232.644 142.838 227.389 134.481 222.605C130.009 220.045 125.156 217.655 120.153 216.343C115.88 215.223 109.805 214.557 106.516 218.204C104.449 220.495 104.121 223.892 104.598 226.936C105.833 234.821 111.549 241.24 117.632 246.421C146.432 270.953 186.527 277.325 218.778 297.13C227.393 302.42 221.667 292.888 219.203 289.816C207.91 275.738 194.226 263.712 179.796 252.93C173.081 247.914 166.185 242.936 159.157 238.145Z" fill="#E5CB80"/>
<path d="M104.648 219.933C106.958 225.583 111.224 230.209 115.789 234.26C146.742 261.73 193.004 267.263 222.775 296.01" stroke="#F4F3DD" stroke-width="1.5" stroke-miterlimit="10"/>
<path d="M109.853 214.775C111.942 216.759 114.033 218.745 116.182 220.664C145.643 246.988 194.454 260.881 222.775 296.01" stroke="#F4F3DD" stroke-width="1.5" stroke-miterlimit="10"/>
<path d="M189.745 311.074C184.413 307.299 178.94 303.738 173.302 300.475C156.419 290.7 136.125 279.908 115.993 281.967C107.553 282.83 96.7882 287.26 95.2298 296.72C93.2766 308.574 106.536 316.582 114.699 322.393C124.616 329.452 135.285 335.386 146.189 340.767C182.491 358.685 220.224 372.293 253.795 395.413C260.278 399.878 266.612 404.565 272.771 409.47C276.848 412.714 282.048 417.708 285.847 410.978C290.55 402.65 268.817 383.925 263.46 378.012C252.888 366.346 241.766 355.178 230.142 344.561C217.393 332.916 204.077 321.221 189.745 311.074Z" fill="#E5CB80"/>
<path d="M96.4441 292.262C106.662 307.174 124.755 314.09 141.398 321.148C193.356 343.179 241.345 374.532 282.392 413.265" stroke="#F4F3DD" stroke-width="1.5" stroke-miterlimit="10"/>
<path d="M101.322 286.771C129.095 291.595 155.005 301.434 178.736 316.819C216.54 341.329 249.969 372.125 281.107 404.525C282.861 406.35 284.605 408.187 286.353 410.02" stroke="#F4F3DD" stroke-width="1.5" stroke-miterlimit="10"/>
<path d="M202.646 49.3755C192.423 37.6851 178.912 28.3471 164.824 22.095C163.989 21.7246 163.152 21.3624 162.309 21.0086C146.352 14.2896 129.157 9.64598 111.838 13.2189C100.53 15.5524 91.8358 24.5182 87.9534 35.1422C84.9717 43.3011 84.4338 52.4857 85.2357 61.0812C87.9256 89.9171 102.305 111.554 126.053 127.995C149.14 143.98 181.862 129.893 200.306 113.086C206.891 107.086 212.332 99.5917 214.779 91.0261C218.822 76.872 213.593 62.7088 204.588 51.6749C203.956 50.8996 203.309 50.1322 202.646 49.3755Z" stroke="#E5CB80" stroke-width="1.5" stroke-miterlimit="10" stroke-linejoin="round"/>
<path d="M203.416 65.3978C200.74 52.7389 189.418 44.3873 179.123 37.852C166.974 30.1401 153.573 23.7134 139.461 20.6244C126.783 17.8492 114.043 24.211 115.904 38.8602C117.242 49.3886 124.915 60.9421 131.787 68.792C144.857 83.7218 166.238 93.8593 186.355 90.4871C198.777 88.4064 206.041 77.8249 203.416 65.3978Z" stroke="#E5CB80" stroke-width="1.5" stroke-miterlimit="10" stroke-linejoin="round"/>
<path d="M120.835 54.1218C127.798 52.5017 135.437 52.3122 142.405 53.4587C162.739 56.8026 183.052 68.5607 192.266 87.5814C192.32 87.6939 192.375 87.8051 192.428 87.9177" stroke="#E5CB80" stroke-width="1.5" stroke-miterlimit="10" stroke-linejoin="round"/>
<path d="M127.377 63.4103C141.131 63.9867 154.646 69.2477 165.17 78.1201C169.484 81.756 173.348 86.0435 175.823 91.1138" stroke="#E5CB80" stroke-width="1.5" stroke-miterlimit="10" stroke-linejoin="round"/>
<path d="M133.142 52.8819C132.459 45.9772 132.419 39.0091 133.02 32.0967" stroke="#E5CB80" stroke-width="1.5" stroke-miterlimit="10" stroke-linejoin="round"/>
<path d="M150.681 55.3351C152.193 50.4456 154.238 45.7211 156.765 41.2708" stroke="#E5CB80" stroke-width="1.5" stroke-miterlimit="10" stroke-linejoin="round"/>
<path d="M167.884 62.8336C171.784 59.4125 175.537 55.8254 179.13 52.0832" stroke="#E5CB80" stroke-width="1.5" stroke-miterlimit="10" stroke-linejoin="round"/>
<path d="M184.234 75.1158C188.106 72.9698 191.84 70.5753 195.407 67.952" stroke="#E5CB80" stroke-width="1.5" stroke-miterlimit="10" stroke-linejoin="round"/>
<path d="M190.298 83.9393C194.261 82.4838 198.096 80.6796 201.744 78.5548" stroke="#E5CB80" stroke-width="1.5" stroke-miterlimit="10" stroke-linejoin="round"/>
<path d="M134.264 132.317C138.913 168.187 155.124 201.69 175.043 228.1C195.334 255.006 214.962 282.617 230.702 312.483C249.195 347.574 261.321 386.333 266.983 425.541" stroke="#E5CB80" stroke-width="1.5" stroke-miterlimit="10" stroke-linejoin="round"/>
<path d="M106.391 186.609C96.6157 174.938 82.3675 166.212 67.8004 161.174C47.0334 153.991 22.578 152.554 9.17223 173.293C2.54764 183.541 0.514882 196.224 1.23693 208.406C2.96086 237.492 21.3949 274.394 50.983 282.494C69.3213 287.515 87.7524 280.973 100.185 266.866C109.096 256.753 115.504 243.026 118.132 229.821C121.49 212.954 116.183 198.303 106.391 186.609Z" stroke="#E5CB80" stroke-width="1.5" stroke-miterlimit="10" stroke-linejoin="round"/>
<path d="M73.9205 186.634C68.7516 180.526 62.6301 175.503 56.3172 172.335C45.3966 166.854 31.1948 164.875 22.9347 175.855C18.1124 182.265 17.1989 190.794 17.4875 198.81C18.1327 216.753 24.7355 235.459 38.9634 247.183C47.4801 254.202 59.304 257.354 69.5041 252.207C79.2749 247.277 86.104 236.796 87.767 226.103C88.1208 223.831 88.2397 221.521 88.0816 219.225C87.2697 207.415 81.4947 195.583 73.9205 186.634Z" stroke="#E5CB80" stroke-width="1.5" stroke-miterlimit="10" stroke-linejoin="round"/>
<path d="M68.3934 179.912C64.338 180.713 61.0525 183.679 58.4659 186.902C51.6267 195.422 48.2571 206.479 48.3296 217.404C48.4036 228.329 51.7949 239.099 57.2538 248.562C58.4108 250.569 59.7693 252.62 61.8586 253.618" stroke="#E5CB80" stroke-width="1.5" stroke-miterlimit="10" stroke-linejoin="round"/>
<path d="M75.3891 188.026C72.8605 191.94 71.7151 196.637 71.5426 201.294C71.37 205.951 72.1298 210.596 73.1708 215.14C74.9948 223.103 77.954 231.265 84.1741 236.561" stroke="#E5CB80" stroke-width="1.5" stroke-miterlimit="10" stroke-linejoin="round"/>
<path d="M40.0927 242.352C44.5482 242.604 49.0603 241.785 53.1432 239.983" stroke="#E5CB80" stroke-width="1.5" stroke-miterlimit="10" stroke-linejoin="round"/>
<path d="M29.5304 219.715C35.5388 220.604 41.6574 220.753 47.702 220.157" stroke="#E5CB80" stroke-width="1.5" stroke-miterlimit="10" stroke-linejoin="round"/>
<path d="M28.5226 190.573C31.9429 192.273 35.3647 193.972 38.785 195.673C42.8287 197.682 46.9508 199.716 51.4092 200.44" stroke="#E5CB80" stroke-width="1.5" stroke-miterlimit="10" stroke-linejoin="round"/>
<path d="M45.5488 172.516C47.2394 174.474 49.1475 175.883 51.1831 177.46C54.0133 179.654 56.8957 181.783 59.8245 183.843" stroke="#E5CB80" stroke-width="1.5" stroke-miterlimit="10" stroke-linejoin="round"/>
<path d="M116.331 203.372C162.598 180.405 218.941 174.345 268.226 212.924C318.903 252.593 333.101 315.234 341.714 368.573" stroke="#E5CB80" stroke-width="1.5" stroke-miterlimit="10" stroke-linejoin="round"/>
<path d="M784.692 273.784C785.022 270.513 784.824 267.116 783.994 263.632C780.156 247.543 766.379 234.54 751.742 227.836C747.867 226.062 743.797 224.678 739.605 223.884C726.448 221.391 713.679 226.855 705.879 237.628C693.077 255.31 696.013 291.877 714.14 305.906C726.945 315.816 743.302 315.162 758.416 306.543C770.986 299.375 783.232 288.246 784.692 273.784Z" stroke="#E5CB80" stroke-width="1.5" stroke-miterlimit="10" stroke-linejoin="round"/>
<path d="M776.637 269.296C777.405 265.536 777.206 261.531 776.011 258.045C774.773 254.435 772.439 251.301 769.885 248.466C761.681 239.36 749.624 231.008 737.109 229.871C733.287 229.524 729.52 230.494 726.685 233.169C724.222 235.493 722.597 238.615 721.733 241.889C719.605 249.958 722.194 258.719 726.654 265.534C734.357 277.303 749.198 288.419 763.92 283.642C767.722 282.409 771.071 280.09 773.423 276.834C775 274.651 776.075 272.039 776.637 269.296Z" stroke="#E5CB80" stroke-width="1.5" stroke-miterlimit="10" stroke-linejoin="round"/>
<path d="M721.194 254.872C725.114 253.02 729.572 252.456 733.889 252.864C738.206 253.271 742.394 254.616 746.336 256.421C751.569 258.818 756.458 262.07 760.349 266.311C764.239 270.552 767.099 275.816 768.077 281.487" stroke="#E5CB80" stroke-width="1.5" stroke-miterlimit="10" stroke-linejoin="round"/>
<path d="M731.586 272.188C737.507 270.837 743.713 272.359 749.375 274.551C754.377 276.489 759.412 279.165 762.269 283.706" stroke="#E5CB80" stroke-width="1.5" stroke-miterlimit="10" stroke-linejoin="round"/>
<path d="M727.983 253.109C727.5 252.113 727.439 250.972 727.409 249.865C727.33 247.045 727.391 244.22 727.593 241.407" stroke="#E5CB80" stroke-width="1.5" stroke-miterlimit="10" stroke-linejoin="round"/>
<path d="M742.97 254.938C743.672 250.632 744.866 246.404 746.524 242.367" stroke="#E5CB80" stroke-width="1.5" stroke-miterlimit="10" stroke-linejoin="round"/>
<path d="M758.384 264.009C760.674 260.731 762.965 257.453 765.255 254.177" stroke="#E5CB80" stroke-width="1.5" stroke-miterlimit="10" stroke-linejoin="round"/>
<path d="M765.74 274.1C766.012 273.684 766.465 273.396 766.904 273.111C769.73 271.27 772.299 269.155 774.563 266.807" stroke="#E5CB80" stroke-width="1.5" stroke-miterlimit="10" stroke-linejoin="round"/>
<path d="M721.275 310.195C707.824 353.853 684.602 388.438 644.378 410.06C621.961 422.11 596.571 423.786 572.028 425.053" stroke="#E5CB80" stroke-width="1.5" stroke-miterlimit="10" stroke-linejoin="round"/>
<path d="M307.331 407.707C307.446 407.826 307.558 407.951 307.665 408.076C310.351 411.234 308.86 415.219 304.891 416.939C300.9 418.668 296.086 418.019 291.69 417.235C274.636 414.189 257.895 409.72 240.568 408.073C197.803 404.006 153.739 417.295 111.971 408.604C104.139 406.975 96.3486 404.495 90.2896 400.038C83.0996 394.746 78.8493 386.769 78.9552 378.761C79.145 364.455 92.8865 352.106 108.92 347.108C124.955 342.109 142.762 343.155 159.602 345.693C181.338 348.969 202.561 354.621 222.559 362.459C236.892 368.076 250.561 374.802 263.781 382.065C276.068 388.815 287.642 397.816 300.487 403.6C302.98 404.722 305.579 405.873 307.331 407.707Z" stroke="#E5CB80" stroke-width="1.5" stroke-miterlimit="10" stroke-linejoin="round"/>
<path d="M79.7905 385.164C83.6945 388.112 88.443 390.026 93.2582 391.56C121.832 400.662 153.171 397.319 183.51 397.367C224.842 397.434 266.148 404.094 304.892 416.939" stroke="#E5CB80" stroke-width="1.5" stroke-miterlimit="10" stroke-linejoin="round"/>
<path d="M81.9824 367.69C90.0296 362.109 100.819 360.137 111.248 359.266C144.037 356.526 177.04 362.909 208.032 372.22C239.024 381.532 274.66 396.556 305.507 406.194" stroke="#E5CB80" stroke-width="1.5" stroke-miterlimit="10" stroke-linejoin="round"/>
<path d="M78.5571 375.062C95.9667 379.378 114.349 379.339 132.439 380.081C192.732 382.554 252.511 394.131 308.265 414.134" stroke="#E5CB80" stroke-width="1.5" stroke-miterlimit="10" stroke-linejoin="round"/>
<path d="M535.212 151.905L532.706 184.667L545.691 202.039C545.691 202.039 490.901 260.717 491.294 260.072C491.688 259.426 467.99 229.604 467.99 229.604V177.967C467.99 177.967 508.774 175.278 509.419 174.795C510.064 174.311 535.212 151.905 535.212 151.905Z" fill="#F9D1AA"/>
<path d="M461.326 203.506L475.361 206.946L479.438 250.886L433.664 218.519L461.326 203.506Z" fill="#EAEDF4"/>
<path d="M543.289 195.591L508.792 207.358L499.12 245.403L570.952 210.604L543.289 195.591Z" fill="#EAEDF4"/>
<path d="M562.861 203.815C580.842 216.067 594.52 238.103 604.15 257.895C614.146 278.44 621.362 300.343 625.447 322.825C627.167 332.294 628.341 341.855 629.772 351.373C632.445 369.15 636.017 386.792 640.47 404.208C641.857 409.634 643.299 415.547 641.03 420.667C637.49 428.655 626.551 430.447 622.781 437.497L577.125 393.028L469.824 352.973C469.824 352.973 465.604 312.067 458.786 290.641C451.968 269.214 431.359 217.677 431.359 217.677L453.416 206.946C453.25 207.281 474.274 236.409 489.486 249.695C528.611 216.067 562.861 203.815 562.861 203.815Z" fill="#D2D8E6"/>
<path d="M489.465 249.373C489.081 252.907 488.828 256.455 488.708 260.007" stroke="#919DC1" stroke-width="1.5" stroke-miterlimit="10"/>
<path d="M497.034 243.122C500.258 246.243 503.256 249.597 505.995 253.151" stroke="#919DC1" stroke-width="1.5" stroke-miterlimit="10"/>
<path d="M509.201 234.334C513.358 237.08 516.778 240.782 520.154 244.445" stroke="#919DC1" stroke-width="1.5" stroke-miterlimit="10"/>
<path d="M524.809 223.527C529.857 226.688 534.434 230.601 538.341 235.097" stroke="#919DC1" stroke-width="1.5" stroke-miterlimit="10"/>
<path d="M539.921 214.39C544.584 217.298 548.784 220.948 552.313 225.16" stroke="#919DC1" stroke-width="1.5" stroke-miterlimit="10"/>
<path d="M555.956 206.946C560.039 210.277 563.904 213.864 567.521 217.677" stroke="#919DC1" stroke-width="1.5" stroke-miterlimit="10"/>
<path d="M481.537 242.189C477.624 244.068 474.161 247.097 471.591 250.886" stroke="#919DC1" stroke-width="1.5" stroke-miterlimit="10"/>
<path d="M472.704 231.949C468.247 233.984 464.159 237.102 460.779 241.045" stroke="#919DC1" stroke-width="1.5" stroke-miterlimit="10"/>
<path d="M461.517 217.485C457.119 220.542 453.069 224.224 449.496 228.414" stroke="#919DC1" stroke-width="1.5" stroke-miterlimit="10"/>
<path d="M463.1 192.583L475.361 206.946L462.54 233.473L449.719 205.577L463.1 192.583Z" fill="white"/>
<path d="M541.516 184.667L508.792 207.358L529.748 233.473L554.896 197.661L541.516 184.667Z" fill="white"/>
<path d="M616.892 431.886C617.799 430.498 618.878 429.221 620.096 428.095C621.524 426.776 623.134 425.67 624.613 424.409C628.257 421.304 631.082 417.246 632.728 412.75" stroke="#919DC1" stroke-width="1.5" stroke-miterlimit="10"/>
<path d="M605.474 420.575C608.111 417.875 611.175 415.61 613.725 412.827C616.276 410.045 618.346 406.555 618.356 402.78" stroke="#919DC1" stroke-width="1.5" stroke-miterlimit="10"/>
<path d="M595.567 410.333C600.83 406.413 604.494 400.404 605.569 393.929" stroke="#919DC1" stroke-width="1.5" stroke-miterlimit="10"/>
<path d="M584.926 400.533C586.616 398.097 588.313 395.647 589.585 392.971C590.858 390.293 591.697 387.353 591.567 384.392" stroke="#919DC1" stroke-width="1.5" stroke-miterlimit="10"/>
<path d="M573.149 391.112C576.031 387.277 577.79 382.61 578.158 377.827" stroke="#919DC1" stroke-width="1.5" stroke-miterlimit="10"/>
<path d="M557.931 385.887C559.534 384.201 560.412 381.962 561.093 379.737C561.319 378.997 561.528 378.247 561.616 377.478C561.756 376.242 561.594 374.908 562.216 373.83" stroke="#919DC1" stroke-width="1.5" stroke-miterlimit="10"/>
<path d="M543.487 380.124C544.683 376.33 545.47 372.407 545.833 368.445" stroke="#919DC1" stroke-width="1.5" stroke-miterlimit="10"/>
<path d="M526.594 373.676C528.368 370.698 529.401 367.283 529.574 363.821" stroke="#919DC1" stroke-width="1.5" stroke-miterlimit="10"/>
<path d="M510.928 367.931C511.37 366.696 511.682 365.416 511.858 364.116C512.152 361.95 512.076 359.701 512.837 357.652" stroke="#919DC1" stroke-width="1.5" stroke-miterlimit="10"/>
<path d="M499.528 363.804C500.68 360.756 501.087 357.429 500.703 354.193" stroke="#919DC1" stroke-width="1.5" stroke-miterlimit="10"/>
<path d="M487.686 359.808C488.254 356.146 488.45 352.424 488.272 348.722" stroke="#919DC1" stroke-width="1.5" stroke-miterlimit="10"/>
<path d="M476.235 354.923C476.537 350.824 476.815 346.724 477.068 342.621" stroke="#919DC1" stroke-width="1.5" stroke-miterlimit="10"/>
<path d="M268.513 386.241C258.109 393.441 256.153 396.59 244.176 395.604C232.199 394.617 216.977 390.148 205.89 385.511C203.372 384.459 195.823 381.985 193.095 381.888C190.368 381.792 185.053 382.888 185.432 388.368C185.432 389.885 186.683 391.551 188.957 392.435C188.335 394.653 189.03 397.189 190.697 398.78C191.441 399.489 193.095 400.445 193.095 400.445C193.095 400.445 192.019 406.545 197.273 408.034C197.063 408.03 196.838 410.041 196.996 412.112C197.217 415.015 198.782 417.689 200.23 420.154C202.939 424.764 206.761 428.613 210.898 431.955C217.862 437.579 225.477 442.611 232.826 447.663C241.172 453.401 250.436 461.877 258.878 467.473C264.222 471.015 269.626 474.588 275.632 476.833C284.053 479.981 292.13 479.239 300.35 475.919C305.182 473.968 310.504 471.649 314.836 468.806C323.939 462.829 331.82 455.269 340.07 448.216C341.832 446.71 343.613 445.226 345.448 443.807" fill="#EFBB8F"/>
<path d="M197.323 408.248C197.778 406.066 199.811 403.012 201.354 401.747C202.986 400.41 205.268 399.71 207.387 400.053C209.629 400.416 211.598 402.806 213.301 404.205C215.307 405.853 219.848 408.705 222.205 409.795" stroke="#161313" stroke-width="1.5" stroke-miterlimit="10" stroke-linejoin="round"/>
<path d="M193.094 400.445C193.752 398.204 195.227 396.173 197.266 395.035C199.305 393.896 201.906 393.726 203.993 394.778C204.903 395.237 205.69 395.9 206.496 396.522C209.752 399.037 213.456 400.973 217.379 402.211" stroke="#161313" stroke-width="1.5" stroke-miterlimit="10" stroke-linejoin="round"/>
<path d="M188.898 393.097C190.473 391.04 192.261 388.844 194.792 388.302C196.649 387.905 198.588 388.493 200.266 389.379C201.945 390.265 203.453 391.443 205.115 392.362C206.807 393.297 208.653 393.953 210.555 394.297" stroke="#161313" stroke-width="1.5" stroke-miterlimit="10" stroke-linejoin="round"/>
<path d="M185.432 388.368C186.255 386.689 187.726 385.339 189.468 384.662C191.822 383.747 194.504 384.073 196.87 384.954C199.236 385.836 204.209 388.175 204.209 388.175" stroke="#161313" stroke-width="1.5" stroke-miterlimit="10" stroke-linejoin="round"/>
<path d="M210.737 402.026C210.656 403.767 210.57 405.643 211.23 407.294C211.957 409.111 214.026 410.864 215.964 411.254C217.986 411.663 218.296 409.069 218.294 407.624" stroke="#161313" stroke-width="1.5" stroke-miterlimit="10" stroke-linejoin="round"/>
<path d="M202.521 394.538C202.614 395.315 202.708 396.097 202.948 396.84C203.187 397.584 203.585 398.296 204.192 398.789C205.047 399.482 206.197 399.659 207.289 399.794C207.643 399.838 208.025 399.874 208.336 399.699C208.748 399.465 208.889 398.948 208.992 398.486" stroke="#161313" stroke-width="1.5" stroke-miterlimit="10" stroke-linejoin="round"/>
<path d="M196.339 388.524C196.618 389.162 196.587 389.908 196.897 390.531C197.093 390.926 197.414 391.246 197.758 391.523C198.794 392.355 200.093 392.858 201.42 392.938C201.855 392.964 202.305 392.944 202.706 392.773C203.107 392.603 203.454 392.257 203.535 391.829" stroke="#161313" stroke-width="1.5" stroke-miterlimit="10" stroke-linejoin="round"/>
<path d="M191.159 384.554C191.243 385.345 191.804 386.033 192.499 386.422C193.194 386.81 194.008 386.933 194.805 386.941C195.163 386.944 195.529 386.924 195.866 386.799C196.411 386.596 196.84 386.107 196.97 385.54" stroke="#161313" stroke-width="1.5" stroke-miterlimit="10" stroke-linejoin="round"/>
<path d="M191.347 382.077C191.961 383.191 193.143 383.973 194.409 384.102C195.674 384.232 196.99 383.704 197.815 382.737" stroke="#161313" stroke-width="1.5" stroke-miterlimit="10" stroke-linejoin="round"/>
<path d="M495.968 362.733C495.968 362.733 425.267 302.395 413.138 294.307C401.01 286.218 360.55 281.681 334.838 306.258C309.125 330.837 259.589 389.825 259.589 389.825L335.833 460.62L386.495 406.463C386.495 406.463 469.856 479.2 523.147 469.989C577.84 460.536 576.842 401.925 576.842 401.925" fill="#4D3C7C"/>
<mask id="mask0_1187_4743" style="mask-type:luminance" maskUnits="userSpaceOnUse" x="259" y="287" width="318" height="184">
<path d="M495.968 362.733C495.968 362.733 425.267 302.395 413.138 294.307C401.01 286.218 360.55 281.681 334.838 306.258C309.125 330.837 259.589 389.825 259.589 389.825L335.833 460.62L386.495 406.463C386.495 406.463 469.856 479.2 523.147 469.989C577.84 460.536 576.842 401.925 576.842 401.925" fill="white"/>
</mask>
<g mask="url(#mask0_1187_4743)">
<path opacity="0.35" d="M258.85 417.169C275.026 398.974 291.157 380.739 307.386 362.59C315.501 353.516 323.641 344.462 331.823 335.447C339.424 327.072 346.812 317.186 355.606 310.161C357.062 308.998 358.535 307.845 360.051 306.759C374.06 296.726 388.329 298.014 403.886 303.356C430.29 312.423 455.442 324.976 479.249 339.626" stroke="#6F5EAA" stroke-width="13" stroke-miterlimit="10"/>
<path opacity="0.35" d="M279.148 441.63C295.324 423.434 311.456 405.2 327.684 387.051C335.799 377.976 343.938 368.922 352.121 359.908C359.722 351.533 367.11 341.647 375.903 334.622C377.359 333.459 378.832 332.306 380.349 331.22C394.358 321.187 414.232 325.977 429.79 331.32C456.194 340.386 535.037 373.01 535.037 373.01" stroke="#6F5EAA" stroke-width="13" stroke-miterlimit="10"/>
<path opacity="0.35" d="M302.104 467.928C317.493 449.791 332.838 431.615 348.278 413.525C355.998 404.479 363.742 395.456 371.526 386.47C378.758 378.122 385.78 368.264 394.156 361.269C395.543 360.111 396.946 358.963 398.391 357.882C408.819 350.081 422.951 351.265 434.784 354.393C454.942 359.721 472.992 370.528 491.451 379.863C506.507 387.477 523.278 395.706 540.506 395.97C550.904 396.129 561.905 392.367 567.988 383.932" stroke="#6F5EAA" stroke-width="13" stroke-miterlimit="10"/>
<path opacity="0.35" d="M413.693 377.755C413.693 377.755 442.074 395.325 457.259 401.817C483.85 413.186 513.797 425.596 543.298 421.59C558.798 419.487 574.212 410.862 580.654 396.607" stroke="#6F5EAA" stroke-width="13" stroke-miterlimit="10"/>
<path opacity="0.35" d="M396.906 394.842C396.906 394.842 427.295 415.131 443.808 423.089C472.725 437.027 505.325 452.328 538.851 451.236C556.466 450.662 574.551 443.583 583.034 430.015" stroke="#6F5EAA" stroke-width="13" stroke-miterlimit="10"/>
</g>
<path d="M386.495 406.463L422.888 366.89" stroke="#161313" stroke-width="1.5" stroke-miterlimit="10" stroke-linejoin="round"/>
<path d="M336.291 430.446C331.722 437.184 326.342 443.466 319.763 448.261C313.184 453.056 305.332 456.31 297.197 456.631C293.752 456.767 290.309 456.383 286.885 455.977C283.748 455.606 280.317 455.277 277.663 456.991C276.356 457.833 275.379 459.096 274.54 460.405C271.567 465.042 270.505 471.591 273.684 476.488C277.385 482.19 285.411 485.459 292.368 485.459C304.637 485.459 410.878 485.459 420.49 485.459C430.102 485.459 433.897 482.486 435.161 477.553C436.425 472.621 435.161 462.503 440.6 451.752" fill="#F9D1AA"/>
<path d="M318.554 461.913C314.006 465.622 308.604 468.277 302.89 469.613C300.866 470.086 298.686 470.453 297.154 471.858C293.998 474.751 292.661 483.575 297.777 485.312" stroke="#161313" stroke-width="1.5" stroke-miterlimit="10" stroke-linejoin="round"/>
<path d="M329.854 465.69C327.763 467.692 324.949 468.702 322.304 469.878C319.66 471.053 316.963 472.588 315.617 475.149C314.707 476.879 314.21 478.904 314.457 480.844C314.715 482.866 316.609 484.958 318.198 485.708" stroke="#161313" stroke-width="1.5" stroke-miterlimit="10" stroke-linejoin="round"/>
<path d="M340.737 468.917C338.442 470.483 335.808 471.581 333.785 473.485C331.971 475.194 330.742 477.513 330.346 479.973C330.02 482 330.435 484.412 332.197 485.465" stroke="#161313" stroke-width="1.5" stroke-miterlimit="10" stroke-linejoin="round"/>
<path d="M349.806 472.349C346.613 475.108 343.708 481.53 346.402 485.477" stroke="#161313" stroke-width="1.5" stroke-miterlimit="10" stroke-linejoin="round"/>
<path d="M360.879 485C363.089 483.918 364.967 482.164 366.196 480.031" stroke="#161313" stroke-width="1.5" stroke-miterlimit="10" stroke-linejoin="round"/>
<path d="M282.846 455.773C286.215 459.863 288.752 464.795 294.954 463.852C296.26 463.653 297.839 463.055 298.04 461.567C298.254 459.96 296.73 458.075 295.985 456.757" stroke="#161313" stroke-width="1.5" stroke-miterlimit="10" stroke-linejoin="round"/>
<path d="M297.706 471.531C300.038 473.215 302.865 474.205 305.739 474.344C306.344 474.373 306.964 474.363 307.535 474.162C308.106 473.96 308.628 473.539 308.815 472.964C309.099 472.096 308.561 471.161 307.877 470.554C307.191 469.946 304.946 468.917 304.946 468.917" stroke="#161313" stroke-width="1.5" stroke-miterlimit="10" stroke-linejoin="round"/>
<path d="M315.72 475.479C317.174 476.047 318.664 476.54 320.204 476.811C321.888 477.107 325.174 477.863 325.926 475.611C326.117 475.039 325.74 474.439 325.332 473.996C323.874 472.416 319.131 471.547 319.131 471.547" stroke="#161313" stroke-width="1.5" stroke-miterlimit="10" stroke-linejoin="round"/>
<path d="M331.327 477.426C332.761 477.647 334.149 478.114 335.582 478.341C337.015 478.567 338.56 478.529 339.817 477.804C340.314 477.516 340.774 477.096 340.926 476.541C341.136 475.777 340.696 474.953 340.063 474.475C339.43 473.998 338.639 473.793 337.871 473.598C336.803 473.327 335.737 473.056 334.67 472.785" stroke="#161313" stroke-width="1.5" stroke-miterlimit="10" stroke-linejoin="round"/>
<path d="M345.449 479.467C345.449 479.467 347.012 479.979 347.588 480.086C349.198 480.388 351.053 480.372 352.676 480.182C353.421 480.096 354.29 479.829 354.563 478.966C354.813 478.176 354.406 477.286 353.882 476.739C353.114 475.942 352.111 475.59 351.126 475.362C349.922 475.084 348.695 474.96 347.47 474.993" stroke="#161313" stroke-width="1.5" stroke-miterlimit="10" stroke-linejoin="round"/>
<path d="M577.124 393.028C577.124 393.028 501.388 317.288 477.537 299.504C460.291 286.646 441.739 285.015 427.766 292.292C411.629 300.695 395.158 321.17 376.105 354.31C360.88 380.792 329.83 435.882 329.83 435.882L439.404 465.068L457.784 429.082C457.784 429.082 491.749 485.459 533.615 485.459C551.378 485.459 551.447 485.459 563.175 485.459C598.175 485.459 620.893 435.481 620.893 435.481" fill="#4D3C7C"/>
<mask id="mask1_1187_4743" style="mask-type:luminance" maskUnits="userSpaceOnUse" x="329" y="287" width="292" height="199">
<path d="M577.124 393.028C577.124 393.028 501.388 317.288 477.537 299.504C460.291 286.646 441.739 285.015 427.766 292.292C411.629 300.695 395.158 321.17 376.105 354.31C360.88 380.792 329.83 435.882 329.83 435.882L439.404 465.068L457.784 429.082C457.784 429.082 491.749 485.459 533.615 485.459C551.378 485.459 551.447 485.459 563.175 485.459C598.175 485.459 620.893 435.481 620.893 435.481" fill="white"/>
</mask>
<g mask="url(#mask1_1187_4743)">
<path opacity="0.35" d="M352.128 452.045C352.128 452.045 383.79 387.318 399.904 360.418C407.424 347.864 415.259 335.494 423.6 323.469C430.113 314.079 439.416 305.647 451.125 303.988C460.66 302.637 470.309 303.923 479.439 306.311C489.785 309.017 513.642 315.615 513.642 315.615" stroke="#6F5EAA" stroke-width="13" stroke-miterlimit="10"/>
<path opacity="0.35" d="M381.517 461.832C391.503 441.699 401.521 421.581 411.635 401.513C417.743 389.392 423.699 377.183 430.417 365.383C435.153 357.066 440.095 348.825 446.022 341.291C452.054 333.622 458.776 326.017 468.704 323.805C475.818 322.218 484.279 324.43 491.212 326.185C502.103 328.941 512.708 332.515 523.145 336.661C530.35 339.522 538.111 342.387 544.632 346.667" stroke="#6F5EAA" stroke-width="13" stroke-miterlimit="10"/>
<path opacity="0.35" d="M413.137 469.612C413.137 469.612 466.02 362.019 470.061 355.349C475.362 346.6 482.655 345.541 490.982 347.504C495.691 348.615 499.897 351.202 504.01 353.749C531.192 370.583 558.346 387.464 585.322 404.627C588.493 406.645 610.992 410.1 614.144 412.145" stroke="#6F5EAA" stroke-width="13" stroke-miterlimit="10"/>
<path opacity="0.35" d="M479.45 387.75C491.418 396.278 503.385 404.808 515.352 413.336C529.9 423.704 545.81 434.245 563.27 438.31C579.406 442.067 595.725 434.252 607.59 422.504" stroke="#6F5EAA" stroke-width="13" stroke-miterlimit="10"/>
<path opacity="0.35" d="M465.862 416.769C465.862 416.769 497.137 445.299 511.535 456.235C525.933 467.172 543.727 474.052 561.766 472.821C591.469 470.796 617.18 431.987 617.18 431.987" stroke="#6F5EAA" stroke-width="13" stroke-miterlimit="10"/>
</g>
<path d="M477.538 299.504C460.292 286.646 441.74 285.015 427.767 292.292C411.63 300.695 395.159 321.17 376.106 354.31C360.881 380.792 329.831 435.882 329.831 435.882" stroke="#161313" stroke-width="1.5" stroke-miterlimit="10" stroke-linejoin="round"/>
<path d="M447.451 449.111L489.87 366.89" stroke="#161313" stroke-width="1.5" stroke-miterlimit="10" stroke-linejoin="round"/>
<path d="M491.312 467.694C491.312 467.694 467.882 444.83 457.784 429.083" stroke="#161313" stroke-width="1.5" stroke-miterlimit="10" stroke-linejoin="round"/>
<path d="M477.916 390.672C485.547 385.895 492.428 379.923 498.231 373.039" stroke="#161313" stroke-width="1.5" stroke-miterlimit="10" stroke-linejoin="round"/>
<path d="M512.19 123.75C504.124 115.134 490.483 113.934 479.697 117.177C475.385 118.472 471.435 120.903 468.461 124.296C464.367 128.968 462.222 135.002 460.44 140.954C457.89 149.474 456.054 158.141 455.512 167.037C455.234 171.601 455.513 176.275 457.109 180.56C460.434 189.488 469.779 194.303 478.994 194.259C486.605 194.221 494.392 191.144 500.897 187.3C506.654 183.899 511.521 179.429 513.947 173.094C516.503 166.42 517.689 159.302 518.192 152.199C518.641 145.859 519.065 139.263 517.429 133.048C516.509 129.55 514.649 126.376 512.19 123.75Z" fill="#F9D1AA"/>
<path d="M456.173 160.384C460.587 161.706 485.187 166.9 499.585 172.546C504.932 165.377 511.809 151.83 518.214 145.872C522.072 148.367 525.911 159.79 530.244 160.893C529.622 160.755 526.465 172.551 526.131 173.653C524.484 179.096 522.348 184.593 519.587 189.441C517.968 192.287 515.699 194.865 512.805 195.723C511.921 195.985 510.998 196.081 510.132 196.411C508.404 197.07 507.672 198.967 506.798 200.624C503.601 206.683 497.936 210.99 491.767 212.051C485.598 213.111 479.045 210.905 474.381 206.197C472.15 207.533 469.801 208.905 467.276 208.883C464.226 208.857 461.398 206.719 459.636 203.894C457.875 201.07 457.047 197.633 456.585 194.218C446.713 192.192 448.871 174.743 452.785 167.895C453.174 167.215 454.842 162.447 456.173 160.384Z" fill="#472415"/>
<path d="M541.449 137.707C541.152 135.214 540.605 132.606 538.926 130.739C537.227 128.849 534.672 128.041 532.417 126.871C529.427 125.318 526.869 123.05 524.508 120.649C520.769 116.845 517.417 112.629 513.254 109.294C509.091 105.961 503.859 103.525 498.556 104.091C494.538 95.699 491.638 90.2589 484.116 87.5155C480.85 86.324 476.85 86.7035 474.316 89.0832C472.441 90.8447 471.59 93.5715 471.928 96.1232C472.155 97.8379 472.926 100.516 476.826 104.849C472.364 103.666 467.625 102.9 462.996 103.265C458.035 103.657 452.723 104.5 448.349 107.13C443.338 110.145 439.753 115.723 442.651 121.498C443.986 124.158 446.358 126.199 449.009 127.555C455.284 130.767 463.261 131.574 470.2 130.751C474.418 130.251 478.583 128.866 482.017 126.365C480.964 128.209 480.859 130.564 481.745 132.494C483.284 135.85 486.985 137.045 490.355 136.08C495.353 134.648 499.588 130.775 501.461 125.925C501.558 128.86 502.962 131.729 505.222 133.605C507.183 135.235 510.738 135.749 511.845 133.451C509.222 139.044 509.22 145.801 511.84 151.396C514.459 156.99 519.651 161.316 525.627 162.883C525.627 162.883 523.807 171.991 524.369 175.16C524.93 178.328 528.132 182.708 532.115 184.661C537.69 169.539 543.358 153.71 541.449 137.707Z" fill="#472415"/>
<path d="M474.552 141.97C473.451 143.766 468.433 152.508 467.818 155.353C467.383 157.364 467.671 159.627 469.937 160.257C471.15 160.595 477.397 159.862 477.397 159.862" stroke="#161313" stroke-width="1.5" stroke-miterlimit="10" stroke-linejoin="round"/>
<path d="M473.152 170.336C474.735 171.53 477.093 172.373 478.92 171.21C480.084 170.468 480.718 169.058 480.678 167.698" stroke="#AA5F52" stroke-miterlimit="10" stroke-linejoin="round"/>
<path d="M501.797 143.201C500.551 139.592 494.321 136.08 493.131 139.927C492.902 140.667 493.031 141.506 493.458 142.154C493.83 142.716 494.395 143.12 494.959 143.49C496.573 144.551 498.286 145.464 500.073 146.202C500.379 146.328 500.717 146.451 501.034 146.355C502.209 145.997 502.095 144.066 501.797 143.201Z" fill="#472415"/>
<path d="M463.704 134.971C466.911 132.9 473.981 133.983 472.543 137.744C472.266 138.468 471.647 139.048 470.912 139.294C470.272 139.508 469.579 139.476 468.906 139.419C466.98 139.257 465.069 138.919 463.209 138.397C462.89 138.307 462.548 138.196 462.358 137.923C461.653 136.916 462.935 135.467 463.704 134.971Z" fill="#472415"/>
<path d="M490.771 150.111C492.137 148.695 494.53 149.03 495.76 150.199C496.99 151.369 497.8 153.25 497.949 155.284" stroke="#161313" stroke-width="1.5" stroke-miterlimit="10" stroke-linejoin="round"/>
<path d="M461.079 142.397C462.103 140.717 464.511 140.519 465.967 141.391C467.423 142.262 468.626 143.92 469.217 145.872" stroke="#161313" stroke-width="1.5" stroke-miterlimit="10" stroke-linejoin="round"/>
<path d="M518.27 150.997C520.781 148.667 524.308 148.074 527.601 150.1C531.524 152.516 531.642 157.985 530.017 161.823C527.521 167.72 518.128 174.455 512.654 169.987C510.161 167.954 510.156 165.078 511.351 162.313C512.724 159.137 514.795 156.001 516.595 153.059C517.077 152.272 517.641 151.58 518.27 150.997Z" fill="#F9D1AA"/>
<path d="M525.263 158.177C521.819 159.028 516.251 161.057 512.845 162.051" stroke="#161313" stroke-miterlimit="10" stroke-linejoin="round"/>
<path d="M526.442 166.923C525.051 168.184 523.649 169.455 522.038 170.419C519.893 171.701 517.398 172.297 514.937 171.712" stroke="#161313" stroke-miterlimit="10" stroke-linejoin="round"/>
<path d="M382.356 284.139C379.667 289.232 376.975 294.33 374.633 299.585C372.365 304.672 370.411 309.933 367.406 314.638C359.124 327.605 344.012 334.764 333.782 346.315L365.112 378.822C370.222 371.179 375.385 363.473 382.009 357.045C386.744 352.451 392.15 348.584 397.12 344.238C400.929 340.906 404.491 337.282 407.508 333.246C413.967 324.607 417.756 314.345 423.47 305.217" fill="#F9D1AA"/>
<path d="M370.502 371.787C369.716 371.34 368.758 371.243 367.86 371.387C367.837 370.375 367.213 369.707 367.139 369.579C366.26 368.06 364.52 366.689 362.621 367.491C362.768 365.62 362.082 363.7 360.778 362.326C359.474 360.953 357.569 360.147 355.656 360.157C356.103 358.987 355.173 357.779 354.309 356.859C352.082 354.492 349.483 351.95 346.199 351.864C346.986 350.57 346.519 348.784 345.389 347.764C344.258 346.743 342.625 346.401 341.094 346.519C342.625 343.487 342.803 339.164 339.23 338.872C337.593 341.735 334.73 344.04 332.039 346.109C329.348 348.179 326.938 351.104 327.005 354.458C327.072 357.738 329.295 360.634 331.389 363.01C335.896 368.127 340.571 371.628 344.154 375.689C347.467 379.444 350.738 383.426 354.481 386.855C357.655 389.763 362.701 393.866 367.012 390.455C367.769 389.856 368.124 388.888 368.254 387.942C368.588 385.536 368.385 383.07 368.248 380.659C368.166 379.216 368.019 377.89 368.722 376.556C369.371 375.326 370.516 374.328 371.887 373.953C371.871 373.062 371.288 372.234 370.502 371.787Z" fill="#E5783C"/>
<path d="M348.75 362.231C348.75 362.231 349.879 358.136 348.576 357.155C347.565 356.394 342.886 361.863 343.524 362.411C344.162 362.958 348.75 362.231 348.75 362.231Z" fill="#C9571F"/>
<path d="M348.383 361.541C348.383 361.541 352.593 360.981 353.386 362.406C354.001 363.512 347.946 367.401 347.491 366.694C347.036 365.987 348.383 361.541 348.383 361.541Z" fill="#C9571F"/>
<path d="M424.929 307.59C428.684 312.948 432.438 318.306 436.192 323.665C426.965 332.58 418.351 342.129 410.43 352.221L448.059 371.351C454.201 361.605 464.789 355.791 473.318 348.447C478.78 343.745 483.726 337.783 484.74 330.647C485.346 326.384 484.493 322.05 483.369 317.893C481.125 309.594 477.778 301.594 473.443 294.168" fill="#F9D1AA"/>
<path d="M451.119 366.499C450.296 366.264 449.393 366.39 448.603 366.725C448.353 365.796 447.627 365.32 447.531 365.217C446.379 364.012 444.468 363.137 442.907 364.307C442.617 362.545 441.552 360.925 440.042 359.95C438.533 358.976 434.997 358.274 433.242 358.716C433.387 357.533 432.702 355.794 431.699 355.14C429.116 353.454 427.313 352.908 424.278 353.571C424.706 352.197 423.873 350.651 422.603 349.963C421.333 349.275 419.755 349.328 418.375 349.782C419.093 346.635 418.217 343.787 415.241 344.523C413.854 347.209 411.968 348.927 409.965 351.446C407.963 353.965 406.413 357.213 407.237 360.296C408.043 363.313 410.742 365.487 413.204 367.211C418.504 370.923 423.594 373.104 427.807 376.049C431.701 378.772 435.61 381.713 439.826 384.039C443.402 386.01 448.968 388.664 452.153 384.539C452.713 383.815 452.818 382.839 452.725 381.936C452.485 379.638 451.738 377.405 451.065 375.207C450.662 373.892 450.226 372.7 450.569 371.308C450.886 370.024 451.71 368.845 452.884 368.189C452.666 367.369 451.942 366.735 451.119 366.499Z" fill="#E5783C"/>
<path d="M431.628 362.971C431.628 362.971 432.088 358.748 430.644 357.989C429.524 357.4 425.781 363.546 426.498 363.985C427.214 364.423 431.628 362.971 431.628 362.971Z" fill="#C9571F"/>
<path d="M431.155 362.347C431.155 362.347 435.222 361.122 436.232 362.402C437.016 363.395 431.661 368.201 431.099 367.577C430.536 366.953 431.155 362.347 431.155 362.347Z" fill="#C9571F"/>
<path d="M390.52 213.707C380.91 223.853 378.146 236.898 375.415 250.176C374.325 255.476 373.178 260.79 371.367 265.9C370.541 268.226 369.703 270.977 368.142 272.908C366.607 274.806 364.313 276.283 362.463 277.862C353.255 285.717 349.246 297.93 345.88 309.557C345.88 309.557 344.284 317.823 347.237 321.171C350.189 324.52 360.149 320.509 365.782 317.006C366.402 322.739 369.351 328.128 373.626 331.998C377.9 335.869 383.436 338.246 389.149 339.025C391.928 339.403 401.927 339.043 406.932 331.1C411.523 336.18 417.467 338.229 422.485 338.037C427.503 337.845 432.392 334.496 433.911 329.709C435.722 332.034 437.647 333.459 440.177 334.316C443.688 335.505 447.926 336.098 450.806 333.762C454.239 330.977 455.913 326.826 455.413 321.586C457.264 324.025 459.324 326.402 461.992 327.904C464.661 329.406 470.497 332.377 475.285 329.765C479.512 327.46 483 320.295 482.841 312.848C501.996 324.564 484.907 295.574 480.938 287.998C476.028 278.628 470.488 268.614 466.894 259.052C463.722 250.615 460.494 242.198 457.219 233.799C454.23 226.135 448.39 219.522 443.116 213.22" fill="#E5783C"/>
<path d="M333.629 292.351C333.962 287.824 335.432 283.713 338.193 280.104C338.681 279.466 339.179 278.836 339.69 278.216L339.694 278.237C340.485 275.704 341.542 273.315 343.02 271.005L343.024 271.019C343.67 267.968 344.752 265.034 346.505 262.468C347.67 260.761 349.101 259.254 350.525 257.756L350.621 258.084C353.885 247.318 360.633 237.265 369.556 230.934C373.384 228.219 378.995 226.336 383.188 224.228L366.633 259.746C366.234 269.259 366.299 272.551 368.844 281.727C369.344 283.525 369.899 285.321 370.095 287.176C370.546 291.45 368.764 295.983 365.832 299.07C365.072 299.87 364.171 300.616 363.191 301.219L363.241 301.391C363.671 305.727 358.877 310.363 354.459 310.34C354.236 312.412 351.703 313.726 349.89 314.077C348.648 314.318 347.549 314.17 346.568 313.765L346.577 313.807C345.301 315.247 343.166 315.858 341.321 315.314C337.114 314.073 335.354 308.57 334.544 304.764C333.688 300.74 333.328 296.463 333.629 292.351Z" fill="#F9D1AA"/>
<path d="M350.937 257.031C349.574 261.214 348.737 265.521 348.506 269.774C348.403 271.675 348.434 273.583 348.617 275.478C349.019 279.631 349.895 283.723 350.97 287.75C351.997 291.597 352.885 295.824 354.639 299.4C355.143 300.426 355.808 301.426 356.792 302.011C357.877 302.656 359.237 302.713 360.462 302.407C361.41 302.169 362.334 301.753 363.194 301.224" stroke="#161313" stroke-miterlimit="10" stroke-linejoin="round"/>
<path d="M352.128 290.772C353.885 289.412 355.597 287.873 357.472 286.679C358.914 285.762 360.61 285.933 361.653 287.366C363.261 289.574 362.664 292.855 361.189 294.973C358.633 298.643 354.412 298.921 354.412 298.921" stroke="#161313" stroke-miterlimit="10" stroke-linejoin="round"/>
<path d="M343.351 269.597C342.714 272.024 342.386 274.555 342.255 277.06C341.743 286.812 343.998 296.627 348.219 305.434C348.921 306.897 349.881 308.371 351.216 309.327C352.208 310.037 353.321 310.352 354.458 310.358" stroke="#161313" stroke-miterlimit="10" stroke-linejoin="round"/>
<path d="M339.876 277.632C339.107 279.943 338.579 282.374 338.188 284.983C337.386 290.329 337.802 295.433 339.062 300.656C339.422 302.145 339.826 303.625 340.335 305.072C341.448 308.242 343.341 312.449 346.561 313.777" stroke="#161313" stroke-miterlimit="10" stroke-linejoin="round"/>
<path d="M380.179 231.356C380.626 241.311 380.4 256.978 376.001 266.408C373.924 270.86 370.021 273.628 365.156 274.206C364.711 274.259 364.265 274.294 363.817 274.314C361.993 274.394 360.039 273.86 358.869 272.457C356.605 269.742 358.424 266.278 358.952 263.214C359.974 257.286 360.685 244.749 360.685 244.749" fill="#F9D1AA"/>
<path d="M367.186 274.303C364.488 275.22 360.771 274.74 358.869 272.458C356.605 269.743 358.424 266.279 358.952 263.214C359.974 257.287 360.685 244.75 360.685 244.75" stroke="#161313" stroke-miterlimit="10" stroke-linejoin="round"/>
<path d="M359.141 262.023C360.888 262.117 362.325 261.832 363.958 261.218C364.8 260.902 365.712 260.489 366.565 260.764C367.693 261.128 368.082 262.481 368.136 263.502C368.224 265.148 367.74 266.998 366.3 268.046C365.616 268.543 364.782 268.819 363.944 268.997C361.878 269.435 359.688 269.31 357.701 268.64" stroke="#161313" stroke-miterlimit="10" stroke-linejoin="round"/>
<path d="M335.876 309.225C336.808 308.813 337.721 308.248 338.753 308.138C339.224 308.088 339.722 308.141 340.125 308.375C340.367 308.515 340.564 308.713 340.736 308.925C341.378 309.713 342.021 310.979 341.401 311.969C340.866 312.823 339.67 313.26 338.72 313.401" stroke="#161313" stroke-miterlimit="10" stroke-linejoin="round"/>
<path d="M346.518 300.844C348.541 299.943 350.284 298.525 352.186 297.389C352.539 297.177 352.951 296.969 353.346 297.086" stroke="#161313" stroke-miterlimit="10" stroke-linejoin="round"/>
<path d="M356.29 302.199C354.742 304.666 351.791 306.31 348.732 306.414" stroke="#161313" stroke-miterlimit="10" stroke-linejoin="round"/>
<path d="M340.592 305.923C341.719 305.363 342.845 304.803 343.972 304.244C344.431 304.015 344.854 303.903 345.336 304.14C346.061 304.496 346.655 305.193 347.06 305.946C347.239 306.278 347.384 306.641 347.442 307.026C347.679 308.629 346.448 309.863 345.261 310.41C344.662 310.686 344.029 310.848 343.402 311.019" stroke="#161313" stroke-miterlimit="10" stroke-linejoin="round"/>
<path d="M436.85 167.114C437.766 168.255 439.289 168.695 440.728 168.956C442.169 169.216 443.683 169.383 444.911 170.179C445.413 170.505 445.875 170.976 445.958 171.569C446.07 172.379 445.451 173.098 444.824 173.622C443.929 174.37 442.92 174.98 441.844 175.427" fill="#F9D1AA"/>
<path d="M450.377 181.419C449.29 178.502 446.949 176.133 444.937 173.838C439.012 167.075 433.812 159.433 426.331 154.445C418.727 149.375 409.095 147.502 400.114 149.192C391.768 150.763 383.772 155.419 378.41 162.035C372.862 168.883 372.165 179.734 373.195 188.109C373.274 188.756 373.366 189.402 373.469 190.046C374.512 196.571 376.736 203.11 381.175 208.003C385.114 212.344 390.584 215.116 396.286 216.476C409.156 219.545 424.982 217.133 436.282 210.206C445.287 204.685 454.429 192.667 450.417 181.53C450.404 181.493 450.391 181.455 450.377 181.419Z" fill="#F9D1AA"/>
<path d="M463.944 195.316C468.663 191.686 472.769 187.26 476.038 182.284C476.215 182.014 476.429 181.717 476.748 181.673C477.044 181.633 477.318 181.83 477.535 182.036C478.602 183.053 479.144 184.595 478.946 186.056C480.821 185.217 482.592 184.146 484.207 182.876C484.951 182.291 485.916 181.628 486.755 182.066C487.665 182.54 487.577 183.875 487.208 184.833C486.726 186.083 486.003 187.223 485.284 188.354C486.903 187.402 488.523 186.45 490.143 185.5C490.465 185.311 490.837 185.115 491.193 185.227C491.668 185.377 491.82 185.974 491.819 186.472C491.816 187.702 491.337 188.926 490.502 189.83C490.995 189.836 491.446 189.581 491.91 189.415C492.374 189.249 492.949 189.192 493.308 189.529C493.524 189.734 493.613 190.04 493.642 190.337C493.78 191.727 492.851 192.971 491.972 194.056C492.444 193.709 492.992 193.765 493.289 194.038C493.643 194.364 494.127 195.813 493.451 197.343C492.108 200.386 490.119 202.689 487.637 204.903C484.214 207.955 480.182 210.255 476.714 212.709" fill="#F9D1AA"/>
<path d="M492.002 194.118C490.306 196.063 488.426 197.785 486.41 199.24" stroke="#161313" stroke-miterlimit="10" stroke-linejoin="round"/>
<path d="M490.61 189.754C488.572 191.702 486.423 193.488 484.182 195.098" stroke="#161313" stroke-miterlimit="10" stroke-linejoin="round"/>
<path d="M485.452 188.222C483.804 189.375 482.041 190.424 480.182 191.356" stroke="#161313" stroke-miterlimit="10" stroke-linejoin="round"/>
<path d="M478.747 186.192C476.588 187.117 474.458 188.107 472.359 189.163" stroke="#161313" stroke-miterlimit="10" stroke-linejoin="round"/>
<path d="M458.599 250.466C466.84 242.845 473.895 233.618 478.377 223.284C480.031 219.469 482.429 214.322 480.83 210.144L466.085 193.632C458.02 192.37 448.509 196.32 440.803 200.029C433.096 203.738 425.814 208.26 418.548 212.772" fill="#E5783C"/>
<path d="M472.202 208.89C472.202 208.89 473.331 204.796 472.028 203.815C471.017 203.054 466.338 208.522 466.976 209.07C467.613 209.618 472.202 208.89 472.202 208.89Z" fill="#C9571F"/>
<path d="M471.834 208.2C471.834 208.2 476.044 207.64 476.837 209.065C477.452 210.171 471.397 214.06 470.942 213.353C470.487 212.647 471.834 208.2 471.834 208.2Z" fill="#C9571F"/>
<path d="M430.458 180.106C428.749 179.978 427.122 180.534 425.663 181.387C423.43 182.691 421.86 185.236 422.495 187.864C423.075 190.262 424.846 192.363 427.14 193.287C428.741 193.931 430.555 193.986 432.209 193.511C435.022 192.703 437.333 189.949 437.697 187.027C438.219 182.823 434.19 180.385 430.458 180.106Z" fill="#F2B588"/>
<path d="M439.765 180.081C439.625 180.79 439.774 181.586 440.278 182.105C440.845 182.69 441.743 182.812 442.514 182.673C443.827 182.437 445.078 181.674 445.97 180.696" stroke="#161313" stroke-width="1.5" stroke-miterlimit="10" stroke-linejoin="round"/>
<path d="M379.927 226.907C383.726 232.053 389.268 236.213 395.611 237.041C401.954 237.869 408.978 234.729 411.493 228.848C412.967 230.772 415.791 231.524 418.027 230.586C420.263 229.648 421.705 227.106 421.365 224.706C423.338 227.29 427.951 225.637 429.062 222.583C430.173 219.528 428.893 216.147 427.358 213.283C423.036 205.222 416.597 198.443 409.403 192.794C413.937 184.337 414.54 173.872 411.012 164.949C413.206 166.887 416.584 167.836 419.101 166.341C421.619 164.847 422.016 160.449 419.383 159.17C423.324 160.745 427.576 162.197 431.737 161.359C435.336 160.633 437.558 157.537 435.657 154.051C434.791 152.462 433.365 151.268 431.972 150.112C433.15 150.058 434.348 149.892 435.401 149.364C436.454 148.835 437.351 147.894 437.587 146.739C437.949 144.965 436.728 143.272 435.439 141.999C429.524 136.158 420.83 134.29 412.836 136.018C407.717 137.125 403.049 139.499 398.186 141.348C395.527 142.359 392.754 142.704 390.087 143.55C387.165 144.477 384.279 145.504 381.611 147.058C376.149 150.239 371.611 154.934 368.18 160.211C366.669 162.537 365.335 164.983 363.663 167.197C356.485 176.705 343.702 181.223 337.857 191.605C336.692 193.676 335.846 195.926 335.358 198.253C333.973 204.864 336.198 212.759 342.243 215.774C345.117 217.207 348.442 217.377 351.655 217.358C351.942 220.57 352.957 224.983 355.204 227.955C361.569 236.371 373.149 232.663 379.927 226.907Z" fill="#401F00"/>
<path d="M422.888 174.523C424.033 172.037 426.338 169.163 429.79 171.411" stroke="#161313" stroke-width="1.5" stroke-miterlimit="10" stroke-linejoin="round"/>
<path d="M420.369 168.85C421.575 166.27 424.297 164.198 427.206 165.509" stroke="#161313" stroke-width="1.5" stroke-miterlimit="10" stroke-linejoin="round"/>
<path d="M444.868 173.62C444.185 174.223 443.501 174.824 442.817 175.427" stroke="#C98A67" stroke-miterlimit="10"/>
<path d="M440.643 168.997C438.491 168.705 436.395 168.012 434.493 166.965" stroke="#C98A67" stroke-miterlimit="10"/>
<path d="M409.8 191.049C400.43 186.285 393.834 177.092 390.951 167.12C388.357 158.144 387.991 145.059 396.972 139.36C399.887 137.511 404.152 137.398 407.485 137.612C405.308 140.103 404.022 143.632 403.235 146.845C400.257 158.995 406.218 177.602 412.457 188.444" fill="#FFCD65"/>
<path d="M396.366 135.08C394.577 133.036 392.399 131.373 390.209 129.767C384.72 125.742 379.047 121.975 373.375 118.21C371.432 116.92 369.482 115.626 367.381 114.614C366.111 114.004 364.706 113.49 363.319 113.738C362.07 117.816 363.128 122.21 364.338 126.3C365.841 131.382 367.606 136.459 370.535 140.876C373.464 145.292 377.69 149.036 382.794 150.462C386.706 151.555 390.892 151.235 394.854 150.342C397.282 149.795 399.434 148.962 401.538 147.648C400.969 143.089 399.426 138.577 396.366 135.08Z" fill="#FFCD65"/>
<path d="M412.693 120.255C412.03 114.368 410.888 108.546 409.747 102.732C409.37 102.621 409.017 102.947 408.761 103.246C400.374 113.076 396.948 126.936 399.791 139.541C400.274 141.688 400.675 143.882 400.982 146.051C406.095 145.692 410.225 140.18 411.757 135.76C413.467 130.826 413.277 125.445 412.693 120.255Z" fill="#FFCD65"/>
<path d="M389.629 151.214C393.33 151.296 397.047 150.01 399.906 147.657" stroke="#161313" stroke-miterlimit="10" stroke-linejoin="round"/>
<path d="M398.501 138.463C398.614 139.068 398.994 139.584 399.333 140.099C400.409 141.738 401.144 143.598 401.477 145.53" stroke="#161313" stroke-miterlimit="10" stroke-linejoin="round"/>
<path d="M399.208 138.089C400.58 138 401.992 138.345 403.117 139.135C404.242 139.926 405.057 141.173 405.239 142.535C405.313 143.089 405.282 143.673 405.037 144.176C404.725 144.816 404.109 145.251 403.483 145.59" stroke="#161313" stroke-miterlimit="10" stroke-linejoin="round"/>
<path d="M375.075 124.697C378.924 128.128 381.835 132.551 385.882 135.744C389.998 138.993 395.093 140.797 400.248 141.716" stroke="#161313" stroke-miterlimit="10" stroke-linejoin="round"/>
<path d="M403.997 139.465C405.548 136.65 406.024 132.787 406.319 129.098C406.572 125.929 406.736 122.742 406.808 119.55" stroke="#161313" stroke-miterlimit="10" stroke-linejoin="round"/>
<path d="M413.209 186.708C411.009 185.489 408.12 185.747 405.619 187.882C402.638 190.426 402.958 194.465 404.558 196.965C407.017 200.806 415.1 203.908 419.175 199.552C421.031 197.568 420.817 195.456 419.644 193.659C418.297 191.595 416.39 189.699 414.716 187.892C414.268 187.41 413.76 187.012 413.209 186.708Z" fill="#F9D1AA"/>
<path d="M408.116 193.354C410.956 193.303 415.6 193.7 418.421 193.761" stroke="#161313" stroke-miterlimit="10" stroke-linejoin="round"/>
<path d="M416.885 201.162C418.778 200.724 420.379 199.204 420.914 197.337" stroke="#161313" stroke-miterlimit="10" stroke-linejoin="round"/>
<path d="M411.977 186.465C413.105 186.657 414.21 186.986 415.257 187.445" stroke="#161313" stroke-miterlimit="10" stroke-linejoin="round"/>
<path d="M462.433 247.077C458.617 251.949 453.602 255.453 448.187 257.032" stroke="#161313" stroke-miterlimit="10" stroke-linejoin="round"/>
<path d="M376.49 279.306C376.318 275.569 376.854 271.437 379.483 268.593C380.829 267.136 382.556 266.085 384.429 265.456C384.177 262.023 385.87 257.42 388.39 255.54C386.983 245.846 398.182 243.058 405.614 242.84C423.949 242.303 448.955 261.847 461.636 271.991L433.225 323.261C421.706 322.423 410.545 317.326 402.369 309.167C399.378 306.183 396.728 302.656 395.308 298.725C392.7 297.841 390.126 296.854 387.595 295.769V295.77C386.725 298.679 384.599 302.689 381.95 304.176C377.668 306.58 374.065 305.891 371.636 303.173C370.339 301.722 371.559 294.928 371.675 291.285C371.818 286.857 373.172 282.123 376.49 279.306Z" fill="#F9D1AA"/>
<path d="M456.931 268.264C456.931 268.264 505.7 300.64 505.7 301.325C505.7 302.01 469.144 358.216 469.144 358.216L426.025 318.004" fill="#F9D1AA"/>
<path d="M407.011 253.189C403.802 252.821 400.567 252.452 397.361 252.658C394.154 252.865 390.937 253.687 388.461 255.479" stroke="#161313" stroke-miterlimit="10" stroke-linejoin="round"/>
<path d="M401.925 267.004C397.435 265.657 392.713 264.534 387.994 264.768C386.783 264.829 385.576 265.057 384.425 265.446" stroke="#161313" stroke-miterlimit="10" stroke-linejoin="round"/>
<path d="M396.884 280.539C393.809 279.095 390.692 277.635 387.353 277.01C384.013 276.385 380.371 276.672 377.522 278.526C377.012 278.857 376.541 279.229 376.107 279.636" stroke="#161313" stroke-miterlimit="10" stroke-linejoin="round"/>
<path d="M388.908 296.321C388.908 296.321 384.489 295.005 380.277 292.292" stroke="#161313" stroke-miterlimit="10" stroke-linejoin="round"/>
<path d="M433.227 323.261C429.521 322.991 425.852 322.281 422.308 321.17" stroke="#161313" stroke-miterlimit="10" stroke-linejoin="round"/>
<path d="M371.414 296.387C371.915 296.584 372.473 296.485 373.003 296.538C373.535 296.591 374.108 296.874 374.267 297.508C374.328 297.755 374.319 298.026 374.3 298.291C374.224 299.399 373.992 300.549 373.418 301.436C372.845 302.324 372.513 302.491 371.432 302.619" stroke="#161313" stroke-miterlimit="10" stroke-linejoin="round"/>
<path d="M553.892 234.4C538.044 248.436 509.665 293.868 509.665 293.868C494.842 286.155 479.555 279.331 463.915 273.445L439.404 330.661C444.089 335.471 448.773 340.282 453.457 345.093C464.72 356.659 476.296 368.808 490.384 376.603C514.831 390.128 545.971 381.488 564.986 360.959C578.44 346.433 599.399 310.472 599.399 310.472" fill="#D2D8E6"/>
<path d="M554.239 370.412C558.115 367.645 561.729 364.476 564.986 360.959C578.44 346.433 599.399 310.472 599.399 310.472" stroke="#919DC1" stroke-width="1.5" stroke-miterlimit="10"/>
<path d="M553.892 234.4C538.044 248.436 509.665 293.868 509.665 293.868C494.842 286.155 479.555 279.331 463.915 273.445" stroke="#919DC1" stroke-width="1.5" stroke-miterlimit="10"/>
<path d="M443.743 320.375C447.515 324.017 451.562 327.155 455.807 329.728" stroke="#919DC1" stroke-width="1.5" stroke-miterlimit="10"/>
<path d="M448.852 308.584C453.121 311.203 457.552 313.553 462.109 315.615" stroke="#919DC1" stroke-width="1.5" stroke-miterlimit="10"/>
<path d="M454.145 296.097C458.859 297.505 463.486 299.204 467.99 301.181" stroke="#919DC1" stroke-width="1.5" stroke-miterlimit="10"/>
<path d="M459.597 283.401C459.846 283.461 460.095 283.522 460.343 283.582C461.42 283.844 462.498 284.104 463.564 284.398C466.99 285.34 470.301 286.616 473.418 288.193" stroke="#919DC1" stroke-width="1.5" stroke-miterlimit="10"/>
<path d="M509.161 293.54C521.735 299.504 533.35 306.414 545.627 315.614" stroke="#919DC1" stroke-width="1.5" stroke-miterlimit="10"/>
<path d="M583.965 335.333C592.63 331.658 600.116 326.495 605.651 320.375" stroke="#919DC1" stroke-width="1.5" stroke-miterlimit="10"/>
<path d="M568.844 141.184C573.695 134.593 582.022 130.723 590.187 131.264C593.535 131.486 597.127 132.349 600.083 130.763C601.659 129.919 602.814 128.482 604.018 127.159C607.292 123.563 611.232 120.575 615.578 118.392" stroke="#E5783C" stroke-width="3.5" stroke-miterlimit="10" stroke-linecap="round" stroke-linejoin="round"/>
<path d="M391.155 40.3276C393.714 44.465 396.274 48.6023 398.832 52.7396C400.294 55.1032 401.814 57.5287 404.066 59.1568C406.442 60.8743 409.397 61.5347 412.089 62.6985C417.891 65.2077 422.535 70.267 424.538 76.2627" stroke="#E5783C" stroke-width="3.5" stroke-miterlimit="10" stroke-linecap="round" stroke-linejoin="round"/>
<path d="M318.482 94.2059C321.916 97.7875 325.93 101.629 330.892 101.628C333.968 101.627 336.897 100.099 339.974 100.137C343.265 100.177 346.457 102.18 347.925 105.126" stroke="#847DCC" stroke-width="3.5" stroke-miterlimit="10" stroke-linecap="round" stroke-linejoin="round"/>
<path d="M550.25 96.9379C552.755 92.5874 555.533 87.9819 560.084 85.8629C563.801 84.1329 568.096 84.3613 572.182 84.6953C572.915 84.7552 573.691 84.8085 574.345 84.4717C574.971 84.1482 575.373 83.5211 575.745 82.9216C577.044 80.8263 578.345 78.7301 579.645 76.6348" stroke="#847DCC" stroke-width="3.5" stroke-miterlimit="10" stroke-linecap="round" stroke-linejoin="round"/>
<path d="M588.676 197.269C595.98 196.472 603.571 198.758 609.22 203.457" stroke="#847DCC" stroke-width="3.5" stroke-miterlimit="10" stroke-linecap="round" stroke-linejoin="round"/>
<path d="M451.992 40.4628C451.452 43.4611 451.803 46.6145 452.99 49.4197C454.053 51.9336 455.757 54.1469 456.719 56.7009C458.491 61.4053 457.559 66.6426 456.606 71.5792" stroke="#FFCD65" stroke-width="3.5" stroke-miterlimit="10" stroke-linecap="round" stroke-linejoin="round"/>
<path d="M382.466 68.2193C382.466 70.0672 380.968 71.5649 379.12 71.5649C377.272 71.5649 375.775 70.0672 375.775 68.2193C375.775 66.3714 377.272 64.8737 379.12 64.8737C380.968 64.8737 382.466 66.3714 382.466 68.2193Z" fill="#7C84CE"/>
<path d="M587.096 110.76C587.096 112.608 585.599 114.106 583.751 114.106C581.903 114.106 580.405 112.608 580.405 110.76C580.405 108.912 581.903 107.414 583.751 107.414C585.599 107.414 587.096 108.912 587.096 110.76Z" fill="#7C84CE"/>
<path d="M524.205 80.3174C526.053 80.3174 527.551 78.8195 527.551 76.9717C527.551 75.124 526.053 73.6261 524.205 73.6261C522.357 73.6261 520.859 75.124 520.859 76.9717C520.859 78.8195 522.357 80.3174 524.205 80.3174Z" fill="#E5783C"/>
<path d="M304.337 155.711C306.185 155.711 307.683 154.213 307.683 152.365C307.683 150.518 306.185 149.02 304.337 149.02C302.489 149.02 300.992 150.518 300.992 152.365C300.992 154.213 302.489 155.711 304.337 155.711Z" fill="#E5783C"/>
<path d="M627.322 173.631C627.322 175.479 625.824 176.977 623.976 176.977C622.129 176.977 620.631 175.479 620.631 173.631C620.631 171.784 622.129 170.286 623.976 170.286C625.824 170.286 627.322 171.784 627.322 173.631Z" fill="#FFCD65"/>
<path d="M445.237 68.2193C445.237 70.0672 443.74 71.5649 441.892 71.5649C440.044 71.5649 438.546 70.0672 438.546 68.2193C438.546 66.3714 440.044 64.8737 441.892 64.8737C443.74 64.8737 445.237 66.3714 445.237 68.2193Z" fill="#FFCD65"/>
</svg>
