<svg width="54" height="54" viewBox="0 0 54 54" fill="none" xmlns="http://www.w3.org/2000/svg">
<g id="fearture Icon ">
<circle id="Ellipse 265" cx="27" cy="27" r="27" fill="#FF8B13"/>
<path id="Vector" d="M27.4549 11C28.007 11 28.4547 11.4475 28.4549 11.9997L28.4557 14.5726C28.4559 15.0762 28.8318 15.4965 29.3253 15.5973C31.5554 16.0527 33.6101 17.1537 35.2286 18.7724C36.8469 20.391 37.9476 22.4457 38.4027 24.6757C38.5035 25.1694 38.924 25.5455 39.4278 25.5455H42C42.5523 25.5455 43 25.9932 43 26.5455V27.4549C43 28.007 42.5525 28.4547 42.0003 28.4549L39.4274 28.4557C38.9238 28.4559 38.5035 28.8319 38.4027 29.3253C37.9474 31.5552 36.8466 33.6098 35.2282 35.2282C33.6098 36.8466 31.5552 37.9474 29.3253 38.4027C28.8319 38.5035 28.4559 38.9238 28.4557 39.4274L28.4549 42.0003C28.4547 42.5525 28.007 43 27.4549 43H26.5455C25.9932 43 25.5455 42.5523 25.5455 42V39.4278C25.5455 38.924 25.1694 38.5035 24.6757 38.4027C22.4457 37.9476 20.391 36.8469 18.7724 35.2286C17.1537 33.6101 16.0527 31.5554 15.5973 29.3253C15.4965 28.8318 15.0762 28.4559 14.5726 28.4557L11.9997 28.4549C11.4475 28.4547 11 28.007 11 27.4549V26.5455C11 25.9932 11.4477 25.5455 12 25.5455H14.5722C15.076 25.5455 15.4965 25.1694 15.5973 24.6757C16.0525 22.4455 17.1534 20.3906 18.772 18.772C20.3906 17.1534 22.4455 16.0525 24.6757 15.5973C25.1694 15.4965 25.5455 15.076 25.5455 14.5722V12C25.5455 11.4477 25.9932 11 26.5455 11H27.4549ZM27 18.2727C24.6854 18.2727 22.4656 19.1922 20.8289 20.8289C19.1922 22.4656 18.2727 24.6854 18.2727 27C18.2727 29.3146 19.1922 31.5344 20.8289 33.1711C22.4656 34.8078 24.6854 35.7273 27 35.7273C29.3146 35.7273 31.5344 34.8078 33.1711 33.1711C34.8078 31.5344 35.7273 29.3146 35.7273 27C35.7273 24.6854 34.8078 22.4656 33.1711 20.8289C31.5344 19.1922 29.3146 18.2727 27 18.2727ZM27 24.0909C27.7715 24.0909 28.5115 24.3974 29.057 24.943C29.6026 25.4885 29.9091 26.2285 29.9091 27C29.9091 27.7715 29.6026 28.5115 29.057 29.057C28.5115 29.6026 27.7715 29.9091 27 29.9091C26.2285 29.9091 25.4885 29.6026 24.943 29.057C24.3974 28.5115 24.0909 27.7715 24.0909 27C24.0909 26.2285 24.3974 25.4885 24.943 24.943C25.4885 24.3974 26.2285 24.0909 27 24.0909Z" fill="white"/>
</g>
</svg>
