<svg width="138" height="180" viewBox="0 0 138 180" fill="none" xmlns="http://www.w3.org/2000/svg">
<g opacity="0.5" clip-path="url(#clip0_5513_33759)">
<path d="M121.624 18.7808C120.905 18.6276 120.185 18.4688 119.465 18.3125C120.139 18.6735 120.856 18.8475 121.624 18.7808Z" fill="#DEDEDE"/>
<path d="M75.3952 138.985C73.7819 136.691 69.9175 135.531 67.0253 137.38C68.3532 137.539 69.8145 137.62 71.2345 137.907C73.4199 138.351 74.9057 140.459 74.583 142.644C74.3458 144.255 73.6747 145.672 72.242 146.627C70.84 147.563 69.3124 148.204 67.7174 148.725C65.1896 149.55 62.5804 150.035 60.0013 150.64C52.622 152.37 45.2374 154.075 37.8613 155.827C36.9723 156.037 36.4163 155.918 36.0924 155.01C35.6582 153.797 35.1519 152.611 34.7091 151.401C33.6981 148.648 32.7051 145.885 31.7034 143.126C32.2192 147.516 33.297 151.749 34.6424 155.922C34.8278 156.496 34.9211 157.104 35.1567 157.655C35.5255 158.515 35.0724 159.009 34.4003 159.261C32.274 160.058 30.1736 160.945 27.9166 161.359C27.0103 161.526 26.4467 161.194 26.0943 160.406C25.8788 159.923 25.6761 159.43 25.5071 158.928C22.7175 150.598 19.9141 142.27 17.1587 133.929C16.3281 131.413 15.5727 128.868 14.8949 126.307C14.4736 124.71 14.7873 124.123 16.1373 123.269C16.5853 122.986 17.0629 122.738 17.5516 122.537C21.9684 120.708 22.8116 120.165 24.7722 125.685C26.0395 129.253 27.2116 132.857 28.9633 136.231L29.0158 136.272L28.9662 136.206C28.7128 132.377 27.2341 128.867 26.0694 125.278C25.6107 123.869 25.5843 123.943 27.0462 123.598C31.0214 122.657 34.4713 120.919 36.3515 117.031C37.8712 113.887 37.9372 110.627 37.0495 107.283C36.0908 103.675 34.0088 100.703 31.7986 97.7978C30.9278 96.6532 29.9137 95.6078 29.3801 94.2385C28.5618 92.1382 29.2384 90.5208 31.3363 89.6331C33.6614 88.6507 35.9737 88.8735 38.1553 89.9956C41.6934 91.8149 43.8989 94.8546 45.4795 98.3969C46.755 101.254 47.3727 104.308 48.0345 107.342C48.2167 108.181 48.3222 109.043 48.9149 109.823C49.4645 109.064 49.3358 108.385 49.3314 107.708C49.3004 103.185 47.6679 99.139 45.6046 95.221C44.0403 92.2491 41.7906 89.9151 38.7753 88.4324C35.835 86.9843 32.7891 86.7534 29.8037 88.3553C27.1929 89.7562 26.3926 92.1154 27.4654 94.8898C27.9085 96.0359 28.5743 97.0468 29.2857 98.0302C29.9521 98.9511 30.6677 99.8401 31.3371 100.759C33.6029 103.865 35.3785 107.165 35.564 111.125C35.6849 113.683 34.7894 115.792 33.1831 117.772C31.0559 120.392 27.9296 121.023 25.1531 122.367C23.4563 119.37 22.683 119.274 19.9383 119.809C18.468 120.094 17.016 120.667 15.6682 121.336C12.7919 122.762 12.2281 124.186 13.1909 127.253C14.7765 132.303 16.3789 137.35 18.0268 142.382C19.6296 147.277 21.2716 152.162 22.9547 157.03C23.4965 158.597 24.0229 160.174 24.892 161.626C25.6534 162.898 26.6297 163.411 28.0936 163.193C30.7501 162.798 33.2379 161.911 35.6598 160.798C36.5364 160.397 37.1928 159.809 37.3451 158.808C37.4696 158 38.0125 157.732 38.741 157.577C40.6644 157.171 42.5811 156.735 44.4925 156.274C52.1619 154.428 59.8284 152.571 67.4955 150.712C69.889 150.131 72.0929 149.144 74.0036 147.578C76.584 145.461 77.2089 141.546 75.4014 138.981L75.3952 138.985Z" fill="#DEDEDE"/>
<path d="M110.991 85.124C112.628 83.3378 114.328 81.6023 115.844 79.719C117.674 77.447 117.556 76.0708 115.536 73.9314C114.016 72.3225 112.236 71.0186 110.283 69.9717C109.068 69.3206 107.742 69.1386 106.639 70.0663C105.634 70.9115 105.052 70.5385 104.404 69.7195C104.124 69.3657 103.754 69.0803 103.452 68.743C99.5149 64.338 99.2976 59.6427 102.831 54.9233C103.555 53.9545 104.382 53.0765 105.27 52.238C107.291 50.3272 109.832 49.2663 112.173 47.8715C116.196 45.4737 116.499 41.6018 112.916 38.5995C109.576 35.8 105.778 35.7214 101.964 37.1147C96.4893 39.1129 92.8143 43.177 90.1707 48.2424C90.005 48.5594 89.829 48.9113 89.9783 49.3193C90.6908 49.0156 91.1966 48.4983 91.5976 47.85C92.4376 46.4874 93.4874 45.2861 94.572 44.1213C97.309 41.1817 100.442 38.9359 104.537 38.1825C107.767 37.5864 110.377 38.58 112.592 40.8271C114.24 42.5002 113.977 44.5925 111.97 45.8098C110.416 46.7524 108.784 47.5701 107.195 48.4605C104.914 49.7356 102.931 51.3897 101.42 53.5099C97.2917 59.3024 96.8758 64.1912 101.489 69.3734C101.69 69.5991 101.867 69.8515 102.034 70.1016C102.617 70.9782 103.837 71.5669 103.906 72.575C103.977 73.5887 102.815 74.3185 102.379 75.2824C102.294 75.4683 102.346 75.5721 102.548 75.5834C104.12 74.7131 105.516 73.554 106.803 72.2734C107.777 71.3049 108.757 71.2252 109.866 71.941C111.2 72.8055 112.626 73.5626 113.842 74.5664C115.796 76.1748 115.886 76.9967 114.283 78.9094C112.001 81.6333 109.632 84.2911 107.222 86.9031C102.601 91.9178 97.925 96.881 93.2779 101.869C92.3482 102.868 91.4884 103.938 90.5023 104.877C89.1866 106.13 88.0735 106.221 86.618 105.18C85.6368 104.478 84.6976 103.679 83.8806 102.792C82.1758 100.94 82.2317 99.7441 83.9262 97.8723C86.623 94.8977 89.3223 91.9236 92.006 88.9355C92.3545 88.5463 92.6381 88.0875 92.8877 87.6268C92.9658 87.4845 92.8962 87.1386 92.7731 87.0435C92.6345 86.9344 92.3093 86.9155 92.1488 87.0084C91.8284 87.1917 91.5467 87.4548 91.2832 87.7192C88.7066 90.2797 86.0585 92.7773 83.6011 95.4507C82.6536 96.4831 82.0145 96.4555 80.9297 95.8162C77.2027 93.6255 73.4949 91.4072 69.8417 89.0945C66.4482 86.9458 63.0558 84.792 59.8737 82.336C56.9262 80.0626 54.114 77.6775 52.1667 74.3855C50.2269 71.1084 51.5585 65.9963 55.8762 65.6904C56.1621 65.6692 56.4814 65.7029 56.8195 65.163C55.03 64.4053 53.5712 64.7857 52.2378 65.8603C50.0487 67.624 49.5935 69.9958 49.96 72.6091C50.407 75.8037 52.3786 78.1101 54.6222 80.1991C59.5887 84.8183 65.2893 88.447 70.9864 92.067C73.8009 93.8565 76.6667 95.5669 79.5045 97.3216C80.3675 97.8553 81.1082 98.4026 80.7159 99.6699C80.4673 100.475 80.7473 101.34 81.2089 102.064C82.5736 104.204 84.2752 105.984 86.5959 107.138C88.235 107.954 89.6472 107.717 90.9936 106.545C91.9065 105.749 92.8245 104.967 93.6455 104.066C99.4139 97.7415 105.213 91.4468 110.994 85.1377L110.991 85.124Z" fill="#DEDEDE"/>
<path d="M71.7273 116.059C71.898 111.772 68.9806 109.084 64.5357 109.09C59.5466 109.096 54.9935 110.78 50.7519 113.555C53.575 113.275 56.1114 112.284 58.7116 111.543C60.7691 110.957 62.8671 110.591 64.9896 110.932C66.9297 111.245 68.6927 112.09 69.4015 114.069C70.1153 116.062 69.285 117.753 67.8766 119.217C66.9756 120.156 65.94 120.904 64.8501 121.597C64.2604 121.972 63.6933 122.465 64.0181 123.258C64.2959 123.934 65.0037 123.889 65.6016 123.873C67.1183 123.831 68.6481 123.678 70.1158 124.152C73.3396 125.192 75.7954 127.581 73.8895 131.826C73.6152 132.44 73.1606 133.053 73.2082 133.863C74.3973 133.677 74.9819 133.002 75.4625 132.217C76.8289 129.992 76.3166 126.68 74.3803 124.693C72.893 123.166 71.0142 122.429 68.912 121.93C69.1609 120.937 69.7851 120.561 70.16 120.011C70.9772 118.805 71.67 117.536 71.7273 116.059Z" fill="#DEDEDE"/>
<path d="M61.8171 66.9532C60.5262 65.2767 59.4835 63.5312 59.0733 61.4835C58.3563 57.8869 60.5988 55.1756 64.2546 55.1604C65.2561 55.1567 66.2088 55.3201 67.1432 55.681C67.7781 55.9276 68.4298 56.1328 69.0832 56.3304C69.3723 56.4185 69.6925 56.4232 69.9351 56.1941C70.2869 55.8638 70.1353 55.4792 69.9427 55.1626C69.2366 53.9922 68.5936 52.7876 68.2101 51.474C67.1247 47.7751 69.6788 44.5607 73.5544 44.7222C74.9437 44.78 76.239 45.1913 77.4639 45.8206C79.3637 46.7953 81.0331 48.0916 82.6257 49.4987C83.3162 50.1069 83.9399 50.8544 84.9991 51.0908C84.9295 50.2469 84.4344 49.8552 84.0091 49.4467C81.5037 47.0423 78.9867 44.8288 75.4976 43.6637C70.1846 41.8898 65.9305 46.2171 66.3248 49.8456C66.4548 51.0415 66.7224 52.2138 66.9652 53.7145C62.8508 53.3035 59.2812 53.6735 57.9004 58.0705C56.926 61.1713 58.6595 64.9555 61.8146 66.9527L61.8171 66.9532Z" fill="#DEDEDE"/>
<path d="M26.6797 32.3418C32.8046 39.5205 38.5732 47.026 47.0265 52.4972C41.3981 44.1475 33.8522 38.4168 26.6797 32.3418Z" fill="#DEDEDE"/>
<path d="M83.4105 158.525C82.7174 157.792 81.9091 157.151 80.7299 156.942C81.933 160.3 90.4624 169.573 96.8517 174.416C95.7772 172.77 94.429 171.325 93.273 169.762C90.2911 165.733 86.8353 162.146 83.4105 158.525Z" fill="#DEDEDE"/>
<path d="M88.0227 139.755C95.6149 142.878 102.928 145.582 110.641 146.88C105.657 143.486 91.7251 138.937 88.0227 139.755Z" fill="#DEDEDE"/>
<path d="M56.1095 39.1376C55.9724 38.9839 55.7915 38.8367 55.7519 38.6614C54.8353 34.6063 52.2374 31.4776 49.829 28.2939C48.6196 26.6956 47.2319 25.2236 46.1655 23.5022C45.5944 22.5831 44.9344 21.7192 44 21.1094C45.8634 25.1808 48.1368 28.9848 50.5758 32.6968C52.1452 35.0844 53.8897 37.3107 56.107 39.1371L56.1095 39.1376Z" fill="#DEDEDE"/>
<path d="M56.1561 39.1937C56.067 39.5243 56.1612 39.7298 56.5341 39.7484L56.5837 39.8146L56.5434 39.7425C56.6689 39.3904 56.5464 39.2054 56.1698 39.1913C56.1497 39.1738 56.1295 39.1562 56.1094 39.1387C56.1244 39.1551 56.1415 39.1747 56.1535 39.1931L56.1561 39.1937Z" fill="#DEDEDE"/>
<path d="M27.3164 55.7832C30.5314 58.9561 33.7288 62.1491 38.8232 63.3545C36.8106 60.3691 32.7925 57.7508 27.3164 55.7832Z" fill="#DEDEDE"/>
<path d="M88.0074 150.61C90.9723 153.872 94.6537 155.629 98.8017 157.202C96.197 154.08 91.6229 151.306 88.0074 150.61Z" fill="#DEDEDE"/>
<path d="M100.288 126.982C97.1896 126.236 94.0766 125.536 90.8329 126.693C94.0265 128.211 97.1524 127.519 100.288 126.982Z" fill="#DEDEDE"/>
<path d="M66.0781 25.5918C66.065 28.3175 66.553 30.9089 68.1177 33.518C68.3538 30.4187 67.4652 27.9379 66.0781 25.5918Z" fill="#DEDEDE"/>
<path d="M70.3594 161.373C70.0792 164.206 71.4939 166.049 72.8844 168.031C72.8354 164.476 72.3531 163.165 70.3594 161.373Z" fill="#DEDEDE"/>
<path d="M108.466 79.1578C109.185 79.2739 109.597 78.8717 109.77 78.1615C109.755 77.4855 109.423 76.9989 108.704 76.9859C108.022 76.9729 107.537 77.3675 107.499 78.08C107.466 78.7062 107.9 79.0635 108.464 79.1547L108.466 79.1578Z" fill="#DEDEDE"/>
<path d="M19.0951 127.289C18.9733 127.872 19.32 128.288 19.9109 128.393C20.4916 128.496 20.9057 128.234 21.1233 127.674C21.2023 127.092 20.9905 126.628 20.4192 126.469C19.7347 126.281 19.2321 126.622 19.0951 127.289Z" fill="#DEDEDE"/>
</g>
<defs>
<clipPath id="clip0_5513_33759">
<rect width="106" height="161" fill="white" transform="translate(33.5742) rotate(12.0362)"/>
</clipPath>
</defs>
</svg>
