<svg width="77" height="89" viewBox="0 0 77 89" fill="none" xmlns="http://www.w3.org/2000/svg">
<path d="M33.151 14.8361C34.1854 14.585 35.1841 14.3338 35.3803 14.2979C35.5765 14.2441 36.0045 14.2082 36.8962 14.1724L36.9854 22.6938H35.6478C34.9166 22.6938 34.0427 22.7477 33.7395 22.8194C33.365 22.9091 33.1867 22.8912 33.2402 22.7835C33.2937 22.6759 33.0796 22.6041 32.7586 22.6041C32.4376 22.6041 31.8491 22.7656 31.4567 22.945C31.0644 23.1244 30.5115 23.5011 30.2261 23.7882C29.9586 24.0752 29.6198 24.5058 29.4949 24.7569C29.3701 25.0081 29.2274 25.5283 29.1561 25.923C29.0847 26.3715 29.1382 26.9635 29.2988 27.5376C29.4771 28.1835 29.7803 28.6499 30.3688 29.1881C30.8147 29.6186 31.4924 30.0313 31.8491 30.1389C32.2236 30.2286 32.7586 30.3183 33.0618 30.3183C33.4898 30.3183 33.5433 30.2824 33.3293 30.121C33.0975 29.9595 33.1153 29.9416 33.365 30.0313C33.5433 30.0851 34.4351 30.1389 36.9854 30.1389L36.8962 38.7501H30.1191V41.172C30.1191 43.1992 30.0656 43.7015 29.7803 44.2576C29.5841 44.6344 29.2096 45.1546 28.9242 45.4237C28.6567 45.6928 28.1217 46.0337 27.7472 46.1772C27.3905 46.3387 26.7484 46.4642 26.3204 46.4642C25.8924 46.4642 25.1968 46.2848 24.6796 46.0337C24.1268 45.7646 23.5917 45.3161 23.2529 44.8317C22.7185 44.0791 22.7179 44.0424 22.629 38.7684L22.6287 38.7501H18.4376C14.6032 38.7501 14.2287 38.7142 14.1395 38.4272C14.0682 38.2657 14.1038 37.3866 14.193 36.5076C14.3 35.6285 14.5497 34.2113 14.7459 33.3681C14.9421 32.5249 15.3166 31.2332 15.5841 30.4977C15.8516 29.7622 16.4402 28.4167 16.886 27.5376C17.3497 26.6586 17.7064 25.8871 17.6886 25.8333C17.6886 25.7795 17.9204 25.3848 18.2414 24.9363C18.5446 24.4878 19.2402 23.5549 19.793 22.8732C20.3459 22.1915 21.3446 21.1331 22.0223 20.541C22.7 19.9311 23.5739 19.1955 23.9663 18.8906C24.3586 18.5856 25.4822 17.9039 26.4631 17.4016C27.444 16.8813 28.9242 16.1996 29.7624 15.8767C30.6007 15.5358 32.1166 15.0694 33.151 14.8361Z" fill="#FE646F"/>
<path d="M38.6261 20.4513C38.6083 21.6892 38.5726 20.7563 38.5726 18.3882C38.5726 16.0202 38.6083 15.0155 38.6261 16.1458C38.6618 17.276 38.6618 19.2135 38.6261 20.4513Z" fill="#FE646F"/>
<path d="M38.6261 36.5076C38.6083 37.6916 38.5726 36.7587 38.5726 34.4445C38.5726 32.1302 38.6083 31.1615 38.6261 32.2917C38.6618 33.4219 38.6618 35.3235 38.6261 36.5076Z" fill="#FE646F"/>
<path d="M65.4851 3.21103C65.1641 2.97781 64.9501 2.72665 65.0036 2.65489C65.0571 2.56519 65.717 2.92399 66.466 3.42631C67.215 3.94656 68.731 5.25618 69.8189 6.35052C70.9424 7.48073 72.2087 9.00563 72.7794 9.86674C73.3322 10.7099 74.0991 12.0375 74.4915 12.8268C74.8838 13.6162 75.4545 14.9796 75.7399 15.8766C76.0431 16.7736 76.4176 18.1729 76.5781 19.0161C76.7386 19.8593 76.917 21.5098 76.9705 22.6938C77.0418 24.2007 76.9883 25.4386 76.7743 26.82C76.6316 27.9143 76.4176 29.0983 76.1322 30.1389L75.3654 29.8877C74.7055 29.6724 74.6163 29.5827 74.6342 29.1342C74.6342 28.8472 74.7947 27.6811 74.973 26.5509C75.2227 24.9542 75.2584 23.9316 75.187 22.0659C75.1157 20.4872 74.9195 18.9982 74.6342 17.7603C74.4023 16.7198 73.9921 15.2667 73.7246 14.5311C73.4571 13.7956 72.9577 12.6116 72.601 11.9298C72.2622 11.2481 71.6201 10.1 71.1743 9.41824C70.7463 8.71859 69.8545 7.53455 69.1947 6.76313C68.5526 5.99172 67.5717 4.96914 67.0367 4.5027C66.5017 4.03626 65.8061 3.46219 65.4851 3.21103Z" fill="#00E499"/>
<path d="M61.0978 19.6978C61.3654 19.4287 61.8826 19.0879 62.2214 18.9443C62.5603 18.8008 63.1666 18.6752 63.559 18.6752C63.9513 18.6573 64.4507 18.6932 64.6647 18.747C64.8966 18.8008 65.0749 18.8905 65.0749 18.9802C65.0749 19.052 64.7539 19.2134 64.3615 19.339C63.9692 19.4467 63.2736 19.8952 62.8278 20.3257C62.2036 20.8998 61.9539 21.3124 61.7042 22.1556C61.5259 22.7476 61.2227 23.824 61.0443 24.5416C60.8125 25.4207 60.6163 25.8333 60.438 25.8333C60.2953 25.8333 59.9029 25.7615 59.5819 25.6539C59.2787 25.5642 59.0112 25.3668 59.0112 25.2592C59.0112 25.1336 59.2431 24.1828 59.5284 23.1423C59.7959 22.1018 60.1526 21.0254 60.3131 20.7204C60.4558 20.4334 60.8125 19.9669 61.0978 19.6978Z" fill="#00E499"/>
<path d="M56.3717 65.5882C55.8724 65.4267 55.4443 65.2294 55.4443 65.1217C55.4443 65.032 55.48 64.9423 55.5335 64.9423C55.587 64.9423 56.2112 65.0679 56.9068 65.2114C57.6201 65.3729 58.8507 65.8034 59.6354 66.1981C60.4201 66.5749 61.4545 67.2207 61.9539 67.6333C62.4354 68.0459 63.1845 68.7994 63.6125 69.3017C64.0405 69.822 64.7004 70.8804 65.0749 71.6698C65.4673 72.4592 65.9131 73.6253 66.0736 74.2711C66.2877 75.1322 66.3412 75.9754 66.2877 77.5003C66.2163 79.1328 66.1093 79.8325 65.7348 80.9089C65.4673 81.6444 64.9857 82.7029 64.6647 83.2411C64.3615 83.7793 63.5233 84.7839 62.8456 85.4836C62.1501 86.1653 61.1513 87.0084 60.6163 87.3134C60.0813 87.6363 59.0826 88.1028 58.387 88.336C57.6915 88.5872 56.7998 88.8563 56.3717 88.928C55.8189 89.0357 55.6227 89.0177 55.6227 88.8563C55.6227 88.7307 56.122 88.4616 56.7284 88.2642C57.3526 88.0848 58.4583 87.5287 59.1896 87.0443C59.9208 86.56 60.9908 85.6629 61.5794 85.0171C62.1501 84.3892 62.8813 83.3846 63.2023 82.7926C63.5233 82.2005 63.9692 81.16 64.1832 80.4604C64.3794 79.7787 64.6112 78.5587 64.6647 77.7694C64.7182 76.9441 64.6826 75.796 64.5577 75.0784C64.4329 74.3967 64.1297 73.3023 63.88 72.6565C63.6303 72.0107 63.0596 70.9343 62.5959 70.2525C62.1501 69.5708 61.294 68.5662 60.7055 68.0459C60.1169 67.5257 59.1182 66.826 58.4762 66.4852C57.8341 66.1622 56.8889 65.7496 56.3717 65.5882Z" fill="#00E499"/>
<path d="M43.5486 69.4812C43.9588 68.961 44.69 68.2254 45.1715 67.8128C45.8849 67.2208 46.1702 67.0952 47.5435 67.0952L46.0811 68.5842C44.9397 69.7324 44.4581 70.3962 43.8696 71.5802C43.4594 72.4234 43.0314 73.5715 42.6925 75.1682H41.0874L40.9448 76.1908C40.8556 76.8187 40.8913 77.7695 41.0161 78.5768C41.1231 79.3123 41.3906 80.4246 41.6046 81.0345C41.89 81.8777 41.9257 82.1648 41.7651 82.2365C41.6403 82.3083 38.3231 82.3442 34.3995 82.3442C28.4072 82.3442 27.1766 82.3083 26.7307 82.0751C26.4454 81.9315 26.0352 81.5369 25.839 81.2319C25.518 80.6937 25.4823 80.3708 25.5715 75.2579L33.2225 75.1682C39.7855 75.0964 40.8913 75.0426 40.9983 74.8094C41.0696 74.6659 41.2836 74.0559 41.4441 73.4639C41.6046 72.8719 41.9792 71.939 42.2645 71.4008C42.5499 70.8626 43.1206 70.0015 43.5486 69.4812Z" fill="#9B919B"/>
<path d="M42.889 83.6539C42.5324 83.1336 42.247 82.6313 42.247 82.5236C42.247 82.416 42.6037 82.3442 43.0496 82.3442C43.7273 82.3442 43.8699 82.416 43.9769 82.7389C44.0483 82.9721 44.4941 83.6718 45.8496 85.4837L45.5285 86.0937C45.3324 86.4345 44.8687 87.0624 44.4763 87.5109C44.0839 87.9594 43.4419 88.4797 43.0496 88.6412C42.6572 88.8206 41.9438 88.982 40.5527 88.982L41.2661 88.6412C41.6585 88.4618 42.2292 88.1209 42.5145 87.8697C42.7999 87.6365 43.2279 87.0445 43.4419 86.596C43.7629 85.9322 43.8164 85.6272 43.6916 85.1608C43.6024 84.8558 43.2457 84.1562 42.889 83.6539Z" fill="#776A77"/>
<path d="M48.3099 31.5384C48.5596 31.359 49.0768 31.0899 49.4691 30.9463C49.8615 30.8028 50.236 30.6952 50.2895 30.6772C50.3609 30.6772 50.3787 30.749 50.343 30.8566C50.3074 30.9643 50.5035 31.1616 50.8067 31.3051C51.0921 31.4487 51.5023 31.7536 51.7163 31.9869C51.9124 32.2021 52.2156 32.5789 52.394 32.83C52.608 33.1709 52.6972 33.8706 52.8577 38.6605L53.6067 38.7143C54.0347 38.7323 54.3736 38.6964 54.3736 38.6246C54.3736 38.5349 55.943 38.4991 61.329 38.5708L61.2398 39.1449C61.2042 39.4678 61.115 40.4904 61.0615 41.4053C61.008 42.3023 60.794 43.8452 60.5978 44.796C60.3838 45.7647 59.9379 47.3614 59.5991 48.3481C59.2602 49.3348 58.5825 50.9135 58.1188 51.8464C57.6551 52.7792 56.6742 54.5194 55.9609 55.7034C55.2475 56.8875 54.0526 58.8609 53.3035 60.0987C52.5723 61.3366 51.7163 62.8974 51.4309 63.597C51.1456 64.2967 50.8424 64.9246 50.771 65.0322C50.6819 65.1399 50.1825 65.3193 49.6831 65.4448C49.1659 65.5704 48.2564 65.9113 47.6322 66.1983C47.0258 66.5033 46.5265 66.8083 46.5265 66.9159C46.5265 67.0235 45.064 67.0953 38.501 67.0953V54.7168H40.8551C43.0844 54.7168 43.2806 54.6988 44.208 54.2324C44.9035 53.8736 45.3137 53.5148 45.6704 52.9228C45.9379 52.4743 46.2054 51.7925 46.2589 51.3979C46.3124 50.9852 46.2411 50.2856 46.0984 49.7833C45.9023 49.1374 45.6169 48.671 45.0284 48.1328C44.5825 47.7022 43.9048 47.2896 43.5481 47.182C43.1736 47.0923 41.8895 47.0026 38.501 47.0026V38.5708H46.7048V36.4718C46.7048 35.3057 46.7761 34.0679 46.8831 33.727C46.9723 33.3862 47.222 32.83 47.4538 32.4892C47.6857 32.1483 48.0602 31.7178 48.3099 31.5384Z" fill="#8AC9FE"/>
<path d="M36.9856 22.6938L36.9321 18.4421L36.8964 14.1724H38.5015V22.7835L36.9856 22.6938Z" fill="#FD4755"/>
<path d="M30.2263 23.8061C30.4938 23.5191 31.0467 23.1244 31.4391 22.945C31.8314 22.7656 32.4378 22.6221 33.4008 22.6221L32.955 22.9629C32.7231 23.1603 32.3129 23.4652 32.0633 23.6446C31.8314 23.842 31.4391 24.3443 31.225 24.7749C30.9754 25.2772 30.8149 25.9051 30.8149 26.4792C30.8149 27.0712 30.9575 27.6273 31.225 28.1834C31.4926 28.7037 31.9919 29.224 32.6161 29.6545C33.5435 30.3183 33.5614 30.3362 33.0442 30.3362C32.7588 30.3362 32.2059 30.2465 31.8493 30.1389C31.4747 30.0492 30.8149 29.6186 30.369 29.206C29.7805 28.6499 29.4773 28.1834 29.2811 27.5556C29.1206 26.9815 29.0671 26.3895 29.1384 25.941C29.2098 25.5463 29.3703 25.0081 29.4951 24.7749C29.62 24.5237 29.941 24.0752 30.2263 23.8061Z" fill="#FD4755"/>
<path d="M36.8607 34.5701C36.8429 32.2738 36.8964 30.3362 36.9677 30.2645C37.0569 30.2107 37.4314 30.1568 38.4837 30.1568V38.768H36.8786L36.8607 34.5701Z" fill="#FD4755"/>
<path d="M50.8076 31.3053C50.5044 31.1617 50.3261 30.9465 50.3974 30.8388C50.4687 30.7132 50.7541 30.6953 51.1465 30.7671C51.5031 30.8388 52.0738 31.0362 52.4127 31.2156C52.7515 31.377 53.2866 31.8076 53.5719 32.1484C53.8573 32.5072 54.214 33.0993 54.321 33.476C54.4458 33.8707 54.5528 35.0906 54.5528 36.2387C54.5528 37.369 54.4815 38.4095 54.4101 38.5351C54.3388 38.6786 54.0178 38.7503 52.8586 38.6606L52.7694 35.9696C52.698 33.8707 52.6089 33.171 52.3949 32.8302C52.2165 32.579 51.9312 32.2023 51.7172 31.969C51.5031 31.7538 51.093 31.4488 50.8076 31.3053Z" fill="#60B7FF"/>
<path d="M61.0802 41.1722C61.1337 40.1855 61.2051 39.1988 61.2586 38.9656C61.3299 38.6248 61.4547 38.5709 62.8815 38.5709L62.8102 40.4905C62.7745 41.5669 62.5783 43.2712 62.3643 44.3117C62.1681 45.3522 61.7758 46.9309 61.4904 47.81C61.1872 48.6891 60.4917 50.3934 59.921 51.5774C59.3681 52.7614 58.0305 55.1474 56.9605 56.8697C55.8904 58.5919 54.642 60.6909 54.1605 61.5341C53.6968 62.3772 53.1261 63.5254 52.9121 64.0995C52.5375 65.0682 52.4484 65.1579 51.7885 65.3194C51.3961 65.4091 50.7184 65.6244 50.2726 65.7858C49.8267 65.9293 49.0777 66.2881 48.5783 66.5752C48.0968 66.8622 47.4191 67.0954 47.1159 67.0954C46.7949 67.0954 46.5273 67.0237 46.5273 66.916C46.5273 66.8084 47.0267 66.5034 47.6509 66.1984C48.2573 65.9114 49.1668 65.5705 49.684 65.445C50.1834 65.3194 50.6828 65.14 50.7719 65.0323C50.8433 64.9247 51.1465 64.2968 51.4318 63.5971C51.7172 62.8975 52.5732 61.3367 53.3044 60.0989C54.0535 58.861 55.2484 56.8876 55.9617 55.7036C56.6751 54.5195 57.656 52.7794 58.1197 51.8465C58.5834 50.9136 59.2611 49.3349 59.6 48.3482C59.9388 47.3615 60.3847 45.7469 60.5987 44.7602C60.8127 43.7735 61.0267 42.1589 61.0802 41.1722Z" fill="#60B7FF"/>
<path d="M16.2974 10.6382C16.7789 10.4767 17.5815 10.2973 18.0808 10.2256C18.5624 10.1538 19.4541 10.1359 20.0426 10.1717C20.6312 10.2256 21.5942 10.4229 22.1828 10.6202C22.7713 10.7996 23.77 11.3199 24.4121 11.7505C25.0541 12.1631 25.9101 12.9524 26.3203 13.4727C26.7305 14.0109 27.2656 14.872 27.5152 15.3743C27.7649 15.8946 27.9789 16.379 27.9789 16.4507C27.9789 16.5404 27.4974 16.8633 26.9089 17.1683C26.3203 17.4912 25.821 17.7424 25.7853 17.7065C25.7496 17.6886 25.4821 17.1504 25.1789 16.5045C24.8401 15.7869 24.2872 15.0335 23.7522 14.5312C23.2885 14.1006 22.4503 13.5265 21.9152 13.2754C21.077 12.8986 20.6847 12.8269 19.2401 12.8269C17.7777 12.8269 17.421 12.8986 16.5649 13.3112C16.0299 13.5624 15.2095 14.1544 14.7458 14.6029C14.2286 15.0873 13.6579 15.9125 13.3191 16.6301C12.8197 17.6886 12.7484 18.0294 12.7484 19.2852C12.7484 20.3078 12.8732 21.0075 13.1407 21.7071C13.3547 22.2991 13.8898 23.1064 14.4605 23.7343C15.0312 24.3802 15.7624 24.9543 16.2974 25.2054C16.7789 25.4207 17.3318 25.6718 17.4923 25.7257C17.7777 25.8154 17.7598 25.9409 17.2426 26.8559C16.9394 27.43 16.6363 27.9502 16.5828 28.0399C16.5292 28.1117 15.905 27.8964 15.2273 27.5555C14.4605 27.1788 13.5509 26.533 12.9089 25.8871C12.3203 25.3131 11.5891 24.3622 11.2681 23.7702C10.9649 23.1782 10.5726 22.2094 10.4299 21.6174C10.2694 21.0254 10.1445 20.0208 10.1445 19.3749C10.1445 18.7291 10.2694 17.7245 10.412 17.1324C10.5726 16.5404 10.8936 15.6434 11.1254 15.159C11.3751 14.6567 11.9636 13.8315 12.4273 13.2933C12.891 12.7551 13.7471 12.0016 14.3356 11.6249C14.9242 11.2481 15.798 10.7996 16.2974 10.6382Z" fill="#EAA824"/>
<path d="M14.2467 41.8898C14.1575 41.0108 14.0684 39.9164 14.0684 39.4679V38.6606L22.5754 38.7683L22.6467 41.4234L22.6473 41.4456C22.718 44.025 22.7196 44.0807 23.2531 44.832C23.5919 45.3164 24.127 45.7649 24.6798 46.034C25.197 46.2851 25.8926 46.4645 26.3384 46.4645C26.7486 46.4645 27.3907 46.3389 27.7652 46.1775C28.1219 46.034 28.6569 45.6931 28.9244 45.424C29.2098 45.1549 29.5843 44.6346 29.7805 44.2758C30.0658 43.7018 30.1193 43.1994 30.1193 38.7503H38.5015V47.0027H40.6773C41.89 47.0027 43.1741 47.0924 43.5486 47.1821C43.9053 47.2898 44.583 47.7024 45.0289 48.115C45.6174 48.6711 45.9028 49.1376 46.0989 49.7834C46.2416 50.2857 46.313 50.9854 46.2595 51.398C46.206 51.7927 45.9384 52.4744 45.6709 52.9229C45.3142 53.5149 44.904 53.8737 44.2085 54.2325C43.2811 54.6989 43.0849 54.7169 38.5015 54.7169V67.0954H25.0365L24.5907 65.6244C24.3588 64.7991 23.7881 63.3998 23.3422 62.5208C22.8964 61.6417 21.648 59.4889 20.5779 57.7667C19.49 56.0444 18.0454 53.497 17.3499 52.1156C16.6722 50.7342 15.8518 48.8326 15.5486 47.8997C15.2454 46.9668 14.8709 45.5855 14.7104 44.8499C14.5677 44.1144 14.3537 42.7689 14.2467 41.8898Z" fill="#F8BF3B"/>
<path d="M57.6736 4.21588C58.2265 2.13485 58.708 0.340859 58.7436 0.233219V0.215279C58.7972 0.10764 58.9398 0 59.1003 0C59.243 0 60.1526 0.287039 61.0978 0.645837C62.0608 1.00464 63.2022 1.48901 63.6481 1.72223C64.094 1.95545 64.6468 2.31425 64.8965 2.52953C65.1462 2.72687 65.2175 2.85245 65.0749 2.78069C64.9322 2.70893 64.9679 2.79863 65.164 2.96009C65.3602 3.10361 66.0736 3.69563 66.7513 4.2697C67.4112 4.82584 68.5169 5.93812 69.1768 6.72747C69.8366 7.51683 70.7462 8.71881 71.1742 9.41846C71.6201 10.1002 72.2621 11.2483 72.6188 11.9301C72.9577 12.6118 73.4749 13.8676 73.778 14.7107C74.0634 15.5539 74.4914 17.0788 74.7233 18.1193C75.0621 19.6622 75.1335 20.5412 75.1513 22.9631C75.1513 25.1159 75.0621 26.4076 74.8124 27.7172C74.6341 28.7039 74.4736 29.5291 74.4558 29.565C74.4558 29.6009 72.9933 29.2421 71.2277 28.7756C69.4621 28.3092 67.9997 27.9145 67.964 27.9145C67.9284 27.8966 68.1602 26.9278 68.4812 25.7438C68.8736 24.2189 69.0163 23.304 68.9806 22.5864C68.9271 21.8329 68.7844 21.4023 68.3742 20.8283C68.0354 20.3439 67.5182 19.9133 66.9475 19.6263C66.4659 19.3931 65.8417 19.1957 65.5742 19.1957C65.2889 19.1957 65.057 19.106 65.0392 18.9984C65.0035 18.8907 64.5933 18.7472 64.094 18.7113C63.5768 18.6575 62.8991 18.7113 62.4889 18.8549C62.0965 18.9804 61.508 19.3392 61.1691 19.6263C60.8481 19.9313 60.4379 20.4695 60.2596 20.8103C60.0991 21.1512 59.7245 22.3532 59.4392 23.4475C59.029 25.0262 58.8685 25.4568 58.6545 25.385C58.5118 25.3491 57.1386 24.9724 55.6226 24.5598C54.1067 24.1651 52.787 23.7525 52.68 23.6628C52.5551 23.5551 52.8761 22.1738 53.5717 19.6442C54.1602 17.5273 54.6061 15.7513 54.5526 15.6974C54.4991 15.6436 53.5895 15.3566 52.5016 15.0695C51.4137 14.7646 50.2545 14.3878 49.9156 14.2084C49.5768 14.029 49.0417 13.5267 48.7385 13.0782C48.4354 12.6477 48.1322 11.9301 48.0608 11.4816C47.9717 10.9972 48.0073 10.3513 48.1143 9.86696C48.2214 9.41846 48.578 8.73675 48.8991 8.36001C49.2022 7.96533 49.7908 7.49889 50.1831 7.31949C50.5933 7.14009 51.3067 6.99657 51.8774 7.01451C52.4124 7.01451 53.6965 7.24773 54.7309 7.53477C55.7653 7.80387 56.6214 8.03709 56.6392 8.01915C56.657 8.00121 57.1207 6.29692 57.6736 4.21588Z" fill="#6CF5C2"/>
<path d="M48.8456 66.4316C49.4876 66.1086 50.6468 65.6601 51.4315 65.4269C52.2876 65.1578 53.3755 64.9964 54.1424 64.9784C54.9093 64.9605 55.4443 65.0322 55.4443 65.1399C55.4443 65.2475 55.8723 65.4449 56.3717 65.6063C56.8889 65.7678 57.8341 66.1804 58.4761 66.5033C59.1182 66.8442 60.1169 67.5438 60.7054 68.0641C61.294 68.5844 62.15 69.589 62.5959 70.2707C63.0596 70.9524 63.6303 72.0288 63.88 72.6747C64.1296 73.3205 64.4328 74.4148 64.5577 75.0965C64.6825 75.8141 64.7182 76.9623 64.6647 77.7875C64.6112 78.5769 64.3793 79.7968 64.1831 80.4785C63.9691 81.1782 63.5233 82.2187 63.2022 82.8107C62.8812 83.4027 62.15 84.4074 61.5793 85.0353C60.9908 85.6811 59.9207 86.5781 59.1895 87.0625C58.4583 87.5469 57.3526 88.103 56.7284 88.2824C56.122 88.4797 55.6226 88.7309 55.6226 88.8206C55.6226 88.9282 55.0341 89 54.1959 89C53.4112 89 52.3411 88.9103 51.8239 88.8027C51.3245 88.6771 50.3436 88.3542 49.6481 88.0671C48.9526 87.7801 47.8825 87.1522 47.2405 86.6678C46.5984 86.2014 45.671 85.2505 45.1538 84.5688C44.6545 83.9051 43.9768 82.8107 43.6914 82.1469C43.3882 81.4652 43.0137 80.4247 42.871 79.8148C42.7284 79.1869 42.6035 77.9669 42.6035 77.0699C42.6035 76.0115 42.7284 74.953 42.9602 74.0202C43.1742 73.2308 43.6201 72.0288 43.9768 71.3292C44.4405 70.4501 45.1003 69.6069 46.1526 68.5485C47.187 67.5259 48.0608 66.8262 48.8456 66.4316Z" fill="#6CF5C2"/>
<path d="M29.4062 82.5234C29.4062 82.4158 31.6177 82.3261 35.6126 82.2902H35.5948C39.019 82.2723 41.9082 82.2364 42.0152 82.2005C42.14 82.1826 42.247 82.2723 42.247 82.3979C42.2292 82.5055 42.568 83.1334 42.9782 83.7792C43.5133 84.5865 43.7451 85.1427 43.7451 85.6091C43.7629 86.0576 43.6024 86.4882 43.2101 87.0443C42.9247 87.4569 42.2827 88.0669 41.8012 88.3539C40.9456 88.8918 40.9273 88.8921 37.9009 88.9458L37.8954 88.9459C35.4878 88.9818 34.7031 88.9459 34.1324 88.7307C33.74 88.5692 33.1336 88.1566 32.777 87.7798C32.4203 87.4031 31.5107 86.1114 30.7617 84.9095C30.0126 83.6895 29.4062 82.6311 29.4062 82.5234Z" fill="#837683"/>
<path d="M14.8707 3.83915L15.7981 1.91957L16.7433 0H19.9535L21.7369 3.85709L23.9305 4.78996C25.1433 5.29228 26.2847 5.66902 26.5165 5.63314C26.7305 5.59726 26.9089 5.47168 26.9089 5.38198C26.9089 5.29228 27.0337 5.20258 27.1764 5.20258C27.3191 5.20258 28.0503 4.96936 28.7815 4.66438C29.5484 4.3594 30.0656 4.21588 30.0121 4.34146C29.9407 4.48498 30.4936 5.14876 32.8121 7.44507L31.3675 11.4816L32.0274 13.0603C32.384 13.9214 32.7586 14.6749 32.8656 14.7287C32.9726 14.8004 32.6694 14.944 32.17 15.0695C31.6885 15.1772 30.5649 15.5539 29.6732 15.8948C28.7993 16.2356 28.0681 16.4868 28.0503 16.4689C28.0325 16.433 27.8184 15.9665 27.5509 15.4283C27.2834 14.8901 26.7305 14.0111 26.3204 13.4729C25.9102 12.9526 25.0541 12.1633 24.4121 11.7507C23.77 11.3201 22.7356 10.7819 22.0936 10.5666C21.2375 10.2796 20.5063 10.1899 19.3293 10.1899C18.2235 10.1899 17.3675 10.2975 16.5649 10.5666C15.9229 10.764 14.9242 11.2304 14.3356 11.6251C13.7471 12.0018 12.891 12.7553 12.4274 13.2935C11.9637 13.8317 11.3751 14.6569 11.1254 15.1592C10.8936 15.6436 10.5726 16.5406 10.4121 17.1326C10.2694 17.7247 10.1446 18.7293 10.1446 19.3751C10.1446 20.021 10.2694 21.0256 10.4299 21.6176C10.5726 22.2096 10.9649 23.1784 11.2681 23.7704C11.5891 24.3624 12.3203 25.3132 12.9089 25.8873C13.5331 26.5152 14.514 27.2149 16.5293 28.2554L16.1191 29.1524C15.9051 29.6368 15.5127 30.6952 15.263 31.4846C15.0133 32.2739 14.7637 33.2965 14.7102 33.763C14.6567 34.2473 14.5496 34.6241 14.4783 34.6241C14.3891 34.6241 13.6758 34.337 11.393 33.3683L7.45156 34.8932L3.81334 31.2334L5.32926 27.2687L3.81334 23.6269L0.0681152 21.9226L0.014612 19.3572C-0.0210568 16.8277 -0.0210568 16.7738 0.3713 16.5944C0.603147 16.4868 1.47703 16.0921 3.88468 14.9798L5.31143 11.3919L3.86684 7.44507L7.41589 3.85709L9.09232 4.46704C10.0197 4.78996 10.9649 5.09494 11.2146 5.14876C11.4821 5.20258 12.2847 4.96936 14.8707 3.83915Z" fill="#FFC338"/>
<path d="M36.0758 22.7299C35.6834 22.7658 35.1305 22.7658 34.8274 22.7299C34.542 22.694 34.863 22.6581 35.5407 22.6581C36.2363 22.6581 36.4681 22.694 36.0758 22.7299Z" fill="#FFC338"/>
<path d="M21.6659 3.67769C21.6303 3.57005 21.2201 2.70893 20.7742 1.75811L19.9717 0H21.8265L23.6277 3.85709L25.215 4.48498C26.071 4.82584 26.8201 5.20258 26.8558 5.29228C26.8914 5.38198 26.7309 5.5255 26.5169 5.59726C26.2316 5.66902 25.429 5.41786 23.9131 4.78996C22.7182 4.2697 21.7016 3.78533 21.6659 3.67769Z" fill="#F5B829"/>
<path d="M29.9054 4.4491C29.8876 4.3594 30.1551 4.18 30.494 4.05442L31.1003 3.80327L34.7207 7.46301L34.1679 8.89821C33.8647 9.66962 33.5437 10.6025 33.4545 10.9434C33.3118 11.4816 33.3653 11.7865 34.4889 14.4955L33.7755 14.6928C33.3831 14.7825 32.973 14.8363 32.8838 14.8004C32.7768 14.7466 32.4023 13.9752 31.3679 11.4098L32.8124 7.44507L31.3679 6.00988C30.5831 5.23846 29.9233 4.52086 29.9054 4.4491Z" fill="#F5B829"/>
<path d="M23.877 70.8988C23.8948 67.9387 23.9126 67.7773 24.2871 67.4005L24.6795 67.0059H35.3445C41.1942 67.0059 45.9916 67.0417 45.9916 67.0956C45.9738 67.1494 45.6528 67.4364 45.2782 67.7235C44.8859 68.0105 44.1547 68.746 43.6731 69.3381C43.1738 69.9301 42.4961 70.9706 42.1572 71.6702C41.8184 72.3699 41.4438 73.3387 41.319 73.8589C41.1942 74.3612 40.998 74.8636 40.9088 74.9712C40.784 75.0968 38.0731 75.1685 32.919 75.1685C28.068 75.1685 24.9827 75.0968 24.7687 74.9891C24.5725 74.8815 24.2871 74.6303 24.1445 74.4151C23.9305 74.0921 23.877 73.3745 23.877 70.8988Z" fill="#A79BA7"/>
<path d="M40.9981 78.4873C40.8911 77.7877 40.8554 76.7651 40.9268 76.209L41.0338 75.1685H42.621L42.6745 77.3571C42.7102 79.0255 42.8172 79.8328 43.1026 80.6401C43.2987 81.2322 43.5128 81.8601 43.5663 82.0215C43.6554 82.2906 43.5663 82.3444 42.9599 82.3444C42.407 82.3444 42.193 82.2547 41.9968 81.9318C41.872 81.7165 41.6223 81.1245 41.4618 80.6401C41.3191 80.1378 41.1051 79.187 40.9981 78.4873Z" fill="#8D828E"/>
<path d="M52.8041 78.2181C52.8933 78.2181 54.2487 76.9623 55.8181 75.4374C58.1722 73.1591 58.7965 72.6567 59.2066 72.6567C59.492 72.6567 59.8844 72.8182 60.0805 73.0155C60.2767 73.2129 60.4372 73.6076 60.4372 73.9125C60.4372 74.379 59.9557 74.9172 56.9952 77.7876C55.1226 79.6174 53.4105 81.1782 53.2143 81.25C53.0181 81.3217 52.6971 81.3576 52.5009 81.3217C52.3047 81.2858 51.2882 80.3888 50.2359 79.3304C48.8627 77.949 48.3098 77.2852 48.3098 76.9623C48.292 76.7112 48.4703 76.3165 48.6843 76.0833C48.9162 75.8321 49.2907 75.6348 49.5761 75.6348C49.9684 75.6168 50.3608 75.9039 51.3773 76.9085C52.0907 77.6261 52.7328 78.2181 52.8041 78.2181Z" fill="white"/>
</svg>
