<svg  viewBox="0 0 21 21" fill="none" xmlns="http://www.w3.org/2000/svg">
<g clip-path="url(#clip0_7083_33869)">
<path d="M19.1704 20.2505C18.7623 19.8511 18.3527 19.4532 17.9462 19.0511C17.5253 18.6345 17.1082 18.2143 16.6895 17.7962C16.3896 17.4963 16.3896 17.3908 16.6879 17.0867C16.7151 17.059 16.7406 17.0297 16.8019 16.9636C16.7177 16.8933 16.6282 16.83 16.5526 16.7533C16.4801 16.6803 16.4221 16.5929 16.3613 16.5162C14.3045 18.2036 11.6792 17.5879 10.4076 15.9926C9.06943 14.3138 9.19249 11.9515 10.6948 10.449C12.197 8.94639 14.5607 8.82335 16.2393 10.1613C17.8348 11.4327 18.4507 14.0576 16.7982 16.0709C16.9463 16.2153 17.0944 16.3591 17.2893 16.5482C17.3234 16.4971 17.3597 16.4172 17.4177 16.3596C17.6074 16.1721 17.7683 16.1727 17.9595 16.3596C18.252 16.6467 18.5396 16.9386 18.8294 17.2289C19.2759 17.6752 19.7228 18.1205 20.1676 18.5685C20.2811 18.683 20.3882 18.8044 20.4979 18.9227V19.1182C20.1202 19.4958 19.7425 19.8734 19.3654 20.2505H19.1698H19.1704ZM17.137 13.3817C17.1391 11.4599 15.5676 9.8817 13.6381 9.86732C11.7176 9.85294 10.1162 11.4471 10.1136 13.3769C10.1104 15.297 11.6872 16.879 13.6141 16.8896C15.5409 16.9003 17.1354 15.3125 17.1375 13.3817H17.137ZM19.2791 19.4436C19.4176 19.3094 19.5657 19.1672 19.6946 19.042C19.0186 18.3666 18.3479 17.696 17.6846 17.0329C17.552 17.166 17.4076 17.3104 17.2776 17.4409C17.9451 18.1088 18.6153 18.7799 19.2791 19.4441V19.4436Z" fill="white"/>
<path d="M9.49342 0.89822H1.15418V14.3372C1.22983 14.3372 1.3108 14.3372 1.39231 14.3372C3.75547 14.3372 6.11809 14.3372 8.48125 14.3372C8.56542 14.3372 8.65119 14.3372 8.73429 14.3494C8.9005 14.3739 8.98733 14.4858 8.99479 14.6435C9.00172 14.7931 8.9266 14.9108 8.77478 14.9503C8.68848 14.9726 8.59472 14.9742 8.50469 14.9742C6.13514 14.9753 3.76559 14.9753 1.39604 14.9753H1.14992V16.8896C1.23516 16.8896 1.31134 16.8896 1.38752 16.8896C4.28446 16.8896 7.18087 16.8896 10.0778 16.8896C10.1492 16.8896 10.2222 16.8859 10.292 16.896C10.4566 16.9205 10.5871 17.0691 10.569 17.2209C10.5498 17.386 10.4587 17.4968 10.2834 17.517C10.219 17.5245 10.1535 17.5229 10.0885 17.5229C7.05515 17.5229 4.0213 17.5229 0.987974 17.5229C0.583637 17.5229 0.5 17.4382 0.5 17.0291C0.500533 11.6016 0.500533 6.17293 0.500533 0.74482C0.500533 0.341614 0.588965 0.253196 0.993834 0.253196C3.89025 0.253196 6.78719 0.254261 9.68413 0.25C9.86792 0.25 10.0027 0.304329 10.1322 0.434293C11.3393 1.64817 12.5502 2.85833 13.7637 4.06581C13.8873 4.18885 13.9486 4.31562 13.9475 4.49405C13.9417 5.71113 13.9443 6.92821 13.9443 8.14528C13.9443 8.20387 13.947 8.26353 13.9363 8.32052C13.9065 8.48138 13.8074 8.57459 13.6433 8.58205C13.4697 8.5895 13.3589 8.49896 13.321 8.33117C13.3056 8.26246 13.3114 8.18896 13.3114 8.11705C13.3114 7.05604 13.3114 5.99503 13.3114 4.93455C13.3114 4.86477 13.3114 4.79499 13.3114 4.70445H13.0834C12.042 4.70445 11.0005 4.70445 9.95902 4.70445C9.59677 4.70445 9.49449 4.60271 9.49449 4.23892C9.49395 3.2104 9.49449 2.18241 9.49449 1.15389C9.49449 1.07665 9.49449 0.998888 9.49449 0.89822H9.49342ZM10.1476 4.04877H12.7441C11.8853 3.19069 11.0069 2.31184 10.1476 1.45323V4.04877Z" fill="white"/>
<path d="M2.41543 2.16827V2.41861C2.41543 6.01178 2.41543 9.60442 2.41543 13.1976C2.41543 13.2817 2.42129 13.3696 2.40051 13.4495C2.35789 13.6141 2.24336 13.7041 2.06969 13.6887C1.90668 13.6743 1.80972 13.5784 1.78841 13.4149C1.77989 13.3505 1.78149 13.2849 1.78149 13.22C1.78149 9.48404 1.78149 5.74759 1.78149 2.01167C1.78149 1.97918 1.78095 1.94669 1.78149 1.9142C1.78894 1.64415 1.89229 1.53656 2.16345 1.53496C2.78194 1.53177 3.40043 1.5339 4.01892 1.5339C5.45088 1.5339 6.88337 1.5339 8.31533 1.5339C8.36754 1.5339 8.41974 1.53283 8.47142 1.5339C8.7154 1.53976 8.85977 1.66013 8.85604 1.85348C8.85231 2.04576 8.70528 2.16667 8.46183 2.1672C6.53497 2.16827 4.60811 2.16774 2.68072 2.16774C2.60294 2.16774 2.52463 2.16774 2.41543 2.16774V2.16827Z" fill="white"/>
<path d="M4.80125 7.61497C4.80125 6.93213 4.80019 6.24928 4.80125 5.56644C4.80232 5.18348 5.0202 5.04925 5.36115 5.22396C6.70254 5.91106 8.04287 6.59976 9.38427 7.28686C9.5249 7.35877 9.64104 7.44665 9.63731 7.62242C9.63358 7.78807 9.52118 7.87223 9.38746 7.94041C8.04607 8.62698 6.70574 9.31621 5.36434 10.0022C5.02127 10.178 4.80285 10.0454 4.80179 9.66402C4.80019 8.98118 4.80179 8.29834 4.80179 7.6155L4.80125 7.61497ZM5.4581 5.99042V9.23632C6.51769 8.69302 7.5549 8.16092 8.62247 7.6139C7.55223 7.06475 6.51396 6.53211 5.4581 5.99042Z" fill="white"/>
<path d="M5.65859 16.2533C4.52709 16.2533 3.39506 16.2533 2.26355 16.2533C1.93327 16.2533 1.78357 16.1505 1.78517 15.929C1.7873 15.7095 1.93806 15.6094 2.26995 15.6094C4.52709 15.6094 6.78424 15.6094 9.04085 15.6094C9.36261 15.6094 9.52563 15.7202 9.5235 15.9354C9.52083 16.15 9.36315 16.2533 9.03446 16.2533C7.90935 16.2533 6.7837 16.2533 5.65859 16.2533Z" fill="white"/>
<path d="M12.671 7.06992C12.671 7.47259 12.6721 7.87527 12.6699 8.27847C12.6699 8.35571 12.6646 8.43454 12.6492 8.51017C12.6167 8.6657 12.5037 8.74347 12.3556 8.74666C12.2075 8.74986 12.0919 8.67635 12.0525 8.52242C12.0349 8.45424 12.0285 8.38181 12.0285 8.31096C12.0269 7.4662 12.0269 6.62197 12.0285 5.77721C12.0285 5.70051 12.0206 5.59824 12.0637 5.55244C12.1447 5.46615 12.2539 5.37347 12.3636 5.35483C12.4957 5.33246 12.6108 5.42727 12.6465 5.57161C12.6651 5.64618 12.6694 5.72554 12.6699 5.80278C12.6721 6.22516 12.671 6.64754 12.671 7.06939V7.06992Z" fill="white"/>
<path d="M10.7578 13.3738C10.7621 11.7892 12.0427 10.5103 13.626 10.5098C15.2071 10.5098 16.4915 11.7897 16.499 13.3727C16.5064 14.9504 15.1906 16.2638 13.6175 16.25C12.0294 16.2361 10.7541 14.953 10.7578 13.3738ZM15.856 13.3817C15.8581 12.145 14.8619 11.1473 13.6255 11.1473C12.3997 11.1473 11.4003 12.1407 11.3955 13.3642C11.3902 14.6026 12.3816 15.6028 13.6175 15.6071C14.8566 15.6114 15.8538 14.6196 15.856 13.3817Z" fill="white"/>
</g>
<defs>
<clipPath id="clip0_7083_33869">
<rect width="20" height="20" fill="white" transform="translate(0.5 0.25)"/>
</clipPath>
</defs>
</svg>
