<svg width="54" height="55" viewBox="0 0 54 55" fill="none" xmlns="http://www.w3.org/2000/svg">
<g id="fearture Icon ">
<circle id="Ellipse 265" cx="27" cy="27.3154" r="27" fill="#FF8B13"/>
<g id="Group">
<path id="Vector" d="M41 30.1149H29.8V41.3145H41V30.1149ZM19.3 13.3154L25.6 24.5151H13L19.3 13.3154ZM35.4 24.5151C36.8852 24.5151 38.3096 23.9251 39.3598 22.8749C40.41 21.8247 41 20.4004 41 18.9152C41 17.4301 40.41 16.0057 39.3598 14.9556C38.3096 13.9054 36.8852 13.3154 35.4 13.3154C33.9148 13.3154 32.4904 13.9054 31.4402 14.9556C30.39 16.0057 29.8 17.4301 29.8 18.9152C29.8 20.4004 30.39 21.8247 31.4402 22.8749C32.4904 23.9251 33.9148 24.5151 35.4 24.5151Z" stroke="white" stroke-width="2" stroke-linejoin="round"/>
<path id="Vector_2" d="M13 30.1152L24.2 41.3149M24.2 30.1152L13 41.3149" stroke="white" stroke-width="2" stroke-linecap="round" stroke-linejoin="round"/>
</g>
</g>
</svg>
