<svg width="54" height="54" viewBox="0 0 54 54" fill="none" xmlns="http://www.w3.org/2000/svg">
<g id="fearture Icon ">
<circle id="Ellipse 265" cx="27" cy="27" r="27" fill="#FF8B13"/>
<g id="Group">
<path id="Vector" d="M38 23.192C38 27.32 35.968 30.496 32.8768 32.5872C32.1568 33.0736 31.7968 33.3168 31.6192 33.5952C31.4432 33.8704 31.3808 34.2352 31.2608 34.9616L31.1648 35.5264C30.9536 36.8032 30.8464 37.4416 30.3984 37.8208C29.9504 38.2 29.304 38.2 28.0096 38.2H23.8304C22.536 38.2 21.8896 38.2 21.4416 37.8208C20.9936 37.4416 20.888 36.8032 20.6736 35.5264L20.5808 34.9616C20.4592 34.2368 20.4 33.8736 20.224 33.5984C20.048 33.3232 19.6864 33.0768 18.9648 32.584C15.9072 30.4928 14 27.3184 14 23.192C14 16.4608 19.3728 11 26 11C26.8062 10.9992 27.6104 11.0806 28.4 11.2432" stroke="white" stroke-width="2" stroke-linecap="round" stroke-linejoin="round"/>
<path id="Vector_2" d="M29.2 38.2V39.8C29.2 41.3088 29.2 42.0624 28.7312 42.5312C28.2624 43 27.5088 43 26 43C24.4912 43 23.7376 43 23.2688 42.5312C22.8 42.0624 22.8 41.3088 22.8 39.8V38.2M34 11L34.4128 12.1152C34.9536 13.5776 35.224 14.3088 35.7568 14.8416C36.2912 15.376 37.0224 15.6464 38.4848 16.1872L39.6 16.6L38.4848 17.0128C37.0224 17.5536 36.2912 17.824 35.7584 18.3568C35.224 18.8912 34.9536 19.6224 34.4128 21.0848L34 22.2L33.5872 21.0848C33.0464 19.6224 32.776 18.8912 32.2432 18.3584C31.7088 17.824 30.9776 17.5536 29.5152 17.0128L28.4 16.6L29.5152 16.1872C30.9776 15.6464 31.7088 15.376 32.2416 14.8432C32.776 14.3088 33.0464 13.5776 33.5872 12.1152L34 11Z" stroke="white" stroke-width="2" stroke-linecap="round" stroke-linejoin="round"/>
</g>
</g>
</svg>
