<svg width="32" height="32" viewBox="0 0 32 32" fill="none" xmlns="http://www.w3.org/2000/svg">
<rect x="0.5" y="0.5" width="31" height="31" rx="15.5" stroke="grey"/>
<path d="M21.4213 11.9927C21.5169 11.9005 21.5931 11.7902 21.6456 11.6682C21.698 11.5462 21.7257 11.415 21.7269 11.2823C21.7281 11.1495 21.7029 11.0178 21.6527 10.8949C21.6024 10.7719 21.5282 10.6603 21.4344 10.5663C21.3405 10.4724 21.2289 10.3981 21.1061 10.3477C20.9832 10.2974 20.8515 10.272 20.7187 10.2731C20.586 10.2742 20.4547 10.3017 20.3327 10.3541C20.2107 10.4064 20.1003 10.4826 20.008 10.578L16 14.5847L11.9933 10.578C11.9018 10.4798 11.7914 10.401 11.6687 10.3463C11.546 10.2917 11.4136 10.2623 11.2794 10.2599C11.1451 10.2576 11.0117 10.2823 10.8872 10.3325C10.7627 10.3828 10.6496 10.4577 10.5546 10.5527C10.4597 10.6476 10.3848 10.7607 10.3345 10.8852C10.2842 11.0098 10.2595 11.1431 10.2619 11.2774C10.2642 11.4117 10.2936 11.5441 10.3483 11.6668C10.4029 11.7894 10.4817 11.8998 10.58 11.9914L14.584 15.9994L10.5773 20.006C10.4007 20.1956 10.3045 20.4463 10.3091 20.7054C10.3137 20.9645 10.4186 21.2117 10.6018 21.3949C10.7851 21.5781 11.0322 21.683 11.2913 21.6876C11.5504 21.6922 11.8011 21.596 11.9907 21.4194L16 17.4127L20.0067 21.4207C20.1962 21.5973 20.447 21.6935 20.706 21.6889C20.9651 21.6844 21.2123 21.5794 21.3955 21.3962C21.5787 21.213 21.6837 20.9658 21.6882 20.7067C21.6928 20.4477 21.5966 20.1969 21.42 20.0074L17.416 15.9994L21.4213 11.9927Z" fill="#FF8B13"/>
</svg>
