<svg width="54" height="51" viewBox="0 0 54 51" fill="none" xmlns="http://www.w3.org/2000/svg">
<path d="M28.9325 1.06641C29.2866 1.06641 29.6142 1.25365 29.794 1.55869L37.1356 14.0164C37.2816 14.2641 37.5272 14.437 37.8096 14.4909L51.7304 17.1482C52.5022 17.2956 52.8104 18.2345 52.2761 18.8105L42.5398 29.3079C42.3395 29.5239 42.2446 29.8172 42.2804 30.1096L43.9765 43.9447C44.0496 44.5408 43.5845 45.0664 42.9839 45.0664H38.4505C38.2466 45.0664 38.0475 45.004 37.88 44.8877L29.5039 39.0689L20.3444 33.6401C20.2534 33.5862 20.1716 33.5182 20.1019 33.4386L16.7839 29.6485L6.73169 18.8105C6.19739 18.2345 6.50561 17.2956 7.27737 17.1482L21.0407 14.521C21.41 14.4505 21.7086 14.1788 21.8135 13.8178L25.3102 1.7873C25.4343 1.36019 25.8257 1.06641 26.2705 1.06641H28.9325Z" fill="#C2C2C2"/>
<path d="M24.7493 1.67619C25.1283 0.981251 26.1261 0.981251 26.5051 1.67619L33.2289 14.0051C33.3728 14.2688 33.6275 14.4539 33.9228 14.5092L47.726 17.0941C48.5041 17.2398 48.8124 18.1888 48.2686 18.764L38.6209 28.9685C38.4145 29.1868 38.3172 29.4863 38.3559 29.7842L40.163 43.7107C40.2648 44.4956 39.4575 45.0822 38.7425 44.7427L26.056 38.7206C25.7847 38.5918 25.4698 38.5918 25.1984 38.7206L12.512 44.7427C11.7969 45.0822 10.9896 44.4956 11.0915 43.7107L12.8985 29.7842C12.9372 29.4863 12.8399 29.1868 12.6335 28.9685L2.9858 18.764C2.44199 18.1888 2.75035 17.2398 3.52839 17.0941L17.3316 14.5092C17.6269 14.4539 17.8817 14.2688 18.0255 14.0051L24.7493 1.67619Z" fill="#DEDEDE"/>
</svg>
