<svg  viewBox="0 0 41 19" fill="white" xmlns="http://www.w3.org/2000/svg">
<g clip-path="url(#clip0_7546_22930)">
<path d="M30.8472 10.2561C31.0353 10.19 31.2208 10.1212 31.4034 10.0554L31.5616 9.26643C31.3871 9.65654 31.1446 9.98953 30.8474 10.2563L30.8472 10.2561ZM37.5618 6.65234L37.4991 6.66389L37.281 6.70399C36.7358 6.85023 35.6207 7.15446 34.2087 7.5389L34.195 7.60209L33.8952 9.09406C36.2206 8.13297 37.7691 7.28369 37.6927 6.87049C37.679 6.79311 37.6354 6.71837 37.5618 6.65234ZM32.2185 8.08395L32.2075 8.14127L31.8559 9.88866C32.4094 9.68489 32.941 9.48133 33.4398 9.28041L33.7533 7.72241L33.767 7.65921C33.2762 7.79411 32.7583 7.93468 32.2185 8.08375V8.08395ZM26.4744 9.70798C26.3436 9.74525 26.2127 9.77969 26.0845 9.81696C25.7219 10.5429 24.8332 11.0047 23.68 11.0047C23.2492 11.0047 22.8566 10.9443 22.5131 10.8269H22.5104C22.5021 10.8269 22.4967 10.824 22.4887 10.8212H22.486C21.6409 11.0707 20.9758 11.2773 20.5776 11.4179C20.5448 11.4294 20.5148 11.4379 20.4877 11.4495C20.4332 11.4667 20.3841 11.4839 20.3432 11.5011C20.3351 11.504 20.3295 11.5068 20.3214 11.5096C20.3104 11.5125 20.2997 11.5184 20.2887 11.524C20.2777 11.5269 20.2696 11.5297 20.2614 11.5356C20.2423 11.5412 20.2286 11.55 20.215 11.5556C20.185 11.57 20.1713 11.5814 20.1686 11.5901C20.1659 11.5872 20.1605 11.5844 20.1495 11.5814C20.1386 11.5785 20.1222 11.5785 20.1005 11.5757C19.2417 11.504 10.5589 12.2643 5.54538 12.7148C5.41451 12.7264 5.28633 12.7377 5.16104 12.7492C4.305 12.8266 3.57443 12.8926 3.03459 12.9415L2.18682 13.0964L2.12678 13.108C2.0804 13.194 2.06404 13.2801 2.0804 13.3575C2.1568 13.7851 3.43259 14.0462 5.35446 14.158C5.47436 14.1665 5.59715 14.1723 5.72244 14.178H5.72513C9.64547 14.3617 15.9211 13.9801 20.4328 13.1566C22.9109 12.7061 25.8744 11.9 28.6386 11.0047C27.6272 10.9587 26.8447 10.4681 26.474 9.70778L26.4744 9.70798Z" fill="#743B19"/>
<path d="M5.63907 12.3225C5.8144 13.763 5.61213 15.3487 5.00243 16.6604C4.70816 17.3009 4.29554 17.8994 3.80881 18.3975C3.71239 18.4897 3.56382 18.6397 3.46066 18.7232L3.4597 18.724C3.36385 18.8058 3.22144 18.7799 3.15716 18.6691L2.48702 17.5148C2.42409 17.4064 2.46374 17.264 2.57286 17.2093C2.60866 17.1913 2.64291 17.1733 2.67236 17.1557L2.82228 17.071C2.89214 17.0281 2.97086 16.9744 3.04091 16.9298C3.6664 16.497 4.17333 15.896 4.55227 15.2142C4.77745 14.8102 4.9597 14.381 5.10558 13.936C5.25455 13.4758 5.37156 12.9943 5.43488 12.5096C5.44835 12.4063 5.52918 12.3275 5.6281 12.3229L5.63907 12.3223V12.3225Z" fill="#743B19"/>
<path d="M4.63881 11.6992C5.44039 12.6299 6.07646 13.7689 6.36148 14.9977C6.50467 15.6248 6.5449 16.2829 6.45348 16.9237C6.4044 17.2766 6.31587 17.6209 6.19289 17.9539C6.14805 18.075 6.01102 18.1253 5.90325 18.0617L4.98908 17.5207C4.88669 17.4601 4.85359 17.3209 4.91768 17.2174C5.35782 16.5053 5.50486 15.6274 5.42441 14.7577C5.40247 14.5059 5.36398 14.2548 5.31164 14.0064C5.20482 13.4993 5.04143 13.001 4.83838 12.5236C4.75909 12.3387 4.67345 12.1537 4.57972 11.9753C4.53161 11.8835 4.5547 11.7685 4.63303 11.7039L4.63881 11.6992Z" fill="#FF8B13"/>
<path d="M22.5137 10.8284C21.6576 11.078 20.9815 11.2846 20.5808 11.4195C20.5481 11.431 20.5181 11.4395 20.4908 11.451C20.4361 11.4683 20.387 11.4855 20.3462 11.5027C20.3381 11.5055 20.3326 11.5084 20.3245 11.5114C20.3135 11.5142 20.3027 11.5199 20.2918 11.5258C20.2808 11.5286 20.2725 11.5315 20.2644 11.5373C20.2454 11.543 20.2317 11.5517 20.218 11.5574C20.188 11.5718 20.1744 11.5833 20.1717 11.5918C20.1688 11.589 20.1634 11.5861 20.1524 11.5833C20.1415 11.5805 20.1251 11.5805 20.1033 11.5776C19.2446 11.5144 10.5535 12.3064 5.54556 12.7769C5.42547 12.7885 5.30826 12.797 5.19394 12.8085C4.32962 12.8889 3.59367 12.9606 3.04844 13.0123L2.14062 13.1788C2.15698 13.1529 2.17065 13.1243 2.1897 13.0984C2.19163 13.0965 2.19349 13.0946 2.19528 13.0927C2.19798 13.0899 2.20337 13.084 2.20625 13.0783C2.21703 13.0668 2.22531 13.0554 2.23628 13.0439V13.0411L2.73512 12.6307L5.75034 10.321C6.22455 10.76 6.93606 11.0069 7.80846 11.0069C9.32694 11.0069 10.3874 10.2036 10.3874 9.05288C10.3874 9.02128 10.3874 8.98968 10.3847 8.96112C10.529 10.1863 11.535 11.0125 12.9309 11.0125C14.1686 11.0125 15.1745 10.3727 15.679 9.29391L15.3572 10.8863H17.6717L18.2987 7.77622C18.4213 7.6873 18.5714 7.63281 18.7157 7.63281C18.8358 7.63281 18.9284 7.66157 18.9638 7.70735C18.9992 7.75049 19.0046 7.85075 18.9829 7.9656L18.3886 10.8863H20.703L21.0275 9.28257C21.1965 10.0229 21.72 10.5623 22.4888 10.8234H22.4915C22.4996 10.8262 22.5052 10.829 22.5133 10.829L22.5137 10.8284Z" fill="#FF8B13"/>
<path d="M37.5547 6.70491C37.552 6.70208 37.5493 6.69924 37.5438 6.69641C37.5301 6.68486 37.5137 6.67352 37.5001 6.66481C37.481 6.65327 37.462 6.64192 37.4429 6.63038L37.4402 6.62754L36.8322 6.42094L29.3844 4.16294L26.2683 3.21906L18.2069 0.777344L11.5741 5.85867L10.3281 6.81409C10.4563 7.02352 10.5462 7.25888 10.5899 7.51693C11.0479 6.40089 12.1247 5.6865 13.4332 5.6865C14.8672 5.6865 15.8868 6.55017 15.9794 7.80394L16.383 5.81269H18.6867L18.6786 5.84712C18.9213 5.76104 19.1802 5.71506 19.4446 5.71506C20.0716 5.71506 20.6059 5.96177 20.9521 6.4094C21.143 6.65894 21.2602 6.95162 21.3037 7.27023C21.4891 6.32635 22.4486 5.69217 23.76 5.69217C25.2512 5.69217 26.2708 6.38934 26.4644 7.51977C26.9198 6.40089 27.9993 5.6863 29.3078 5.6863C30.7472 5.6863 31.7722 6.55564 31.854 7.82095L32.2574 5.81249H34.5555L34.2093 7.53962L34.1956 7.60281C35.6213 7.22121 36.7474 6.92002 37.2953 6.77358L37.5761 6.72193C37.5678 6.71626 37.5624 6.71038 37.5543 6.70471L37.5547 6.70491Z" fill="#FF8B13"/>
<path d="M9.98039 9.05055C9.98039 10.0605 8.9036 10.5741 7.80775 10.5741C7.11799 10.5741 6.51002 10.4019 6.09027 10.0548C5.80082 9.81577 5.60182 9.49068 5.52965 9.08336C5.51329 8.991 5.58642 8.90714 5.67572 8.90714H6.74212C6.81083 8.90714 6.86433 8.96082 6.8803 9.03131C6.90706 9.1504 6.95767 9.25431 7.02522 9.34039C7.20248 9.56988 7.50771 9.68473 7.83489 9.68473C8.22192 9.68473 8.56545 9.5557 8.56545 9.28307C8.56545 9.0392 8.17842 8.93874 7.69324 8.82977C7.67149 8.8241 7.64955 8.82126 7.62781 8.81539C6.83181 8.64889 5.80678 8.44533 5.80678 7.60739C5.80678 6.62037 6.80987 6.12109 7.88685 6.12109C8.81661 6.12109 9.62338 6.42816 9.99694 7.06497C10.0835 7.20797 10.1467 7.3692 10.183 7.54825C10.2019 7.64142 10.1278 7.72771 10.0372 7.72771H8.97981C8.91399 7.72771 8.86049 7.6799 8.83893 7.61448C8.70902 7.21809 8.33797 7.0277 7.87069 7.0277C7.52715 7.0277 7.21094 7.15672 7.21094 7.38925C7.21094 7.6475 7.67707 7.74492 8.2223 7.85693C8.40764 7.89704 8.60125 7.93734 8.78928 7.98899C9.41072 8.15549 9.98058 8.42508 9.98058 9.05055H9.98039Z" fill="white"/>
<path d="M8.78889 7.99095C8.60086 7.9393 8.40725 7.89919 8.22192 7.85888C7.67669 7.74708 7.21056 7.64945 7.21056 7.3912C7.21056 7.15888 7.52677 7.02965 7.8703 7.02965C8.33758 7.02965 8.70864 7.22005 8.83874 7.61643C8.8603 7.68186 8.9138 7.72966 8.97962 7.72966H10.037C10.1276 7.72966 10.2017 7.64337 10.1829 7.5502C10.1465 7.37115 10.0834 7.20992 9.99694 7.06692C9.62338 6.42991 8.81661 6.12305 7.88685 6.12305C6.81006 6.12305 5.80678 6.62233 5.80678 7.60934C5.80678 8.44708 6.83181 8.65085 7.62781 8.81734C7.64955 8.82301 7.67149 8.82585 7.69324 8.83172C8.17842 8.94069 8.56564 9.04116 8.56564 9.28503C8.56564 9.55766 8.22211 9.68668 7.83508 9.68668C7.50791 9.68668 7.20267 9.57183 7.02542 9.34235C6.95786 9.25626 6.90725 9.15256 6.8805 9.03326C6.86472 8.96277 6.81121 8.9091 6.74231 8.9091H5.67572C5.58642 8.9091 5.51329 8.99295 5.52965 9.08531C5.60182 9.49264 5.80101 9.81773 6.09027 10.0567C6.51002 10.4039 7.11799 10.5761 7.80775 10.5761C8.9036 10.5761 9.98058 10.0624 9.98058 9.0525C9.98058 8.42703 9.41091 8.15724 8.78928 7.99095H8.78889Z" fill="white"/>
<path d="M15.4009 8.53035C15.4721 8.53035 15.5343 8.47667 15.546 8.40274C15.5682 8.2642 15.5811 8.13376 15.5811 7.98792C15.5811 6.84879 14.6977 6.11719 13.4382 6.11719C12.1107 6.11719 11.0637 6.92333 10.821 8.19169C10.791 8.34947 10.7773 8.50726 10.7773 8.65066C10.7773 9.80701 11.6388 10.5816 12.9338 10.5816C14.0068 10.5816 14.8732 10.0549 15.3147 9.10498C15.3634 9.00026 15.2941 8.87731 15.1832 8.87731H14.108C14.0531 8.87731 14.0043 8.91195 13.9787 8.96279C13.7616 9.3934 13.4315 9.58603 13.0293 9.58603C12.4977 9.58603 12.1759 9.27046 12.1759 8.69664C12.1759 8.64499 12.1759 8.58483 12.1813 8.53014H15.4007L15.4009 8.53035ZM13.3647 7.08152C13.7731 7.08152 14.1045 7.29561 14.2025 7.64258C14.2298 7.7394 14.1544 7.83621 14.0583 7.83621H12.6138C12.496 7.83621 12.4236 7.69504 12.4898 7.59275C12.7113 7.25085 13.0277 7.08152 13.3645 7.08152H13.3647Z" fill="white"/>
<path d="M15.4009 8.53035C15.4721 8.53035 15.5343 8.47667 15.546 8.40274C15.5682 8.2642 15.5811 8.13376 15.5811 7.98792C15.5811 6.84879 14.6977 6.11719 13.4382 6.11719C12.1107 6.11719 11.0637 6.92333 10.821 8.19169C10.791 8.34947 10.7773 8.50726 10.7773 8.65066C10.7773 9.80701 11.6388 10.5816 12.9338 10.5816C14.0068 10.5816 14.8732 10.0549 15.3147 9.10498C15.3634 9.00026 15.2941 8.87731 15.1832 8.87731H14.108C14.0531 8.87731 14.0043 8.91195 13.9787 8.96279C13.7616 9.3934 13.4315 9.58603 13.0293 9.58603C12.4977 9.58603 12.1759 9.27046 12.1759 8.69664C12.1759 8.64499 12.1759 8.58483 12.1813 8.53014H15.4007L15.4009 8.53035ZM13.3647 7.08152C13.7731 7.08152 14.1045 7.29561 14.2025 7.64258C14.2298 7.7394 14.1544 7.83621 14.0583 7.83621H12.6138C12.496 7.83621 12.4236 7.69504 12.4898 7.59275C12.7113 7.25085 13.0277 7.08152 13.3645 7.08152H13.3647Z" fill="white"/>
<path d="M20.8841 7.92635L20.4016 10.331C20.3871 10.4027 20.3271 10.4541 20.2574 10.4541H19.0817C18.9878 10.4541 18.9179 10.3632 18.9376 10.2666L19.3873 8.05557C19.4855 7.5334 19.2347 7.20062 18.7193 7.20062C18.437 7.20062 18.1643 7.32275 17.9674 7.50707C17.9435 7.52935 17.9279 7.55994 17.9214 7.59275L17.3675 10.3314C17.3531 10.4031 17.2928 10.4541 17.2234 10.4541H16.0498C15.956 10.4541 15.8862 10.3632 15.9056 10.2668L16.6935 6.36511C16.708 6.2934 16.7682 6.24216 16.8377 6.24216H18.0088C18.1025 6.24216 18.1724 6.3329 18.1529 6.42931L18.095 6.71835C18.4605 6.3568 18.9266 6.14453 19.4499 6.14453C20.4693 6.14453 21.0856 6.93062 20.8839 7.92635H20.8841Z" fill="white"/>
<path d="M19.4499 6.14473C18.9264 6.14473 18.4603 6.357 18.095 6.71855L18.1529 6.42931C18.1722 6.3329 18.1023 6.24216 18.0088 6.24216H16.8377C16.768 6.24216 16.708 6.2934 16.6935 6.36511L15.9056 10.2668C15.8862 10.3632 15.956 10.4541 16.0498 10.4541H17.2234C17.293 10.4541 17.3531 10.4029 17.3675 10.3314L17.9212 7.59275C17.9279 7.55994 17.9433 7.52935 17.9672 7.50707C18.1643 7.32275 18.437 7.20062 18.7193 7.20062C19.2345 7.20062 19.4853 7.5334 19.3871 8.05557L18.9374 10.2666C18.9177 10.3632 18.9876 10.4541 19.0815 10.4541H20.2572C20.3269 10.4541 20.3871 10.4029 20.4014 10.331L20.8839 7.92635C21.0856 6.93082 20.4695 6.14453 19.4499 6.14453V6.14473Z" fill="white"/>
<path d="M25.8519 9.05075C25.8519 9.4208 25.7073 9.72503 25.47 9.96019C25.4564 9.97457 25.4429 9.98612 25.4292 10.0003C25.0149 10.3819 24.3524 10.5741 23.679 10.5741C23.5919 10.5741 23.5045 10.5713 23.42 10.5654C23.4036 10.5654 23.39 10.5626 23.3736 10.5597H23.3709C22.3526 10.4815 21.5614 9.99179 21.4007 9.08376C21.3844 8.9912 21.4577 8.90714 21.5472 8.90714H22.6132C22.6821 8.90714 22.736 8.96082 22.7518 9.03151C22.8497 9.46759 23.2541 9.68473 23.7089 9.68473C24.0959 9.68473 24.4396 9.5557 24.4396 9.28307C24.4396 9.02766 24.017 8.93023 23.4991 8.81539C22.7031 8.64889 21.6779 8.44533 21.6779 7.60739C21.6779 6.62037 22.684 6.12109 23.7581 6.12109C24.8932 6.12109 25.8461 6.58027 26.0503 7.53184C26.0716 7.63129 26.0041 7.72771 25.9071 7.72771H24.8511C24.7853 7.72771 24.7318 7.6799 24.7102 7.61448C24.5801 7.21809 24.2093 7.0277 23.7445 7.0277C23.3984 7.0277 23.0847 7.15672 23.0847 7.38925C23.0847 7.6475 23.5509 7.74492 24.0961 7.85693C24.884 8.02343 25.8519 8.2357 25.8519 9.05055V9.05075Z" fill="white"/>
<path d="M29.3093 6.11719C27.9818 6.11719 26.9348 6.92333 26.6921 8.19169C26.6648 8.34947 26.6484 8.50726 26.6484 8.65066C26.6484 8.99499 26.7248 9.30489 26.8665 9.56881C26.8692 9.58036 26.8748 9.58886 26.8802 9.59757C27.2181 10.2087 27.9079 10.5818 28.8076 10.5818C29.8782 10.5818 30.7466 10.0551 31.1862 9.10497C31.2347 9.00026 31.1654 8.87751 31.0547 8.87751H29.9789C29.924 8.87751 29.8752 8.91215 29.8496 8.96319C29.6329 9.39361 29.3051 9.58623 28.9002 9.58623C28.573 9.58623 28.3249 9.46571 28.1804 9.23906C28.175 9.23055 28.1694 9.21901 28.1613 9.20746C28.0878 9.07257 28.0468 8.9004 28.0468 8.69684C28.0468 8.64519 28.0468 8.58503 28.0551 8.53035H31.3946C31.4056 8.46999 31.4164 8.41267 31.4246 8.35534C31.4273 8.33813 31.43 8.32091 31.43 8.30369C31.4437 8.2004 31.4518 8.0971 31.4518 7.98812C31.4518 6.84899 30.5713 6.11739 29.309 6.11739L29.3093 6.11719ZM28.4852 7.83581C28.3675 7.83581 28.2949 7.69443 28.3615 7.59214C28.5836 7.25044 28.9019 7.08111 29.2385 7.08111C29.6467 7.08111 29.976 7.295 30.0753 7.64156C30.103 7.73859 30.0276 7.83561 29.9314 7.83561H28.4852V7.83581Z" fill="white"/>
<path d="M29.3093 6.11719C27.9818 6.11719 26.9348 6.92333 26.6921 8.19169C26.6648 8.34947 26.6484 8.50726 26.6484 8.65066C26.6484 8.99499 26.7248 9.30489 26.8665 9.56881C26.8692 9.58036 26.8748 9.58886 26.8802 9.59757C27.2181 10.2087 27.9079 10.5818 28.8076 10.5818C29.8782 10.5818 30.7466 10.0551 31.1862 9.10497C31.2347 9.00026 31.1654 8.87751 31.0547 8.87751H29.9789C29.924 8.87751 29.8752 8.91215 29.8496 8.96319C29.6329 9.39361 29.3051 9.58623 28.9002 9.58623C28.573 9.58623 28.3249 9.46571 28.1804 9.23906C28.175 9.23055 28.1694 9.21901 28.1613 9.20746C28.0878 9.07257 28.0468 8.9004 28.0468 8.69684C28.0468 8.64519 28.0468 8.58503 28.0551 8.53035H31.3946C31.4056 8.46999 31.4164 8.41267 31.4246 8.35534C31.4273 8.33813 31.43 8.32091 31.43 8.30369C31.4437 8.2004 31.4518 8.0971 31.4518 7.98812C31.4518 6.84899 30.5713 6.11739 29.309 6.11739L29.3093 6.11719ZM28.4852 7.83581C28.3675 7.83581 28.2949 7.69443 28.3615 7.59214C28.5836 7.25044 28.9019 7.08111 29.2385 7.08111C29.6467 7.08111 29.976 7.295 30.0753 7.64156C30.103 7.73859 30.0276 7.83561 29.9314 7.83561H28.4852V7.83581Z" fill="white"/>
<path d="M33.8702 6.24414C33.9637 6.24414 34.0337 6.33488 34.0143 6.43129L33.7682 7.66157L33.7545 7.72477L33.441 9.28277L33.2312 10.333C33.2168 10.4047 33.1567 10.4561 33.0871 10.4561H31.9248C31.8311 10.4561 31.761 10.3652 31.7807 10.2686L31.8573 9.89082L32.2089 8.14343L32.2198 8.08611L32.5659 6.36709C32.5803 6.29539 32.6404 6.24414 32.71 6.24414H33.8702Z" fill="white"/>
<path d="M33.8702 6.24414C33.9637 6.24414 34.0337 6.33488 34.0143 6.43129L33.7682 7.66157L33.7545 7.72477L33.441 9.28277L33.2312 10.333C33.2168 10.4047 33.1567 10.4561 33.0871 10.4561H31.9248C31.8311 10.4561 31.761 10.3652 31.7807 10.2686L31.8573 9.89082L32.2089 8.14343L32.2198 8.08611L32.5659 6.36709C32.5803 6.29539 32.6404 6.24414 32.71 6.24414H33.8702Z" fill="white"/>
</g>
<defs>
<clipPath id="clip0_7546_22930">
<rect width="39.2622" height="17.9952" fill="white" transform="translate(0.808594 0.777344)"/>
</clipPath>
</defs>
</svg>
