<svg width="1695" height="1012" viewBox="0 0 1695 1012" fill="none" xmlns="http://www.w3.org/2000/svg">
<g clip-path="url(#clip0_567_562)">
<rect width="1695" height="1012" rx="60" fill="#2C3D68"/>
<g opacity="0.08">
<path opacity="0.3" d="M584.961 223.01C786.567 68.5672 903.526 291.218 902.736 486.366C907.015 598.309 1042.57 618.119 1047.79 756.828C1053 895.536 856.534 806.208 860.734 1019.98C864.934 1233.75 511.981 1271.35 442.862 1110.99C373.743 950.632 338.517 1016.63 151.302 904.048C-35.9135 791.465 22.9093 450.399 228.94 445.938C434.971 441.477 366.719 390.196 584.961 223.01Z" stroke="#9FC5EF" stroke-width="3"/>
<path d="M549.26 642.78C567.951 626.809 616.515 646.548 612.644 679.784C609.099 710.219 628.557 731.879 629.265 751.104C631.129 801.715 616.094 788.904 605.082 816.321C591.681 849.684 535.788 885.629 513.455 830.428C495.088 785.029 478.533 807.534 455.009 777.49C431.485 747.447 432.519 702.165 476.304 684.451C492.747 677.799 518.128 669.38 549.26 642.78Z" stroke="#9FC5EF" stroke-width="3"/>
<path opacity="0.35" d="M582.814 260.72C767.792 118.866 878.533 323.071 877.463 503.499C881.031 608.032 1006.03 628.011 1010.84 755.857C1015.75 886.556 835.775 804.185 838.592 1001.01C841.192 1198.39 515.244 1235.84 450.379 1085.04C385.874 935.127 352.345 997.171 180.011 892.092C7.67653 787.013 61.2457 472.837 252.527 467.171C441.323 462.51 381.583 415.126 582.814 260.72Z" stroke="#9FC5EF" stroke-width="3"/>
<path opacity="0.4" d="M580.668 298.425C749.017 169.159 853.54 354.917 852.19 520.627C855.046 617.75 969.491 637.897 973.889 754.881C978.498 877.571 815.016 802.156 816.45 982.045C817.45 1163.01 518.508 1200.32 457.896 1059.08C398.004 919.616 366.173 977.707 208.72 880.131C51.2665 782.555 99.582 495.269 276.114 488.398C447.674 483.538 396.446 440.05 580.668 298.425Z" stroke="#9FC5EF" stroke-width="3"/>
<path opacity="0.45" d="M578.525 336.142C730.245 219.464 828.551 386.775 826.921 537.766C829.066 627.479 932.956 647.794 936.945 753.916C941.249 868.597 794.261 800.138 794.312 963.085C793.711 1127.65 521.775 1164.81 465.416 1033.12C410.138 904.117 380.005 958.253 237.433 868.181C94.8603 778.109 137.922 517.712 299.704 509.636C454.029 504.577 411.314 464.986 578.525 336.142Z" stroke="#9FC5EF" stroke-width="3"/>
<path opacity="0.5" d="M576.377 373.848C711.468 269.759 803.556 418.623 801.646 554.894C803.08 637.198 896.416 657.681 899.994 752.94C903.993 859.613 773.5 798.11 772.168 944.116C769.967 1092.28 525.036 1129.29 472.931 1007.16C422.267 888.607 393.83 938.79 266.139 856.221C138.448 773.653 176.256 540.145 323.289 530.864C460.379 525.606 426.175 489.912 576.377 373.848Z" stroke="#9FC5EF" stroke-width="3"/>
<path opacity="0.55" d="M573.471 411.872C691.934 320.371 777.804 450.789 775.614 572.341C776.336 647.234 859.118 667.886 862.287 752.283C865.98 850.947 751.981 796.4 749.266 925.465C745.465 1057.23 527.54 1094.08 479.688 981.521C433.638 873.415 406.899 919.644 294.088 844.579C181.278 769.514 213.833 562.896 346.116 552.41C465.97 546.953 440.279 515.155 573.471 411.872Z" stroke="#9FC5EF" stroke-width="3"/>
<path opacity="0.6" d="M569.66 450.248C671.494 371.335 751.147 483.307 748.676 590.139C748.687 657.623 820.916 678.443 823.674 751.978C827.063 842.633 729.557 795.042 725.459 907.166C720.059 1022.53 529.139 1059.23 485.54 956.231C444.103 858.576 419.062 900.85 321.133 833.289C223.204 765.728 250.505 585.999 368.038 574.309C470.657 568.652 453.478 540.751 569.66 450.248Z" stroke="#9FC5EF" stroke-width="3"/>
<path opacity="0.65" d="M565.822 488.651C651.028 422.327 724.463 515.852 721.712 607.965C721.012 668.039 782.686 689.027 785.035 751.7C788.118 834.346 707.107 793.711 701.626 888.893C694.626 987.859 530.711 1024.41 491.365 930.967C454.543 843.763 431.199 882.084 348.151 822.026C265.102 761.968 287.15 609.129 389.934 596.234C475.318 590.378 466.651 566.373 565.822 488.651Z" stroke="#9FC5EF" stroke-width="3"/>
<path opacity="0.7" d="M561.895 527.082C630.472 473.346 697.689 548.424 694.658 625.818C693.247 678.482 744.367 699.638 746.305 751.449C749.084 826.087 684.567 792.408 677.703 870.648C669.103 953.214 532.193 989.611 497.101 905.731C464.892 828.978 443.245 863.344 375.078 810.79C306.911 758.236 323.705 632.286 411.739 618.186C479.888 612.131 479.733 592.023 561.895 527.082Z" stroke="#9FC5EF" stroke-width="3"/>
<path opacity="0.8" d="M557.872 565.564C609.82 524.416 670.82 581.048 667.509 643.723C665.386 688.977 705.953 710.301 707.481 751.25C709.954 817.879 661.931 791.156 653.685 852.455C643.484 918.62 533.58 954.867 502.741 880.546C475.146 814.244 455.197 844.657 401.911 799.607C348.625 754.556 360.165 655.495 433.45 640.191C484.363 633.937 492.72 617.725 557.872 565.564Z" stroke="#9FC5EF" stroke-width="3"/>
<path d="M553.69 604.112C589.01 575.553 643.792 613.738 640.201 661.693C637.367 699.538 667.379 721.03 668.497 751.117C670.666 809.737 639.137 789.97 629.508 834.328C617.707 884.092 534.809 920.188 508.223 855.427C485.242 799.576 466.99 826.035 428.585 788.488C390.179 750.942 396.466 678.77 455.001 662.261C488.679 655.808 505.549 643.493 553.69 604.112Z" stroke="#9FC5EF" stroke-width="3"/>
</g>
<g opacity="0.08">
<path opacity="0.3" d="M1400.01 -307.92C1610.75 -469.357 1733.01 -236.623 1732.18 -32.6371C1736.65 84.3748 1878.34 105.083 1883.8 250.072C1889.25 395.062 1683.89 301.689 1688.28 525.142C1692.67 748.594 1323.73 787.901 1251.48 620.277C1179.23 452.654 1142.41 521.641 946.717 403.96C751.023 286.278 812.51 -70.2327 1027.87 -74.8961C1243.23 -79.5595 1171.89 -133.163 1400.01 -307.92Z" stroke="#9FC5EF" stroke-width="3"/>
<path d="M1362.7 130.859C1382.24 114.165 1433 134.797 1428.95 169.539C1425.25 201.352 1445.59 223.993 1446.33 244.088C1448.27 296.991 1432.56 283.6 1421.05 312.259C1407.04 347.132 1348.62 384.706 1325.27 327.005C1306.07 279.549 1288.77 303.073 1264.18 271.67C1239.59 240.266 1240.67 192.933 1286.44 174.417C1303.62 167.463 1330.16 158.664 1362.7 130.859Z" stroke="#9FC5EF" stroke-width="3"/>
<path opacity="0.35" d="M1397.77 -268.502C1591.13 -416.78 1706.88 -203.328 1705.76 -14.7284C1709.49 94.5382 1840.15 115.422 1845.18 249.057C1850.31 385.676 1662.19 299.574 1665.13 505.318C1667.85 711.627 1327.14 750.776 1259.34 593.145C1191.91 436.446 1156.87 501.3 976.726 391.462C796.588 281.625 852.583 -46.7795 1052.53 -52.7022C1249.87 -57.5738 1187.43 -107.104 1397.77 -268.502Z" stroke="#9FC5EF" stroke-width="3"/>
<path opacity="0.4" d="M1395.53 -229.09C1571.5 -364.209 1680.76 -170.039 1679.35 3.17488C1682.33 104.696 1801.96 125.755 1806.56 248.037C1811.37 376.284 1640.49 297.453 1641.99 485.489C1643.03 674.654 1330.55 713.645 1267.2 566.008C1204.59 420.233 1171.32 480.954 1006.74 378.96C842.152 276.965 892.655 -23.3317 1077.18 -30.5138C1256.51 -35.5936 1202.96 -81.0506 1395.53 -229.09Z" stroke="#9FC5EF" stroke-width="3"/>
<path opacity="0.45" d="M1393.29 -189.666C1551.88 -311.627 1654.64 -136.739 1652.93 21.0894C1655.17 114.865 1763.77 136.1 1767.94 247.028C1772.44 366.903 1618.79 295.344 1618.85 465.67C1618.22 637.692 1333.97 676.526 1275.06 538.882C1217.28 404.031 1185.78 460.619 1036.75 366.468C887.719 272.317 932.732 0.12737 1101.84 -8.31413C1263.15 -13.6021 1218.5 -54.986 1393.29 -189.666Z" stroke="#9FC5EF" stroke-width="3"/>
<path opacity="0.5" d="M1391.04 -150.252C1532.25 -259.055 1628.51 -103.448 1626.51 38.9939C1628.01 125.025 1725.57 146.435 1729.32 246.009C1733.5 357.512 1597.09 293.224 1595.7 445.842C1593.4 600.721 1337.38 639.397 1282.91 511.745C1229.95 387.819 1200.23 440.274 1066.76 353.967C933.281 267.659 972.802 23.5765 1126.49 13.8756C1269.79 8.37946 1234.04 -28.9315 1391.04 -150.252Z" stroke="#9FC5EF" stroke-width="3"/>
<path opacity="0.55" d="M1388 -110.505C1511.83 -206.15 1601.59 -69.8255 1599.3 57.2309C1600.06 135.516 1686.59 157.103 1689.9 245.322C1693.76 348.454 1574.6 291.437 1571.76 426.347C1567.79 564.082 1339.99 602.6 1289.97 484.942C1241.84 371.94 1213.89 420.262 1095.97 341.798C978.051 263.334 1012.08 47.3582 1150.35 36.3979C1275.64 30.6935 1248.78 -2.54433 1388 -110.505Z" stroke="#9FC5EF" stroke-width="3"/>
<path opacity="0.6" d="M1384.02 -70.391C1490.47 -152.877 1573.73 -35.8349 1571.14 75.8357C1571.16 146.376 1646.66 168.138 1649.54 245.003C1653.08 339.764 1551.16 290.018 1546.88 407.219C1541.23 527.81 1341.67 566.171 1296.09 458.506C1252.78 356.428 1226.6 400.617 1124.24 329.997C1021.87 259.376 1050.41 71.5075 1173.27 59.2878C1280.54 53.3753 1262.58 24.2105 1384.02 -70.391Z" stroke="#9FC5EF" stroke-width="3"/>
<path opacity="0.65" d="M1380.01 -30.2499C1469.07 -99.5776 1545.83 -1.81737 1542.96 94.4674C1542.23 157.262 1606.69 179.2 1609.15 244.711C1612.37 331.101 1527.69 288.625 1521.96 388.118C1514.65 491.566 1343.31 529.769 1302.18 432.097C1263.69 340.944 1239.29 381 1152.48 318.222C1065.67 255.445 1088.72 95.6838 1196.16 82.2047C1285.41 76.084 1276.35 50.9922 1380.01 -30.2499Z" stroke="#9FC5EF" stroke-width="3"/>
<path opacity="0.7" d="M1375.9 9.92193C1447.59 -46.2474 1517.85 32.2308 1514.68 113.13C1513.21 168.179 1566.64 190.293 1568.67 244.45C1571.57 322.468 1504.13 287.263 1496.96 369.048C1487.97 455.352 1344.86 493.398 1308.18 405.719C1274.51 325.49 1251.88 361.413 1180.63 306.479C1109.37 251.545 1126.93 119.891 1218.95 105.152C1290.18 98.8234 1290.02 77.8046 1375.9 9.92193Z" stroke="#9FC5EF" stroke-width="3"/>
<path opacity="0.8" d="M1371.7 50.1476C1426 7.13667 1489.76 66.3329 1486.3 131.846C1484.08 179.15 1526.49 201.44 1528.08 244.243C1530.67 313.889 1480.47 285.956 1471.85 350.031C1461.19 419.192 1346.31 457.081 1314.07 379.394C1285.23 310.089 1264.37 341.88 1208.68 294.789C1152.98 247.699 1165.04 144.152 1241.64 128.154C1294.86 121.617 1303.6 104.671 1371.7 50.1476Z" stroke="#9FC5EF" stroke-width="3"/>
<path d="M1367.33 90.4412C1404.25 60.5887 1461.51 100.503 1457.76 150.63C1454.79 190.189 1486.17 212.654 1487.33 244.103C1489.6 305.378 1456.65 284.716 1446.58 331.083C1434.24 383.1 1347.59 420.831 1319.8 353.137C1295.78 294.757 1276.7 322.414 1236.56 283.167C1196.41 243.92 1202.98 168.48 1264.17 151.223C1299.37 144.478 1317.01 131.605 1367.33 90.4412Z" stroke="#9FC5EF" stroke-width="3"/>
</g>
<path d="M1393 64L1395.14 86.8263L1412.8 72.201L1398.17 89.857L1421 92L1398.17 94.143L1412.8 111.799L1395.14 97.1737L1393 120L1390.86 97.1737L1373.2 111.799L1387.83 94.143L1365 92L1387.83 89.857L1373.2 72.201L1390.86 86.8263L1393 64Z" fill="#FF8B13"/>
<path d="M1303 909.732C1293.19 910.583 1287.56 911.367 1284.1 913.955C1280.03 916.986 1279.07 922.537 1278 933.639C1276.89 922.128 1275.9 916.611 1271.44 913.648C1267.98 911.332 1262.38 910.583 1253 909.766C1262.77 908.914 1268.44 908.131 1271.87 905.577C1275.97 902.512 1276.93 896.995 1278 885.858C1279 896.109 1279.89 901.592 1283.21 904.76C1286.52 907.927 1292.3 908.812 1303 909.732Z" fill="#F8BF3B"/>
<path d="M224 484.484C216.154 485.166 211.646 485.792 208.879 487.863C205.626 490.288 204.856 494.729 204 503.61C203.116 494.402 202.317 489.988 198.75 487.618C195.983 485.765 191.504 485.166 184 484.512C191.817 483.831 196.354 483.204 199.093 481.161C202.374 478.709 203.144 474.295 204 465.386C204.799 473.586 205.512 477.973 208.165 480.507C210.819 483.041 215.441 483.749 224 484.484Z" fill="#F6B0A8"/>
</g>
<defs>
<clipPath id="clip0_567_562">
<rect width="1695" height="1012" rx="60" fill="white"/>
</clipPath>
</defs>
</svg>
