<svg width="939" height="747" viewBox="0 0 1039 937" fill="none" xmlns="http://www.w3.org/2000/svg">
<g opacity="0.08">
<path opacity="0.3" d="M457.961 101.01C659.567 -53.4328 776.526 169.218 775.736 364.366C780.015 476.309 915.567 496.119 920.785 634.828C926.004 773.536 729.534 684.208 733.734 897.98C737.934 1111.75 384.981 1149.35 315.862 988.994C246.743 828.632 211.517 894.631 24.3019 782.048C-162.913 669.465 -104.091 328.399 101.94 323.938C307.971 319.477 239.719 268.196 457.961 101.01Z" stroke="#9FC5EF" stroke-width="3"/>
<path d="M422.26 520.78C440.951 504.809 489.515 524.548 485.644 557.784C482.099 588.219 501.557 609.879 502.265 629.104C504.129 679.715 489.094 666.904 478.082 694.321C464.681 727.684 408.788 763.629 386.455 708.428C368.088 663.029 351.533 685.534 328.009 655.49C304.485 625.447 305.519 580.165 349.304 562.451C365.747 555.799 391.128 547.38 422.26 520.78Z" stroke="#9FC5EF" stroke-width="3"/>
<path opacity="0.35" d="M455.814 138.72C640.792 -3.13397 751.533 201.071 750.463 381.499C754.031 486.032 879.029 506.011 883.837 633.857C888.751 764.556 708.775 682.185 711.592 879.015C714.192 1076.39 388.244 1113.84 323.379 963.037C258.874 813.127 225.345 875.171 53.0109 770.092C-119.323 665.013 -65.7543 350.837 125.527 345.171C314.323 340.51 254.583 293.126 455.814 138.72Z" stroke="#9FC5EF" stroke-width="3"/>
<path opacity="0.4" d="M453.668 176.425C622.017 47.1594 726.54 232.917 725.19 398.627C728.046 495.75 842.491 515.897 846.889 632.881C851.498 755.571 688.016 680.156 689.45 860.045C690.45 1041.01 391.508 1078.32 330.896 937.076C271.004 797.616 239.173 855.707 81.7198 758.131C-75.7335 660.555 -27.418 373.269 149.114 366.398C320.674 361.538 269.446 318.05 453.668 176.425Z" stroke="#9FC5EF" stroke-width="3"/>
<path opacity="0.45" d="M451.525 214.142C603.245 97.4641 701.551 264.775 699.921 415.766C702.066 505.479 805.956 525.794 809.945 631.916C814.249 746.597 667.261 678.138 667.312 841.085C666.711 1005.65 394.775 1042.81 338.416 911.125C283.138 782.117 253.005 836.253 110.433 746.181C-32.1397 656.109 10.9223 395.712 172.704 387.636C327.029 382.577 284.314 342.986 451.525 214.142Z" stroke="#9FC5EF" stroke-width="3"/>
<path opacity="0.5" d="M449.377 251.848C584.468 147.759 676.556 296.623 674.646 432.894C676.08 515.198 769.416 535.681 772.994 630.94C776.993 737.613 646.5 676.11 645.168 822.116C642.967 970.285 398.036 1007.29 345.931 885.164C295.267 766.607 266.83 816.79 139.139 734.221C11.448 651.653 49.2564 418.145 196.289 408.864C333.379 403.606 299.175 367.912 449.377 251.848Z" stroke="#9FC5EF" stroke-width="3"/>
<path opacity="0.55" d="M446.471 289.872C564.934 198.371 650.804 328.789 648.614 450.341C649.336 525.234 732.118 545.886 735.287 630.283C738.98 728.947 624.981 674.4 622.266 803.465C618.465 935.232 400.54 972.082 352.688 859.521C306.638 751.415 279.899 797.644 167.088 722.579C54.2783 647.514 86.8331 440.896 219.116 430.41C338.97 424.953 313.279 393.155 446.471 289.872Z" stroke="#9FC5EF" stroke-width="3"/>
<path opacity="0.6" d="M442.66 328.248C544.494 249.335 624.147 361.307 621.676 468.139C621.687 535.623 693.916 556.443 696.674 629.978C700.063 720.633 602.557 673.042 598.459 785.166C593.059 900.532 402.139 937.231 358.54 834.231C317.103 736.576 292.062 778.85 194.133 711.289C96.2036 643.728 123.505 463.999 241.038 452.309C343.657 446.652 326.478 418.751 442.66 328.248Z" stroke="#9FC5EF" stroke-width="3"/>
<path opacity="0.65" d="M438.822 366.651C524.028 300.327 597.463 393.852 594.712 485.965C594.012 546.039 655.686 567.027 658.035 629.7C661.118 712.346 580.107 671.711 574.626 766.893C567.626 865.859 403.711 902.408 364.365 808.967C327.543 721.763 304.199 760.084 221.15 700.026C138.102 639.968 160.15 487.129 262.934 474.234C348.318 468.378 339.65 444.373 438.822 366.651Z" stroke="#9FC5EF" stroke-width="3"/>
<path opacity="0.7" d="M434.895 405.082C503.472 351.346 570.689 426.424 567.658 503.818C566.247 556.482 617.367 577.638 619.305 629.449C622.084 704.087 557.567 670.408 550.703 748.648C542.103 831.214 405.194 867.611 370.101 783.731C337.892 706.978 316.246 741.344 248.078 688.79C179.911 636.236 196.705 510.286 284.74 496.186C352.888 490.131 352.733 470.023 434.895 405.082Z" stroke="#9FC5EF" stroke-width="3"/>
<path opacity="0.8" d="M430.872 443.564C482.82 402.416 543.82 459.048 540.509 521.723C538.386 566.977 578.953 588.301 580.481 629.25C582.954 695.879 534.931 669.156 526.685 730.455C516.484 796.62 406.58 832.867 375.741 758.546C348.146 692.244 328.197 722.657 274.911 677.607C221.625 632.556 233.165 533.495 306.45 518.191C357.363 511.937 365.72 495.725 430.872 443.564Z" stroke="#9FC5EF" stroke-width="3"/>
<path d="M426.69 482.112C462.01 453.553 516.792 491.738 513.201 539.693C510.367 577.538 540.379 599.03 541.497 629.117C543.666 687.737 512.137 667.97 502.508 712.328C490.707 762.092 407.809 798.188 381.223 733.427C358.242 677.576 339.99 704.035 301.585 666.488C263.179 628.942 269.466 556.77 328.001 540.261C361.679 533.808 378.549 521.493 426.69 482.112Z" stroke="#9FC5EF" stroke-width="3"/>
</g>
</svg>
